<svg width="80" height="80" viewBox="0 0 80 80" fill="none" xmlns="http://www.w3.org/2000/svg">
<mask id="mask0_166_3653" style="mask-type:luminance" maskUnits="userSpaceOnUse" x="0" y="0" width="80" height="80">
<path d="M78.357 79.128V1.56592H0.794922V79.128H78.357Z" fill="white" stroke="white" stroke-width="1.5"/>
</mask>
<g mask="url(#mask0_166_3653)">
<path d="M48.8612 50.4969C53.1471 47.7028 55.9707 43.0454 55.8681 37.7991L55.7475 31.6224M23.4067 31.6224L23.2859 37.7991C23.1837 43.0263 25.9862 47.6689 30.2457 50.4662" stroke="#837550" stroke-width="1.5" stroke-miterlimit="22.926" stroke-linecap="round" stroke-linejoin="round"/>
<path d="M32.6286 19.2686H19.5024C17.8038 19.2686 16.4141 17.8788 16.4141 16.1802C16.4141 14.4816 17.8038 13.0919 19.5024 13.0919H59.6511C61.3497 13.0919 62.7395 14.4816 62.7395 16.1802C62.7395 17.8788 61.3497 19.2686 59.6511 19.2686H46.5262" stroke="#837550" stroke-width="1.5" stroke-miterlimit="22.926" stroke-linecap="round" stroke-linejoin="round"/>
<path d="M18.4949 19.4952C18.3169 20.2639 18.1636 21.038 18.0354 21.8165C13.9232 46.6929 7.14844 58.1047 7.14844 78.3335H72.0049C72.0049 58.1047 65.2303 46.6929 61.118 21.8165C60.99 21.038 60.8368 20.2638 60.6586 19.4952M20.8876 12.8652C24.2782 6.3711 30.3067 2.35978 39.5767 2.35978C48.8469 2.35978 54.8755 6.3711 58.2661 12.8652" stroke="#837550" stroke-width="1.5" stroke-miterlimit="22.926" stroke-linecap="round" stroke-linejoin="round"/>
<path d="M24.4969 78.1865C19.5083 60.3148 19.8104 44.4372 23.4063 31.6222C24.7377 26.8771 34.0605 25.4455 39.5765 25.4455C45.0926 25.4455 54.4154 26.8771 55.747 31.6222C59.3397 44.4262 59.6442 60.2873 54.6691 78.1399" stroke="#837550" stroke-width="1.5" stroke-miterlimit="22.926" stroke-linecap="round" stroke-linejoin="round"/>
<path d="M33.3989 43.2036H45.7524C47.451 43.2036 48.8407 44.5934 48.8407 46.292V50.9245C48.8407 54.4761 44.6716 58.6454 39.5756 58.6454C34.4798 58.6454 30.3105 54.4761 30.3105 50.9245V46.292C30.3105 44.5934 31.7003 43.2036 33.3989 43.2036Z" stroke="#837550" stroke-width="1.5" stroke-miterlimit="22.926" stroke-linecap="round" stroke-linejoin="round"/>
<path d="M45.7529 36.2545H45.7541" stroke="#837550" stroke-width="1.5" stroke-miterlimit="22.926" stroke-linecap="round" stroke-linejoin="round"/>
<path d="M33.3984 36.2545H33.3999" stroke="#837550" stroke-width="1.5" stroke-miterlimit="22.926" stroke-linecap="round" stroke-linejoin="round"/>
<path d="M42.5105 49.3806C41.6184 49.8956 40.6066 50.1668 39.5765 50.1668C38.5465 50.1668 37.5346 49.8956 36.6426 49.3806" stroke="#837550" stroke-width="1.5" stroke-miterlimit="22.926" stroke-linecap="round" stroke-linejoin="round"/>
<path d="M33.1956 56.1607C29.5121 57.7831 23.1623 59.3207 21.2139 60.6463" stroke="#837550" stroke-width="1.5" stroke-miterlimit="22.926" stroke-linecap="round" stroke-linejoin="round"/>
<path d="M46.1348 56.1607C49.8183 57.7831 55.9905 59.3207 57.939 60.6463" stroke="#837550" stroke-width="1.5" stroke-miterlimit="22.926" stroke-linecap="round" stroke-linejoin="round"/>
<path d="M25.0801 59.3986C28.012 64.6538 33.5584 67.9106 39.5762 67.9106C45.5941 67.9106 51.1406 64.6538 54.0725 59.3986" stroke="#837550" stroke-width="1.5" stroke-miterlimit="22.926" stroke-linecap="round" stroke-linejoin="round"/>
<path d="M39.5762 19.2686H39.5776" stroke="#837550" stroke-width="1.5" stroke-miterlimit="2.613" stroke-linecap="round" stroke-linejoin="round"/>
</g>
</svg>
