<svg width="30" height="26" viewBox="0 0 30 26" fill="none" xmlns="http://www.w3.org/2000/svg">
<path d="M20.5 13C20.5 15.7654 18.0419 18 15 18C11.9581 18 9.5 15.7654 9.5 13C9.5 10.2346 11.9581 8 15 8C18.0419 8 20.5 10.2346 20.5 13Z" stroke="#837550" stroke-linecap="round" stroke-linejoin="round"/>
<path d="M15 25C20.231 25 25.1063 21.9837 28.4997 16.7631C29.8334 14.7184 29.8334 11.2816 28.4997 9.23686C25.1063 4.01631 20.231 1 15 1C9.76903 1 4.89371 4.01631 1.50026 9.23686C0.166581 11.2816 0.166581 14.7184 1.50026 16.7631C4.89371 21.9837 9.76903 25 15 25Z" stroke="#837550" stroke-linecap="round" stroke-linejoin="round"/>
</svg>
