<svg width="83" height="67" viewBox="0 0 83 67" fill="none" xmlns="http://www.w3.org/2000/svg">
<path d="M74.2653 48.2196V60.6628C74.2653 63.7171 71.9216 66.1931 69.0305 66.1931H6.21143C3.32032 66.1931 0.976562 63.7171 0.976562 60.6628V21.9504C0.976562 18.8962 3.32032 16.4201 6.21143 16.4201H69.0305C71.9216 16.4201 74.2653 18.8962 74.2653 21.9504V42.6892" stroke="#837550" stroke-width="1.5" stroke-miterlimit="10" stroke-linecap="round" stroke-linejoin="round"/>
<path d="M6.10938 10.8898C6.96801 9.79247 8.1953 9.08874 9.53412 8.92603L71.9314 1.24956C74.8031 0.896282 77.4023 3.06916 77.7367 6.1031L81.9755 44.5556C82.3099 47.5893 80.2531 50.3353 77.3813 50.6885L74.267 51.0716M8.83042 49.6022H19.3003M8.83042 56.5153H35.0049M24.5352 49.6022H35.0049M40.2399 49.6022H50.7097M55.9447 49.6022H66.4144M14.0653 37.159H16.6828M19.3003 42.6893H11.4479C10.0024 42.6893 8.83042 41.4514 8.83042 39.9241V34.3938C8.83042 32.8666 10.0022 31.6285 11.4479 31.6285H19.3003C20.7459 31.6285 21.9178 32.8665 21.9178 34.3938V39.9241C21.9177 41.4514 20.7459 42.6893 19.3003 42.6893Z" stroke="#837550" stroke-width="1.5" stroke-miterlimit="10" stroke-linecap="round" stroke-linejoin="round"/>
<path d="M62.4053 38.5415C63.288 36.6671 63.7969 34.559 63.7969 32.3198C63.7969 30.0806 63.288 27.9723 62.4053 26.0981M57.7119 36.0448C58.243 34.9209 58.562 33.6638 58.562 32.3198C58.562 30.9758 58.243 29.7187 57.7119 28.5948M53.0371 33.5579C53.2169 33.185 53.327 32.7683 53.327 32.3198C53.327 31.8711 53.2169 31.4546 53.0371 31.0817" stroke="#837550" stroke-width="1.5" stroke-miterlimit="10" stroke-linecap="round" stroke-linejoin="round"/>
</svg>
