<svg width="83" height="80" viewBox="0 0 94 94" fill="none" xmlns="http://www.w3.org/2000/svg">
<mask id="mask0_157_2291" style="mask-type:luminance" maskUnits="userSpaceOnUse" x="0" y="0" width="94" height="94">
<path d="M92.9548 93.0522V1.14819H1.05078V93.0522H92.9548Z" fill="white" stroke="white" stroke-width="1.5"/>
</mask>
<g mask="url(#mask0_157_2291)">
<path d="M31.7973 59.7385C33.6539 58.261 33.9538 55.5388 32.4749 53.6893C30.9906 51.8347 28.2655 51.535 26.4142 53.0125L19.5831 58.473C17.7265 59.9503 17.4268 62.678 18.9055 64.5273C20.3845 66.3768 23.1149 66.6816 24.9662 65.199" stroke="#837550" stroke-width="1.5" stroke-miterlimit="10" stroke-linecap="round" stroke-linejoin="round"/>
<path d="M30.3525 71.9248C28.4961 73.4074 28.1962 76.13 29.6752 77.9793C31.1541 79.8339 33.8844 80.1334 35.7358 78.6559L42.5669 73.1956C44.4233 71.7181 44.7233 68.9906 43.2443 67.1411C41.7602 65.2918 39.0351 64.987 37.1836 66.4696" stroke="#837550" stroke-width="1.5" stroke-miterlimit="10" stroke-linecap="round" stroke-linejoin="round"/>
<path d="M35.7367 78.656C33.8854 80.1335 33.5804 82.8612 35.0643 84.7105C36.5434 86.5598 39.2686 86.8646 41.125 85.382L44.9465 82.3238C46.7978 80.8465 47.103 78.1239 45.6239 76.2746C44.14 74.42 41.4147 74.1204 39.5634 75.5978" stroke="#837550" stroke-width="1.5" stroke-miterlimit="10" stroke-linecap="round" stroke-linejoin="round"/>
<path d="M64.1524 61.2986L69.034 65.199C70.8851 66.6816 71.1903 69.4041 69.7114 71.2534C68.2271 73.1027 65.5018 73.4076 63.6507 71.925L58.3555 67.6993" stroke="#837550" stroke-width="1.5" stroke-miterlimit="10" stroke-linecap="round" stroke-linejoin="round"/>
<path d="M58.356 67.6991L63.6512 71.9247C65.5025 73.4073 65.8077 76.1299 64.3234 77.9794C62.8445 79.8338 60.1142 80.1334 58.2628 78.656L52.9727 74.4251" stroke="#837550" stroke-width="1.5" stroke-miterlimit="10" stroke-linecap="round" stroke-linejoin="round"/>
<path d="M52.9729 74.4254L55.6153 76.5381C57.4666 78.0207 57.7719 80.7433 56.2927 82.5928C54.8086 84.4474 52.0835 84.7469 50.2322 83.2694L46.3848 80.1957" stroke="#837550" stroke-width="1.5" stroke-miterlimit="10" stroke-linecap="round" stroke-linejoin="round"/>
<path d="M88.361 44.3025L91.5309 49.9024C92.2652 51.2042 91.8049 52.8831 90.4967 53.6064L85.6099 56.3133C84.3015 57.0367 82.6363 56.5821 81.9022 55.2853L67.8157 30.3702C67.0763 29.0682 67.5366 27.3944 68.8448 26.6714L73.7369 23.9643C75.0451 23.2412 76.705 23.6907 77.4395 24.9923L80.299 30.0447" stroke="#837550" stroke-width="1.5" stroke-miterlimit="10" stroke-linecap="round" stroke-linejoin="round"/>
<path d="M74.0762 58.1938C75.2293 55.704 77.7426 53.8597 80.6281 53.0331" stroke="#837550" stroke-width="1.5" stroke-miterlimit="10" stroke-linecap="round" stroke-linejoin="round"/>
<path d="M69.034 65.199C70.8851 66.6816 73.6156 66.3768 75.0947 64.5273C76.5786 62.6782 76.2737 59.9503 74.4223 58.473L68.5013 53.7409C65.626 51.4473 62.3786 48.9056 59.2966 46.6946C53.722 42.7014 50.9762 40.0461 43.9899 41.4512C38.71 42.5155 34.4386 40.9035 33.3269 36.3319C32.6132 33.3924 35.1159 32.0234 40.0753 31.5843L47.9873 30.8765C49.5489 30.7371 50.4796 30.5926 53.0083 31.4759L57.7814 33.1444C61.0082 34.2706 60.5738 34.5701 63.9298 33.5991L68.8324 32.1785" stroke="#837550" stroke-width="1.5" stroke-miterlimit="10" stroke-linecap="round" stroke-linejoin="round"/>
<path d="M25.1567 26.6714L20.27 23.9643C18.9618 23.2412 17.2966 23.6907 16.5623 24.9925L2.47598 49.9026C1.73641 51.2044 2.19686 52.8833 3.50488 53.6064L8.39181 56.3133C9.70001 57.0367 11.3652 56.5821 12.0995 55.2855L26.186 30.3702C26.9252 29.0684 26.4651 27.3946 25.1567 26.6714Z" stroke="#837550" stroke-width="1.5" stroke-miterlimit="10" stroke-linecap="round" stroke-linejoin="round"/>
<path d="M33.3431 34.5182L25.1777 32.1523" stroke="#837550" stroke-width="1.5" stroke-miterlimit="10" stroke-linecap="round" stroke-linejoin="round"/>
<path d="M19.9282 58.1938C18.7697 55.704 16.2566 53.8597 13.3711 53.0331" stroke="#837550" stroke-width="1.5" stroke-miterlimit="10" stroke-linecap="round" stroke-linejoin="round"/>
<path d="M47 17.1709V7.87753" stroke="#837550" stroke-width="1.5" stroke-miterlimit="10" stroke-linecap="round" stroke-linejoin="round"/>
<path d="M34.8278 21.0201L29.9668 13.3075" stroke="#837550" stroke-width="1.5" stroke-miterlimit="10" stroke-linecap="round" stroke-linejoin="round"/>
<path d="M59.1777 21.0201L64.0335 13.3075" stroke="#837550" stroke-width="1.5" stroke-miterlimit="10" stroke-linecap="round" stroke-linejoin="round"/>
<path d="M24.9651 65.199L34.806 57.3364C36.6573 55.8591 39.3877 56.1638 40.8666 58.013C42.3456 59.8625 42.0457 62.5851 40.1893 64.0677L30.3536 71.925C28.4972 73.4076 25.772 73.1027 24.2929 71.2534C22.8088 69.4041 23.114 66.6816 24.9651 65.199Z" stroke="#837550" stroke-width="1.5" stroke-miterlimit="10" stroke-linecap="round" stroke-linejoin="round"/>
<path d="M84.3203 37.1789V37.1723" stroke="#837550" stroke-width="1.5" stroke-miterlimit="10" stroke-linecap="round" stroke-linejoin="round"/>
</g>
</svg>
