<svg width="755" height="281" viewBox="0 0 755 281" fill="none" xmlns="http://www.w3.org/2000/svg">
<path d="M0 24C0 10.7452 10.7452 0 24 0H731C744.255 0 755 10.7452 755 24V257C755 270.255 744.255 281 731 281H24C10.7451 281 0 270.255 0 257V24Z" fill="url(#paint0_linear_200_2892)"/>
<path opacity="0.5" d="M551.609 236V252H549.188V238.422H549.094L545.266 240.922V238.609L549.258 236H551.609ZM561.508 252.219C560.435 252.219 559.477 252.034 558.633 251.664C557.794 251.294 557.13 250.781 556.641 250.125C556.156 249.464 555.896 248.698 555.859 247.828H558.313C558.344 248.302 558.503 248.714 558.789 249.062C559.081 249.406 559.461 249.672 559.93 249.859C560.398 250.047 560.919 250.141 561.492 250.141C562.122 250.141 562.68 250.031 563.164 249.812C563.654 249.594 564.036 249.289 564.313 248.898C564.589 248.503 564.727 248.047 564.727 247.531C564.727 246.995 564.589 246.523 564.313 246.117C564.042 245.706 563.643 245.383 563.117 245.148C562.596 244.914 561.966 244.797 561.227 244.797H559.875V242.828H561.227C561.82 242.828 562.341 242.721 562.789 242.508C563.242 242.294 563.596 241.997 563.852 241.617C564.107 241.232 564.234 240.781 564.234 240.266C564.234 239.771 564.122 239.341 563.898 238.977C563.68 238.607 563.367 238.318 562.961 238.109C562.56 237.901 562.086 237.797 561.539 237.797C561.018 237.797 560.531 237.893 560.078 238.086C559.63 238.273 559.266 238.544 558.984 238.898C558.703 239.247 558.552 239.667 558.531 240.156H556.195C556.221 239.292 556.477 238.531 556.961 237.875C557.451 237.219 558.096 236.706 558.898 236.336C559.701 235.966 560.591 235.781 561.57 235.781C562.596 235.781 563.482 235.982 564.227 236.383C564.977 236.779 565.555 237.307 565.961 237.969C566.372 238.63 566.576 239.354 566.57 240.141C566.576 241.036 566.326 241.797 565.82 242.422C565.32 243.047 564.654 243.466 563.82 243.68V243.805C564.883 243.966 565.706 244.388 566.289 245.07C566.878 245.753 567.169 246.599 567.164 247.609C567.169 248.49 566.924 249.279 566.43 249.977C565.94 250.674 565.271 251.224 564.422 251.625C563.573 252.021 562.602 252.219 561.508 252.219Z" fill="black"/>
<rect x="518" y="19" width="64" height="254" rx="10" fill="#EDE6D6"/>
<path d="M707 51V219" stroke="#CEC6AF" stroke-dasharray="6 6"/>
<path d="M610 51V219" stroke="#CEC6AF" stroke-dasharray="6 6"/>
<path d="M517 51V219" stroke="#CEC6AF" stroke-dasharray="6 6"/>
<path d="M423 51V219" stroke="#CEC6AF" stroke-dasharray="6 6"/>
<path d="M330 51V219" stroke="#CEC6AF" stroke-dasharray="6 6"/>
<path d="M537.109 51.2187C536.036 51.2187 535.078 51.0339 534.234 50.6641C533.396 50.2943 532.732 49.7812 532.242 49.125C531.758 48.4635 531.497 47.6979 531.461 46.8281H533.914C533.945 47.3021 534.104 47.7135 534.391 48.0625C534.682 48.4062 535.063 48.6719 535.531 48.8594C536 49.0469 536.521 49.1406 537.094 49.1406C537.724 49.1406 538.281 49.0312 538.766 48.8125C539.255 48.5937 539.638 48.2891 539.914 47.8984C540.19 47.5026 540.328 47.0469 540.328 46.5312C540.328 45.9948 540.19 45.5234 539.914 45.1172C539.643 44.7057 539.245 44.3828 538.719 44.1484C538.198 43.9141 537.568 43.7969 536.828 43.7969H535.477V41.8281H536.828C537.422 41.8281 537.943 41.7214 538.391 41.5078C538.844 41.2943 539.198 40.9974 539.453 40.6172C539.708 40.2318 539.836 39.7812 539.836 39.2656C539.836 38.7708 539.724 38.3411 539.5 37.9766C539.281 37.6068 538.969 37.3177 538.563 37.1094C538.161 36.901 537.688 36.7969 537.141 36.7969C536.62 36.7969 536.133 36.8932 535.68 37.0859C535.232 37.2734 534.867 37.5443 534.586 37.8984C534.305 38.2474 534.154 38.6667 534.133 39.1562H531.797C531.823 38.2917 532.078 37.5312 532.563 36.875C533.052 36.2187 533.698 35.7057 534.5 35.3359C535.302 34.9661 536.193 34.7812 537.172 34.7812C538.198 34.7812 539.083 34.9818 539.828 35.3828C540.578 35.7786 541.156 36.3073 541.563 36.9687C541.974 37.6302 542.177 38.3542 542.172 39.1406C542.177 40.0365 541.927 40.7969 541.422 41.4219C540.922 42.0469 540.255 42.4661 539.422 42.6797V42.8047C540.484 42.9661 541.307 43.388 541.891 44.0703C542.479 44.7526 542.771 45.599 542.766 46.6094C542.771 47.4896 542.526 48.2786 542.031 48.9766C541.542 49.6745 540.872 50.224 540.023 50.625C539.174 51.0208 538.203 51.2187 537.109 51.2187ZM551.305 51.2187C550.591 51.2083 549.888 51.0781 549.195 50.8281C548.508 50.5781 547.883 50.1615 547.32 49.5781C546.758 48.9948 546.307 48.2109 545.969 47.2266C545.635 46.2422 545.469 45.013 545.469 43.5391C545.469 42.1432 545.607 40.9036 545.883 39.8203C546.164 38.737 546.568 37.8229 547.094 37.0781C547.62 36.3281 548.255 35.7578 549 35.3672C549.745 34.9766 550.581 34.7812 551.508 34.7812C552.461 34.7812 553.307 34.9687 554.047 35.3437C554.786 35.7187 555.385 36.237 555.844 36.8984C556.307 37.5599 556.602 38.3125 556.727 39.1562H554.344C554.182 38.4896 553.862 37.9453 553.383 37.5234C552.904 37.1016 552.279 36.8906 551.508 36.8906C550.336 36.8906 549.422 37.401 548.766 38.4219C548.115 39.4427 547.786 40.862 547.781 42.6797H547.898C548.174 42.2266 548.513 41.8411 548.914 41.5234C549.32 41.2005 549.773 40.9531 550.273 40.7812C550.779 40.6042 551.31 40.5156 551.867 40.5156C552.794 40.5156 553.633 40.7422 554.383 41.1953C555.138 41.6432 555.74 42.263 556.188 43.0547C556.635 43.8464 556.859 44.7526 556.859 45.7734C556.859 46.7943 556.628 47.7187 556.164 48.5469C555.706 49.375 555.06 50.0312 554.227 50.5156C553.393 50.9948 552.419 51.2292 551.305 51.2187ZM551.297 49.1875C551.911 49.1875 552.461 49.0365 552.945 48.7344C553.43 48.4323 553.813 48.026 554.094 47.5156C554.375 47.0052 554.516 46.4349 554.516 45.8047C554.516 45.1901 554.378 44.6302 554.102 44.125C553.831 43.6198 553.456 43.2187 552.977 42.9219C552.503 42.625 551.961 42.4766 551.352 42.4766C550.888 42.4766 550.458 42.5651 550.062 42.7422C549.672 42.9193 549.328 43.1641 549.031 43.4766C548.734 43.7891 548.5 44.1484 548.328 44.5547C548.161 44.9557 548.078 45.3802 548.078 45.8281C548.078 46.4271 548.216 46.9818 548.492 47.4922C548.773 48.0026 549.156 48.4141 549.641 48.7266C550.13 49.0339 550.682 49.1875 551.297 49.1875ZM564.986 51.2187C564.007 51.2187 563.127 51.0312 562.346 50.6562C561.57 50.276 560.95 49.7552 560.486 49.0938C560.023 48.4323 559.775 47.6771 559.744 46.8281H562.088C562.145 47.5156 562.45 48.0807 563.002 48.5234C563.554 48.9661 564.215 49.1875 564.986 49.1875C565.601 49.1875 566.145 49.0469 566.619 48.7656C567.098 48.4792 567.473 48.0859 567.744 47.5859C568.02 47.0859 568.158 46.5156 568.158 45.875C568.158 45.224 568.018 44.6432 567.736 44.1328C567.455 43.6224 567.067 43.2214 566.572 42.9297C566.083 42.638 565.52 42.4896 564.885 42.4844C564.4 42.4844 563.913 42.5677 563.424 42.7344C562.934 42.901 562.538 43.1198 562.236 43.3906L560.025 43.0625L560.924 35H569.721V37.0703H562.932L562.424 41.5469H562.518C562.83 41.2448 563.244 40.9922 563.76 40.7891C564.281 40.5859 564.838 40.4844 565.432 40.4844C566.406 40.4844 567.273 40.7161 568.033 41.1797C568.799 41.6432 569.4 42.276 569.838 43.0781C570.281 43.875 570.499 44.7917 570.494 45.8281C570.499 46.8646 570.265 47.7891 569.791 48.6016C569.322 49.4141 568.671 50.0547 567.838 50.5234C567.01 50.987 566.059 51.2187 564.986 51.2187ZM573.566 35H576.496L581.59 47.4375H581.777L586.871 35H589.801V51H587.504V39.4219H587.355L582.637 50.9766H580.73L576.012 39.4141H575.863V51H573.566V35Z" fill="#837550"/>
<path d="M341.41 90.9943L332.139 129.239C330.718 135.101 330 141.111 330 147.143V194C330 213.882 346.118 230 366 230H671C690.882 230 707 213.882 707 194V58.5691C692.484 70.6124 685.806 91.5444 674.404 103.835C672.083 106.337 669.081 108.056 665.944 109.399L655.978 113.665C640.979 120.086 623.557 114.019 615.792 99.6689C608.299 85.8233 591.75 79.6145 577 85.1148L568.281 88.3656C560.789 91.1593 552.351 89.1197 546.962 83.2122C536.884 72.1658 518.646 76.0242 513.905 90.2054L500.684 129.756C497.88 138.143 486.212 138.658 482.68 130.551C480.727 126.069 475.732 123.754 471.051 125.162L466.488 126.534C459.631 128.597 452.271 125.531 448.906 119.209L440.475 103.372C436.201 95.3422 425.333 93.8252 419.023 100.378C412.915 106.721 402.451 105.537 397.914 97.9905L389.305 83.6701C377.243 63.6064 346.925 68.2426 341.41 90.9943Z" fill="url(#paint1_linear_200_2892)"/>
<path d="M331 138.739L342.094 91.4399C347.424 68.7128 377.692 63.9975 389.684 84.026L398.188 98.2308C402.71 105.784 413.178 106.966 419.271 100.613V100.613C425.565 94.0494 436.436 95.5649 440.695 103.599L449.144 119.537C452.494 125.857 459.849 128.924 466.697 126.855L471.237 125.484C475.921 124.07 480.922 126.388 482.869 130.877V130.877C486.39 138.992 498.069 138.478 500.863 130.085L514.087 90.3614C518.807 76.1806 537.05 72.3291 547.1 83.3916V83.3916C552.481 89.3143 560.928 91.3592 568.422 88.5533L576.324 85.5945C591.436 79.9361 608.393 86.4695 615.801 100.805V100.805C624.138 116.938 644.252 122.85 659.993 113.795L665.441 110.66C668.926 108.656 672.096 106.114 674.544 102.925C686.889 86.8379 691.91 70.8217 706.5 58.6665" stroke="#C69F39" stroke-width="4" stroke-linecap="round"/>
<g filter="url(#filter0_d_200_2892)">
<circle cx="554.5" cy="84.5" r="7.5" fill="#C69F39"/>
<circle cx="554.5" cy="84.5" r="12.5" stroke="white" stroke-width="10"/>
</g>
<path d="M39.424 50V30.32H37.152C36.0213 30.32 35.1253 30.608 34.464 31.184C33.8027 31.7387 33.472 32.7307 33.472 34.16H32.512V31.44C32.512 31.0133 32.5867 30.608 32.736 30.224C32.8853 29.8187 33.152 29.4987 33.536 29.264C33.9413 29.008 34.5067 28.88 35.232 28.88H50.272V30.32H43.584V50H39.424ZM56.9258 50.32C55.3471 50.32 53.9818 49.9787 52.8298 49.296C51.6778 48.592 50.7924 47.6427 50.1738 46.448C49.5551 45.2533 49.2458 43.9307 49.2458 42.48C49.2458 41.008 49.5551 39.6853 50.1738 38.512C50.7924 37.3173 51.6778 36.3787 52.8298 35.696C53.9818 34.992 55.3471 34.64 56.9258 34.64C58.5258 34.64 59.8911 34.992 61.0218 35.696C62.1738 36.3787 63.0591 37.3173 63.6778 38.512C64.2964 39.6853 64.6058 41.008 64.6058 42.48C64.6058 43.9307 64.2964 45.2533 63.6778 46.448C63.0591 47.6427 62.1738 48.592 61.0218 49.296C59.8911 49.9787 58.5258 50.32 56.9258 50.32ZM56.9258 48.88C57.6724 48.88 58.2911 48.6027 58.7818 48.048C59.2938 47.4933 59.6671 46.736 59.9018 45.776C60.1578 44.7947 60.2858 43.696 60.2858 42.48C60.2858 41.2427 60.1578 40.144 59.9018 39.184C59.6671 38.224 59.2938 37.4667 58.7818 36.912C58.2911 36.3573 57.6724 36.08 56.9258 36.08C56.1791 36.08 55.5498 36.3573 55.0378 36.912C54.5471 37.4667 54.1738 38.224 53.9178 39.184C53.6831 40.144 53.5658 41.2427 53.5658 42.48C53.5658 43.696 53.6831 44.7947 53.9178 45.776C54.1738 46.736 54.5471 47.4933 55.0378 48.048C55.5498 48.6027 56.1791 48.88 56.9258 48.88ZM72.982 50.32C71.5313 50.32 70.39 49.9253 69.558 49.136C68.7473 48.3467 68.342 47.184 68.342 45.648V36.4H66.422V34.96H68.342V32.08L69.942 30.16H72.502V34.96H76.022V36.4H72.502V45.84C72.502 47.0347 72.6407 47.8453 72.918 48.272C73.2167 48.6773 73.6327 48.88 74.166 48.88C74.7207 48.88 75.2113 48.784 75.638 48.592C76.0647 48.4 76.4167 48.208 76.694 48.016L77.142 48.912C76.7153 49.296 76.1607 49.6267 75.478 49.904C74.7953 50.1813 73.9633 50.32 72.982 50.32ZM83.4305 50.32C82.5345 50.32 81.7452 50.2133 81.0625 50C80.4012 49.7867 79.8358 49.4987 79.3665 49.136C78.9185 48.752 78.5772 48.2933 78.3425 47.76C78.1078 47.2267 77.9905 46.64 77.9905 46C77.9905 44.976 78.2252 44.112 78.6945 43.408C79.1852 42.6827 80.0598 42.1387 81.3185 41.776C82.5772 41.392 84.3478 41.2 86.6305 41.2H87.1105C87.1105 39.92 86.9932 38.9067 86.7585 38.16C86.5238 37.4133 86.1718 36.88 85.7025 36.56C85.2545 36.24 84.7105 36.08 84.0705 36.08C83.3452 36.08 82.6945 36.2613 82.1185 36.624C81.5425 36.9867 81.1265 37.7653 80.8705 38.96H79.1105C79.1105 38.4053 79.1425 37.84 79.2065 37.264C79.2918 36.688 79.5265 36.1867 79.9105 35.76C80.2945 35.3333 80.9238 35.0453 81.7985 34.896C82.6945 34.7253 83.6652 34.64 84.7105 34.64C85.7558 34.64 86.6838 34.7787 87.4945 35.056C88.3052 35.3333 88.9878 35.7493 89.5425 36.304C90.1185 36.8587 90.5452 37.5627 90.8225 38.416C91.1212 39.248 91.2705 40.2293 91.2705 41.36V50H88.5505L87.4305 48.56H87.2705C86.9932 49.008 86.5238 49.4133 85.8625 49.776C85.2012 50.1387 84.3905 50.32 83.4305 50.32ZM84.3905 48.72C85.0945 48.72 85.6812 48.4853 86.1505 48.016C86.6198 47.5467 86.9398 47.088 87.1105 46.64V42.64H86.6305C85.0945 42.64 83.9852 42.9173 83.3025 43.472C82.6412 44.0267 82.3105 44.8693 82.3105 46C82.3105 46.896 82.4918 47.5787 82.8545 48.048C83.2385 48.496 83.7505 48.72 84.3905 48.72ZM94.9855 50V33.04C94.9855 32.08 94.8468 31.312 94.5695 30.736C94.3135 30.1387 93.7055 29.84 92.7455 29.84H92.4255V28.88H96.2655C97.0122 28.88 97.5882 29.008 97.9935 29.264C98.4202 29.52 98.7188 29.9467 98.8895 30.544C99.0602 31.1413 99.1455 31.9733 99.1455 33.04V50H94.9855ZM117.924 50.544C117.049 50.544 116.185 50.4587 115.332 50.288C114.478 50.1173 113.7 49.872 112.996 49.552C112.292 49.2107 111.726 48.8053 111.299 48.336C110.894 47.8453 110.692 47.3013 110.692 46.704V42.96H111.588C111.929 45.1787 112.612 46.7573 113.636 47.696C114.681 48.6347 116.1 49.104 117.892 49.104C118.702 49.104 119.406 48.9867 120.004 48.752C120.622 48.5173 121.092 48.176 121.412 47.728C121.753 47.2587 121.924 46.6827 121.924 46C121.924 45.0827 121.625 44.3253 121.028 43.728C120.452 43.1093 119.652 42.4907 118.628 41.872L114.692 39.504C113.241 38.6507 112.217 37.776 111.62 36.88C111.022 35.984 110.724 34.9493 110.724 33.776C110.724 32.0907 111.364 30.7573 112.644 29.776C113.945 28.7947 115.694 28.304 117.892 28.304C118.766 28.304 119.63 28.3893 120.484 28.56C121.337 28.7307 122.116 28.9867 122.82 29.328C123.524 29.648 124.078 30.0427 124.484 30.512C124.91 30.9813 125.124 31.5253 125.124 32.144V35.888H124.228C123.865 33.6693 123.182 32.0907 122.18 31.152C121.177 30.2133 119.865 29.744 118.244 29.744C117.476 29.744 116.804 29.872 116.228 30.128C115.673 30.384 115.246 30.7467 114.948 31.216C114.649 31.664 114.5 32.208 114.5 32.848C114.5 33.744 114.798 34.4693 115.396 35.024C116.014 35.5787 116.825 36.1547 117.828 36.752L121.764 39.088C123.214 39.9413 124.27 40.784 124.932 41.616C125.614 42.4267 125.956 43.4187 125.956 44.592C125.956 46.4267 125.262 47.8773 123.876 48.944C122.489 50.0107 120.505 50.544 117.924 50.544ZM133.493 50.32C132.597 50.32 131.808 50.2133 131.125 50C130.464 49.7867 129.898 49.4987 129.429 49.136C128.981 48.752 128.64 48.2933 128.405 47.76C128.17 47.2267 128.053 46.64 128.053 46C128.053 44.976 128.288 44.112 128.757 43.408C129.248 42.6827 130.122 42.1387 131.381 41.776C132.64 41.392 134.41 41.2 136.693 41.2H137.173C137.173 39.92 137.056 38.9067 136.821 38.16C136.586 37.4133 136.234 36.88 135.765 36.56C135.317 36.24 134.773 36.08 134.133 36.08C133.408 36.08 132.757 36.2613 132.181 36.624C131.605 36.9867 131.189 37.7653 130.933 38.96H129.173C129.173 38.4053 129.205 37.84 129.269 37.264C129.354 36.688 129.589 36.1867 129.973 35.76C130.357 35.3333 130.986 35.0453 131.861 34.896C132.757 34.7253 133.728 34.64 134.773 34.64C135.818 34.64 136.746 34.7787 137.557 35.056C138.368 35.3333 139.05 35.7493 139.605 36.304C140.181 36.8587 140.608 37.5627 140.885 38.416C141.184 39.248 141.333 40.2293 141.333 41.36V50H138.613L137.493 48.56H137.333C137.056 49.008 136.586 49.4133 135.925 49.776C135.264 50.1387 134.453 50.32 133.493 50.32ZM134.453 48.72C135.157 48.72 135.744 48.4853 136.213 48.016C136.682 47.5467 137.002 47.088 137.173 46.64V42.64H136.693C135.157 42.64 134.048 42.9173 133.365 43.472C132.704 44.0267 132.373 44.8693 132.373 46C132.373 46.896 132.554 47.5787 132.917 48.048C133.301 48.496 133.813 48.72 134.453 48.72ZM145.048 50V33.04C145.048 32.08 144.909 31.312 144.632 30.736C144.376 30.1387 143.768 29.84 142.808 29.84H142.488V28.88H146.328C147.075 28.88 147.651 29.008 148.056 29.264C148.483 29.52 148.781 29.9467 148.952 30.544C149.123 31.1413 149.208 31.9733 149.208 33.04V50H145.048ZM159.794 50.32C158.301 50.32 156.999 49.9787 155.89 49.296C154.781 48.6133 153.927 47.6853 153.33 46.512C152.733 45.3173 152.434 43.9733 152.434 42.48C152.434 40.7733 152.743 39.344 153.362 38.192C153.981 37.0187 154.823 36.1333 155.89 35.536C156.957 34.9387 158.151 34.64 159.474 34.64C160.797 34.64 161.991 34.9067 163.058 35.44C164.125 35.9733 164.967 36.72 165.586 37.68C166.205 38.64 166.514 39.76 166.514 41.04L166.386 43.056H156.754C156.754 45.168 157.074 46.672 157.714 47.568C158.375 48.4427 159.229 48.88 160.274 48.88C161.383 48.88 162.279 48.624 162.962 48.112C163.666 47.6 164.295 46.9707 164.85 46.224L165.842 46.96C165.543 47.4293 165.138 47.9307 164.626 48.464C164.135 48.976 163.495 49.4133 162.706 49.776C161.938 50.1387 160.967 50.32 159.794 50.32ZM156.754 41.616H162.194C162.194 39.504 161.938 38.0533 161.426 37.264C160.935 36.4747 160.285 36.08 159.474 36.08C159.005 36.08 158.557 36.2507 158.13 36.592C157.725 36.9333 157.394 37.5093 157.138 38.32C156.882 39.1093 156.754 40.208 156.754 41.616ZM174.859 50.32C173.537 50.32 172.449 50.2027 171.595 49.968C170.763 49.7333 170.134 49.4133 169.707 49.008C169.323 48.6453 169.099 48.1227 169.035 47.44C168.971 46.7573 168.939 46.0107 168.939 45.2H170.059C170.23 46.224 170.646 47.0987 171.307 47.824C171.969 48.528 172.939 48.88 174.219 48.88C175.414 48.88 176.246 48.6773 176.715 48.272C177.185 47.8453 177.419 47.3227 177.419 46.704C177.419 46.0853 177.142 45.5947 176.587 45.232C176.033 44.848 175.35 44.4747 174.539 44.112L172.875 43.408C171.595 42.8533 170.593 42.224 169.867 41.52C169.142 40.816 168.779 39.9413 168.779 38.896C168.779 37.5093 169.355 36.4533 170.507 35.728C171.659 35.0027 173.11 34.64 174.859 34.64C176.182 34.64 177.259 34.7573 178.091 34.992C178.945 35.2267 179.585 35.5467 180.011 35.952C180.395 36.3147 180.619 36.8373 180.683 37.52C180.747 38.2027 180.779 38.9493 180.779 39.76H179.659C179.489 38.736 179.073 37.872 178.411 37.168C177.75 36.4427 176.779 36.08 175.499 36.08C174.539 36.08 173.846 36.2933 173.419 36.72C172.993 37.1253 172.779 37.6373 172.779 38.256C172.779 38.832 172.982 39.3013 173.387 39.664C173.793 40.0053 174.347 40.3253 175.051 40.624L176.971 41.424C178.443 42.0427 179.553 42.6933 180.299 43.376C181.046 44.0373 181.419 44.9333 181.419 46.064C181.419 47.4507 180.801 48.5067 179.563 49.232C178.326 49.9573 176.758 50.32 174.859 50.32ZM199.332 50.32C197.753 50.32 196.388 49.9787 195.236 49.296C194.084 48.592 193.199 47.6427 192.58 46.448C191.961 45.2533 191.652 43.9307 191.652 42.48C191.652 41.008 191.961 39.6853 192.58 38.512C193.199 37.3173 194.084 36.3787 195.236 35.696C196.388 34.992 197.753 34.64 199.332 34.64C200.932 34.64 202.297 34.992 203.428 35.696C204.58 36.3787 205.465 37.3173 206.084 38.512C206.703 39.6853 207.012 41.008 207.012 42.48C207.012 43.9307 206.703 45.2533 206.084 46.448C205.465 47.6427 204.58 48.592 203.428 49.296C202.297 49.9787 200.932 50.32 199.332 50.32ZM199.332 48.88C200.079 48.88 200.697 48.6027 201.188 48.048C201.7 47.4933 202.073 46.736 202.308 45.776C202.564 44.7947 202.692 43.696 202.692 42.48C202.692 41.2427 202.564 40.144 202.308 39.184C202.073 38.224 201.7 37.4667 201.188 36.912C200.697 36.3573 200.079 36.08 199.332 36.08C198.585 36.08 197.956 36.3573 197.444 36.912C196.953 37.4667 196.58 38.224 196.324 39.184C196.089 40.144 195.972 41.2427 195.972 42.48C195.972 43.696 196.089 44.7947 196.324 45.776C196.58 46.736 196.953 47.4933 197.444 48.048C197.956 48.6027 198.585 48.88 199.332 48.88ZM210.46 50V36.4H208.54V34.96H210.46V34.096C210.46 32.88 210.684 31.8667 211.132 31.056C211.602 30.224 212.295 29.6053 213.212 29.2C214.151 28.7733 215.314 28.56 216.7 28.56C217.255 28.56 217.81 28.6133 218.364 28.72C218.919 28.8053 219.335 28.9333 219.612 29.104C219.89 29.2533 220.124 29.4453 220.316 29.68C220.53 29.9147 220.711 30.1813 220.86 30.48L219.58 31.6C219.26 31.1093 218.866 30.7253 218.396 30.448C217.927 30.1493 217.415 30 216.86 30C216.135 30 215.58 30.2987 215.196 30.896C214.812 31.472 214.62 32.5387 214.62 34.096V34.96H218.78V36.4H214.62V50H210.46ZM34.048 88V71.04C34.048 70.08 33.9093 69.312 33.632 68.736C33.376 68.1387 32.768 67.84 31.808 67.84H31.488V66.88H35.328C36.0747 66.88 36.6507 67.008 37.056 67.264C37.4827 67.52 37.7813 67.9467 37.952 68.544C38.1227 69.1413 38.208 69.9733 38.208 71.04V88H34.048ZM46.618 88.32C45.722 88.32 44.9327 88.2133 44.25 88C43.5887 87.7867 43.0233 87.4987 42.554 87.136C42.106 86.752 41.7647 86.2933 41.53 85.76C41.2953 85.2267 41.178 84.64 41.178 84C41.178 82.976 41.4127 82.112 41.882 81.408C42.3727 80.6827 43.2473 80.1387 44.506 79.776C45.7647 79.392 47.5353 79.2 49.818 79.2H50.298C50.298 77.92 50.1807 76.9067 49.946 76.16C49.7113 75.4133 49.3593 74.88 48.89 74.56C48.442 74.24 47.898 74.08 47.258 74.08C46.5327 74.08 45.882 74.2613 45.306 74.624C44.73 74.9867 44.314 75.7653 44.058 76.96H42.298C42.298 76.4053 42.33 75.84 42.394 75.264C42.4793 74.688 42.714 74.1867 43.098 73.76C43.482 73.3333 44.1113 73.0453 44.986 72.896C45.882 72.7253 46.8527 72.64 47.898 72.64C48.9433 72.64 49.8713 72.7787 50.682 73.056C51.4927 73.3333 52.1753 73.7493 52.73 74.304C53.306 74.8587 53.7327 75.5627 54.01 76.416C54.3087 77.248 54.458 78.2293 54.458 79.36V88H51.738L50.618 86.56H50.458C50.1807 87.008 49.7113 87.4133 49.05 87.776C48.3887 88.1387 47.578 88.32 46.618 88.32ZM47.578 86.72C48.282 86.72 48.8687 86.4853 49.338 86.016C49.8073 85.5467 50.1273 85.088 50.298 84.64V80.64H49.818C48.282 80.64 47.1727 80.9173 46.49 81.472C45.8287 82.0267 45.498 82.8693 45.498 84C45.498 84.896 45.6793 85.5787 46.042 86.048C46.426 86.496 46.938 86.72 47.578 86.72ZM63.453 88.32C62.1303 88.32 61.0423 88.2027 60.189 87.968C59.357 87.7333 58.7277 87.4133 58.301 87.008C57.917 86.6453 57.693 86.1227 57.629 85.44C57.565 84.7573 57.533 84.0107 57.533 83.2H58.653C58.8237 84.224 59.2397 85.0987 59.901 85.824C60.5623 86.528 61.533 86.88 62.813 86.88C64.0077 86.88 64.8397 86.6773 65.309 86.272C65.7783 85.8453 66.013 85.3227 66.013 84.704C66.013 84.0853 65.7357 83.5947 65.181 83.232C64.6263 82.848 63.9437 82.4747 63.133 82.112L61.469 81.408C60.189 80.8533 59.1863 80.224 58.461 79.52C57.7357 78.816 57.373 77.9413 57.373 76.896C57.373 75.5093 57.949 74.4533 59.101 73.728C60.253 73.0027 61.7037 72.64 63.453 72.64C64.7757 72.64 65.853 72.7573 66.685 72.992C67.5383 73.2267 68.1783 73.5467 68.605 73.952C68.989 74.3147 69.213 74.8373 69.277 75.52C69.341 76.2027 69.373 76.9493 69.373 77.76H68.253C68.0823 76.736 67.6663 75.872 67.005 75.168C66.3437 74.4427 65.373 74.08 64.093 74.08C63.133 74.08 62.4397 74.2933 62.013 74.72C61.5863 75.1253 61.373 75.6373 61.373 76.256C61.373 76.832 61.5757 77.3013 61.981 77.664C62.3863 78.0053 62.941 78.3253 63.645 78.624L65.565 79.424C67.037 80.0427 68.1463 80.6933 68.893 81.376C69.6397 82.0373 70.013 82.9333 70.013 84.064C70.013 85.4507 69.3943 86.5067 68.157 87.232C66.9197 87.9573 65.3517 88.32 63.453 88.32ZM78.3258 88.32C76.8751 88.32 75.7338 87.9253 74.9018 87.136C74.0911 86.3467 73.6858 85.184 73.6858 83.648V74.4H71.7658V72.96H73.6858V70.08L75.2858 68.16H77.8458V72.96H81.3658V74.4H77.8458V83.84C77.8458 85.0347 77.9844 85.8453 78.2618 86.272C78.5604 86.6773 78.9764 86.88 79.5098 86.88C80.0644 86.88 80.5551 86.784 80.9818 86.592C81.4084 86.4 81.7604 86.208 82.0378 86.016L82.4858 86.912C82.0591 87.296 81.5044 87.6267 80.8218 87.904C80.1391 88.1813 79.3071 88.32 78.3258 88.32ZM98.8863 88.64C97.1369 88.64 95.7076 88.3307 94.5983 87.712C93.4889 87.0933 92.4863 86.2507 91.5903 85.184L92.5182 84.352C93.3289 85.3547 94.2356 86.08 95.2383 86.528C96.2623 86.976 97.2329 87.2 98.1503 87.2C98.9823 87.2 99.7289 87.0293 100.39 86.688C101.052 86.3253 101.574 85.76 101.958 84.992C102.364 84.2027 102.566 83.1787 102.566 81.92C102.566 80.256 102.118 79.0187 101.222 78.208C100.348 77.3973 99.1103 76.992 97.5103 76.992C96.7849 76.992 96.0383 77.088 95.2703 77.28C94.5236 77.4507 93.9369 77.6 93.5103 77.728L92.2303 76.48L92.5823 66.88H105.03V68.288H96.2943L96.0063 75.68L96.9663 75.616C97.2436 75.5947 97.5423 75.5733 97.8623 75.552C98.1823 75.5307 98.4916 75.52 98.7903 75.52C99.6223 75.52 100.518 75.616 101.478 75.808C102.438 76 103.334 76.3413 104.166 76.832C105.02 77.3013 105.713 77.952 106.246 78.784C106.78 79.616 107.046 80.6613 107.046 81.92C107.046 83.264 106.769 84.3733 106.214 85.248C105.66 86.1227 104.956 86.8053 104.102 87.296C103.249 87.7867 102.353 88.128 101.414 88.32C100.497 88.5333 99.6543 88.64 98.8863 88.64ZM124.803 88V79.552L119.139 71.04C118.776 70.4853 118.35 69.952 117.859 69.44C117.39 68.928 116.899 68.4907 116.387 68.128C115.875 67.7653 115.374 67.5627 114.883 67.52V66.88H118.371C119.182 66.88 119.907 67.0613 120.547 67.424C121.208 67.7867 121.795 68.2347 122.307 68.768C122.819 69.3013 123.246 69.8453 123.587 70.4L127.939 76.96L134.147 66.88H136.227L128.963 78.688V88H124.803ZM142.044 88.32C140.551 88.32 139.249 87.9787 138.14 87.296C137.031 86.6133 136.177 85.6853 135.58 84.512C134.983 83.3173 134.684 81.9733 134.684 80.48C134.684 78.7733 134.993 77.344 135.612 76.192C136.231 75.0187 137.073 74.1333 138.14 73.536C139.207 72.9387 140.401 72.64 141.724 72.64C143.047 72.64 144.241 72.9067 145.308 73.44C146.375 73.9733 147.217 74.72 147.836 75.68C148.455 76.64 148.764 77.76 148.764 79.04L148.636 81.056H139.004C139.004 83.168 139.324 84.672 139.964 85.568C140.625 86.4427 141.479 86.88 142.524 86.88C143.633 86.88 144.529 86.624 145.212 86.112C145.916 85.6 146.545 84.9707 147.1 84.224L148.092 84.96C147.793 85.4293 147.388 85.9307 146.876 86.464C146.385 86.976 145.745 87.4133 144.956 87.776C144.188 88.1387 143.217 88.32 142.044 88.32ZM139.004 79.616H144.444C144.444 77.504 144.188 76.0533 143.676 75.264C143.185 74.4747 142.535 74.08 141.724 74.08C141.255 74.08 140.807 74.2507 140.38 74.592C139.975 74.9333 139.644 75.5093 139.388 76.32C139.132 77.1093 139.004 78.208 139.004 79.616ZM156.149 88.32C155.253 88.32 154.464 88.2133 153.781 88C153.12 87.7867 152.555 87.4987 152.085 87.136C151.637 86.752 151.296 86.2933 151.061 85.76C150.827 85.2267 150.709 84.64 150.709 84C150.709 82.976 150.944 82.112 151.413 81.408C151.904 80.6827 152.779 80.1387 154.037 79.776C155.296 79.392 157.067 79.2 159.349 79.2H159.829C159.829 77.92 159.712 76.9067 159.477 76.16C159.243 75.4133 158.891 74.88 158.421 74.56C157.973 74.24 157.429 74.08 156.789 74.08C156.064 74.08 155.413 74.2613 154.837 74.624C154.261 74.9867 153.845 75.7653 153.589 76.96H151.829C151.829 76.4053 151.861 75.84 151.925 75.264C152.011 74.688 152.245 74.1867 152.629 73.76C153.013 73.3333 153.643 73.0453 154.517 72.896C155.413 72.7253 156.384 72.64 157.429 72.64C158.475 72.64 159.403 72.7787 160.213 73.056C161.024 73.3333 161.707 73.7493 162.261 74.304C162.837 74.8587 163.264 75.5627 163.541 76.416C163.84 77.248 163.989 78.2293 163.989 79.36V88H161.269L160.149 86.56H159.989C159.712 87.008 159.243 87.4133 158.581 87.776C157.92 88.1387 157.109 88.32 156.149 88.32ZM157.109 86.72C157.813 86.72 158.4 86.4853 158.869 86.016C159.339 85.5467 159.659 85.088 159.829 84.64V80.64H159.349C157.813 80.64 156.704 80.9173 156.021 81.472C155.36 82.0267 155.029 82.8693 155.029 84C155.029 84.896 155.211 85.5787 155.573 86.048C155.957 86.496 156.469 86.72 157.109 86.72ZM168.216 88V77.12C168.216 76.16 168.088 75.392 167.832 74.816C167.576 74.2187 166.968 73.92 166.008 73.92H165.688V72.96H168.856C169.582 72.96 170.147 73.056 170.552 73.248C170.979 73.4187 171.31 73.7173 171.544 74.144C171.928 73.8027 172.451 73.472 173.112 73.152C173.795 72.8107 174.616 72.64 175.576 72.64C176.046 72.64 176.472 72.6933 176.856 72.8C177.24 72.9067 177.571 73.0667 177.848 73.28C178.211 73.536 178.478 73.8453 178.648 74.208C178.84 74.5707 178.936 74.7413 178.936 74.72L177.304 75.968C177.112 75.6907 176.824 75.4133 176.44 75.136C176.078 74.8587 175.63 74.72 175.096 74.72C174.414 74.72 173.838 74.816 173.368 75.008C172.899 75.2 172.526 75.4347 172.248 75.712C172.291 76.096 172.323 76.4053 172.344 76.64C172.366 76.8747 172.376 77.0773 172.376 77.248V88H168.216ZM186.359 88.32C185.037 88.32 183.949 88.2027 183.095 87.968C182.263 87.7333 181.634 87.4133 181.207 87.008C180.823 86.6453 180.599 86.1227 180.535 85.44C180.471 84.7573 180.439 84.0107 180.439 83.2H181.559C181.73 84.224 182.146 85.0987 182.807 85.824C183.469 86.528 184.439 86.88 185.719 86.88C186.914 86.88 187.746 86.6773 188.215 86.272C188.685 85.8453 188.919 85.3227 188.919 84.704C188.919 84.0853 188.642 83.5947 188.087 83.232C187.533 82.848 186.85 82.4747 186.039 82.112L184.375 81.408C183.095 80.8533 182.093 80.224 181.367 79.52C180.642 78.816 180.279 77.9413 180.279 76.896C180.279 75.5093 180.855 74.4533 182.007 73.728C183.159 73.0027 184.61 72.64 186.359 72.64C187.682 72.64 188.759 72.7573 189.591 72.992C190.445 73.2267 191.085 73.5467 191.511 73.952C191.895 74.3147 192.119 74.8373 192.183 75.52C192.247 76.2027 192.279 76.9493 192.279 77.76H191.159C190.989 76.736 190.573 75.872 189.911 75.168C189.25 74.4427 188.279 74.08 186.999 74.08C186.039 74.08 185.346 74.2933 184.919 74.72C184.493 75.1253 184.279 75.6373 184.279 76.256C184.279 76.832 184.482 77.3013 184.887 77.664C185.293 78.0053 185.847 78.3253 186.551 78.624L188.471 79.424C189.943 80.0427 191.053 80.6933 191.799 81.376C192.546 82.0373 192.919 82.9333 192.919 84.064C192.919 85.4507 192.301 86.5067 191.063 87.232C189.826 87.9573 188.258 88.32 186.359 88.32Z" fill="#837550"/>
<path d="M318.352 245.953H323.102V248H315.648V247.156C315.648 246.583 315.745 246.07 315.938 245.617C316.13 245.159 316.372 244.75 316.664 244.391C316.956 244.026 317.273 243.706 317.617 243.43C317.966 243.148 318.297 242.896 318.609 242.672C318.938 242.438 319.224 242.214 319.469 242C319.719 241.786 319.927 241.576 320.094 241.367C320.266 241.154 320.393 240.94 320.477 240.727C320.56 240.508 320.602 240.276 320.602 240.031C320.602 239.552 320.466 239.19 320.195 238.945C319.924 238.701 319.51 238.578 318.953 238.578C317.99 238.578 317.068 238.961 316.188 239.727V237.555C317.161 236.924 318.26 236.609 319.484 236.609C320.052 236.609 320.56 236.685 321.008 236.836C321.461 236.982 321.844 237.193 322.156 237.469C322.469 237.745 322.706 238.081 322.867 238.477C323.034 238.867 323.117 239.305 323.117 239.789C323.117 240.305 323.036 240.763 322.875 241.164C322.719 241.565 322.508 241.93 322.242 242.258C321.982 242.586 321.68 242.888 321.336 243.164C320.992 243.435 320.635 243.698 320.266 243.953C320.016 244.13 319.773 244.307 319.539 244.484C319.31 244.656 319.107 244.828 318.93 245C318.753 245.167 318.612 245.331 318.508 245.492C318.404 245.654 318.352 245.807 318.352 245.953ZM328.742 248.195C326.076 248.195 324.742 246.323 324.742 242.578C324.742 240.635 325.102 239.156 325.82 238.141C326.544 237.12 327.591 236.609 328.961 236.609C331.565 236.609 332.867 238.513 332.867 242.32C332.867 244.216 332.51 245.669 331.797 246.68C331.089 247.69 330.07 248.195 328.742 248.195ZM328.852 238.492C327.784 238.492 327.25 239.833 327.25 242.516C327.25 245.042 327.773 246.305 328.82 246.305C329.841 246.305 330.352 245.003 330.352 242.398C330.352 239.794 329.852 238.492 328.852 238.492ZM336.758 245.953H341.508V248H334.055V247.156C334.055 246.583 334.151 246.07 334.344 245.617C334.536 245.159 334.779 244.75 335.07 244.391C335.362 244.026 335.68 243.706 336.023 243.43C336.372 243.148 336.703 242.896 337.016 242.672C337.344 242.438 337.63 242.214 337.875 242C338.125 241.786 338.333 241.576 338.5 241.367C338.672 241.154 338.799 240.94 338.883 240.727C338.966 240.508 339.008 240.276 339.008 240.031C339.008 239.552 338.872 239.19 338.602 238.945C338.331 238.701 337.917 238.578 337.359 238.578C336.396 238.578 335.474 238.961 334.594 239.727V237.555C335.568 236.924 336.667 236.609 337.891 236.609C338.458 236.609 338.966 236.685 339.414 236.836C339.867 236.982 340.25 237.193 340.562 237.469C340.875 237.745 341.112 238.081 341.273 238.477C341.44 238.867 341.523 239.305 341.523 239.789C341.523 240.305 341.443 240.763 341.281 241.164C341.125 241.565 340.914 241.93 340.648 242.258C340.388 242.586 340.086 242.888 339.742 243.164C339.398 243.435 339.042 243.698 338.672 243.953C338.422 244.13 338.18 244.307 337.945 244.484C337.716 244.656 337.513 244.828 337.336 245C337.159 245.167 337.018 245.331 336.914 245.492C336.81 245.654 336.758 245.807 336.758 245.953ZM347.148 248.195C344.482 248.195 343.148 246.323 343.148 242.578C343.148 240.635 343.508 239.156 344.227 238.141C344.951 237.12 345.997 236.609 347.367 236.609C349.971 236.609 351.273 238.513 351.273 242.32C351.273 244.216 350.917 245.669 350.203 246.68C349.495 247.69 348.477 248.195 347.148 248.195ZM347.258 238.492C346.19 238.492 345.656 239.833 345.656 242.516C345.656 245.042 346.18 246.305 347.227 246.305C348.247 246.305 348.758 245.003 348.758 242.398C348.758 239.794 348.258 238.492 347.258 238.492Z" fill="#837550"/>
<path d="M405.352 245.953H410.102V248H402.648V247.156C402.648 246.583 402.745 246.07 402.938 245.617C403.13 245.159 403.372 244.75 403.664 244.391C403.956 244.026 404.273 243.706 404.617 243.43C404.966 243.148 405.297 242.896 405.609 242.672C405.938 242.438 406.224 242.214 406.469 242C406.719 241.786 406.927 241.576 407.094 241.367C407.266 241.154 407.393 240.94 407.477 240.727C407.56 240.508 407.602 240.276 407.602 240.031C407.602 239.552 407.466 239.19 407.195 238.945C406.924 238.701 406.51 238.578 405.953 238.578C404.99 238.578 404.068 238.961 403.188 239.727V237.555C404.161 236.924 405.26 236.609 406.484 236.609C407.052 236.609 407.56 236.685 408.008 236.836C408.461 236.982 408.844 237.193 409.156 237.469C409.469 237.745 409.706 238.081 409.867 238.477C410.034 238.867 410.117 239.305 410.117 239.789C410.117 240.305 410.036 240.763 409.875 241.164C409.719 241.565 409.508 241.93 409.242 242.258C408.982 242.586 408.68 242.888 408.336 243.164C407.992 243.435 407.635 243.698 407.266 243.953C407.016 244.13 406.773 244.307 406.539 244.484C406.31 244.656 406.107 244.828 405.93 245C405.753 245.167 405.612 245.331 405.508 245.492C405.404 245.654 405.352 245.807 405.352 245.953ZM415.742 248.195C413.076 248.195 411.742 246.323 411.742 242.578C411.742 240.635 412.102 239.156 412.82 238.141C413.544 237.12 414.591 236.609 415.961 236.609C418.565 236.609 419.867 238.513 419.867 242.32C419.867 244.216 419.51 245.669 418.797 246.68C418.089 247.69 417.07 248.195 415.742 248.195ZM415.852 238.492C414.784 238.492 414.25 239.833 414.25 242.516C414.25 245.042 414.773 246.305 415.82 246.305C416.841 246.305 417.352 245.003 417.352 242.398C417.352 239.794 416.852 238.492 415.852 238.492ZM423.758 245.953H428.508V248H421.055V247.156C421.055 246.583 421.151 246.07 421.344 245.617C421.536 245.159 421.779 244.75 422.07 244.391C422.362 244.026 422.68 243.706 423.023 243.43C423.372 243.148 423.703 242.896 424.016 242.672C424.344 242.438 424.63 242.214 424.875 242C425.125 241.786 425.333 241.576 425.5 241.367C425.672 241.154 425.799 240.94 425.883 240.727C425.966 240.508 426.008 240.276 426.008 240.031C426.008 239.552 425.872 239.19 425.602 238.945C425.331 238.701 424.917 238.578 424.359 238.578C423.396 238.578 422.474 238.961 421.594 239.727V237.555C422.568 236.924 423.667 236.609 424.891 236.609C425.458 236.609 425.966 236.685 426.414 236.836C426.867 236.982 427.25 237.193 427.562 237.469C427.875 237.745 428.112 238.081 428.273 238.477C428.44 238.867 428.523 239.305 428.523 239.789C428.523 240.305 428.443 240.763 428.281 241.164C428.125 241.565 427.914 241.93 427.648 242.258C427.388 242.586 427.086 242.888 426.742 243.164C426.398 243.435 426.042 243.698 425.672 243.953C425.422 244.13 425.18 244.307 424.945 244.484C424.716 244.656 424.513 244.828 424.336 245C424.159 245.167 424.018 245.331 423.914 245.492C423.81 245.654 423.758 245.807 423.758 245.953ZM436.109 236.547V248H433.648V239.328C433.513 239.448 433.352 239.562 433.164 239.672C432.982 239.776 432.786 239.872 432.578 239.961C432.37 240.044 432.154 240.117 431.93 240.18C431.706 240.237 431.484 240.279 431.266 240.305V238.227C431.906 238.039 432.51 237.799 433.078 237.508C433.646 237.216 434.159 236.896 434.617 236.547H436.109Z" fill="#837550"/>
<path d="M501.352 245.953H506.102V248H498.648V247.156C498.648 246.583 498.745 246.07 498.938 245.617C499.13 245.159 499.372 244.75 499.664 244.391C499.956 244.026 500.273 243.706 500.617 243.43C500.966 243.148 501.297 242.896 501.609 242.672C501.938 242.438 502.224 242.214 502.469 242C502.719 241.786 502.927 241.576 503.094 241.367C503.266 241.154 503.393 240.94 503.477 240.727C503.56 240.508 503.602 240.276 503.602 240.031C503.602 239.552 503.466 239.19 503.195 238.945C502.924 238.701 502.51 238.578 501.953 238.578C500.99 238.578 500.068 238.961 499.188 239.727V237.555C500.161 236.924 501.26 236.609 502.484 236.609C503.052 236.609 503.56 236.685 504.008 236.836C504.461 236.982 504.844 237.193 505.156 237.469C505.469 237.745 505.706 238.081 505.867 238.477C506.034 238.867 506.117 239.305 506.117 239.789C506.117 240.305 506.036 240.763 505.875 241.164C505.719 241.565 505.508 241.93 505.242 242.258C504.982 242.586 504.68 242.888 504.336 243.164C503.992 243.435 503.635 243.698 503.266 243.953C503.016 244.13 502.773 244.307 502.539 244.484C502.31 244.656 502.107 244.828 501.93 245C501.753 245.167 501.612 245.331 501.508 245.492C501.404 245.654 501.352 245.807 501.352 245.953ZM511.742 248.195C509.076 248.195 507.742 246.323 507.742 242.578C507.742 240.635 508.102 239.156 508.82 238.141C509.544 237.12 510.591 236.609 511.961 236.609C514.565 236.609 515.867 238.513 515.867 242.32C515.867 244.216 515.51 245.669 514.797 246.68C514.089 247.69 513.07 248.195 511.742 248.195ZM511.852 238.492C510.784 238.492 510.25 239.833 510.25 242.516C510.25 245.042 510.773 246.305 511.82 246.305C512.841 246.305 513.352 245.003 513.352 242.398C513.352 239.794 512.852 238.492 511.852 238.492ZM519.758 245.953H524.508V248H517.055V247.156C517.055 246.583 517.151 246.07 517.344 245.617C517.536 245.159 517.779 244.75 518.07 244.391C518.362 244.026 518.68 243.706 519.023 243.43C519.372 243.148 519.703 242.896 520.016 242.672C520.344 242.438 520.63 242.214 520.875 242C521.125 241.786 521.333 241.576 521.5 241.367C521.672 241.154 521.799 240.94 521.883 240.727C521.966 240.508 522.008 240.276 522.008 240.031C522.008 239.552 521.872 239.19 521.602 238.945C521.331 238.701 520.917 238.578 520.359 238.578C519.396 238.578 518.474 238.961 517.594 239.727V237.555C518.568 236.924 519.667 236.609 520.891 236.609C521.458 236.609 521.966 236.685 522.414 236.836C522.867 236.982 523.25 237.193 523.562 237.469C523.875 237.745 524.112 238.081 524.273 238.477C524.44 238.867 524.523 239.305 524.523 239.789C524.523 240.305 524.443 240.763 524.281 241.164C524.125 241.565 523.914 241.93 523.648 242.258C523.388 242.586 523.086 242.888 522.742 243.164C522.398 243.435 522.042 243.698 521.672 243.953C521.422 244.13 521.18 244.307 520.945 244.484C520.716 244.656 520.513 244.828 520.336 245C520.159 245.167 520.018 245.331 519.914 245.492C519.81 245.654 519.758 245.807 519.758 245.953ZM528.961 245.953H533.711V248H526.258V247.156C526.258 246.583 526.354 246.07 526.547 245.617C526.74 245.159 526.982 244.75 527.273 244.391C527.565 244.026 527.883 243.706 528.227 243.43C528.576 243.148 528.906 242.896 529.219 242.672C529.547 242.438 529.833 242.214 530.078 242C530.328 241.786 530.536 241.576 530.703 241.367C530.875 241.154 531.003 240.94 531.086 240.727C531.169 240.508 531.211 240.276 531.211 240.031C531.211 239.552 531.076 239.19 530.805 238.945C530.534 238.701 530.12 238.578 529.562 238.578C528.599 238.578 527.677 238.961 526.797 239.727V237.555C527.771 236.924 528.87 236.609 530.094 236.609C530.661 236.609 531.169 236.685 531.617 236.836C532.07 236.982 532.453 237.193 532.766 237.469C533.078 237.745 533.315 238.081 533.477 238.477C533.643 238.867 533.727 239.305 533.727 239.789C533.727 240.305 533.646 240.763 533.484 241.164C533.328 241.565 533.117 241.93 532.852 242.258C532.591 242.586 532.289 242.888 531.945 243.164C531.602 243.435 531.245 243.698 530.875 243.953C530.625 244.13 530.383 244.307 530.148 244.484C529.919 244.656 529.716 244.828 529.539 245C529.362 245.167 529.221 245.331 529.117 245.492C529.013 245.654 528.961 245.807 528.961 245.953Z" fill="#837550"/>
<path d="M686.352 245.953H691.102V248H683.648V247.156C683.648 246.583 683.745 246.07 683.938 245.617C684.13 245.159 684.372 244.75 684.664 244.391C684.956 244.026 685.273 243.706 685.617 243.43C685.966 243.148 686.297 242.896 686.609 242.672C686.938 242.438 687.224 242.214 687.469 242C687.719 241.786 687.927 241.576 688.094 241.367C688.266 241.154 688.393 240.94 688.477 240.727C688.56 240.508 688.602 240.276 688.602 240.031C688.602 239.552 688.466 239.19 688.195 238.945C687.924 238.701 687.51 238.578 686.953 238.578C685.99 238.578 685.068 238.961 684.188 239.727V237.555C685.161 236.924 686.26 236.609 687.484 236.609C688.052 236.609 688.56 236.685 689.008 236.836C689.461 236.982 689.844 237.193 690.156 237.469C690.469 237.745 690.706 238.081 690.867 238.477C691.034 238.867 691.117 239.305 691.117 239.789C691.117 240.305 691.036 240.763 690.875 241.164C690.719 241.565 690.508 241.93 690.242 242.258C689.982 242.586 689.68 242.888 689.336 243.164C688.992 243.435 688.635 243.698 688.266 243.953C688.016 244.13 687.773 244.307 687.539 244.484C687.31 244.656 687.107 244.828 686.93 245C686.753 245.167 686.612 245.331 686.508 245.492C686.404 245.654 686.352 245.807 686.352 245.953ZM696.742 248.195C694.076 248.195 692.742 246.323 692.742 242.578C692.742 240.635 693.102 239.156 693.82 238.141C694.544 237.12 695.591 236.609 696.961 236.609C699.565 236.609 700.867 238.513 700.867 242.32C700.867 244.216 700.51 245.669 699.797 246.68C699.089 247.69 698.07 248.195 696.742 248.195ZM696.852 238.492C695.784 238.492 695.25 239.833 695.25 242.516C695.25 245.042 695.773 246.305 696.82 246.305C697.841 246.305 698.352 245.003 698.352 242.398C698.352 239.794 697.852 238.492 696.852 238.492ZM704.758 245.953H709.508V248H702.055V247.156C702.055 246.583 702.151 246.07 702.344 245.617C702.536 245.159 702.779 244.75 703.07 244.391C703.362 244.026 703.68 243.706 704.023 243.43C704.372 243.148 704.703 242.896 705.016 242.672C705.344 242.438 705.63 242.214 705.875 242C706.125 241.786 706.333 241.576 706.5 241.367C706.672 241.154 706.799 240.94 706.883 240.727C706.966 240.508 707.008 240.276 707.008 240.031C707.008 239.552 706.872 239.19 706.602 238.945C706.331 238.701 705.917 238.578 705.359 238.578C704.396 238.578 703.474 238.961 702.594 239.727V237.555C703.568 236.924 704.667 236.609 705.891 236.609C706.458 236.609 706.966 236.685 707.414 236.836C707.867 236.982 708.25 237.193 708.562 237.469C708.875 237.745 709.112 238.081 709.273 238.477C709.44 238.867 709.523 239.305 709.523 239.789C709.523 240.305 709.443 240.763 709.281 241.164C709.125 241.565 708.914 241.93 708.648 242.258C708.388 242.586 708.086 242.888 707.742 243.164C707.398 243.435 707.042 243.698 706.672 243.953C706.422 244.13 706.18 244.307 705.945 244.484C705.716 244.656 705.513 244.828 705.336 245C705.159 245.167 705.018 245.331 704.914 245.492C704.81 245.654 704.758 245.807 704.758 245.953ZM718.047 236.797V243.859H719.391V245.703H718.047V248H715.797V245.703H710.914V243.773C711.346 243.289 711.794 242.76 712.258 242.188C712.721 241.609 713.169 241.016 713.602 240.406C714.034 239.797 714.435 239.185 714.805 238.57C715.18 237.951 715.497 237.359 715.758 236.797H718.047ZM713.125 243.859H715.797V239.945C715.615 240.284 715.417 240.628 715.203 240.977C714.99 241.32 714.766 241.661 714.531 242C714.297 242.333 714.06 242.659 713.82 242.977C713.581 243.289 713.349 243.583 713.125 243.859Z" fill="#837550"/>
<path d="M595.352 245.953H600.102V248H592.648V247.156C592.648 246.583 592.745 246.07 592.938 245.617C593.13 245.159 593.372 244.75 593.664 244.391C593.956 244.026 594.273 243.706 594.617 243.43C594.966 243.148 595.297 242.896 595.609 242.672C595.938 242.438 596.224 242.214 596.469 242C596.719 241.786 596.927 241.576 597.094 241.367C597.266 241.154 597.393 240.94 597.477 240.727C597.56 240.508 597.602 240.276 597.602 240.031C597.602 239.552 597.466 239.19 597.195 238.945C596.924 238.701 596.51 238.578 595.953 238.578C594.99 238.578 594.068 238.961 593.188 239.727V237.555C594.161 236.924 595.26 236.609 596.484 236.609C597.052 236.609 597.56 236.685 598.008 236.836C598.461 236.982 598.844 237.193 599.156 237.469C599.469 237.745 599.706 238.081 599.867 238.477C600.034 238.867 600.117 239.305 600.117 239.789C600.117 240.305 600.036 240.763 599.875 241.164C599.719 241.565 599.508 241.93 599.242 242.258C598.982 242.586 598.68 242.888 598.336 243.164C597.992 243.435 597.635 243.698 597.266 243.953C597.016 244.13 596.773 244.307 596.539 244.484C596.31 244.656 596.107 244.828 595.93 245C595.753 245.167 595.612 245.331 595.508 245.492C595.404 245.654 595.352 245.807 595.352 245.953ZM605.742 248.195C603.076 248.195 601.742 246.323 601.742 242.578C601.742 240.635 602.102 239.156 602.82 238.141C603.544 237.12 604.591 236.609 605.961 236.609C608.565 236.609 609.867 238.513 609.867 242.32C609.867 244.216 609.51 245.669 608.797 246.68C608.089 247.69 607.07 248.195 605.742 248.195ZM605.852 238.492C604.784 238.492 604.25 239.833 604.25 242.516C604.25 245.042 604.773 246.305 605.82 246.305C606.841 246.305 607.352 245.003 607.352 242.398C607.352 239.794 606.852 238.492 605.852 238.492ZM613.758 245.953H618.508V248H611.055V247.156C611.055 246.583 611.151 246.07 611.344 245.617C611.536 245.159 611.779 244.75 612.07 244.391C612.362 244.026 612.68 243.706 613.023 243.43C613.372 243.148 613.703 242.896 614.016 242.672C614.344 242.438 614.63 242.214 614.875 242C615.125 241.786 615.333 241.576 615.5 241.367C615.672 241.154 615.799 240.94 615.883 240.727C615.966 240.508 616.008 240.276 616.008 240.031C616.008 239.552 615.872 239.19 615.602 238.945C615.331 238.701 614.917 238.578 614.359 238.578C613.396 238.578 612.474 238.961 611.594 239.727V237.555C612.568 236.924 613.667 236.609 614.891 236.609C615.458 236.609 615.966 236.685 616.414 236.836C616.867 236.982 617.25 237.193 617.562 237.469C617.875 237.745 618.112 238.081 618.273 238.477C618.44 238.867 618.523 239.305 618.523 239.789C618.523 240.305 618.443 240.763 618.281 241.164C618.125 241.565 617.914 241.93 617.648 242.258C617.388 242.586 617.086 242.888 616.742 243.164C616.398 243.435 616.042 243.698 615.672 243.953C615.422 244.13 615.18 244.307 614.945 244.484C614.716 244.656 614.513 244.828 614.336 245C614.159 245.167 614.018 245.331 613.914 245.492C613.81 245.654 613.758 245.807 613.758 245.953ZM620.523 247.633V245.484C621.273 246.031 622.148 246.305 623.148 246.305C623.779 246.305 624.268 246.169 624.617 245.898C624.971 245.628 625.148 245.25 625.148 244.766C625.148 244.266 624.93 243.88 624.492 243.609C624.06 243.339 623.464 243.203 622.703 243.203H621.664V241.312H622.625C624.083 241.312 624.812 240.828 624.812 239.859C624.812 238.948 624.253 238.492 623.133 238.492C622.383 238.492 621.654 238.734 620.945 239.219V237.203C621.732 236.807 622.648 236.609 623.695 236.609C624.841 236.609 625.732 236.867 626.367 237.383C627.008 237.898 627.328 238.568 627.328 239.391C627.328 240.854 626.586 241.771 625.102 242.141V242.18C625.893 242.279 626.518 242.568 626.977 243.047C627.435 243.521 627.664 244.104 627.664 244.797C627.664 245.844 627.281 246.672 626.516 247.281C625.75 247.891 624.693 248.195 623.344 248.195C622.188 248.195 621.247 248.008 620.523 247.633Z" fill="#837550"/>
<rect x="32.5" y="124.5" width="231" height="37" rx="7.5" fill="#499C75" fill-opacity="0.15" stroke="#499C75"/>
<path d="M171.195 148.531C170.352 148.969 169.302 149.188 168.047 149.188C166.422 149.188 165.12 148.674 164.141 147.648C163.161 146.622 162.672 145.276 162.672 143.609C162.672 141.818 163.221 140.37 164.32 139.266C165.424 138.161 166.818 137.609 168.5 137.609C169.583 137.609 170.482 137.763 171.195 138.07V139.914C170.44 139.466 169.607 139.242 168.695 139.242C167.482 139.242 166.497 139.63 165.742 140.406C164.992 141.182 164.617 142.219 164.617 143.516C164.617 144.75 164.969 145.734 165.672 146.469C166.375 147.198 167.299 147.562 168.445 147.562C169.503 147.562 170.419 147.312 171.195 146.812V148.531ZM180.094 149H178.281V147.734H178.25C177.724 148.703 176.906 149.188 175.797 149.188C173.906 149.188 172.961 148.052 172.961 145.781V141H174.773V145.594C174.773 147.031 175.328 147.75 176.438 147.75C176.974 147.75 177.414 147.552 177.758 147.156C178.107 146.76 178.281 146.242 178.281 145.602V141H180.094V149ZM187.102 142.727C186.883 142.555 186.568 142.469 186.156 142.469C185.62 142.469 185.172 142.711 184.812 143.195C184.453 143.68 184.273 144.339 184.273 145.172V149H182.461V141H184.273V142.648H184.305C184.482 142.086 184.753 141.648 185.117 141.336C185.487 141.018 185.898 140.859 186.352 140.859C186.68 140.859 186.93 140.909 187.102 141.008V142.727ZM193.023 142.727C192.805 142.555 192.49 142.469 192.078 142.469C191.542 142.469 191.094 142.711 190.734 143.195C190.375 143.68 190.195 144.339 190.195 145.172V149H188.383V141H190.195V142.648H190.227C190.404 142.086 190.674 141.648 191.039 141.336C191.409 141.018 191.82 140.859 192.273 140.859C192.602 140.859 192.852 140.909 193.023 141.008V142.727ZM200.938 145.492H195.484C195.505 146.232 195.732 146.802 196.164 147.203C196.602 147.604 197.201 147.805 197.961 147.805C198.815 147.805 199.599 147.549 200.312 147.039V148.5C199.583 148.958 198.62 149.188 197.422 149.188C196.245 149.188 195.32 148.826 194.648 148.102C193.982 147.372 193.648 146.349 193.648 145.031C193.648 143.786 194.016 142.773 194.75 141.992C195.49 141.206 196.406 140.812 197.5 140.812C198.594 140.812 199.44 141.164 200.039 141.867C200.638 142.57 200.938 143.547 200.938 144.797V145.492ZM199.188 144.211C199.182 143.56 199.029 143.055 198.727 142.695C198.424 142.331 198.008 142.148 197.477 142.148C196.956 142.148 196.513 142.339 196.148 142.719C195.789 143.099 195.568 143.596 195.484 144.211H199.188ZM209.789 149H207.977V144.492C207.977 142.997 207.448 142.25 206.391 142.25C205.839 142.25 205.383 142.458 205.023 142.875C204.664 143.286 204.484 143.807 204.484 144.438V149H202.664V141H204.484V142.328H204.516C205.115 141.318 205.979 140.812 207.109 140.812C207.979 140.812 208.643 141.096 209.102 141.664C209.56 142.227 209.789 143.042 209.789 144.109V149ZM216.227 148.914C215.872 149.091 215.406 149.18 214.828 149.18C213.276 149.18 212.5 148.435 212.5 146.945V142.422H211.164V141H212.5V139.148L214.312 138.633V141H216.227V142.422H214.312V146.422C214.312 146.896 214.398 147.234 214.57 147.438C214.742 147.641 215.029 147.742 215.43 147.742C215.737 147.742 216.003 147.654 216.227 147.477V148.914ZM230.203 137.797L226.531 144.93V149H224.672V144.969L221.094 137.797H223.211L225.414 142.602C225.44 142.659 225.518 142.875 225.648 143.25H225.672C225.719 143.083 225.805 142.867 225.93 142.602L228.234 137.797H230.203ZM236.781 145.492H231.328C231.349 146.232 231.576 146.802 232.008 147.203C232.445 147.604 233.044 147.805 233.805 147.805C234.659 147.805 235.443 147.549 236.156 147.039V148.5C235.427 148.958 234.464 149.188 233.266 149.188C232.089 149.188 231.164 148.826 230.492 148.102C229.826 147.372 229.492 146.349 229.492 145.031C229.492 143.786 229.859 142.773 230.594 141.992C231.333 141.206 232.25 140.812 233.344 140.812C234.438 140.812 235.284 141.164 235.883 141.867C236.482 142.57 236.781 143.547 236.781 144.797V145.492ZM235.031 144.211C235.026 143.56 234.872 143.055 234.57 142.695C234.268 142.331 233.852 142.148 233.32 142.148C232.799 142.148 232.357 142.339 231.992 142.719C231.633 143.099 231.411 143.596 231.328 144.211H235.031ZM244.648 149H242.891V147.75H242.859C242.307 148.708 241.497 149.188 240.43 149.188C239.643 149.188 239.026 148.974 238.578 148.547C238.135 148.12 237.914 147.555 237.914 146.852C237.914 145.341 238.784 144.461 240.523 144.211L242.898 143.875C242.898 142.734 242.357 142.164 241.273 142.164C240.32 142.164 239.461 142.492 238.695 143.148V141.562C239.539 141.062 240.513 140.812 241.617 140.812C243.638 140.812 244.648 141.807 244.648 143.797V149ZM242.898 145.07L241.219 145.305C240.698 145.372 240.305 145.5 240.039 145.688C239.779 145.87 239.648 146.193 239.648 146.656C239.648 146.995 239.768 147.273 240.008 147.492C240.253 147.706 240.578 147.812 240.984 147.812C241.536 147.812 241.992 147.62 242.352 147.234C242.716 146.844 242.898 146.354 242.898 145.766V145.07ZM251.508 142.727C251.289 142.555 250.974 142.469 250.562 142.469C250.026 142.469 249.578 142.711 249.219 143.195C248.859 143.68 248.68 144.339 248.68 145.172V149H246.867V141H248.68V142.648H248.711C248.888 142.086 249.159 141.648 249.523 141.336C249.893 141.018 250.305 140.859 250.758 140.859C251.086 140.859 251.336 140.909 251.508 141.008V142.727Z" fill="#499C75"/>
<path d="M51.5 137.547V149H49.0391V140.328C48.9036 140.448 48.7422 140.562 48.5547 140.672C48.3724 140.776 48.1771 140.872 47.9688 140.961C47.7604 141.044 47.5443 141.117 47.3203 141.18C47.0964 141.237 46.875 141.279 46.6562 141.305V139.227C47.2969 139.039 47.901 138.799 48.4688 138.508C49.0365 138.216 49.5495 137.896 50.0078 137.547H51.5ZM57.5547 146.953H62.3047V149H54.8516V148.156C54.8516 147.583 54.9479 147.07 55.1406 146.617C55.3333 146.159 55.5755 145.75 55.8672 145.391C56.1589 145.026 56.4766 144.706 56.8203 144.43C57.1693 144.148 57.5 143.896 57.8125 143.672C58.1406 143.438 58.4271 143.214 58.6719 143C58.9219 142.786 59.1302 142.576 59.2969 142.367C59.4688 142.154 59.5964 141.94 59.6797 141.727C59.763 141.508 59.8047 141.276 59.8047 141.031C59.8047 140.552 59.6693 140.19 59.3984 139.945C59.1276 139.701 58.7135 139.578 58.1562 139.578C57.1927 139.578 56.2708 139.961 55.3906 140.727V138.555C56.3646 137.924 57.4635 137.609 58.6875 137.609C59.2552 137.609 59.763 137.685 60.2109 137.836C60.6641 137.982 61.0469 138.193 61.3594 138.469C61.6719 138.745 61.9089 139.081 62.0703 139.477C62.237 139.867 62.3203 140.305 62.3203 140.789C62.3203 141.305 62.2396 141.763 62.0781 142.164C61.9219 142.565 61.7109 142.93 61.4453 143.258C61.1849 143.586 60.8828 143.888 60.5391 144.164C60.1953 144.435 59.8385 144.698 59.4688 144.953C59.2188 145.13 58.9766 145.307 58.7422 145.484C58.513 145.656 58.3099 145.828 58.1328 146C57.9557 146.167 57.8151 146.331 57.7109 146.492C57.6068 146.654 57.5547 146.807 57.5547 146.953ZM66.7656 143.477C65.9688 143.477 65.3255 143.224 64.8359 142.719C64.3516 142.214 64.1094 141.534 64.1094 140.68C64.1094 139.747 64.3672 139.008 64.8828 138.461C65.4036 137.914 66.0964 137.641 66.9609 137.641C67.7891 137.641 68.4349 137.888 68.8984 138.383C69.3672 138.878 69.6016 139.573 69.6016 140.469C69.6016 141.391 69.3438 142.122 68.8281 142.664C68.3125 143.206 67.625 143.477 66.7656 143.477ZM66.9141 139.016C66.1536 139.016 65.7734 139.544 65.7734 140.602C65.7734 141.602 66.1354 142.102 66.8594 142.102C67.599 142.102 67.9688 141.581 67.9688 140.539C67.9688 139.523 67.6172 139.016 66.9141 139.016ZM74.9453 137.797L67.6484 149H65.7422L73.0234 137.797H74.9453ZM73.7422 149.156C72.9453 149.156 72.3021 148.904 71.8125 148.398C71.3281 147.893 71.0859 147.214 71.0859 146.359C71.0859 145.427 71.3438 144.688 71.8594 144.141C72.3802 143.594 73.0729 143.32 73.9375 143.32C74.7708 143.32 75.4193 143.565 75.8828 144.055C76.3464 144.544 76.5781 145.237 76.5781 146.133C76.5781 147.055 76.3203 147.789 75.8047 148.336C75.2891 148.883 74.6016 149.156 73.7422 149.156ZM73.8672 144.695C73.112 144.695 72.7344 145.224 72.7344 146.281C72.7344 147.281 73.1016 147.781 73.8359 147.781C74.5755 147.781 74.9453 147.26 74.9453 146.219C74.9453 145.734 74.8464 145.359 74.6484 145.094C74.4505 144.828 74.1901 144.695 73.8672 144.695ZM87.4766 151.547H85.4609C83.7786 149.693 82.9375 147.414 82.9375 144.711C82.9375 142.102 83.7786 139.797 85.4609 137.797H87.4609C85.8828 139.891 85.0938 142.195 85.0938 144.711C85.0938 147.227 85.888 149.505 87.4766 151.547ZM96.1562 139.219C95.6562 140.12 95.2083 140.966 94.8125 141.758C94.4167 142.544 94.0677 143.323 93.7656 144.094C93.4635 144.859 93.2057 145.641 92.9922 146.438C92.7786 147.229 92.6042 148.083 92.4688 149H89.8906C90.0365 148.13 90.2292 147.292 90.4688 146.484C90.7083 145.677 90.9844 144.896 91.2969 144.141C91.6146 143.38 91.9635 142.641 92.3438 141.922C92.7292 141.203 93.1354 140.5 93.5625 139.812H88.3594V137.797H96.1562V139.219ZM98.9531 149.195C98.5469 149.195 98.2083 149.07 97.9375 148.82C97.6667 148.57 97.5312 148.263 97.5312 147.898C97.5312 147.523 97.6693 147.216 97.9453 146.977C98.2266 146.737 98.5755 146.617 98.9922 146.617C99.4141 146.617 99.7578 146.74 100.023 146.984C100.294 147.224 100.43 147.529 100.43 147.898C100.43 148.279 100.292 148.591 100.016 148.836C99.7448 149.076 99.3906 149.195 98.9531 149.195ZM109.648 142.859C109.648 143.854 109.539 144.745 109.32 145.531C109.102 146.312 108.781 146.974 108.359 147.516C107.943 148.057 107.432 148.474 106.828 148.766C106.224 149.052 105.539 149.195 104.773 149.195C103.857 149.195 103.068 149.049 102.406 148.758V146.727C102.995 147.112 103.703 147.305 104.531 147.305C105.38 147.305 106.044 147.016 106.523 146.438C107.003 145.859 107.245 145.023 107.25 143.93L107.203 143.914C106.708 144.648 105.956 145.016 104.945 145.016C104.487 145.016 104.062 144.93 103.672 144.758C103.286 144.586 102.951 144.349 102.664 144.047C102.383 143.74 102.161 143.375 102 142.953C101.844 142.531 101.766 142.068 101.766 141.562C101.766 140.974 101.862 140.438 102.055 139.953C102.247 139.469 102.516 139.052 102.859 138.703C103.208 138.354 103.625 138.086 104.109 137.898C104.594 137.706 105.13 137.609 105.719 137.609C106.328 137.609 106.875 137.729 107.359 137.969C107.844 138.203 108.255 138.544 108.594 138.992C108.938 139.44 109.198 139.99 109.375 140.641C109.557 141.292 109.648 142.031 109.648 142.859ZM107.156 141.547C107.156 141.26 107.12 140.992 107.047 140.742C106.974 140.487 106.872 140.268 106.742 140.086C106.612 139.904 106.453 139.76 106.266 139.656C106.078 139.547 105.872 139.492 105.648 139.492C105.435 139.492 105.237 139.539 105.055 139.633C104.878 139.727 104.724 139.857 104.594 140.023C104.464 140.185 104.362 140.38 104.289 140.609C104.216 140.839 104.18 141.086 104.18 141.352C104.18 141.643 104.216 141.904 104.289 142.133C104.362 142.357 104.464 142.547 104.594 142.703C104.729 142.859 104.891 142.979 105.078 143.062C105.266 143.141 105.474 143.18 105.703 143.18C105.922 143.18 106.12 143.138 106.297 143.055C106.474 142.966 106.625 142.849 106.75 142.703C106.88 142.557 106.979 142.385 107.047 142.188C107.12 141.99 107.156 141.776 107.156 141.547ZM124.406 149H121.914V142.297C121.914 141.573 121.945 140.773 122.008 139.898H121.945C121.815 140.586 121.698 141.081 121.594 141.383L118.969 149H116.906L114.234 141.461C114.161 141.258 114.044 140.737 113.883 139.898H113.812C113.88 141.003 113.914 141.971 113.914 142.805V149H111.641V137.797H115.336L117.625 144.438C117.807 144.969 117.94 145.503 118.023 146.039H118.07C118.211 145.419 118.359 144.88 118.516 144.422L120.805 137.797H124.406V149ZM127.812 151.547H125.812C127.406 149.516 128.203 147.237 128.203 144.711C128.203 142.206 127.406 139.901 125.812 137.797H127.828C129.516 139.802 130.359 142.107 130.359 144.711C130.359 147.393 129.51 149.672 127.812 151.547Z" fill="#499C75"/>
<path d="M155 139.78L146.133 148.507L142.756 143.52L136 150.169" stroke="#499C75" stroke-width="2" stroke-linecap="round" stroke-linejoin="round"/>
<path d="M150.778 139.78H155V143.935" stroke="#499C75" stroke-width="2" stroke-linecap="round" stroke-linejoin="round"/>
<defs>
<filter id="filter0_d_200_2892" x="518" y="46" width="77" height="77" filterUnits="userSpaceOnUse" color-interpolation-filters="sRGB">
<feFlood flood-opacity="0" result="BackgroundImageFix"/>
<feColorMatrix in="SourceAlpha" type="matrix" values="0 0 0 0 0 0 0 0 0 0 0 0 0 0 0 0 0 0 127 0" result="hardAlpha"/>
<feMorphology radius="7" operator="dilate" in="SourceAlpha" result="effect1_dropShadow_200_2892"/>
<feOffset dx="2"/>
<feGaussianBlur stdDeviation="7"/>
<feComposite in2="hardAlpha" operator="out"/>
<feColorMatrix type="matrix" values="0 0 0 0 0.808333 0 0 0 0 0.68814 0 0 0 0 0.370486 0 0 0 0.15 0"/>
<feBlend mode="normal" in2="BackgroundImageFix" result="effect1_dropShadow_200_2892"/>
<feBlend mode="normal" in="SourceGraphic" in2="effect1_dropShadow_200_2892" result="shape"/>
</filter>
<linearGradient id="paint0_linear_200_2892" x1="0" y1="140.5" x2="755" y2="140.5" gradientUnits="userSpaceOnUse">
<stop stop-color="#EEE8DA"/>
<stop offset="1" stop-color="#EDE6D6"/>
</linearGradient>
<linearGradient id="paint1_linear_200_2892" x1="518.5" y1="29" x2="518.5" y2="230" gradientUnits="userSpaceOnUse">
<stop stop-color="#CEAF5E"/>
<stop offset="1" stop-color="white" stop-opacity="0"/>
</linearGradient>
</defs>
</svg>
