<svg width="364" height="281" viewBox="0 0 364 281" fill="none" xmlns="http://www.w3.org/2000/svg">
<path d="M0 24C0 10.7452 10.7452 0 24 0H340C353.255 0 364 10.7452 364 24V257C364 270.255 353.255 281 340 281H24C10.7452 281 0 270.255 0 257V24Z" fill="url(#paint0_linear_200_2914)"/>
<path d="M79.2344 248.938V253H77.3828V241.797H80.7812C82.0677 241.797 83.0651 242.096 83.7734 242.695C84.4818 243.294 84.8359 244.138 84.8359 245.227C84.8359 246.315 84.4661 247.206 83.7266 247.898C82.987 248.591 81.987 248.938 80.7266 248.938H79.2344ZM79.2344 243.328V247.422H80.4375C81.2344 247.422 81.8411 247.237 82.2578 246.867C82.6745 246.497 82.8828 245.977 82.8828 245.305C82.8828 243.987 82.1172 243.328 80.5859 243.328H79.2344ZM91.1797 246.727C90.9609 246.555 90.6458 246.469 90.2344 246.469C89.6979 246.469 89.25 246.711 88.8906 247.195C88.5312 247.68 88.3516 248.339 88.3516 249.172V253H86.5391V245H88.3516V246.648H88.3828C88.5599 246.086 88.8307 245.648 89.1953 245.336C89.5651 245.018 89.9766 244.859 90.4297 244.859C90.7578 244.859 91.0078 244.909 91.1797 245.008V246.727ZM95.8672 253.188C94.6328 253.188 93.6458 252.815 92.9062 252.07C92.1719 251.32 91.8047 250.328 91.8047 249.094C91.8047 247.75 92.1875 246.701 92.9531 245.945C93.724 245.19 94.7604 244.812 96.0625 244.812C97.3125 244.812 98.2865 245.18 98.9844 245.914C99.6823 246.648 100.031 247.667 100.031 248.969C100.031 250.245 99.6536 251.268 98.8984 252.039C98.1484 252.805 97.138 253.188 95.8672 253.188ZM95.9531 246.258C95.2448 246.258 94.6849 246.505 94.2734 247C93.862 247.495 93.6562 248.177 93.6562 249.047C93.6562 249.885 93.8646 250.547 94.2812 251.031C94.6979 251.51 95.2552 251.75 95.9531 251.75C96.6667 251.75 97.2135 251.513 97.5938 251.039C97.9792 250.565 98.1719 249.891 98.1719 249.016C98.1719 248.135 97.9792 247.456 97.5938 246.977C97.2135 246.497 96.6667 246.258 95.9531 246.258ZM109.164 252.359C109.164 255.297 107.688 256.766 104.734 256.766C103.693 256.766 102.784 256.591 102.008 256.242V254.586C102.883 255.086 103.714 255.336 104.5 255.336C106.401 255.336 107.352 254.401 107.352 252.531V251.656H107.32C106.721 252.677 105.82 253.188 104.617 253.188C103.643 253.188 102.857 252.833 102.258 252.125C101.664 251.411 101.367 250.456 101.367 249.258C101.367 247.898 101.688 246.818 102.328 246.016C102.969 245.214 103.849 244.812 104.969 244.812C106.026 244.812 106.81 245.245 107.32 246.109H107.352V245H109.164V252.359ZM107.367 249.336V248.297C107.367 247.734 107.18 247.255 106.805 246.859C106.435 246.458 105.971 246.258 105.414 246.258C104.727 246.258 104.188 246.513 103.797 247.023C103.411 247.529 103.219 248.237 103.219 249.148C103.219 249.935 103.404 250.565 103.773 251.039C104.148 251.508 104.643 251.742 105.258 251.742C105.883 251.742 106.391 251.518 106.781 251.07C107.172 250.617 107.367 250.039 107.367 249.336ZM116.164 246.727C115.945 246.555 115.63 246.469 115.219 246.469C114.682 246.469 114.234 246.711 113.875 247.195C113.516 247.68 113.336 248.339 113.336 249.172V253H111.523V245H113.336V246.648H113.367C113.544 246.086 113.815 245.648 114.18 245.336C114.549 245.018 114.961 244.859 115.414 244.859C115.742 244.859 115.992 244.909 116.164 245.008V246.727ZM124.078 249.492H118.625C118.646 250.232 118.872 250.802 119.305 251.203C119.742 251.604 120.341 251.805 121.102 251.805C121.956 251.805 122.74 251.549 123.453 251.039V252.5C122.724 252.958 121.76 253.188 120.562 253.188C119.385 253.188 118.461 252.826 117.789 252.102C117.122 251.372 116.789 250.349 116.789 249.031C116.789 247.786 117.156 246.773 117.891 245.992C118.63 245.206 119.547 244.812 120.641 244.812C121.734 244.812 122.581 245.164 123.18 245.867C123.779 246.57 124.078 247.547 124.078 248.797V249.492ZM122.328 248.211C122.323 247.56 122.169 247.055 121.867 246.695C121.565 246.331 121.148 246.148 120.617 246.148C120.096 246.148 119.654 246.339 119.289 246.719C118.93 247.099 118.708 247.596 118.625 248.211H122.328ZM125.305 252.75V251.07C125.982 251.586 126.729 251.844 127.547 251.844C128.641 251.844 129.188 251.521 129.188 250.875C129.188 250.693 129.141 250.539 129.047 250.414C128.953 250.284 128.826 250.169 128.664 250.07C128.508 249.971 128.32 249.883 128.102 249.805C127.888 249.727 127.648 249.638 127.383 249.539C127.055 249.409 126.758 249.271 126.492 249.125C126.232 248.979 126.013 248.815 125.836 248.633C125.664 248.445 125.534 248.234 125.445 248C125.357 247.766 125.312 247.492 125.312 247.18C125.312 246.794 125.404 246.456 125.586 246.164C125.768 245.867 126.013 245.62 126.32 245.422C126.628 245.219 126.977 245.068 127.367 244.969C127.758 244.865 128.161 244.812 128.578 244.812C129.318 244.812 129.979 244.924 130.562 245.148V246.734C130 246.349 129.354 246.156 128.625 246.156C128.396 246.156 128.188 246.18 128 246.227C127.818 246.273 127.661 246.339 127.531 246.422C127.401 246.505 127.299 246.607 127.227 246.727C127.154 246.841 127.117 246.969 127.117 247.109C127.117 247.281 127.154 247.427 127.227 247.547C127.299 247.667 127.406 247.773 127.547 247.867C127.693 247.956 127.865 248.039 128.062 248.117C128.266 248.19 128.497 248.271 128.758 248.359C129.102 248.5 129.409 248.643 129.68 248.789C129.956 248.935 130.19 249.102 130.383 249.289C130.576 249.471 130.724 249.685 130.828 249.93C130.932 250.169 130.984 250.456 130.984 250.789C130.984 251.195 130.891 251.549 130.703 251.852C130.516 252.154 130.266 252.404 129.953 252.602C129.641 252.799 129.279 252.945 128.867 253.039C128.461 253.138 128.031 253.188 127.578 253.188C126.703 253.188 125.945 253.042 125.305 252.75ZM132.211 252.75V251.07C132.888 251.586 133.635 251.844 134.453 251.844C135.547 251.844 136.094 251.521 136.094 250.875C136.094 250.693 136.047 250.539 135.953 250.414C135.859 250.284 135.732 250.169 135.57 250.07C135.414 249.971 135.227 249.883 135.008 249.805C134.794 249.727 134.555 249.638 134.289 249.539C133.961 249.409 133.664 249.271 133.398 249.125C133.138 248.979 132.919 248.815 132.742 248.633C132.57 248.445 132.44 248.234 132.352 248C132.263 247.766 132.219 247.492 132.219 247.18C132.219 246.794 132.31 246.456 132.492 246.164C132.674 245.867 132.919 245.62 133.227 245.422C133.534 245.219 133.883 245.068 134.273 244.969C134.664 244.865 135.068 244.812 135.484 244.812C136.224 244.812 136.885 244.924 137.469 245.148V246.734C136.906 246.349 136.26 246.156 135.531 246.156C135.302 246.156 135.094 246.18 134.906 246.227C134.724 246.273 134.568 246.339 134.438 246.422C134.307 246.505 134.206 246.607 134.133 246.727C134.06 246.841 134.023 246.969 134.023 247.109C134.023 247.281 134.06 247.427 134.133 247.547C134.206 247.667 134.312 247.773 134.453 247.867C134.599 247.956 134.771 248.039 134.969 248.117C135.172 248.19 135.404 248.271 135.664 248.359C136.008 248.5 136.315 248.643 136.586 248.789C136.862 248.935 137.096 249.102 137.289 249.289C137.482 249.471 137.63 249.685 137.734 249.93C137.839 250.169 137.891 250.456 137.891 250.789C137.891 251.195 137.797 251.549 137.609 251.852C137.422 252.154 137.172 252.404 136.859 252.602C136.547 252.799 136.185 252.945 135.773 253.039C135.367 253.138 134.938 253.188 134.484 253.188C133.609 253.188 132.852 253.042 132.211 252.75ZM140.531 243.32C140.234 243.32 139.979 243.224 139.766 243.031C139.557 242.839 139.453 242.594 139.453 242.297C139.453 242 139.557 241.753 139.766 241.555C139.979 241.357 140.234 241.258 140.531 241.258C140.839 241.258 141.099 241.357 141.312 241.555C141.526 241.753 141.633 242 141.633 242.297C141.633 242.578 141.526 242.82 141.312 243.023C141.099 243.221 140.839 243.32 140.531 243.32ZM141.43 253H139.617V245H141.43V253ZM150.93 253H149.117V248.492C149.117 246.997 148.589 246.25 147.531 246.25C146.979 246.25 146.523 246.458 146.164 246.875C145.805 247.286 145.625 247.807 145.625 248.438V253H143.805V245H145.625V246.328H145.656C146.255 245.318 147.12 244.812 148.25 244.812C149.12 244.812 149.784 245.096 150.242 245.664C150.701 246.227 150.93 247.042 150.93 248.109V253ZM160.43 252.359C160.43 255.297 158.953 256.766 156 256.766C154.958 256.766 154.049 256.591 153.273 256.242V254.586C154.148 255.086 154.979 255.336 155.766 255.336C157.667 255.336 158.617 254.401 158.617 252.531V251.656H158.586C157.987 252.677 157.086 253.188 155.883 253.188C154.909 253.188 154.122 252.833 153.523 252.125C152.93 251.411 152.633 250.456 152.633 249.258C152.633 247.898 152.953 246.818 153.594 246.016C154.234 245.214 155.115 244.812 156.234 244.812C157.292 244.812 158.076 245.245 158.586 246.109H158.617V245H160.43V252.359ZM158.633 249.336V248.297C158.633 247.734 158.445 247.255 158.07 246.859C157.701 246.458 157.237 246.258 156.68 246.258C155.992 246.258 155.453 246.513 155.062 247.023C154.677 247.529 154.484 248.237 154.484 249.148C154.484 249.935 154.669 250.565 155.039 251.039C155.414 251.508 155.909 251.742 156.523 251.742C157.148 251.742 157.656 251.518 158.047 251.07C158.438 250.617 158.633 250.039 158.633 249.336ZM171.172 255.547H169.641C167.995 253.703 167.172 251.43 167.172 248.727C167.172 246.013 167.995 243.703 169.641 241.797H171.18C169.565 243.776 168.758 246.081 168.758 248.711C168.758 251.32 169.562 253.599 171.172 255.547ZM179.648 249.398C179.648 249.961 179.555 250.474 179.367 250.938C179.185 251.401 178.93 251.802 178.602 252.141C178.273 252.474 177.883 252.734 177.43 252.922C176.982 253.104 176.495 253.195 175.969 253.195C175.406 253.195 174.888 253.086 174.414 252.867C173.945 252.648 173.539 252.323 173.195 251.891C172.857 251.458 172.594 250.922 172.406 250.281C172.219 249.635 172.125 248.888 172.125 248.039C172.125 247.003 172.247 246.083 172.492 245.281C172.742 244.479 173.083 243.807 173.516 243.266C173.948 242.724 174.456 242.312 175.039 242.031C175.622 241.75 176.253 241.609 176.93 241.609C177.352 241.609 177.734 241.638 178.078 241.695C178.427 241.753 178.706 241.831 178.914 241.93V243.562C178.648 243.427 178.365 243.312 178.062 243.219C177.76 243.125 177.414 243.078 177.023 243.078C176.586 243.078 176.182 243.167 175.812 243.344C175.443 243.521 175.122 243.781 174.852 244.125C174.586 244.464 174.375 244.885 174.219 245.391C174.068 245.891 173.99 246.469 173.984 247.125H174.031C174.271 246.755 174.594 246.464 175 246.25C175.411 246.036 175.893 245.93 176.445 245.93C176.935 245.93 177.375 246.01 177.766 246.172C178.161 246.328 178.497 246.557 178.773 246.859C179.055 247.156 179.271 247.521 179.422 247.953C179.573 248.38 179.648 248.862 179.648 249.398ZM177.82 249.547C177.82 249.224 177.781 248.93 177.703 248.664C177.63 248.398 177.516 248.172 177.359 247.984C177.208 247.792 177.016 247.643 176.781 247.539C176.552 247.435 176.281 247.383 175.969 247.383C175.656 247.383 175.38 247.44 175.141 247.555C174.906 247.664 174.708 247.81 174.547 247.992C174.385 248.174 174.263 248.383 174.18 248.617C174.102 248.852 174.062 249.091 174.062 249.336C174.062 249.602 174.099 249.875 174.172 250.156C174.25 250.432 174.367 250.685 174.523 250.914C174.68 251.143 174.878 251.333 175.117 251.484C175.362 251.63 175.651 251.703 175.984 251.703C176.281 251.703 176.544 251.648 176.773 251.539C177.003 251.43 177.193 251.279 177.344 251.086C177.5 250.893 177.617 250.667 177.695 250.406C177.779 250.141 177.82 249.854 177.82 249.547ZM184.586 253.188C183.419 253.188 182.508 252.711 181.852 251.758C181.201 250.805 180.875 249.427 180.875 247.625C180.875 245.646 181.216 244.148 181.898 243.133C182.581 242.117 183.565 241.609 184.852 241.609C187.315 241.609 188.547 243.523 188.547 247.352C188.547 249.247 188.198 250.695 187.5 251.695C186.807 252.69 185.836 253.188 184.586 253.188ZM184.766 243.055C183.406 243.055 182.727 244.552 182.727 247.547C182.727 250.349 183.393 251.75 184.727 251.75C186.039 251.75 186.695 250.326 186.695 247.477C186.695 244.529 186.052 243.055 184.766 243.055ZM192.406 247.422C191.615 247.422 190.984 247.169 190.516 246.664C190.047 246.154 189.812 245.474 189.812 244.625C189.812 243.698 190.06 242.969 190.555 242.438C191.055 241.901 191.727 241.633 192.57 241.633C193.388 241.633 194.021 241.88 194.469 242.375C194.922 242.87 195.148 243.565 195.148 244.461C195.148 245.357 194.896 246.076 194.391 246.617C193.885 247.154 193.224 247.422 192.406 247.422ZM192.516 242.727C192.089 242.727 191.75 242.891 191.5 243.219C191.255 243.547 191.133 243.997 191.133 244.57C191.133 245.133 191.253 245.57 191.492 245.883C191.737 246.195 192.07 246.352 192.492 246.352C192.914 246.352 193.245 246.19 193.484 245.867C193.724 245.539 193.844 245.086 193.844 244.508C193.844 243.945 193.724 243.508 193.484 243.195C193.25 242.883 192.927 242.727 192.516 242.727ZM199.992 241.797L192.805 253.078H191.688L198.867 241.797H199.992ZM198.984 253.172C198.193 253.172 197.562 252.919 197.094 252.414C196.625 251.904 196.391 251.224 196.391 250.375C196.391 249.448 196.638 248.719 197.133 248.188C197.633 247.651 198.305 247.383 199.148 247.383C199.966 247.383 200.599 247.63 201.047 248.125C201.5 248.62 201.727 249.315 201.727 250.211C201.727 251.107 201.474 251.826 200.969 252.367C200.464 252.904 199.802 253.172 198.984 253.172ZM199.094 248.477C198.667 248.477 198.328 248.641 198.078 248.969C197.833 249.297 197.711 249.747 197.711 250.32C197.711 250.883 197.831 251.32 198.07 251.633C198.315 251.945 198.648 252.102 199.07 252.102C199.492 252.102 199.823 251.94 200.062 251.617C200.302 251.289 200.422 250.836 200.422 250.258C200.422 249.695 200.302 249.258 200.062 248.945C199.828 248.633 199.505 248.477 199.094 248.477ZM204.305 255.547H202.773C204.388 253.599 205.195 251.32 205.195 248.711C205.195 246.081 204.385 243.776 202.766 241.797H204.312C205.964 243.703 206.789 246.013 206.789 248.727C206.789 251.43 205.961 253.703 204.305 255.547Z" fill="#D3C8AE"/>
<path d="M84.5703 217.375H81.3516V227H79.4922V217.375H76.2812V215.797H84.5703V217.375ZM87.9922 227.188C86.7578 227.188 85.7708 226.815 85.0312 226.07C84.2969 225.32 83.9297 224.328 83.9297 223.094C83.9297 221.75 84.3125 220.701 85.0781 219.945C85.849 219.19 86.8854 218.812 88.1875 218.812C89.4375 218.812 90.4115 219.18 91.1094 219.914C91.8073 220.648 92.1562 221.667 92.1562 222.969C92.1562 224.245 91.7786 225.268 91.0234 226.039C90.2734 226.805 89.263 227.188 87.9922 227.188ZM88.0781 220.258C87.3698 220.258 86.8099 220.505 86.3984 221C85.987 221.495 85.7812 222.177 85.7812 223.047C85.7812 223.885 85.9896 224.547 86.4062 225.031C86.8229 225.51 87.3802 225.75 88.0781 225.75C88.7917 225.75 89.3385 225.513 89.7188 225.039C90.1042 224.565 90.2969 223.891 90.2969 223.016C90.2969 222.135 90.1042 221.456 89.7188 220.977C89.3385 220.497 88.7917 220.258 88.0781 220.258ZM98.2266 226.914C97.8724 227.091 97.4062 227.18 96.8281 227.18C95.276 227.18 94.5 226.435 94.5 224.945V220.422H93.1641V219H94.5V217.148L96.3125 216.633V219H98.2266V220.422H96.3125V224.422C96.3125 224.896 96.3984 225.234 96.5703 225.438C96.7422 225.641 97.0286 225.742 97.4297 225.742C97.737 225.742 98.0026 225.654 98.2266 225.477V226.914ZM105.93 227H104.172V225.75H104.141C103.589 226.708 102.779 227.188 101.711 227.188C100.924 227.188 100.307 226.974 99.8594 226.547C99.4167 226.12 99.1953 225.555 99.1953 224.852C99.1953 223.341 100.065 222.461 101.805 222.211L104.18 221.875C104.18 220.734 103.638 220.164 102.555 220.164C101.602 220.164 100.742 220.492 99.9766 221.148V219.562C100.82 219.062 101.794 218.812 102.898 218.812C104.919 218.812 105.93 219.807 105.93 221.797V227ZM104.18 223.07L102.5 223.305C101.979 223.372 101.586 223.5 101.32 223.688C101.06 223.87 100.93 224.193 100.93 224.656C100.93 224.995 101.049 225.273 101.289 225.492C101.534 225.706 101.859 225.812 102.266 225.812C102.818 225.812 103.273 225.62 103.633 225.234C103.997 224.844 104.18 224.354 104.18 223.766V223.07ZM109.969 227H108.148V215.156H109.969V227ZM123.148 227H116.945V215.797H118.805V225.43H123.148V227ZM131.344 223.492H125.891C125.911 224.232 126.138 224.802 126.57 225.203C127.008 225.604 127.607 225.805 128.367 225.805C129.221 225.805 130.005 225.549 130.719 225.039V226.5C129.99 226.958 129.026 227.188 127.828 227.188C126.651 227.188 125.727 226.826 125.055 226.102C124.388 225.372 124.055 224.349 124.055 223.031C124.055 221.786 124.422 220.773 125.156 219.992C125.896 219.206 126.812 218.812 127.906 218.812C129 218.812 129.846 219.164 130.445 219.867C131.044 220.57 131.344 221.547 131.344 222.797V223.492ZM129.594 222.211C129.589 221.56 129.435 221.055 129.133 220.695C128.831 220.331 128.414 220.148 127.883 220.148C127.362 220.148 126.919 220.339 126.555 220.719C126.195 221.099 125.974 221.596 125.891 222.211H129.594ZM139.211 227H137.453V225.75H137.422C136.87 226.708 136.06 227.188 134.992 227.188C134.206 227.188 133.589 226.974 133.141 226.547C132.698 226.12 132.477 225.555 132.477 224.852C132.477 223.341 133.346 222.461 135.086 222.211L137.461 221.875C137.461 220.734 136.919 220.164 135.836 220.164C134.883 220.164 134.023 220.492 133.258 221.148V219.562C134.102 219.062 135.076 218.812 136.18 218.812C138.201 218.812 139.211 219.807 139.211 221.797V227ZM137.461 223.07L135.781 223.305C135.26 223.372 134.867 223.5 134.602 223.688C134.341 223.87 134.211 224.193 134.211 224.656C134.211 224.995 134.331 225.273 134.57 225.492C134.815 225.706 135.141 225.812 135.547 225.812C136.099 225.812 136.555 225.62 136.914 225.234C137.279 224.844 137.461 224.354 137.461 223.766V223.07ZM140.93 226.75V225.07C141.607 225.586 142.354 225.844 143.172 225.844C144.266 225.844 144.812 225.521 144.812 224.875C144.812 224.693 144.766 224.539 144.672 224.414C144.578 224.284 144.451 224.169 144.289 224.07C144.133 223.971 143.945 223.883 143.727 223.805C143.513 223.727 143.273 223.638 143.008 223.539C142.68 223.409 142.383 223.271 142.117 223.125C141.857 222.979 141.638 222.815 141.461 222.633C141.289 222.445 141.159 222.234 141.07 222C140.982 221.766 140.938 221.492 140.938 221.18C140.938 220.794 141.029 220.456 141.211 220.164C141.393 219.867 141.638 219.62 141.945 219.422C142.253 219.219 142.602 219.068 142.992 218.969C143.383 218.865 143.786 218.812 144.203 218.812C144.943 218.812 145.604 218.924 146.188 219.148V220.734C145.625 220.349 144.979 220.156 144.25 220.156C144.021 220.156 143.812 220.18 143.625 220.227C143.443 220.273 143.286 220.339 143.156 220.422C143.026 220.505 142.924 220.607 142.852 220.727C142.779 220.841 142.742 220.969 142.742 221.109C142.742 221.281 142.779 221.427 142.852 221.547C142.924 221.667 143.031 221.773 143.172 221.867C143.318 221.956 143.49 222.039 143.688 222.117C143.891 222.19 144.122 222.271 144.383 222.359C144.727 222.5 145.034 222.643 145.305 222.789C145.581 222.935 145.815 223.102 146.008 223.289C146.201 223.471 146.349 223.685 146.453 223.93C146.557 224.169 146.609 224.456 146.609 224.789C146.609 225.195 146.516 225.549 146.328 225.852C146.141 226.154 145.891 226.404 145.578 226.602C145.266 226.799 144.904 226.945 144.492 227.039C144.086 227.138 143.656 227.188 143.203 227.188C142.328 227.188 141.57 227.042 140.93 226.75ZM155.109 223.492H149.656C149.677 224.232 149.904 224.802 150.336 225.203C150.773 225.604 151.372 225.805 152.133 225.805C152.987 225.805 153.771 225.549 154.484 225.039V226.5C153.755 226.958 152.792 227.188 151.594 227.188C150.417 227.188 149.492 226.826 148.82 226.102C148.154 225.372 147.82 224.349 147.82 223.031C147.82 221.786 148.188 220.773 148.922 219.992C149.661 219.206 150.578 218.812 151.672 218.812C152.766 218.812 153.612 219.164 154.211 219.867C154.81 220.57 155.109 221.547 155.109 222.797V223.492ZM153.359 222.211C153.354 221.56 153.201 221.055 152.898 220.695C152.596 220.331 152.18 220.148 151.648 220.148C151.128 220.148 150.685 220.339 150.32 220.719C149.961 221.099 149.74 221.596 149.656 222.211H153.359ZM164.109 227H162.297V225.641H162.266C161.682 226.672 160.784 227.188 159.57 227.188C158.586 227.188 157.797 226.831 157.203 226.117C156.615 225.398 156.32 224.422 156.32 223.188C156.32 221.865 156.646 220.805 157.297 220.008C157.953 219.211 158.826 218.812 159.914 218.812C160.992 218.812 161.776 219.245 162.266 220.109H162.297V215.156H164.109V227ZM162.32 223.344V222.297C162.32 221.729 162.135 221.247 161.766 220.852C161.396 220.456 160.924 220.258 160.352 220.258C159.674 220.258 159.141 220.51 158.75 221.016C158.365 221.521 158.172 222.221 158.172 223.117C158.172 223.93 158.357 224.573 158.727 225.047C159.102 225.516 159.604 225.75 160.234 225.75C160.854 225.75 161.357 225.523 161.742 225.07C162.128 224.612 162.32 224.036 162.32 223.344ZM174.859 229.547H173.328C171.682 227.703 170.859 225.43 170.859 222.727C170.859 220.013 171.682 217.703 173.328 215.797H174.867C173.253 217.776 172.445 220.081 172.445 222.711C172.445 225.32 173.25 227.599 174.859 229.547ZM182.25 215.797V223.031H183.914V224.539H182.25V227H180.492V224.539H175.422V223.016C175.88 222.5 176.349 221.943 176.828 221.344C177.312 220.74 177.776 220.125 178.219 219.5C178.667 218.87 179.081 218.24 179.461 217.609C179.841 216.979 180.161 216.375 180.422 215.797H182.25ZM180.492 223.031V218.328C179.924 219.349 179.362 220.24 178.805 221C178.253 221.76 177.734 222.438 177.25 223.031H180.492ZM188.555 227.188C187.388 227.188 186.477 226.711 185.82 225.758C185.169 224.805 184.844 223.427 184.844 221.625C184.844 219.646 185.185 218.148 185.867 217.133C186.549 216.117 187.534 215.609 188.82 215.609C191.284 215.609 192.516 217.523 192.516 221.352C192.516 223.247 192.167 224.695 191.469 225.695C190.776 226.69 189.805 227.188 188.555 227.188ZM188.734 217.055C187.375 217.055 186.695 218.552 186.695 221.547C186.695 224.349 187.362 225.75 188.695 225.75C190.008 225.75 190.664 224.326 190.664 221.477C190.664 218.529 190.021 217.055 188.734 217.055ZM196.375 221.422C195.583 221.422 194.953 221.169 194.484 220.664C194.016 220.154 193.781 219.474 193.781 218.625C193.781 217.698 194.029 216.969 194.523 216.438C195.023 215.901 195.695 215.633 196.539 215.633C197.357 215.633 197.99 215.88 198.438 216.375C198.891 216.87 199.117 217.565 199.117 218.461C199.117 219.357 198.865 220.076 198.359 220.617C197.854 221.154 197.193 221.422 196.375 221.422ZM196.484 216.727C196.057 216.727 195.719 216.891 195.469 217.219C195.224 217.547 195.102 217.997 195.102 218.57C195.102 219.133 195.221 219.57 195.461 219.883C195.706 220.195 196.039 220.352 196.461 220.352C196.883 220.352 197.214 220.19 197.453 219.867C197.693 219.539 197.812 219.086 197.812 218.508C197.812 217.945 197.693 217.508 197.453 217.195C197.219 216.883 196.896 216.727 196.484 216.727ZM203.961 215.797L196.773 227.078H195.656L202.836 215.797H203.961ZM202.953 227.172C202.161 227.172 201.531 226.919 201.062 226.414C200.594 225.904 200.359 225.224 200.359 224.375C200.359 223.448 200.607 222.719 201.102 222.188C201.602 221.651 202.273 221.383 203.117 221.383C203.935 221.383 204.568 221.63 205.016 222.125C205.469 222.62 205.695 223.315 205.695 224.211C205.695 225.107 205.443 225.826 204.938 226.367C204.432 226.904 203.771 227.172 202.953 227.172ZM203.062 222.477C202.635 222.477 202.297 222.641 202.047 222.969C201.802 223.297 201.68 223.747 201.68 224.32C201.68 224.883 201.799 225.32 202.039 225.633C202.284 225.945 202.617 226.102 203.039 226.102C203.461 226.102 203.792 225.94 204.031 225.617C204.271 225.289 204.391 224.836 204.391 224.258C204.391 223.695 204.271 223.258 204.031 222.945C203.797 222.633 203.474 222.477 203.062 222.477ZM208.273 229.547H206.742C208.357 227.599 209.164 225.32 209.164 222.711C209.164 220.081 208.354 217.776 206.734 215.797H208.281C209.932 217.703 210.758 220.013 210.758 222.727C210.758 225.43 209.93 227.703 208.273 229.547Z" fill="#C69F39"/>
<path d="M39.424 53V33.32H37.152C36.0213 33.32 35.1253 33.608 34.464 34.184C33.8027 34.7387 33.472 35.7307 33.472 37.16H32.512V34.44C32.512 34.0133 32.5867 33.608 32.736 33.224C32.8853 32.8187 33.152 32.4987 33.536 32.264C33.9413 32.008 34.5067 31.88 35.232 31.88H50.272V33.32H43.584V53H39.424ZM56.9258 53.32C55.3471 53.32 53.9818 52.9787 52.8298 52.296C51.6778 51.592 50.7924 50.6427 50.1738 49.448C49.5551 48.2533 49.2458 46.9307 49.2458 45.48C49.2458 44.008 49.5551 42.6853 50.1738 41.512C50.7924 40.3173 51.6778 39.3787 52.8298 38.696C53.9818 37.992 55.3471 37.64 56.9258 37.64C58.5258 37.64 59.8911 37.992 61.0218 38.696C62.1738 39.3787 63.0591 40.3173 63.6778 41.512C64.2964 42.6853 64.6058 44.008 64.6058 45.48C64.6058 46.9307 64.2964 48.2533 63.6778 49.448C63.0591 50.6427 62.1738 51.592 61.0218 52.296C59.8911 52.9787 58.5258 53.32 56.9258 53.32ZM56.9258 51.88C57.6724 51.88 58.2911 51.6027 58.7818 51.048C59.2938 50.4933 59.6671 49.736 59.9018 48.776C60.1578 47.7947 60.2858 46.696 60.2858 45.48C60.2858 44.2427 60.1578 43.144 59.9018 42.184C59.6671 41.224 59.2938 40.4667 58.7818 39.912C58.2911 39.3573 57.6724 39.08 56.9258 39.08C56.1791 39.08 55.5498 39.3573 55.0378 39.912C54.5471 40.4667 54.1738 41.224 53.9178 42.184C53.6831 43.144 53.5658 44.2427 53.5658 45.48C53.5658 46.696 53.6831 47.7947 53.9178 48.776C54.1738 49.736 54.5471 50.4933 55.0378 51.048C55.5498 51.6027 56.1791 51.88 56.9258 51.88ZM72.982 53.32C71.5313 53.32 70.39 52.9253 69.558 52.136C68.7473 51.3467 68.342 50.184 68.342 48.648V39.4H66.422V37.96H68.342V35.08L69.942 33.16H72.502V37.96H76.022V39.4H72.502V48.84C72.502 50.0347 72.6407 50.8453 72.918 51.272C73.2167 51.6773 73.6327 51.88 74.166 51.88C74.7207 51.88 75.2113 51.784 75.638 51.592C76.0647 51.4 76.4167 51.208 76.694 51.016L77.142 51.912C76.7153 52.296 76.1607 52.6267 75.478 52.904C74.7953 53.1813 73.9633 53.32 72.982 53.32ZM83.4305 53.32C82.5345 53.32 81.7452 53.2133 81.0625 53C80.4012 52.7867 79.8358 52.4987 79.3665 52.136C78.9185 51.752 78.5772 51.2933 78.3425 50.76C78.1078 50.2267 77.9905 49.64 77.9905 49C77.9905 47.976 78.2252 47.112 78.6945 46.408C79.1852 45.6827 80.0598 45.1387 81.3185 44.776C82.5772 44.392 84.3478 44.2 86.6305 44.2H87.1105C87.1105 42.92 86.9932 41.9067 86.7585 41.16C86.5238 40.4133 86.1718 39.88 85.7025 39.56C85.2545 39.24 84.7105 39.08 84.0705 39.08C83.3452 39.08 82.6945 39.2613 82.1185 39.624C81.5425 39.9867 81.1265 40.7653 80.8705 41.96H79.1105C79.1105 41.4053 79.1425 40.84 79.2065 40.264C79.2918 39.688 79.5265 39.1867 79.9105 38.76C80.2945 38.3333 80.9238 38.0453 81.7985 37.896C82.6945 37.7253 83.6652 37.64 84.7105 37.64C85.7558 37.64 86.6838 37.7787 87.4945 38.056C88.3052 38.3333 88.9878 38.7493 89.5425 39.304C90.1185 39.8587 90.5452 40.5627 90.8225 41.416C91.1212 42.248 91.2705 43.2293 91.2705 44.36V53H88.5505L87.4305 51.56H87.2705C86.9932 52.008 86.5238 52.4133 85.8625 52.776C85.2012 53.1387 84.3905 53.32 83.4305 53.32ZM84.3905 51.72C85.0945 51.72 85.6812 51.4853 86.1505 51.016C86.6198 50.5467 86.9398 50.088 87.1105 49.64V45.64H86.6305C85.0945 45.64 83.9852 45.9173 83.3025 46.472C82.6412 47.0267 82.3105 47.8693 82.3105 49C82.3105 49.896 82.4918 50.5787 82.8545 51.048C83.2385 51.496 83.7505 51.72 84.3905 51.72ZM94.9855 53V36.04C94.9855 35.08 94.8468 34.312 94.5695 33.736C94.3135 33.1387 93.7055 32.84 92.7455 32.84H92.4255V31.88H96.2655C97.0122 31.88 97.5882 32.008 97.9935 32.264C98.4202 32.52 98.7188 32.9467 98.8895 33.544C99.0602 34.1413 99.1455 34.9733 99.1455 36.04V53H94.9855ZM112.228 53V36.04C112.228 35.08 112.089 34.312 111.812 33.736C111.556 33.1387 110.948 32.84 109.988 32.84H109.668V31.88H113.508C114.254 31.88 114.83 32.008 115.236 32.264C115.662 32.52 115.961 32.9467 116.132 33.544C116.302 34.1413 116.388 34.9733 116.388 36.04V51.56H127.428V53H112.228ZM135.513 53.32C134.019 53.32 132.718 52.9787 131.609 52.296C130.499 51.6133 129.646 50.6853 129.049 49.512C128.451 48.3173 128.153 46.9733 128.153 45.48C128.153 43.7733 128.462 42.344 129.081 41.192C129.699 40.0187 130.542 39.1333 131.609 38.536C132.675 37.9387 133.87 37.64 135.193 37.64C136.515 37.64 137.71 37.9067 138.777 38.44C139.843 38.9733 140.686 39.72 141.305 40.68C141.923 41.64 142.233 42.76 142.233 44.04L142.105 46.056H132.473C132.473 48.168 132.793 49.672 133.433 50.568C134.094 51.4427 134.947 51.88 135.993 51.88C137.102 51.88 137.998 51.624 138.681 51.112C139.385 50.6 140.014 49.9707 140.569 49.224L141.561 49.96C141.262 50.4293 140.857 50.9307 140.345 51.464C139.854 51.976 139.214 52.4133 138.425 52.776C137.657 53.1387 136.686 53.32 135.513 53.32ZM132.473 44.616H137.913C137.913 42.504 137.657 41.0533 137.145 40.264C136.654 39.4747 136.003 39.08 135.193 39.08C134.723 39.08 134.275 39.2507 133.849 39.592C133.443 39.9333 133.113 40.5093 132.857 41.32C132.601 42.1093 132.473 43.208 132.473 44.616ZM149.618 53.32C148.722 53.32 147.933 53.2133 147.25 53C146.589 52.7867 146.023 52.4987 145.554 52.136C145.106 51.752 144.765 51.2933 144.53 50.76C144.295 50.2267 144.178 49.64 144.178 49C144.178 47.976 144.413 47.112 144.882 46.408C145.373 45.6827 146.247 45.1387 147.506 44.776C148.765 44.392 150.535 44.2 152.818 44.2H153.298C153.298 42.92 153.181 41.9067 152.946 41.16C152.711 40.4133 152.359 39.88 151.89 39.56C151.442 39.24 150.898 39.08 150.258 39.08C149.533 39.08 148.882 39.2613 148.306 39.624C147.73 39.9867 147.314 40.7653 147.058 41.96H145.298C145.298 41.4053 145.33 40.84 145.394 40.264C145.479 39.688 145.714 39.1867 146.098 38.76C146.482 38.3333 147.111 38.0453 147.986 37.896C148.882 37.7253 149.853 37.64 150.898 37.64C151.943 37.64 152.871 37.7787 153.682 38.056C154.493 38.3333 155.175 38.7493 155.73 39.304C156.306 39.8587 156.733 40.5627 157.01 41.416C157.309 42.248 157.458 43.2293 157.458 44.36V53H154.738L153.618 51.56H153.458C153.181 52.008 152.711 52.4133 152.05 52.776C151.389 53.1387 150.578 53.32 149.618 53.32ZM150.578 51.72C151.282 51.72 151.869 51.4853 152.338 51.016C152.807 50.5467 153.127 50.088 153.298 49.64V45.64H152.818C151.282 45.64 150.173 45.9173 149.49 46.472C148.829 47.0267 148.498 47.8693 148.498 49C148.498 49.896 148.679 50.5787 149.042 51.048C149.426 51.496 149.938 51.72 150.578 51.72ZM166.453 53.32C165.13 53.32 164.042 53.2027 163.189 52.968C162.357 52.7333 161.728 52.4133 161.301 52.008C160.917 51.6453 160.693 51.1227 160.629 50.44C160.565 49.7573 160.533 49.0107 160.533 48.2H161.653C161.824 49.224 162.24 50.0987 162.901 50.824C163.562 51.528 164.533 51.88 165.813 51.88C167.008 51.88 167.84 51.6773 168.309 51.272C168.778 50.8453 169.013 50.3227 169.013 49.704C169.013 49.0853 168.736 48.5947 168.181 48.232C167.626 47.848 166.944 47.4747 166.133 47.112L164.469 46.408C163.189 45.8533 162.186 45.224 161.461 44.52C160.736 43.816 160.373 42.9413 160.373 41.896C160.373 40.5093 160.949 39.4533 162.101 38.728C163.253 38.0027 164.704 37.64 166.453 37.64C167.776 37.64 168.853 37.7573 169.685 37.992C170.538 38.2267 171.178 38.5467 171.605 38.952C171.989 39.3147 172.213 39.8373 172.277 40.52C172.341 41.2027 172.373 41.9493 172.373 42.76H171.253C171.082 41.736 170.666 40.872 170.005 40.168C169.344 39.4427 168.373 39.08 167.093 39.08C166.133 39.08 165.44 39.2933 165.013 39.72C164.586 40.1253 164.373 40.6373 164.373 41.256C164.373 41.832 164.576 42.3013 164.981 42.664C165.386 43.0053 165.941 43.3253 166.645 43.624L168.565 44.424C170.037 45.0427 171.146 45.6933 171.893 46.376C172.64 47.0373 173.013 47.9333 173.013 49.064C173.013 50.4507 172.394 51.5067 171.157 52.232C169.92 52.9573 168.352 53.32 166.453 53.32ZM182.638 53.32C181.144 53.32 179.843 52.9787 178.734 52.296C177.624 51.6133 176.771 50.6853 176.174 49.512C175.576 48.3173 175.278 46.9733 175.278 45.48C175.278 43.7733 175.587 42.344 176.206 41.192C176.824 40.0187 177.667 39.1333 178.734 38.536C179.8 37.9387 180.995 37.64 182.318 37.64C183.64 37.64 184.835 37.9067 185.902 38.44C186.968 38.9733 187.811 39.72 188.43 40.68C189.048 41.64 189.358 42.76 189.358 44.04L189.23 46.056H179.598C179.598 48.168 179.918 49.672 180.558 50.568C181.219 51.4427 182.072 51.88 183.118 51.88C184.227 51.88 185.123 51.624 185.806 51.112C186.51 50.6 187.139 49.9707 187.694 49.224L188.686 49.96C188.387 50.4293 187.982 50.9307 187.47 51.464C186.979 51.976 186.339 52.4133 185.55 52.776C184.782 53.1387 183.811 53.32 182.638 53.32ZM179.598 44.616H185.038C185.038 42.504 184.782 41.0533 184.27 40.264C183.779 39.4747 183.128 39.08 182.318 39.08C181.848 39.08 181.4 39.2507 180.974 39.592C180.568 39.9333 180.238 40.5093 179.982 41.32C179.726 42.1093 179.598 43.208 179.598 44.616Z" fill="#837550"/>
<path d="M55.4375 116.797V123.859H56.7812V125.703H55.4375V128H53.1875V125.703H48.3047V123.773C48.737 123.289 49.1849 122.76 49.6484 122.188C50.112 121.609 50.5599 121.016 50.9922 120.406C51.4245 119.797 51.8255 119.185 52.1953 118.57C52.5703 117.951 52.888 117.359 53.1484 116.797H55.4375ZM50.5156 123.859H53.1875V119.945C53.0052 120.284 52.8073 120.628 52.5938 120.977C52.3802 121.32 52.1562 121.661 51.9219 122C51.6875 122.333 51.4505 122.659 51.2109 122.977C50.9714 123.289 50.7396 123.583 50.5156 123.859ZM61.7422 128.195C59.0755 128.195 57.7422 126.323 57.7422 122.578C57.7422 120.635 58.1016 119.156 58.8203 118.141C59.5443 117.12 60.5911 116.609 61.9609 116.609C64.5651 116.609 65.8672 118.513 65.8672 122.32C65.8672 124.216 65.5104 125.669 64.7969 126.68C64.0885 127.69 63.0703 128.195 61.7422 128.195ZM61.8516 118.492C60.7839 118.492 60.25 119.833 60.25 122.516C60.25 125.042 60.7734 126.305 61.8203 126.305C62.8411 126.305 63.3516 125.003 63.3516 122.398C63.3516 119.794 62.8516 118.492 61.8516 118.492ZM69.7656 122.477C68.9688 122.477 68.3255 122.224 67.8359 121.719C67.3516 121.214 67.1094 120.534 67.1094 119.68C67.1094 118.747 67.3672 118.008 67.8828 117.461C68.4036 116.914 69.0964 116.641 69.9609 116.641C70.7891 116.641 71.4349 116.888 71.8984 117.383C72.3672 117.878 72.6016 118.573 72.6016 119.469C72.6016 120.391 72.3438 121.122 71.8281 121.664C71.3125 122.206 70.625 122.477 69.7656 122.477ZM69.9141 118.016C69.1536 118.016 68.7734 118.544 68.7734 119.602C68.7734 120.602 69.1354 121.102 69.8594 121.102C70.599 121.102 70.9688 120.581 70.9688 119.539C70.9688 118.523 70.6172 118.016 69.9141 118.016ZM77.9453 116.797L70.6484 128H68.7422L76.0234 116.797H77.9453ZM76.7422 128.156C75.9453 128.156 75.3021 127.904 74.8125 127.398C74.3281 126.893 74.0859 126.214 74.0859 125.359C74.0859 124.427 74.3438 123.688 74.8594 123.141C75.3802 122.594 76.0729 122.32 76.9375 122.32C77.7708 122.32 78.4193 122.565 78.8828 123.055C79.3464 123.544 79.5781 124.237 79.5781 125.133C79.5781 126.055 79.3203 126.789 78.8047 127.336C78.2891 127.883 77.6016 128.156 76.7422 128.156ZM76.8672 123.695C76.112 123.695 75.7344 124.224 75.7344 125.281C75.7344 126.281 76.1016 126.781 76.8359 126.781C77.5755 126.781 77.9453 126.26 77.9453 125.219C77.9453 124.734 77.8464 124.359 77.6484 124.094C77.4505 123.828 77.1901 123.695 76.8672 123.695Z" fill="#C69F3A"/>
<path d="M283.672 102.273C283.672 102.826 283.576 103.341 283.383 103.82C283.19 104.299 282.922 104.716 282.578 105.07C282.234 105.419 281.826 105.695 281.352 105.898C280.878 106.096 280.359 106.195 279.797 106.195C279.167 106.195 278.602 106.078 278.102 105.844C277.607 105.609 277.188 105.271 276.844 104.828C276.5 104.38 276.237 103.833 276.055 103.188C275.872 102.542 275.781 101.81 275.781 100.992C275.781 100.029 275.898 99.1562 276.133 98.375C276.372 97.5885 276.711 96.9167 277.148 96.3594C277.591 95.8021 278.125 95.3724 278.75 95.0703C279.375 94.763 280.078 94.6094 280.859 94.6094C281.724 94.6094 282.396 94.7109 282.875 94.9141V96.9766C282.307 96.6536 281.688 96.4922 281.016 96.4922C280.599 96.4922 280.221 96.5729 279.883 96.7344C279.544 96.8958 279.253 97.125 279.008 97.4219C278.768 97.7188 278.578 98.0781 278.438 98.5C278.302 98.9167 278.229 99.3828 278.219 99.8984H278.266C278.797 99.1641 279.581 98.7969 280.617 98.7969C281.081 98.7969 281.5 98.8802 281.875 99.0469C282.25 99.2135 282.57 99.4505 282.836 99.7578C283.102 100.06 283.307 100.424 283.453 100.852C283.599 101.279 283.672 101.753 283.672 102.273ZM281.258 102.43C281.258 101.227 280.766 100.625 279.781 100.625C279.557 100.625 279.354 100.667 279.172 100.75C278.99 100.833 278.833 100.951 278.703 101.102C278.573 101.253 278.471 101.432 278.398 101.641C278.331 101.844 278.297 102.07 278.297 102.32C278.297 102.596 278.333 102.854 278.406 103.094C278.479 103.333 278.581 103.544 278.711 103.727C278.846 103.904 279.005 104.044 279.188 104.148C279.37 104.253 279.573 104.305 279.797 104.305C280.021 104.305 280.221 104.26 280.398 104.172C280.581 104.078 280.734 103.951 280.859 103.789C280.99 103.622 281.089 103.424 281.156 103.195C281.224 102.961 281.258 102.706 281.258 102.43ZM288.742 106.195C286.076 106.195 284.742 104.323 284.742 100.578C284.742 98.6354 285.102 97.1562 285.82 96.1406C286.544 95.1198 287.591 94.6094 288.961 94.6094C291.565 94.6094 292.867 96.513 292.867 100.32C292.867 102.216 292.51 103.669 291.797 104.68C291.089 105.69 290.07 106.195 288.742 106.195ZM288.852 96.4922C287.784 96.4922 287.25 97.8333 287.25 100.516C287.25 103.042 287.773 104.305 288.82 104.305C289.841 104.305 290.352 103.003 290.352 100.398C290.352 97.7943 289.852 96.4922 288.852 96.4922ZM296.766 100.477C295.969 100.477 295.326 100.224 294.836 99.7188C294.352 99.2135 294.109 98.5339 294.109 97.6797C294.109 96.7474 294.367 96.0078 294.883 95.4609C295.404 94.9141 296.096 94.6406 296.961 94.6406C297.789 94.6406 298.435 94.888 298.898 95.3828C299.367 95.8776 299.602 96.5729 299.602 97.4688C299.602 98.3906 299.344 99.1224 298.828 99.6641C298.312 100.206 297.625 100.477 296.766 100.477ZM296.914 96.0156C296.154 96.0156 295.773 96.5443 295.773 97.6016C295.773 98.6016 296.135 99.1016 296.859 99.1016C297.599 99.1016 297.969 98.5807 297.969 97.5391C297.969 96.5234 297.617 96.0156 296.914 96.0156ZM304.945 94.7969L297.648 106H295.742L303.023 94.7969H304.945ZM303.742 106.156C302.945 106.156 302.302 105.904 301.812 105.398C301.328 104.893 301.086 104.214 301.086 103.359C301.086 102.427 301.344 101.688 301.859 101.141C302.38 100.594 303.073 100.32 303.938 100.32C304.771 100.32 305.419 100.565 305.883 101.055C306.346 101.544 306.578 102.237 306.578 103.133C306.578 104.055 306.32 104.789 305.805 105.336C305.289 105.883 304.602 106.156 303.742 106.156ZM303.867 101.695C303.112 101.695 302.734 102.224 302.734 103.281C302.734 104.281 303.102 104.781 303.836 104.781C304.576 104.781 304.945 104.26 304.945 103.219C304.945 102.734 304.846 102.359 304.648 102.094C304.451 101.828 304.19 101.695 303.867 101.695Z" fill="#D3C8AE"/>
<circle cx="62" cy="247" r="8" fill="#D3C8AE"/>
<circle cx="62" cy="221" r="8" fill="#C69F39"/>
<path d="M77 184C77 170.343 79.703 156.819 84.9546 144.201C90.2062 131.583 97.9036 120.118 107.607 110.461C117.311 100.804 128.831 93.143 141.51 87.9165C154.188 82.69 167.777 80 181.5 80C195.223 80 208.812 82.69 221.49 87.9165C234.169 93.143 245.689 100.804 255.393 110.461C265.096 120.118 272.794 131.583 278.045 144.201C283.297 156.819 286 170.343 286 184L254.93 184C254.93 174.403 253.031 164.9 249.341 156.034C245.65 147.168 240.242 139.112 233.423 132.326C226.604 125.54 218.509 120.157 209.6 116.484C200.692 112.812 191.143 110.921 181.5 110.921C171.857 110.921 162.308 112.811 153.4 116.484C144.491 120.157 136.396 125.54 129.577 132.326C122.758 139.112 117.35 147.168 113.659 156.034C109.969 164.9 108.07 174.403 108.07 184L77 184Z" fill="#D3C8AE"/>
<path d="M77.8054 184C77.8054 161.937 84.7902 140.44 97.7587 122.59C110.727 104.741 129.014 91.4548 149.997 84.6369L159.595 114.178C144.85 118.969 132 128.305 122.888 140.847C113.775 153.39 108.866 168.496 108.866 184L77.8054 184Z" fill="#C69F39"/>
<defs>
<linearGradient id="paint0_linear_200_2914" x1="0" y1="140.5" x2="364" y2="140.5" gradientUnits="userSpaceOnUse">
<stop stop-color="#EEE8DA"/>
<stop offset="1" stop-color="#EDE6D6"/>
</linearGradient>
</defs>
</svg>
