<svg width="364" height="281" viewBox="0 0 364 281" fill="none" xmlns="http://www.w3.org/2000/svg">
<path d="M0 24C0 10.7452 10.7452 0 24 0H340C353.255 0 364 10.7452 364 24V257C364 270.255 353.255 281 340 281H24C10.7452 281 0 270.255 0 257V24Z" fill="url(#paint0_linear_200_2913)"/>
<path d="M79.2344 248.938V253H77.3828V241.797H80.7812C82.0677 241.797 83.0651 242.096 83.7734 242.695C84.4818 243.294 84.8359 244.138 84.8359 245.227C84.8359 246.315 84.4661 247.206 83.7266 247.898C82.987 248.591 81.987 248.938 80.7266 248.938H79.2344ZM79.2344 243.328V247.422H80.4375C81.2344 247.422 81.8411 247.237 82.2578 246.867C82.6745 246.497 82.8828 245.977 82.8828 245.305C82.8828 243.987 82.1172 243.328 80.5859 243.328H79.2344ZM91.1797 246.727C90.9609 246.555 90.6458 246.469 90.2344 246.469C89.6979 246.469 89.25 246.711 88.8906 247.195C88.5312 247.68 88.3516 248.339 88.3516 249.172V253H86.5391V245H88.3516V246.648H88.3828C88.5599 246.086 88.8307 245.648 89.1953 245.336C89.5651 245.018 89.9766 244.859 90.4297 244.859C90.7578 244.859 91.0078 244.909 91.1797 245.008V246.727ZM95.8672 253.188C94.6328 253.188 93.6458 252.815 92.9062 252.07C92.1719 251.32 91.8047 250.328 91.8047 249.094C91.8047 247.75 92.1875 246.701 92.9531 245.945C93.724 245.19 94.7604 244.812 96.0625 244.812C97.3125 244.812 98.2865 245.18 98.9844 245.914C99.6823 246.648 100.031 247.667 100.031 248.969C100.031 250.245 99.6536 251.268 98.8984 252.039C98.1484 252.805 97.138 253.188 95.8672 253.188ZM95.9531 246.258C95.2448 246.258 94.6849 246.505 94.2734 247C93.862 247.495 93.6562 248.177 93.6562 249.047C93.6562 249.885 93.8646 250.547 94.2812 251.031C94.6979 251.51 95.2552 251.75 95.9531 251.75C96.6667 251.75 97.2135 251.513 97.5938 251.039C97.9792 250.565 98.1719 249.891 98.1719 249.016C98.1719 248.135 97.9792 247.456 97.5938 246.977C97.2135 246.497 96.6667 246.258 95.9531 246.258ZM109.164 252.359C109.164 255.297 107.688 256.766 104.734 256.766C103.693 256.766 102.784 256.591 102.008 256.242V254.586C102.883 255.086 103.714 255.336 104.5 255.336C106.401 255.336 107.352 254.401 107.352 252.531V251.656H107.32C106.721 252.677 105.82 253.188 104.617 253.188C103.643 253.188 102.857 252.833 102.258 252.125C101.664 251.411 101.367 250.456 101.367 249.258C101.367 247.898 101.688 246.818 102.328 246.016C102.969 245.214 103.849 244.812 104.969 244.812C106.026 244.812 106.81 245.245 107.32 246.109H107.352V245H109.164V252.359ZM107.367 249.336V248.297C107.367 247.734 107.18 247.255 106.805 246.859C106.435 246.458 105.971 246.258 105.414 246.258C104.727 246.258 104.188 246.513 103.797 247.023C103.411 247.529 103.219 248.237 103.219 249.148C103.219 249.935 103.404 250.565 103.773 251.039C104.148 251.508 104.643 251.742 105.258 251.742C105.883 251.742 106.391 251.518 106.781 251.07C107.172 250.617 107.367 250.039 107.367 249.336ZM116.164 246.727C115.945 246.555 115.63 246.469 115.219 246.469C114.682 246.469 114.234 246.711 113.875 247.195C113.516 247.68 113.336 248.339 113.336 249.172V253H111.523V245H113.336V246.648H113.367C113.544 246.086 113.815 245.648 114.18 245.336C114.549 245.018 114.961 244.859 115.414 244.859C115.742 244.859 115.992 244.909 116.164 245.008V246.727ZM124.078 249.492H118.625C118.646 250.232 118.872 250.802 119.305 251.203C119.742 251.604 120.341 251.805 121.102 251.805C121.956 251.805 122.74 251.549 123.453 251.039V252.5C122.724 252.958 121.76 253.188 120.562 253.188C119.385 253.188 118.461 252.826 117.789 252.102C117.122 251.372 116.789 250.349 116.789 249.031C116.789 247.786 117.156 246.773 117.891 245.992C118.63 245.206 119.547 244.812 120.641 244.812C121.734 244.812 122.581 245.164 123.18 245.867C123.779 246.57 124.078 247.547 124.078 248.797V249.492ZM122.328 248.211C122.323 247.56 122.169 247.055 121.867 246.695C121.565 246.331 121.148 246.148 120.617 246.148C120.096 246.148 119.654 246.339 119.289 246.719C118.93 247.099 118.708 247.596 118.625 248.211H122.328ZM125.305 252.75V251.07C125.982 251.586 126.729 251.844 127.547 251.844C128.641 251.844 129.188 251.521 129.188 250.875C129.188 250.693 129.141 250.539 129.047 250.414C128.953 250.284 128.826 250.169 128.664 250.07C128.508 249.971 128.32 249.883 128.102 249.805C127.888 249.727 127.648 249.638 127.383 249.539C127.055 249.409 126.758 249.271 126.492 249.125C126.232 248.979 126.013 248.815 125.836 248.633C125.664 248.445 125.534 248.234 125.445 248C125.357 247.766 125.312 247.492 125.312 247.18C125.312 246.794 125.404 246.456 125.586 246.164C125.768 245.867 126.013 245.62 126.32 245.422C126.628 245.219 126.977 245.068 127.367 244.969C127.758 244.865 128.161 244.812 128.578 244.812C129.318 244.812 129.979 244.924 130.562 245.148V246.734C130 246.349 129.354 246.156 128.625 246.156C128.396 246.156 128.188 246.18 128 246.227C127.818 246.273 127.661 246.339 127.531 246.422C127.401 246.505 127.299 246.607 127.227 246.727C127.154 246.841 127.117 246.969 127.117 247.109C127.117 247.281 127.154 247.427 127.227 247.547C127.299 247.667 127.406 247.773 127.547 247.867C127.693 247.956 127.865 248.039 128.062 248.117C128.266 248.19 128.497 248.271 128.758 248.359C129.102 248.5 129.409 248.643 129.68 248.789C129.956 248.935 130.19 249.102 130.383 249.289C130.576 249.471 130.724 249.685 130.828 249.93C130.932 250.169 130.984 250.456 130.984 250.789C130.984 251.195 130.891 251.549 130.703 251.852C130.516 252.154 130.266 252.404 129.953 252.602C129.641 252.799 129.279 252.945 128.867 253.039C128.461 253.138 128.031 253.188 127.578 253.188C126.703 253.188 125.945 253.042 125.305 252.75ZM132.211 252.75V251.07C132.888 251.586 133.635 251.844 134.453 251.844C135.547 251.844 136.094 251.521 136.094 250.875C136.094 250.693 136.047 250.539 135.953 250.414C135.859 250.284 135.732 250.169 135.57 250.07C135.414 249.971 135.227 249.883 135.008 249.805C134.794 249.727 134.555 249.638 134.289 249.539C133.961 249.409 133.664 249.271 133.398 249.125C133.138 248.979 132.919 248.815 132.742 248.633C132.57 248.445 132.44 248.234 132.352 248C132.263 247.766 132.219 247.492 132.219 247.18C132.219 246.794 132.31 246.456 132.492 246.164C132.674 245.867 132.919 245.62 133.227 245.422C133.534 245.219 133.883 245.068 134.273 244.969C134.664 244.865 135.068 244.812 135.484 244.812C136.224 244.812 136.885 244.924 137.469 245.148V246.734C136.906 246.349 136.26 246.156 135.531 246.156C135.302 246.156 135.094 246.18 134.906 246.227C134.724 246.273 134.568 246.339 134.438 246.422C134.307 246.505 134.206 246.607 134.133 246.727C134.06 246.841 134.023 246.969 134.023 247.109C134.023 247.281 134.06 247.427 134.133 247.547C134.206 247.667 134.312 247.773 134.453 247.867C134.599 247.956 134.771 248.039 134.969 248.117C135.172 248.19 135.404 248.271 135.664 248.359C136.008 248.5 136.315 248.643 136.586 248.789C136.862 248.935 137.096 249.102 137.289 249.289C137.482 249.471 137.63 249.685 137.734 249.93C137.839 250.169 137.891 250.456 137.891 250.789C137.891 251.195 137.797 251.549 137.609 251.852C137.422 252.154 137.172 252.404 136.859 252.602C136.547 252.799 136.185 252.945 135.773 253.039C135.367 253.138 134.938 253.188 134.484 253.188C133.609 253.188 132.852 253.042 132.211 252.75ZM140.531 243.32C140.234 243.32 139.979 243.224 139.766 243.031C139.557 242.839 139.453 242.594 139.453 242.297C139.453 242 139.557 241.753 139.766 241.555C139.979 241.357 140.234 241.258 140.531 241.258C140.839 241.258 141.099 241.357 141.312 241.555C141.526 241.753 141.633 242 141.633 242.297C141.633 242.578 141.526 242.82 141.312 243.023C141.099 243.221 140.839 243.32 140.531 243.32ZM141.43 253H139.617V245H141.43V253ZM150.93 253H149.117V248.492C149.117 246.997 148.589 246.25 147.531 246.25C146.979 246.25 146.523 246.458 146.164 246.875C145.805 247.286 145.625 247.807 145.625 248.438V253H143.805V245H145.625V246.328H145.656C146.255 245.318 147.12 244.812 148.25 244.812C149.12 244.812 149.784 245.096 150.242 245.664C150.701 246.227 150.93 247.042 150.93 248.109V253ZM160.43 252.359C160.43 255.297 158.953 256.766 156 256.766C154.958 256.766 154.049 256.591 153.273 256.242V254.586C154.148 255.086 154.979 255.336 155.766 255.336C157.667 255.336 158.617 254.401 158.617 252.531V251.656H158.586C157.987 252.677 157.086 253.188 155.883 253.188C154.909 253.188 154.122 252.833 153.523 252.125C152.93 251.411 152.633 250.456 152.633 249.258C152.633 247.898 152.953 246.818 153.594 246.016C154.234 245.214 155.115 244.812 156.234 244.812C157.292 244.812 158.076 245.245 158.586 246.109H158.617V245H160.43V252.359ZM158.633 249.336V248.297C158.633 247.734 158.445 247.255 158.07 246.859C157.701 246.458 157.237 246.258 156.68 246.258C155.992 246.258 155.453 246.513 155.062 247.023C154.677 247.529 154.484 248.237 154.484 249.148C154.484 249.935 154.669 250.565 155.039 251.039C155.414 251.508 155.909 251.742 156.523 251.742C157.148 251.742 157.656 251.518 158.047 251.07C158.438 250.617 158.633 250.039 158.633 249.336ZM171.172 255.547H169.641C167.995 253.703 167.172 251.43 167.172 248.727C167.172 246.013 167.995 243.703 169.641 241.797H171.18C169.565 243.776 168.758 246.081 168.758 248.711C168.758 251.32 169.562 253.599 171.172 255.547ZM176.133 241.547V253H174.32V243.766C173.992 244 173.638 244.201 173.258 244.367C172.883 244.529 172.453 244.672 171.969 244.797V243.25C172.271 243.151 172.562 243.047 172.844 242.938C173.125 242.828 173.401 242.706 173.672 242.57C173.948 242.435 174.224 242.284 174.5 242.117C174.781 241.951 175.07 241.76 175.367 241.547H176.133ZM178.977 252.742V251C179.711 251.495 180.456 251.742 181.211 251.742C181.971 251.742 182.583 251.549 183.047 251.164C183.51 250.773 183.742 250.255 183.742 249.609C183.742 248.974 183.505 248.479 183.031 248.125C182.562 247.771 181.888 247.594 181.008 247.594C180.706 247.594 180.094 247.625 179.172 247.688L179.57 241.797H185.086V243.344H181.078L180.891 246.148C181.25 246.128 181.576 246.117 181.867 246.117C183.055 246.117 183.971 246.422 184.617 247.031C185.268 247.641 185.594 248.474 185.594 249.531C185.594 250.641 185.221 251.531 184.477 252.203C183.737 252.87 182.719 253.203 181.422 253.203C180.328 253.203 179.513 253.049 178.977 252.742ZM189.906 247.422C189.115 247.422 188.484 247.169 188.016 246.664C187.547 246.154 187.312 245.474 187.312 244.625C187.312 243.698 187.56 242.969 188.055 242.438C188.555 241.901 189.227 241.633 190.07 241.633C190.888 241.633 191.521 241.88 191.969 242.375C192.422 242.87 192.648 243.565 192.648 244.461C192.648 245.357 192.396 246.076 191.891 246.617C191.385 247.154 190.724 247.422 189.906 247.422ZM190.016 242.727C189.589 242.727 189.25 242.891 189 243.219C188.755 243.547 188.633 243.997 188.633 244.57C188.633 245.133 188.753 245.57 188.992 245.883C189.237 246.195 189.57 246.352 189.992 246.352C190.414 246.352 190.745 246.19 190.984 245.867C191.224 245.539 191.344 245.086 191.344 244.508C191.344 243.945 191.224 243.508 190.984 243.195C190.75 242.883 190.427 242.727 190.016 242.727ZM197.492 241.797L190.305 253.078H189.188L196.367 241.797H197.492ZM196.484 253.172C195.693 253.172 195.062 252.919 194.594 252.414C194.125 251.904 193.891 251.224 193.891 250.375C193.891 249.448 194.138 248.719 194.633 248.188C195.133 247.651 195.805 247.383 196.648 247.383C197.466 247.383 198.099 247.63 198.547 248.125C199 248.62 199.227 249.315 199.227 250.211C199.227 251.107 198.974 251.826 198.469 252.367C197.964 252.904 197.302 253.172 196.484 253.172ZM196.594 248.477C196.167 248.477 195.828 248.641 195.578 248.969C195.333 249.297 195.211 249.747 195.211 250.32C195.211 250.883 195.331 251.32 195.57 251.633C195.815 251.945 196.148 252.102 196.57 252.102C196.992 252.102 197.323 251.94 197.562 251.617C197.802 251.289 197.922 250.836 197.922 250.258C197.922 249.695 197.802 249.258 197.562 248.945C197.328 248.633 197.005 248.477 196.594 248.477ZM201.805 255.547H200.273C201.888 253.599 202.695 251.32 202.695 248.711C202.695 246.081 201.885 243.776 200.266 241.797H201.812C203.464 243.703 204.289 246.013 204.289 248.727C204.289 251.43 203.461 253.703 201.805 255.547Z" fill="#D3C8AE"/>
<path d="M84.5703 217.375H81.3516V227H79.4922V217.375H76.2812V215.797H84.5703V217.375ZM87.9922 227.188C86.7578 227.188 85.7708 226.815 85.0312 226.07C84.2969 225.32 83.9297 224.328 83.9297 223.094C83.9297 221.75 84.3125 220.701 85.0781 219.945C85.849 219.19 86.8854 218.812 88.1875 218.812C89.4375 218.812 90.4115 219.18 91.1094 219.914C91.8073 220.648 92.1562 221.667 92.1562 222.969C92.1562 224.245 91.7786 225.268 91.0234 226.039C90.2734 226.805 89.263 227.188 87.9922 227.188ZM88.0781 220.258C87.3698 220.258 86.8099 220.505 86.3984 221C85.987 221.495 85.7812 222.177 85.7812 223.047C85.7812 223.885 85.9896 224.547 86.4062 225.031C86.8229 225.51 87.3802 225.75 88.0781 225.75C88.7917 225.75 89.3385 225.513 89.7188 225.039C90.1042 224.565 90.2969 223.891 90.2969 223.016C90.2969 222.135 90.1042 221.456 89.7188 220.977C89.3385 220.497 88.7917 220.258 88.0781 220.258ZM98.2266 226.914C97.8724 227.091 97.4062 227.18 96.8281 227.18C95.276 227.18 94.5 226.435 94.5 224.945V220.422H93.1641V219H94.5V217.148L96.3125 216.633V219H98.2266V220.422H96.3125V224.422C96.3125 224.896 96.3984 225.234 96.5703 225.438C96.7422 225.641 97.0286 225.742 97.4297 225.742C97.737 225.742 98.0026 225.654 98.2266 225.477V226.914ZM105.93 227H104.172V225.75H104.141C103.589 226.708 102.779 227.188 101.711 227.188C100.924 227.188 100.307 226.974 99.8594 226.547C99.4167 226.12 99.1953 225.555 99.1953 224.852C99.1953 223.341 100.065 222.461 101.805 222.211L104.18 221.875C104.18 220.734 103.638 220.164 102.555 220.164C101.602 220.164 100.742 220.492 99.9766 221.148V219.562C100.82 219.062 101.794 218.812 102.898 218.812C104.919 218.812 105.93 219.807 105.93 221.797V227ZM104.18 223.07L102.5 223.305C101.979 223.372 101.586 223.5 101.32 223.688C101.06 223.87 100.93 224.193 100.93 224.656C100.93 224.995 101.049 225.273 101.289 225.492C101.534 225.706 101.859 225.812 102.266 225.812C102.818 225.812 103.273 225.62 103.633 225.234C103.997 224.844 104.18 224.354 104.18 223.766V223.07ZM109.969 227H108.148V215.156H109.969V227ZM116.945 227V215.797H120.18C124.31 215.797 126.375 217.617 126.375 221.258C126.375 222.987 125.802 224.378 124.656 225.43C123.51 226.477 121.974 227 120.047 227H116.945ZM118.797 217.375V225.43H120.281C121.589 225.43 122.604 225.07 123.328 224.352C124.057 223.633 124.422 222.617 124.422 221.305C124.422 218.685 123.065 217.375 120.352 217.375H118.797ZM135 223.492H129.547C129.568 224.232 129.794 224.802 130.227 225.203C130.664 225.604 131.263 225.805 132.023 225.805C132.878 225.805 133.661 225.549 134.375 225.039V226.5C133.646 226.958 132.682 227.188 131.484 227.188C130.307 227.188 129.383 226.826 128.711 226.102C128.044 225.372 127.711 224.349 127.711 223.031C127.711 221.786 128.078 220.773 128.812 219.992C129.552 219.206 130.469 218.812 131.562 218.812C132.656 218.812 133.503 219.164 134.102 219.867C134.701 220.57 135 221.547 135 222.797V223.492ZM133.25 222.211C133.245 221.56 133.091 221.055 132.789 220.695C132.487 220.331 132.07 220.148 131.539 220.148C131.018 220.148 130.576 220.339 130.211 220.719C129.852 221.099 129.63 221.596 129.547 222.211H133.25ZM143.617 219L140.523 227H138.562L135.617 219H137.586L139.359 224.594C139.495 225.005 139.578 225.365 139.609 225.672H139.633C139.68 225.286 139.753 224.938 139.852 224.625L141.711 219H143.617ZM151.5 223.492H146.047C146.068 224.232 146.294 224.802 146.727 225.203C147.164 225.604 147.763 225.805 148.523 225.805C149.378 225.805 150.161 225.549 150.875 225.039V226.5C150.146 226.958 149.182 227.188 147.984 227.188C146.807 227.188 145.883 226.826 145.211 226.102C144.544 225.372 144.211 224.349 144.211 223.031C144.211 221.786 144.578 220.773 145.312 219.992C146.052 219.206 146.969 218.812 148.062 218.812C149.156 218.812 150.003 219.164 150.602 219.867C151.201 220.57 151.5 221.547 151.5 222.797V223.492ZM149.75 222.211C149.745 221.56 149.591 221.055 149.289 220.695C148.987 220.331 148.57 220.148 148.039 220.148C147.518 220.148 147.076 220.339 146.711 220.719C146.352 221.099 146.13 221.596 146.047 222.211H149.75ZM155.047 227H153.227V215.156H155.047V227ZM160.961 227.188C159.727 227.188 158.74 226.815 158 226.07C157.266 225.32 156.898 224.328 156.898 223.094C156.898 221.75 157.281 220.701 158.047 219.945C158.818 219.19 159.854 218.812 161.156 218.812C162.406 218.812 163.38 219.18 164.078 219.914C164.776 220.648 165.125 221.667 165.125 222.969C165.125 224.245 164.747 225.268 163.992 226.039C163.242 226.805 162.232 227.188 160.961 227.188ZM161.047 220.258C160.339 220.258 159.779 220.505 159.367 221C158.956 221.495 158.75 222.177 158.75 223.047C158.75 223.885 158.958 224.547 159.375 225.031C159.792 225.51 160.349 225.75 161.047 225.75C161.76 225.75 162.307 225.513 162.688 225.039C163.073 224.565 163.266 223.891 163.266 223.016C163.266 222.135 163.073 221.456 162.688 220.977C162.307 220.497 161.76 220.258 161.047 220.258ZM168.82 225.82H168.789V230.68H166.977V219H168.789V220.406H168.82C169.44 219.344 170.346 218.812 171.539 218.812C172.555 218.812 173.346 219.169 173.914 219.883C174.482 220.596 174.766 221.555 174.766 222.758C174.766 224.091 174.445 225.159 173.805 225.961C173.164 226.763 172.289 227.164 171.18 227.164C170.159 227.164 169.372 226.716 168.82 225.82ZM168.773 222.664V223.656C168.773 224.24 168.958 224.734 169.328 225.141C169.703 225.547 170.177 225.75 170.75 225.75C171.422 225.75 171.948 225.49 172.328 224.969C172.714 224.443 172.906 223.711 172.906 222.773C172.906 221.987 172.727 221.372 172.367 220.93C172.013 220.482 171.531 220.258 170.922 220.258C170.276 220.258 169.755 220.487 169.359 220.945C168.969 221.404 168.773 221.977 168.773 222.664ZM183.391 223.492H177.938C177.958 224.232 178.185 224.802 178.617 225.203C179.055 225.604 179.654 225.805 180.414 225.805C181.268 225.805 182.052 225.549 182.766 225.039V226.5C182.036 226.958 181.073 227.188 179.875 227.188C178.698 227.188 177.773 226.826 177.102 226.102C176.435 225.372 176.102 224.349 176.102 223.031C176.102 221.786 176.469 220.773 177.203 219.992C177.943 219.206 178.859 218.812 179.953 218.812C181.047 218.812 181.893 219.164 182.492 219.867C183.091 220.57 183.391 221.547 183.391 222.797V223.492ZM181.641 222.211C181.635 221.56 181.482 221.055 181.18 220.695C180.878 220.331 180.461 220.148 179.93 220.148C179.409 220.148 178.966 220.339 178.602 220.719C178.242 221.099 178.021 221.596 177.938 222.211H181.641ZM192.391 227H190.578V225.641H190.547C189.964 226.672 189.065 227.188 187.852 227.188C186.867 227.188 186.078 226.831 185.484 226.117C184.896 225.398 184.602 224.422 184.602 223.188C184.602 221.865 184.927 220.805 185.578 220.008C186.234 219.211 187.107 218.812 188.195 218.812C189.273 218.812 190.057 219.245 190.547 220.109H190.578V215.156H192.391V227ZM190.602 223.344V222.297C190.602 221.729 190.417 221.247 190.047 220.852C189.677 220.456 189.206 220.258 188.633 220.258C187.956 220.258 187.422 220.51 187.031 221.016C186.646 221.521 186.453 222.221 186.453 223.117C186.453 223.93 186.638 224.573 187.008 225.047C187.383 225.516 187.885 225.75 188.516 225.75C189.135 225.75 189.638 225.523 190.023 225.07C190.409 224.612 190.602 224.036 190.602 223.344ZM203.141 229.547H201.609C199.964 227.703 199.141 225.43 199.141 222.727C199.141 220.013 199.964 217.703 201.609 215.797H203.148C201.534 217.776 200.727 220.081 200.727 222.711C200.727 225.32 201.531 227.599 203.141 229.547ZM204.008 223.875C204.008 223.552 204.047 223.24 204.125 222.938C204.208 222.635 204.331 222.357 204.492 222.102C204.654 221.846 204.857 221.617 205.102 221.414C205.346 221.211 205.633 221.047 205.961 220.922C205.477 220.651 205.091 220.305 204.805 219.883C204.518 219.456 204.375 218.984 204.375 218.469C204.375 218.057 204.458 217.677 204.625 217.328C204.797 216.979 205.031 216.677 205.328 216.422C205.63 216.167 205.984 215.969 206.391 215.828C206.797 215.682 207.24 215.609 207.719 215.609C208.203 215.609 208.648 215.682 209.055 215.828C209.466 215.974 209.82 216.174 210.117 216.43C210.419 216.685 210.654 216.987 210.82 217.336C210.987 217.685 211.07 218.062 211.07 218.469C211.07 218.984 210.927 219.456 210.641 219.883C210.354 220.305 209.974 220.651 209.5 220.922C209.823 221.047 210.107 221.211 210.352 221.414C210.602 221.612 210.81 221.839 210.977 222.094C211.143 222.349 211.268 222.628 211.352 222.93C211.435 223.232 211.477 223.547 211.477 223.875C211.477 224.365 211.385 224.812 211.203 225.219C211.021 225.625 210.766 225.974 210.438 226.266C210.109 226.552 209.716 226.776 209.258 226.938C208.799 227.099 208.294 227.18 207.742 227.18C207.195 227.18 206.693 227.099 206.234 226.938C205.781 226.776 205.388 226.552 205.055 226.266C204.727 225.974 204.469 225.625 204.281 225.219C204.099 224.812 204.008 224.365 204.008 223.875ZM205.773 223.719C205.773 224.036 205.82 224.323 205.914 224.578C206.008 224.833 206.141 225.049 206.312 225.227C206.484 225.404 206.69 225.539 206.93 225.633C207.174 225.727 207.445 225.773 207.742 225.773C208.029 225.773 208.292 225.727 208.531 225.633C208.771 225.534 208.977 225.396 209.148 225.219C209.326 225.036 209.464 224.82 209.562 224.57C209.661 224.315 209.711 224.031 209.711 223.719C209.711 223.432 209.664 223.164 209.57 222.914C209.477 222.659 209.344 222.438 209.172 222.25C209 222.062 208.792 221.914 208.547 221.805C208.307 221.695 208.039 221.641 207.742 221.641C207.461 221.641 207.198 221.693 206.953 221.797C206.714 221.896 206.505 222.039 206.328 222.227C206.156 222.409 206.021 222.628 205.922 222.883C205.823 223.138 205.773 223.417 205.773 223.719ZM206.156 218.656C206.156 218.891 206.198 219.109 206.281 219.312C206.365 219.51 206.477 219.685 206.617 219.836C206.758 219.982 206.922 220.096 207.109 220.18C207.302 220.263 207.508 220.305 207.727 220.305C207.945 220.305 208.148 220.263 208.336 220.18C208.529 220.091 208.695 219.974 208.836 219.828C208.982 219.677 209.096 219.503 209.18 219.305C209.263 219.102 209.305 218.885 209.305 218.656C209.305 218.422 209.263 218.203 209.18 218C209.102 217.797 208.992 217.622 208.852 217.477C208.711 217.331 208.544 217.216 208.352 217.133C208.159 217.049 207.951 217.008 207.727 217.008C207.492 217.008 207.279 217.052 207.086 217.141C206.893 217.224 206.727 217.341 206.586 217.492C206.451 217.643 206.344 217.82 206.266 218.023C206.193 218.221 206.156 218.432 206.156 218.656ZM213.398 226.742V225C214.133 225.495 214.878 225.742 215.633 225.742C216.393 225.742 217.005 225.549 217.469 225.164C217.932 224.773 218.164 224.255 218.164 223.609C218.164 222.974 217.927 222.479 217.453 222.125C216.984 221.771 216.31 221.594 215.43 221.594C215.128 221.594 214.516 221.625 213.594 221.688L213.992 215.797H219.508V217.344H215.5L215.312 220.148C215.672 220.128 215.997 220.117 216.289 220.117C217.477 220.117 218.393 220.422 219.039 221.031C219.69 221.641 220.016 222.474 220.016 223.531C220.016 224.641 219.643 225.531 218.898 226.203C218.159 226.87 217.141 227.203 215.844 227.203C214.75 227.203 213.935 227.049 213.398 226.742ZM224.328 221.422C223.536 221.422 222.906 221.169 222.438 220.664C221.969 220.154 221.734 219.474 221.734 218.625C221.734 217.698 221.982 216.969 222.477 216.438C222.977 215.901 223.648 215.633 224.492 215.633C225.31 215.633 225.943 215.88 226.391 216.375C226.844 216.87 227.07 217.565 227.07 218.461C227.07 219.357 226.818 220.076 226.312 220.617C225.807 221.154 225.146 221.422 224.328 221.422ZM224.438 216.727C224.01 216.727 223.672 216.891 223.422 217.219C223.177 217.547 223.055 217.997 223.055 218.57C223.055 219.133 223.174 219.57 223.414 219.883C223.659 220.195 223.992 220.352 224.414 220.352C224.836 220.352 225.167 220.19 225.406 219.867C225.646 219.539 225.766 219.086 225.766 218.508C225.766 217.945 225.646 217.508 225.406 217.195C225.172 216.883 224.849 216.727 224.438 216.727ZM231.914 215.797L224.727 227.078H223.609L230.789 215.797H231.914ZM230.906 227.172C230.115 227.172 229.484 226.919 229.016 226.414C228.547 225.904 228.312 225.224 228.312 224.375C228.312 223.448 228.56 222.719 229.055 222.188C229.555 221.651 230.227 221.383 231.07 221.383C231.888 221.383 232.521 221.63 232.969 222.125C233.422 222.62 233.648 223.315 233.648 224.211C233.648 225.107 233.396 225.826 232.891 226.367C232.385 226.904 231.724 227.172 230.906 227.172ZM231.016 222.477C230.589 222.477 230.25 222.641 230 222.969C229.755 223.297 229.633 223.747 229.633 224.32C229.633 224.883 229.753 225.32 229.992 225.633C230.237 225.945 230.57 226.102 230.992 226.102C231.414 226.102 231.745 225.94 231.984 225.617C232.224 225.289 232.344 224.836 232.344 224.258C232.344 223.695 232.224 223.258 231.984 222.945C231.75 222.633 231.427 222.477 231.016 222.477ZM236.227 229.547H234.695C236.31 227.599 237.117 225.32 237.117 222.711C237.117 220.081 236.307 217.776 234.688 215.797H236.234C237.885 217.703 238.711 220.013 238.711 222.727C238.711 225.43 237.883 227.703 236.227 229.547Z" fill="#C69F39"/>
<path d="M39.424 53V33.32H37.152C36.0213 33.32 35.1253 33.608 34.464 34.184C33.8027 34.7387 33.472 35.7307 33.472 37.16H32.512V34.44C32.512 34.0133 32.5867 33.608 32.736 33.224C32.8853 32.8187 33.152 32.4987 33.536 32.264C33.9413 32.008 34.5067 31.88 35.232 31.88H50.272V33.32H43.584V53H39.424ZM56.9258 53.32C55.3471 53.32 53.9818 52.9787 52.8298 52.296C51.6778 51.592 50.7924 50.6427 50.1738 49.448C49.5551 48.2533 49.2458 46.9307 49.2458 45.48C49.2458 44.008 49.5551 42.6853 50.1738 41.512C50.7924 40.3173 51.6778 39.3787 52.8298 38.696C53.9818 37.992 55.3471 37.64 56.9258 37.64C58.5258 37.64 59.8911 37.992 61.0218 38.696C62.1738 39.3787 63.0591 40.3173 63.6778 41.512C64.2964 42.6853 64.6058 44.008 64.6058 45.48C64.6058 46.9307 64.2964 48.2533 63.6778 49.448C63.0591 50.6427 62.1738 51.592 61.0218 52.296C59.8911 52.9787 58.5258 53.32 56.9258 53.32ZM56.9258 51.88C57.6724 51.88 58.2911 51.6027 58.7818 51.048C59.2938 50.4933 59.6671 49.736 59.9018 48.776C60.1578 47.7947 60.2858 46.696 60.2858 45.48C60.2858 44.2427 60.1578 43.144 59.9018 42.184C59.6671 41.224 59.2938 40.4667 58.7818 39.912C58.2911 39.3573 57.6724 39.08 56.9258 39.08C56.1791 39.08 55.5498 39.3573 55.0378 39.912C54.5471 40.4667 54.1738 41.224 53.9178 42.184C53.6831 43.144 53.5658 44.2427 53.5658 45.48C53.5658 46.696 53.6831 47.7947 53.9178 48.776C54.1738 49.736 54.5471 50.4933 55.0378 51.048C55.5498 51.6027 56.1791 51.88 56.9258 51.88ZM72.982 53.32C71.5313 53.32 70.39 52.9253 69.558 52.136C68.7473 51.3467 68.342 50.184 68.342 48.648V39.4H66.422V37.96H68.342V35.08L69.942 33.16H72.502V37.96H76.022V39.4H72.502V48.84C72.502 50.0347 72.6407 50.8453 72.918 51.272C73.2167 51.6773 73.6327 51.88 74.166 51.88C74.7207 51.88 75.2113 51.784 75.638 51.592C76.0647 51.4 76.4167 51.208 76.694 51.016L77.142 51.912C76.7153 52.296 76.1607 52.6267 75.478 52.904C74.7953 53.1813 73.9633 53.32 72.982 53.32ZM83.4305 53.32C82.5345 53.32 81.7452 53.2133 81.0625 53C80.4012 52.7867 79.8358 52.4987 79.3665 52.136C78.9185 51.752 78.5772 51.2933 78.3425 50.76C78.1078 50.2267 77.9905 49.64 77.9905 49C77.9905 47.976 78.2252 47.112 78.6945 46.408C79.1852 45.6827 80.0598 45.1387 81.3185 44.776C82.5772 44.392 84.3478 44.2 86.6305 44.2H87.1105C87.1105 42.92 86.9932 41.9067 86.7585 41.16C86.5238 40.4133 86.1718 39.88 85.7025 39.56C85.2545 39.24 84.7105 39.08 84.0705 39.08C83.3452 39.08 82.6945 39.2613 82.1185 39.624C81.5425 39.9867 81.1265 40.7653 80.8705 41.96H79.1105C79.1105 41.4053 79.1425 40.84 79.2065 40.264C79.2918 39.688 79.5265 39.1867 79.9105 38.76C80.2945 38.3333 80.9238 38.0453 81.7985 37.896C82.6945 37.7253 83.6652 37.64 84.7105 37.64C85.7558 37.64 86.6838 37.7787 87.4945 38.056C88.3052 38.3333 88.9878 38.7493 89.5425 39.304C90.1185 39.8587 90.5452 40.5627 90.8225 41.416C91.1212 42.248 91.2705 43.2293 91.2705 44.36V53H88.5505L87.4305 51.56H87.2705C86.9932 52.008 86.5238 52.4133 85.8625 52.776C85.2012 53.1387 84.3905 53.32 83.4305 53.32ZM84.3905 51.72C85.0945 51.72 85.6812 51.4853 86.1505 51.016C86.6198 50.5467 86.9398 50.088 87.1105 49.64V45.64H86.6305C85.0945 45.64 83.9852 45.9173 83.3025 46.472C82.6412 47.0267 82.3105 47.8693 82.3105 49C82.3105 49.896 82.4918 50.5787 82.8545 51.048C83.2385 51.496 83.7505 51.72 84.3905 51.72ZM94.9855 53V36.04C94.9855 35.08 94.8468 34.312 94.5695 33.736C94.3135 33.1387 93.7055 32.84 92.7455 32.84H92.4255V31.88H96.2655C97.0122 31.88 97.5882 32.008 97.9935 32.264C98.4202 32.52 98.7188 32.9467 98.8895 33.544C99.0602 34.1413 99.1455 34.9733 99.1455 36.04V53H94.9855ZM112.228 53V36.04C112.228 35.08 112.089 34.312 111.812 33.736C111.556 33.1387 110.948 32.84 109.988 32.84H109.668V31.88H118.372C122.766 31.88 126.062 32.808 128.26 34.664C130.478 36.52 131.588 39.0693 131.588 42.312C131.588 44.424 131.108 46.28 130.148 47.88C129.209 49.48 127.822 50.7387 125.988 51.656C124.153 52.552 121.892 53 119.204 53H112.228ZM119.108 51.72C120.601 51.72 121.924 51.3467 123.076 50.6C124.228 49.8533 125.134 48.7867 125.796 47.4C126.457 46.0133 126.788 44.36 126.788 42.44C126.788 40.5627 126.457 38.9307 125.796 37.544C125.156 36.1573 124.249 35.08 123.076 34.312C121.924 33.544 120.58 33.16 119.044 33.16C118.574 33.16 118.169 33.1707 117.828 33.192C117.486 33.2133 117.006 33.2773 116.388 33.384V51.496C116.857 51.5813 117.22 51.6453 117.476 51.688C117.753 51.7093 118.009 51.72 118.244 51.72C118.478 51.72 118.766 51.72 119.108 51.72ZM141.294 53.32C139.801 53.32 138.499 52.9787 137.39 52.296C136.281 51.6133 135.427 50.6853 134.83 49.512C134.233 48.3173 133.934 46.9733 133.934 45.48C133.934 43.7733 134.243 42.344 134.862 41.192C135.481 40.0187 136.323 39.1333 137.39 38.536C138.457 37.9387 139.651 37.64 140.974 37.64C142.297 37.64 143.491 37.9067 144.558 38.44C145.625 38.9733 146.467 39.72 147.086 40.68C147.705 41.64 148.014 42.76 148.014 44.04L147.886 46.056H138.254C138.254 48.168 138.574 49.672 139.214 50.568C139.875 51.4427 140.729 51.88 141.774 51.88C142.883 51.88 143.779 51.624 144.462 51.112C145.166 50.6 145.795 49.9707 146.35 49.224L147.342 49.96C147.043 50.4293 146.638 50.9307 146.126 51.464C145.635 51.976 144.995 52.4133 144.206 52.776C143.438 53.1387 142.467 53.32 141.294 53.32ZM138.254 44.616H143.694C143.694 42.504 143.438 41.0533 142.926 40.264C142.435 39.4747 141.785 39.08 140.974 39.08C140.505 39.08 140.057 39.2507 139.63 39.592C139.225 39.9333 138.894 40.5093 138.638 41.32C138.382 42.1093 138.254 43.208 138.254 44.616ZM156.716 53.32L151.308 41.64C150.753 40.4667 150.273 39.6347 149.868 39.144C149.462 38.6533 148.993 38.3867 148.46 38.344V37.704C148.545 37.704 148.726 37.6933 149.004 37.672C149.281 37.6507 149.494 37.64 149.644 37.64C150.497 37.64 151.286 37.7467 152.012 37.96C152.758 38.152 153.441 38.536 154.06 39.112C154.7 39.688 155.276 40.5307 155.788 41.64L158.604 47.784L162.956 37.96H164.684L157.868 53.32H156.716ZM173.169 53.32C171.676 53.32 170.374 52.9787 169.265 52.296C168.156 51.6133 167.302 50.6853 166.705 49.512C166.108 48.3173 165.809 46.9733 165.809 45.48C165.809 43.7733 166.118 42.344 166.737 41.192C167.356 40.0187 168.198 39.1333 169.265 38.536C170.332 37.9387 171.526 37.64 172.849 37.64C174.172 37.64 175.366 37.9067 176.433 38.44C177.5 38.9733 178.342 39.72 178.961 40.68C179.58 41.64 179.889 42.76 179.889 44.04L179.761 46.056H170.129C170.129 48.168 170.449 49.672 171.089 50.568C171.75 51.4427 172.604 51.88 173.649 51.88C174.758 51.88 175.654 51.624 176.337 51.112C177.041 50.6 177.67 49.9707 178.225 49.224L179.217 49.96C178.918 50.4293 178.513 50.9307 178.001 51.464C177.51 51.976 176.87 52.4133 176.081 52.776C175.313 53.1387 174.342 53.32 173.169 53.32ZM170.129 44.616H175.569C175.569 42.504 175.313 41.0533 174.801 40.264C174.31 39.4747 173.66 39.08 172.849 39.08C172.38 39.08 171.932 39.2507 171.505 39.592C171.1 39.9333 170.769 40.5093 170.513 41.32C170.257 42.1093 170.129 43.208 170.129 44.616ZM182.954 53V36.04C182.954 35.08 182.816 34.312 182.538 33.736C182.282 33.1387 181.674 32.84 180.714 32.84H180.394V31.88H184.234C184.981 31.88 185.557 32.008 185.962 32.264C186.389 32.52 186.688 32.9467 186.858 33.544C187.029 34.1413 187.114 34.9733 187.114 36.04V53H182.954ZM197.988 53.32C196.41 53.32 195.044 52.9787 193.892 52.296C192.74 51.592 191.855 50.6427 191.236 49.448C190.618 48.2533 190.308 46.9307 190.308 45.48C190.308 44.008 190.618 42.6853 191.236 41.512C191.855 40.3173 192.74 39.3787 193.892 38.696C195.044 37.992 196.41 37.64 197.988 37.64C199.588 37.64 200.954 37.992 202.084 38.696C203.236 39.3787 204.122 40.3173 204.74 41.512C205.359 42.6853 205.668 44.008 205.668 45.48C205.668 46.9307 205.359 48.2533 204.74 49.448C204.122 50.6427 203.236 51.592 202.084 52.296C200.954 52.9787 199.588 53.32 197.988 53.32ZM197.988 51.88C198.735 51.88 199.354 51.6027 199.844 51.048C200.356 50.4933 200.73 49.736 200.964 48.776C201.22 47.7947 201.348 46.696 201.348 45.48C201.348 44.2427 201.22 43.144 200.964 42.184C200.73 41.224 200.356 40.4667 199.844 39.912C199.354 39.3573 198.735 39.08 197.988 39.08C197.242 39.08 196.612 39.3573 196.1 39.912C195.61 40.4667 195.236 41.224 194.98 42.184C194.746 43.144 194.628 44.2427 194.628 45.48C194.628 46.696 194.746 47.7947 194.98 48.776C195.236 49.736 195.61 50.4933 196.1 51.048C196.612 51.6027 197.242 51.88 197.988 51.88ZM209.373 59.08V42.12C209.373 41.16 209.245 40.392 208.989 39.816C208.733 39.2187 208.125 38.92 207.165 38.92H206.845V37.96H210.013C210.738 37.96 211.303 38.056 211.709 38.248C212.135 38.44 212.466 38.792 212.701 39.304C213.085 38.9627 213.629 38.6 214.333 38.216C215.037 37.832 215.943 37.64 217.053 37.64C218.546 37.64 219.783 37.992 220.765 38.696C221.767 39.3787 222.514 40.3173 223.005 41.512C223.517 42.6853 223.773 44.008 223.773 45.48C223.773 46.9307 223.517 48.2533 223.005 49.448C222.514 50.6427 221.757 51.592 220.733 52.296C219.73 52.9787 218.45 53.32 216.893 53.32C216.189 53.32 215.527 53.2133 214.909 53C214.311 52.808 213.853 52.5947 213.533 52.36V59.08H209.373ZM216.253 51.88C217.063 51.88 217.693 51.6027 218.141 51.048C218.61 50.4933 218.941 49.736 219.133 48.776C219.346 47.7947 219.453 46.696 219.453 45.48C219.453 44.2427 219.346 43.144 219.133 42.184C218.941 41.224 218.621 40.4667 218.173 39.912C217.746 39.3573 217.159 39.08 216.413 39.08C215.687 39.08 215.101 39.1973 214.653 39.432C214.205 39.6667 213.831 39.912 213.533 40.168V50.92C213.789 51.1333 214.173 51.3467 214.685 51.56C215.197 51.7733 215.719 51.88 216.253 51.88ZM233.513 53.32C232.019 53.32 230.718 52.9787 229.609 52.296C228.499 51.6133 227.646 50.6853 227.049 49.512C226.451 48.3173 226.153 46.9733 226.153 45.48C226.153 43.7733 226.462 42.344 227.081 41.192C227.699 40.0187 228.542 39.1333 229.609 38.536C230.675 37.9387 231.87 37.64 233.193 37.64C234.515 37.64 235.71 37.9067 236.777 38.44C237.843 38.9733 238.686 39.72 239.305 40.68C239.923 41.64 240.233 42.76 240.233 44.04L240.105 46.056H230.473C230.473 48.168 230.793 49.672 231.433 50.568C232.094 51.4427 232.947 51.88 233.993 51.88C235.102 51.88 235.998 51.624 236.681 51.112C237.385 50.6 238.014 49.9707 238.569 49.224L239.561 49.96C239.262 50.4293 238.857 50.9307 238.345 51.464C237.854 51.976 237.214 52.4133 236.425 52.776C235.657 53.1387 234.686 53.32 233.513 53.32ZM230.473 44.616H235.913C235.913 42.504 235.657 41.0533 235.145 40.264C234.654 39.4747 234.003 39.08 233.193 39.08C232.723 39.08 232.275 39.2507 231.849 39.592C231.443 39.9333 231.113 40.5093 230.857 41.32C230.601 42.1093 230.473 43.208 230.473 44.616ZM249.154 53.32C247.661 53.32 246.413 52.9787 245.41 52.296C244.429 51.592 243.682 50.6427 243.17 49.448C242.679 48.2533 242.434 46.9307 242.434 45.48C242.434 44.008 242.679 42.6853 243.17 41.512C243.682 40.3173 244.45 39.3787 245.474 38.696C246.498 37.992 247.778 37.64 249.314 37.64C250.039 37.64 250.679 37.7467 251.234 37.96C251.81 38.152 252.29 38.3653 252.674 38.6V36.04C252.674 35.08 252.535 34.312 252.258 33.736C252.002 33.1387 251.394 32.84 250.434 32.84H250.114V31.88H253.954C254.701 31.88 255.277 32.008 255.682 32.264C256.109 32.52 256.407 32.9467 256.578 33.544C256.749 34.1413 256.834 34.9733 256.834 36.04V53H254.114L252.994 51.56H252.834C252.557 51.9867 252.098 52.392 251.458 52.776C250.839 53.1387 250.071 53.32 249.154 53.32ZM249.794 51.88C250.306 51.88 250.754 51.7627 251.138 51.528C251.522 51.2933 251.842 51.016 252.098 50.696C252.354 50.3547 252.546 50.056 252.674 49.8V40.04C252.375 39.8053 251.991 39.592 251.522 39.4C251.053 39.1867 250.53 39.08 249.954 39.08C249.165 39.08 248.535 39.3573 248.066 39.912C247.597 40.4667 247.255 41.224 247.042 42.184C246.85 43.144 246.754 44.2427 246.754 45.48C246.754 46.696 246.85 47.7947 247.042 48.776C247.234 49.736 247.554 50.4933 248.002 51.048C248.45 51.6027 249.047 51.88 249.794 51.88Z" fill="#837550"/>
<path d="M48.625 124.984C48.625 124.672 48.6693 124.372 48.7578 124.086C48.8516 123.794 48.9896 123.526 49.1719 123.281C49.3542 123.031 49.5807 122.81 49.8516 122.617C50.1276 122.419 50.4505 122.258 50.8203 122.133C50.2526 121.852 49.8125 121.492 49.5 121.055C49.1875 120.612 49.0312 120.122 49.0312 119.586C49.0312 119.159 49.1198 118.763 49.2969 118.398C49.4792 118.034 49.7292 117.719 50.0469 117.453C50.3646 117.188 50.7422 116.982 51.1797 116.836C51.6224 116.685 52.1042 116.609 52.625 116.609C53.1562 116.609 53.6432 116.685 54.0859 116.836C54.5286 116.982 54.9089 117.188 55.2266 117.453C55.5495 117.714 55.7995 118.023 55.9766 118.383C56.1536 118.742 56.2422 119.133 56.2422 119.555C56.2422 120.086 56.0755 120.57 55.7422 121.008C55.4089 121.44 54.9479 121.797 54.3594 122.078C54.724 122.203 55.0443 122.365 55.3203 122.562C55.5964 122.755 55.8281 122.977 56.0156 123.227C56.2031 123.477 56.3438 123.75 56.4375 124.047C56.5312 124.339 56.5781 124.643 56.5781 124.961C56.5781 125.44 56.4818 125.878 56.2891 126.273C56.0964 126.664 55.8229 127.003 55.4688 127.289C55.1198 127.57 54.7005 127.789 54.2109 127.945C53.7266 128.102 53.1901 128.18 52.6016 128.18C52.0234 128.18 51.4896 128.104 51 127.953C50.5156 127.797 50.0964 127.578 49.7422 127.297C49.3932 127.016 49.1198 126.68 48.9219 126.289C48.724 125.893 48.625 125.458 48.625 124.984ZM50.9609 124.773C50.9609 125.029 51 125.258 51.0781 125.461C51.1562 125.664 51.2682 125.836 51.4141 125.977C51.5599 126.117 51.7318 126.227 51.9297 126.305C52.1328 126.378 52.3594 126.414 52.6094 126.414C52.849 126.414 53.0677 126.375 53.2656 126.297C53.4688 126.219 53.6432 126.109 53.7891 125.969C53.9349 125.828 54.0495 125.656 54.1328 125.453C54.2161 125.25 54.2578 125.023 54.2578 124.773C54.2578 124.549 54.2188 124.336 54.1406 124.133C54.0625 123.93 53.9505 123.755 53.8047 123.609C53.6589 123.458 53.4844 123.339 53.2812 123.25C53.0833 123.161 52.8594 123.117 52.6094 123.117C52.375 123.117 52.1562 123.159 51.9531 123.242C51.75 123.32 51.5755 123.435 51.4297 123.586C51.2839 123.732 51.1693 123.906 51.0859 124.109C51.0026 124.312 50.9609 124.534 50.9609 124.773ZM51.3047 119.812C51.3047 120.01 51.3385 120.198 51.4062 120.375C51.4792 120.547 51.5755 120.698 51.6953 120.828C51.8151 120.953 51.9557 121.052 52.1172 121.125C52.2839 121.198 52.4583 121.234 52.6406 121.234C52.8281 121.234 53.0026 121.198 53.1641 121.125C53.3255 121.052 53.4661 120.951 53.5859 120.82C53.7109 120.69 53.8073 120.539 53.875 120.367C53.9479 120.195 53.9844 120.01 53.9844 119.812C53.9844 119.609 53.9505 119.422 53.8828 119.25C53.8151 119.073 53.7188 118.922 53.5938 118.797C53.474 118.667 53.3307 118.565 53.1641 118.492C53.0026 118.419 52.8281 118.383 52.6406 118.383C52.4427 118.383 52.2604 118.422 52.0938 118.5C51.9323 118.573 51.7917 118.674 51.6719 118.805C51.5573 118.93 51.4661 119.081 51.3984 119.258C51.3359 119.43 51.3047 119.615 51.3047 119.812ZM58.3125 127.711V125.602C59.0781 126.07 59.8932 126.305 60.7578 126.305C61.4089 126.305 61.9167 126.151 62.2812 125.844C62.651 125.531 62.8359 125.109 62.8359 124.578C62.8359 123.469 62.0521 122.914 60.4844 122.914C59.9062 122.914 59.2396 122.958 58.4844 123.047L58.9062 116.797H64.8359V118.812H60.7891L60.6328 121.055C61.0339 121.023 61.3802 121.008 61.6719 121.008C62.8229 121.008 63.724 121.31 64.375 121.914C65.026 122.518 65.3516 123.331 65.3516 124.352C65.3516 125.482 64.9635 126.406 64.1875 127.125C63.4115 127.839 62.3594 128.195 61.0312 128.195C59.9531 128.195 59.0469 128.034 58.3125 127.711ZM69.7656 122.477C68.9688 122.477 68.3255 122.224 67.8359 121.719C67.3516 121.214 67.1094 120.534 67.1094 119.68C67.1094 118.747 67.3672 118.008 67.8828 117.461C68.4036 116.914 69.0964 116.641 69.9609 116.641C70.7891 116.641 71.4349 116.888 71.8984 117.383C72.3672 117.878 72.6016 118.573 72.6016 119.469C72.6016 120.391 72.3438 121.122 71.8281 121.664C71.3125 122.206 70.625 122.477 69.7656 122.477ZM69.9141 118.016C69.1536 118.016 68.7734 118.544 68.7734 119.602C68.7734 120.602 69.1354 121.102 69.8594 121.102C70.599 121.102 70.9688 120.581 70.9688 119.539C70.9688 118.523 70.6172 118.016 69.9141 118.016ZM77.9453 116.797L70.6484 128H68.7422L76.0234 116.797H77.9453ZM76.7422 128.156C75.9453 128.156 75.3021 127.904 74.8125 127.398C74.3281 126.893 74.0859 126.214 74.0859 125.359C74.0859 124.427 74.3438 123.688 74.8594 123.141C75.3802 122.594 76.0729 122.32 76.9375 122.32C77.7708 122.32 78.4193 122.565 78.8828 123.055C79.3464 123.544 79.5781 124.237 79.5781 125.133C79.5781 126.055 79.3203 126.789 78.8047 127.336C78.2891 127.883 77.6016 128.156 76.7422 128.156ZM76.8672 123.695C76.112 123.695 75.7344 124.224 75.7344 125.281C75.7344 126.281 76.1016 126.781 76.8359 126.781C77.5755 126.781 77.9453 126.26 77.9453 125.219C77.9453 124.734 77.8464 124.359 77.6484 124.094C77.4505 123.828 77.1901 123.695 76.8672 123.695Z" fill="#C69F3A"/>
<path d="M302.5 142.547V154H300.039V145.328C299.904 145.448 299.742 145.562 299.555 145.672C299.372 145.776 299.177 145.872 298.969 145.961C298.76 146.044 298.544 146.117 298.32 146.18C298.096 146.237 297.875 146.279 297.656 146.305V144.227C298.297 144.039 298.901 143.799 299.469 143.508C300.036 143.216 300.549 142.896 301.008 142.547H302.5ZM306.312 153.711V151.602C307.078 152.07 307.893 152.305 308.758 152.305C309.409 152.305 309.917 152.151 310.281 151.844C310.651 151.531 310.836 151.109 310.836 150.578C310.836 149.469 310.052 148.914 308.484 148.914C307.906 148.914 307.24 148.958 306.484 149.047L306.906 142.797H312.836V144.812H308.789L308.633 147.055C309.034 147.023 309.38 147.008 309.672 147.008C310.823 147.008 311.724 147.31 312.375 147.914C313.026 148.518 313.352 149.331 313.352 150.352C313.352 151.482 312.964 152.406 312.188 153.125C311.411 153.839 310.359 154.195 309.031 154.195C307.953 154.195 307.047 154.034 306.312 153.711ZM317.766 148.477C316.969 148.477 316.326 148.224 315.836 147.719C315.352 147.214 315.109 146.534 315.109 145.68C315.109 144.747 315.367 144.008 315.883 143.461C316.404 142.914 317.096 142.641 317.961 142.641C318.789 142.641 319.435 142.888 319.898 143.383C320.367 143.878 320.602 144.573 320.602 145.469C320.602 146.391 320.344 147.122 319.828 147.664C319.312 148.206 318.625 148.477 317.766 148.477ZM317.914 144.016C317.154 144.016 316.773 144.544 316.773 145.602C316.773 146.602 317.135 147.102 317.859 147.102C318.599 147.102 318.969 146.581 318.969 145.539C318.969 144.523 318.617 144.016 317.914 144.016ZM325.945 142.797L318.648 154H316.742L324.023 142.797H325.945ZM324.742 154.156C323.945 154.156 323.302 153.904 322.812 153.398C322.328 152.893 322.086 152.214 322.086 151.359C322.086 150.427 322.344 149.688 322.859 149.141C323.38 148.594 324.073 148.32 324.938 148.32C325.771 148.32 326.419 148.565 326.883 149.055C327.346 149.544 327.578 150.237 327.578 151.133C327.578 152.055 327.32 152.789 326.805 153.336C326.289 153.883 325.602 154.156 324.742 154.156ZM324.867 149.695C324.112 149.695 323.734 150.224 323.734 151.281C323.734 152.281 324.102 152.781 324.836 152.781C325.576 152.781 325.945 152.26 325.945 151.219C325.945 150.734 325.846 150.359 325.648 150.094C325.451 149.828 325.19 149.695 324.867 149.695Z" fill="#D3C8AE"/>
<circle cx="62" cy="247" r="8" fill="#D3C8AE"/>
<circle cx="62" cy="221" r="8" fill="#C69F39"/>
<path d="M77 184C77 170.343 79.703 156.819 84.9546 144.201C90.2062 131.583 97.9036 120.118 107.607 110.461C117.311 100.804 128.831 93.143 141.51 87.9165C154.188 82.69 167.777 80 181.5 80C195.223 80 208.812 82.69 221.49 87.9165C234.169 93.143 245.689 100.804 255.393 110.461C265.096 120.118 272.794 131.583 278.045 144.201C283.297 156.819 286 170.343 286 184L254.93 184C254.93 174.403 253.031 164.9 249.341 156.034C245.65 147.168 240.242 139.112 233.423 132.326C226.604 125.54 218.509 120.157 209.6 116.484C200.692 112.812 191.143 110.921 181.5 110.921C171.857 110.921 162.308 112.811 153.4 116.484C144.491 120.157 136.396 125.54 129.577 132.326C122.758 139.112 117.35 147.168 113.659 156.034C109.969 164.9 108.07 174.403 108.07 184L77 184Z" fill="#D3C8AE"/>
<path d="M77.8054 184C77.8054 160.598 85.6625 137.873 100.117 119.468C114.572 101.064 134.788 88.0452 157.524 82.4994C180.259 76.9536 204.199 79.2016 225.505 88.8833C246.81 98.565 264.249 115.12 275.025 135.893L247.452 150.196C239.88 135.598 227.626 123.965 212.655 117.162C197.683 110.358 180.861 108.779 164.884 112.676C148.908 116.573 134.702 125.721 124.545 138.654C114.388 151.587 108.866 167.555 108.866 184L77.8054 184Z" fill="#C69F39"/>
<defs>
<linearGradient id="paint0_linear_200_2913" x1="0" y1="140.5" x2="364" y2="140.5" gradientUnits="userSpaceOnUse">
<stop stop-color="#EEE8DA"/>
<stop offset="1" stop-color="#EDE6D6"/>
</linearGradient>
</defs>
</svg>
