<svg width="1949" height="1748" viewBox="0 0 1949 1748" fill="none" xmlns="http://www.w3.org/2000/svg">
<g opacity="0.5" clip-path="url(#clip0_200_2920)">
<path d="M1470.66 1715.33C1464.44 1714.7 1458.67 1713.16 1453.43 1710.47C1438.38 1702.77 1428.63 1686.54 1423.64 1660.85C1416.74 1625.28 1423.78 1586.88 1431.24 1546.22L1431.26 1546.05C1440.85 1493.83 1450.76 1439.83 1431.73 1386.62C1398.41 1293.45 1327.31 1247.23 1258.53 1202.52L1254.09 1199.64C1207.94 1169.61 1155.88 1154.88 1105.52 1140.63C1069.74 1130.52 1032.79 1120.07 997.459 1104.16C989.369 1100.51 981.749 1096.57 974.373 1092.75L974.09 1092.6C946.862 1078.49 921.135 1065.17 880.49 1071.93C864.689 1074.56 850.323 1077.53 837.655 1080.15C786.565 1090.69 755.757 1097.05 715.023 1068.67C669.969 1037.23 624.037 986.752 579.622 937.929L579.502 937.794C548.179 903.371 518.602 870.87 491.19 847.107C445.84 807.828 393.655 820.58 343.176 832.9C324.532 837.449 306.941 841.745 289.798 843.438C239.689 848.344 232.455 804.977 224.801 759.063L224.268 755.909C223.645 752.223 223.003 748.412 222.331 744.711C210.989 681.868 193.791 626.367 173.909 588.453C167.348 575.976 156.581 562.755 146.17 549.97L145.804 549.523C125.962 525.232 105.442 500.124 110.404 477.564C113.328 464.199 124.838 452.729 145.567 442.49C151.761 439.411 159.173 435.871 165.625 432.788C176.674 427.502 189.199 421.523 197.652 417.031C244.823 391.937 276.427 355.096 291.587 307.56C304.883 265.849 305.582 215.823 293.653 158.884C290.693 144.811 286.588 128.549 278.633 114.627C278.189 113.843 277.694 113.054 277.209 112.266C276.766 111.564 276.335 110.853 275.923 110.155L276.807 109.639C277.209 110.336 277.642 111.027 278.074 111.727C278.569 112.527 279.063 113.326 279.526 114.122C287.55 128.174 291.676 144.531 294.659 158.678C306.622 215.795 305.917 265.985 292.562 307.864C277.314 355.668 245.546 392.708 198.126 417.931C189.651 422.431 177.115 428.419 166.056 433.704C159.604 436.787 152.192 440.327 146.009 443.397C125.563 453.48 114.24 464.722 111.39 477.767C106.538 499.845 126.892 524.762 146.58 548.862L146.945 549.31C157.394 562.129 168.198 575.395 174.8 587.969C194.733 625.98 211.963 681.577 223.326 744.514C223.998 748.225 224.639 752.037 225.261 755.733L225.794 758.886C233.363 804.32 240.53 847.239 289.675 842.42C306.746 840.73 324.305 836.451 342.897 831.907C393.639 819.521 446.087 806.713 491.833 846.331C519.293 870.129 548.888 902.653 580.23 937.097L580.35 937.233C624.728 986.011 670.622 1036.45 715.581 1067.82C755.949 1095.96 786.601 1089.63 837.375 1079.16C850.106 1076.53 864.483 1073.56 880.304 1070.93C921.294 1064.1 947.156 1077.51 974.552 1091.69L974.834 1091.85C982.191 1095.65 989.801 1099.59 997.872 1103.23C1033.14 1119.1 1070.05 1129.54 1105.76 1139.63C1156.22 1153.9 1208.36 1168.66 1254.64 1198.77L1259.07 1201.64C1327.99 1246.44 1399.25 1292.77 1432.68 1386.27C1451.81 1439.73 1441.88 1493.87 1432.27 1546.22L1432.25 1546.4C1424.8 1586.95 1417.77 1625.28 1424.64 1660.64C1429.57 1686.01 1439.14 1702 1453.89 1709.55C1483.65 1724.77 1531.51 1702.97 1577.81 1681.88C1592.7 1675.08 1609.6 1667.39 1625.23 1661.41C1706.98 1630.16 1717.92 1597.77 1712.55 1532.34C1712.3 1529.26 1712.02 1526.19 1711.76 1523.15L1711.7 1522.51C1708.9 1491.42 1706.24 1462.06 1724.54 1422.16C1738.34 1392.05 1759.96 1368.16 1780.87 1345.06C1824.56 1296.79 1865.8 1251.24 1821.52 1158.21C1771 1052.06 1644.52 969.876 1515.37 896.879C1470.67 871.602 1419.14 843.089 1373.18 824.542C1344.67 813.036 1313.95 804.251 1281.43 794.956C1243.56 784.124 1204.41 772.927 1167.47 756.883C1095.99 725.839 1049.95 733.178 973.663 745.34L973.245 745.41C965.908 746.587 958.332 747.791 950.405 749.011C909.09 755.402 872.056 745.958 840.348 720.919C808.877 696.078 784.448 657.345 767.735 605.773C762.061 588.284 757.328 569.31 753.645 549.395C740.37 477.541 766.743 420.865 792.258 366.063L792.336 365.896C800.638 348.087 809.217 329.66 815.984 311.388C823.176 291.958 830.571 269.92 827.331 254.249C821.598 226.583 782.18 217.37 740.454 207.616L740.353 207.605C713.875 201.395 686.584 195.011 666.847 183.469C617.985 154.856 579.506 102.98 561.255 41.1425L562.239 40.8521C580.412 102.446 618.738 154.111 667.368 182.587C686.968 194.054 714.179 200.42 740.488 206.572L740.688 206.623C782.745 216.452 822.474 225.737 828.337 254.042C831.633 269.977 824.181 292.172 816.944 311.741C810.163 330.053 801.572 348.49 793.269 366.319L793.205 366.446C767.751 421.152 741.434 477.679 754.66 549.2C758.327 569.072 763.065 588.006 768.723 605.452C802.198 708.714 868.37 760.673 950.272 747.992C958.198 746.782 965.775 745.568 973.112 744.391L973.435 744.342C1049.99 732.146 1096.15 724.787 1167.9 755.952C1204.79 771.97 1243.9 783.153 1281.73 793.981C1314.28 803.289 1345.03 812.076 1373.59 823.609C1419.6 842.181 1471.17 870.708 1515.9 895.998C1645.19 969.081 1771.82 1051.38 1822.47 1157.79C1867.04 1251.44 1825.58 1297.23 1781.68 1345.72C1760.79 1368.81 1739.23 1392.63 1725.49 1422.61C1707.31 1462.25 1709.95 1491.48 1712.73 1522.43L1712.79 1523.07C1713.07 1526.12 1713.34 1529.19 1713.6 1532.27C1719.02 1598.24 1707.98 1630.9 1625.61 1662.38C1610.01 1668.34 1593.13 1676.04 1578.24 1682.83C1539.81 1700.34 1500.27 1718.34 1470.68 1715.35L1470.66 1715.33Z" fill="#DFD9CA"/>
<path d="M1485.03 1691.16C1479.34 1690.58 1474.04 1689.22 1469.2 1686.91C1455.61 1680.4 1446.68 1667.12 1441.88 1646.31C1433.23 1608.67 1441.19 1569.52 1448.9 1531.65C1455.82 1497.59 1462.36 1465.43 1456.92 1435.88C1432.67 1304.33 1349.02 1249.1 1268.12 1195.68L1264.9 1193.55C1261.92 1191.57 1258.93 1189.59 1255.96 1187.62C1211.26 1157.94 1165.79 1144.59 1117.66 1130.45C1088.43 1121.87 1058.25 1113 1027.68 1100.06C1013.69 1094.13 1000.74 1085.87 988.211 1077.87L987.661 1077.51C980.697 1073.07 973.503 1068.47 966.142 1064.31C920.802 1038.63 886.009 1050.07 849.188 1062.17C833.203 1067.43 816.709 1072.85 798.487 1075.66C789.914 1076.98 781.56 1077.15 773.419 1076.33C723.039 1071.23 680.821 1028.4 642.932 989.967C634.581 981.486 626.684 973.482 618.709 965.849C594.779 942.88 572.17 915.991 552.219 892.264L552.036 892.051C531.58 867.729 513.92 846.729 498.203 833.407C458.292 799.532 412.533 806.407 364.105 813.69L362.749 813.891C353.074 815.345 343.066 816.847 333.179 817.951C257.318 826.429 243.706 771.517 226.479 701.993C224.157 692.572 221.526 681.939 218.696 671.451C214.096 654.409 206.889 635.124 199.253 614.696L198.792 613.469C179.173 561.192 156.944 501.939 176.277 470.292C193.504 442.096 216.437 425.798 238.608 410.039C259.595 395.115 279.343 381.071 292.206 358.468C322.97 304.351 319.751 198.166 307.642 140.06C304.524 125.119 298.716 110.675 289.893 95.8958L290.767 95.3685C299.653 110.247 305.5 124.807 308.639 139.853C320.782 198.127 323.989 304.629 293.088 358.979C280.113 381.785 260.276 395.892 239.267 410.824C217.097 426.583 194.252 442.818 177.135 470.84C158.061 502.062 180.202 561.07 199.731 613.123L200.192 614.35C207.837 634.788 215.051 654.106 219.667 671.19C222.496 681.688 225.126 692.331 227.441 701.72C244.549 770.791 258.067 825.325 333.045 816.941C342.911 815.836 352.91 814.333 362.574 812.888L363.929 812.687C412.608 805.368 458.576 798.452 498.847 832.63C514.629 846.01 532.316 867.044 552.801 891.389L552.984 891.603C572.917 915.307 595.508 942.174 619.4 965.108C627.394 972.753 635.29 980.767 643.652 989.25C687.481 1033.71 737.148 1084.1 798.323 1074.65C816.461 1071.85 832.924 1066.43 848.834 1061.2C885.901 1049.01 920.896 1037.5 966.634 1063.41C974.014 1067.58 981.228 1072.19 988.201 1076.64L988.75 1077C1001.24 1084.96 1014.16 1093.21 1028.08 1099.1C1058.6 1112.02 1088.74 1120.87 1117.9 1129.44C1166.14 1143.61 1211.68 1156.98 1256.52 1186.74C1259.5 1188.72 1262.48 1190.69 1265.47 1192.67L1268.68 1194.79C1349.76 1248.33 1433.59 1303.69 1457.93 1435.65C1463.4 1465.39 1456.85 1497.65 1449.92 1531.8C1442.23 1569.58 1434.29 1608.62 1442.89 1646.05C1447.61 1666.54 1456.37 1679.59 1469.66 1685.95C1500.14 1700.52 1549.91 1676.66 1593.84 1655.62L1595.31 1654.92C1604.58 1650.49 1613.33 1646.31 1621.84 1642.52C1669.02 1621.48 1690.23 1585.36 1686.68 1532.09C1683.53 1484.63 1683.38 1441.37 1713.65 1392.45C1727.16 1370.61 1742.94 1351.81 1758.18 1333.63C1799.85 1283.96 1835.81 1241.1 1805.03 1160.46C1777.65 1088.73 1729.94 1047.23 1661.84 1003.53C1645.86 993.279 1629.82 982.706 1612.83 971.503L1611.46 970.605C1532.41 918.503 1442.81 859.454 1351.74 828.725C1332.4 822.201 1311.77 816.88 1291.81 811.731L1291.14 811.56C1258.75 803.171 1225.24 794.495 1192.3 780.251C1099.11 739.969 1062.29 737.209 946.142 761.82C908.561 769.759 874.308 763.686 844.332 743.748C795.139 710.997 758.358 640.408 740.765 544.972C728.944 480.88 747.968 434.32 769.994 380.417C775.353 367.329 780.575 354.484 785.501 341.218C793.226 320.375 801.177 296.588 797.759 278.013C792.27 248.145 757.916 234.949 727.603 223.312C723.067 221.57 718.639 219.87 714.437 218.172C626.435 182.458 584.843 128.471 542.756 47.307C542.523 46.8627 542.361 46.4358 542.198 46.019C542.059 45.6662 541.92 45.3135 541.751 44.9577L542.669 44.5066C542.857 44.8848 543.003 45.2691 543.149 45.6533C543.303 46.0589 543.458 46.4544 543.655 46.8438C585.639 127.803 627.104 181.633 714.82 217.225C719.002 218.921 723.43 220.621 727.966 222.363C758.525 234.097 793.166 247.404 798.762 277.838C802.226 296.673 794.228 320.62 786.46 341.582C781.533 354.858 776.31 367.713 770.94 380.81C748.98 434.566 730.01 480.998 741.769 544.796C759.317 639.961 795.937 710.318 844.9 742.903C874.635 762.682 908.616 768.707 945.925 760.823C1062.35 736.157 1099.26 738.917 1192.7 779.317C1225.57 793.533 1259.04 802.195 1291.4 810.58L1292.07 810.751C1312.04 815.902 1332.69 821.225 1352.06 827.763C1443.27 858.535 1532.92 917.621 1612.02 969.759L1613.39 970.656C1630.37 981.849 1646.42 992.422 1662.39 1002.67C1730.67 1046.49 1778.5 1088.11 1805.98 1160.09C1836.98 1241.3 1800.85 1284.38 1758.99 1334.24C1743.73 1352.43 1727.98 1371.21 1714.51 1392.98C1684.4 1441.65 1684.55 1484.75 1687.7 1532.03C1691.27 1585.78 1669.86 1622.23 1622.25 1643.45C1613.75 1647.23 1605 1651.42 1595.74 1655.85L1594.28 1656.54C1557.05 1674.38 1515.63 1694.21 1485.03 1691.12L1485.03 1691.16Z" fill="#DFD9CA"/>
<path d="M1500.48 1662.13C1494.87 1661.56 1489.7 1660.2 1485.06 1657.9C1472.08 1651.43 1464.05 1637.8 1461.18 1617.37C1457.3 1590.02 1462.6 1564.65 1468.21 1537.79C1474.35 1508.35 1480.68 1477.96 1474.07 1444.59C1444.63 1296.07 1342.76 1224.38 1231.99 1158.21C1198.13 1138.01 1160.12 1127.36 1123.36 1117.08C1094.82 1109.09 1065.3 1100.84 1038.21 1088.17C1018.99 1079.18 1002.38 1067.87 986.315 1056.92C947.155 1030.23 913.336 1007.19 860.827 1030.44C856.657 1032.28 852.645 1034.09 848.752 1035.83C815.743 1050.63 792.716 1060.96 767.237 1058.38C754.909 1057.13 742.013 1052.87 727.128 1044.62C653.015 1003.56 595.542 930.159 549.353 871.17L547.953 869.386C541.806 861.538 536.005 854.126 530.236 846.912C523.231 838.115 514.523 827.166 505.153 819.721C469.264 791.251 425.661 795.183 383.487 798.993C332.704 803.564 284.751 807.877 258.609 752.487C230.027 691.883 216.66 633.126 203.735 576.291L200.725 563.116C184.739 493.194 218.38 460.778 254.001 426.448C278.541 402.8 303.911 378.343 316.498 340.204C333.939 287.367 332.932 182.565 326.752 128.364C324.239 106.422 318.802 92.4782 307.986 80.2477L308.752 79.5759C319.577 91.8176 325.271 106.373 327.77 128.251C333.951 182.535 334.958 287.552 317.471 340.529C304.809 378.906 279.347 403.456 254.717 427.188C219.313 461.304 185.865 493.534 201.723 562.889L204.732 576.074C217.643 632.845 230.994 691.56 259.525 752.057C285.363 806.8 332.975 802.514 383.384 797.987C425.755 794.156 469.566 790.194 505.778 818.922C515.243 826.438 523.997 837.444 531.029 846.284C536.798 853.498 542.609 860.911 548.745 868.758L550.146 870.542C596.271 929.452 653.67 1002.76 727.609 1043.73C772.809 1068.76 799.634 1056.72 848.313 1034.89C852.206 1033.15 856.218 1031.35 860.388 1029.5C913.414 1006.02 947.453 1029.22 986.863 1056.07C1002.89 1066.99 1019.47 1078.3 1038.61 1087.24C1065.63 1099.87 1095.09 1108.12 1123.6 1116.09C1160.42 1126.4 1198.5 1137.06 1232.48 1157.34C1343.46 1223.62 1445.52 1295.46 1475.05 1444.39C1481.71 1477.97 1475.35 1508.46 1469.2 1537.94C1463.6 1564.77 1458.32 1590.06 1462.17 1617.23C1464.99 1637.31 1472.84 1650.68 1485.5 1656.99C1515.45 1671.88 1569.01 1646.56 1612.31 1622.84C1657.3 1598.22 1658.49 1556.2 1659.75 1511.74C1660.49 1485.62 1661.27 1458.67 1670.86 1433.97C1685.63 1395.99 1710.36 1365.11 1734.26 1335.24C1779.39 1278.87 1821.96 1225.68 1780.3 1137.28C1740.82 1053.56 1659.95 1005.11 1581.74 958.258L1580.61 957.579C1567.74 949.862 1554.43 941.885 1541.67 933.954C1482.96 897.386 1428.63 869.76 1375.57 849.489C1347.63 838.809 1318.68 831.128 1290.67 823.706L1290.52 823.67C1255.09 814.255 1218.45 804.512 1183.52 788.764C1121.83 760.969 1067.98 741.479 984.191 763.761C973.364 766.658 963.296 769.56 954.411 772.13L954.316 772.161C910.654 784.791 884.307 792.409 852.723 774.465C799.177 744.044 733.289 613.988 724.541 521.448C720.877 482.568 726.804 446.321 744.348 400.278C746.561 394.447 749.154 388.294 751.899 381.767L752.142 381.197C763.389 354.572 776.123 324.402 772.508 297.525C766.696 254.312 724.699 236.792 687.647 221.332C672.141 214.867 657.552 208.772 646.63 201.232C623.088 184.994 597.716 158.112 573.262 123.481C563.95 110.295 553.565 98.4669 543.52 87.0329C532.233 74.18 522.243 62.5052 514.164 49.9153L515.02 49.3656C523.054 61.8996 533.027 73.5316 544.286 86.3612C554.349 97.8175 564.752 109.668 574.102 122.899C598.494 157.431 623.771 184.231 647.218 200.398C658.043 207.878 672.593 213.948 688.001 220.372C725.348 235.954 767.629 253.606 773.528 297.392C777.177 324.54 764.376 354.856 753.087 381.6L752.844 382.171C750.1 388.688 747.506 394.84 745.306 400.653C727.828 446.548 721.917 482.643 725.566 521.367C734.288 613.647 799.91 743.297 853.232 773.592C884.437 791.324 910.637 783.742 954.034 771.188L954.13 771.157C963.024 768.598 973.093 765.686 983.93 762.79C1068.05 740.418 1122.07 759.966 1183.94 787.852C1218.8 803.563 1255.39 813.29 1290.79 822.701L1290.94 822.737C1318.96 830.171 1347.95 837.857 1375.94 848.55C1429.05 868.848 1483.44 896.5 1542.21 933.105C1554.95 941.035 1568.26 949.012 1581.13 956.728L1582.24 957.395C1660.6 1004.34 1741.6 1052.87 1781.21 1136.87C1823.15 1225.85 1780.38 1279.28 1735.11 1335.84C1711.19 1365.71 1686.51 1396.53 1671.81 1434.37C1662.28 1458.9 1661.51 1485.75 1660.76 1511.73C1659.49 1556.55 1658.3 1598.84 1612.81 1623.76C1575.91 1643.96 1531.61 1665.3 1500.46 1662.15L1500.48 1662.13Z" fill="#DFD9CA"/>
<path d="M1518.28 1629.75C1512.69 1629.18 1508.05 1627.44 1504.3 1624.52C1486.4 1610.57 1491.44 1571.35 1496.31 1533.43C1499.38 1509.61 1502.27 1487.12 1499.69 1470.61C1493.49 1431.03 1473.91 1389.58 1454.38 1350.51C1419.38 1280.48 1342.58 1209.7 1226.11 1140.15C1190.77 1119.03 1158.58 1110.8 1127.45 1102.83C1103.36 1096.66 1078.45 1090.28 1052.11 1077.98C1033.8 1069.41 1014.94 1053.78 994.98 1037.24L994.858 1037.13C957.528 1006.16 918.918 974.139 882.02 989.332C867.299 995.396 853.837 1005.06 840.827 1014.4L840.65 1014.53C823.664 1026.74 807.676 1038.23 790.165 1041.32C782.669 1042.65 775.019 1042.86 767.285 1042.08C695.451 1034.81 615.072 942.019 557.81 860.951C556.115 858.532 554.456 856.157 552.842 853.839L551.031 851.243C536.25 829.99 524.618 813.243 504.356 799.893C470.805 777.746 428.314 781.144 387.23 784.428C358.207 786.736 330.798 788.92 309.882 781.323C255.877 761.725 225.089 626.835 216.352 558.242C208.477 496.448 234.301 471.267 267.004 439.392C282.996 423.809 301.107 406.161 316.929 381.908C341.643 344.052 342.61 288.131 343.642 228.922C344.331 188.327 345.046 146.349 354.146 110.803C362.564 77.9392 357.391 67.3676 345.611 60.2021L346.14 59.332C358.327 66.7439 363.709 77.5829 355.137 111.058C346.069 146.494 345.359 188.411 344.666 228.943C343.64 288.297 342.67 344.361 317.796 382.468C301.913 406.817 283.758 424.502 267.754 440.094C235.233 471.793 209.569 496.815 217.383 558.1C226.091 626.474 256.698 760.925 310.247 780.354C330.956 787.869 358.26 785.705 387.169 783.406C428.429 780.109 471.095 776.708 504.946 799.039C525.371 812.498 537.058 829.312 551.856 850.598L553.703 853.248C555.316 855.567 556.975 857.941 558.671 860.361C621.932 949.918 713.413 1053.84 790.01 1040.31C807.302 1037.26 823.19 1025.84 840.021 1013.74L840.254 1013.57C853.308 1004.19 866.816 994.496 881.654 988.382C919.121 972.949 957.966 1005.18 995.533 1036.34L995.656 1036.45C1015.57 1052.95 1034.37 1068.54 1052.57 1077.05C1078.82 1089.31 1103.68 1095.69 1127.72 1101.85C1158.92 1109.83 1191.18 1118.09 1226.65 1139.28C1343.29 1208.93 1420.22 1279.84 1455.31 1350.06C1474.87 1389.2 1494.49 1430.74 1500.71 1470.46C1503.32 1487.1 1500.42 1509.66 1497.35 1533.57C1492.51 1571.22 1487.51 1610.14 1504.96 1623.72C1514.77 1631.37 1531.1 1630.63 1554.88 1621.46C1562.58 1618.48 1573.13 1614.18 1579.72 1610.61C1619.35 1589.15 1624.65 1547.93 1630.26 1504.3C1634.08 1474.59 1638.03 1443.95 1653.02 1417.94C1670.95 1386.78 1692.33 1360.62 1713 1335.3L1713.14 1335.13C1763.19 1273.9 1806.42 1221.02 1764.04 1131.13C1738.34 1076.58 1695.42 1046.49 1641.97 1012.83C1621.78 1000.1 1602.39 987.423 1585.27 976.238C1521.57 934.618 1461.39 895.306 1386.69 865.845C1360.18 855.393 1329.31 846.562 1296.62 837.219L1296.42 837.158C1252.96 824.724 1208.07 811.878 1168 793.783C1090.84 758.869 1044.53 754.255 938.297 797.954C893.761 816.274 856.37 809.761 823.981 778.053C796.029 750.705 776.237 709.67 757.099 669.994L754.307 664.2C696.033 543.627 704.869 461.17 736.046 374.467C745.318 348.689 752.707 325.686 749.228 305.177C743.87 273.505 710.508 254.662 678.242 236.453L677.776 236.19C669.191 231.339 661.091 226.763 653.499 221.931C626.936 204.997 605.954 179.39 583.737 152.284C555.161 117.39 522.82 77.9077 473.682 57.2938L474.076 56.3483C523.441 77.0468 555.874 116.641 584.475 151.579C606.673 178.673 627.601 204.212 654.039 221.061C661.6 225.891 669.691 230.456 678.267 235.296L678.733 235.558C711.212 253.891 744.788 272.849 750.221 305C753.738 325.75 746.314 348.892 736.987 374.808C705.896 461.274 697.093 543.498 755.204 663.757L757.996 669.551C777.091 709.15 796.848 750.11 824.67 777.332C856.742 808.721 893.771 815.167 937.889 797.01C1044.48 753.162 1090.95 757.803 1168.4 792.849C1208.4 810.917 1253.26 823.748 1296.64 836.165L1296.88 836.23C1329.59 845.585 1360.49 854.429 1387.05 864.885C1461.84 894.397 1522.07 933.735 1585.81 975.379C1602.91 986.563 1622.31 999.23 1642.49 1011.96C1696.08 1045.72 1739.12 1075.89 1764.94 1130.69C1807.59 1221.16 1764.18 1274.27 1713.91 1335.78L1713.77 1335.95C1693.12 1361.22 1671.78 1387.37 1653.88 1418.45C1638.98 1444.29 1635.06 1474.82 1631.26 1504.35C1625.61 1548.33 1620.28 1589.8 1580.18 1611.5C1573.55 1615.1 1562.95 1619.42 1555.23 1622.4C1540.03 1628.27 1527.79 1630.71 1518.29 1629.75L1518.28 1629.75Z" fill="#DFD9CA"/>
<path d="M1550.16 1553.91L1549.96 1553.69C1548.66 1552.21 1547.72 1550.57 1547.1 1548.67C1545.27 1543.01 1546.53 1536.15 1547.88 1528.88L1547.89 1528.77C1548.97 1522.97 1550.06 1517.06 1549.5 1511.68C1548.66 1503.16 1546.92 1494.95 1544.2 1486.56C1536.84 1463.87 1523.75 1444.81 1511.1 1426.39C1503.54 1415.38 1496.41 1405.01 1490.69 1394.21C1486.01 1385.4 1481.42 1376.38 1476.35 1366.36C1465.02 1344.04 1453.32 1320.95 1440.57 1301.76C1396.39 1235.24 1280.03 1159.95 1241.79 1135.22C1209.44 1114.3 1172.74 1102.7 1137.24 1091.47C1092.87 1077.44 1046.98 1062.94 1010 1030.23C998.977 1020.47 987.315 1006.66 974.966 992.025C950.606 963.162 925.43 933.333 901.688 930.931C899.452 930.705 897.243 930.727 895.101 930.993C876.372 933.337 859.795 954.496 843.771 974.962C832.747 989.037 822.336 1002.32 811.794 1008.99C795.295 1019.45 777.534 1023.79 758.976 1021.91C747.36 1020.73 737.69 1017.26 731.619 1014.55C671.163 987.579 630.732 931.954 591.635 878.168C574.747 854.916 557.327 830.932 538.667 809.862C518.286 786.831 494.06 774.608 462.452 771.41C443.335 769.475 423.562 770.985 404.44 772.437C385.164 773.904 366.963 775.296 349.452 773.524C333.353 771.895 319.755 767.676 307.85 760.621C287.196 748.401 267.121 714.839 251.322 666.11C237.166 622.453 228.922 572.826 230.325 539.683C232.321 491.851 262.541 462.291 291.768 433.718C312.04 413.887 332.951 393.434 343.94 367.224C357.956 333.725 356.037 294.652 354.173 256.858C351.579 203.861 348.893 149.13 389.565 108.209C402.422 95.2945 429.198 82.1157 455.502 81.9241C459.684 81.8956 463.823 82.0784 467.797 82.4805C514.579 87.2143 540.492 120.822 567.93 156.401C583.431 176.516 599.459 197.31 620.227 214.684C630.924 223.629 644.905 232.495 658.433 241.058C676.835 252.702 695.863 264.747 706.766 277.038C714.442 285.697 719.669 294.519 722.752 304.027C731.546 331.171 720.841 358.631 709.501 387.7C704.221 401.216 698.761 415.197 695.277 429.44C682.163 482.838 698.283 552.24 714.113 601.065C737.98 674.679 777.826 752.825 818.103 804.996C824.139 812.822 851.848 842.578 877.256 845.149C878.252 845.25 879.242 845.309 880.206 845.324C899.382 845.561 926.934 834.246 952.109 815.784C973.481 800.109 995.574 783.89 1013.28 778.61C1031.83 773.066 1050.33 771.325 1069.84 773.3C1106.65 777.025 1140.77 793.573 1173.76 809.577C1197.12 820.922 1221.29 832.645 1246.28 839.854C1260.97 844.092 1275.72 848.139 1289.97 852.065L1295.54 853.604C1364.01 872.366 1428.68 890.097 1492.45 924.785C1516.04 937.631 1538.47 953.602 1562.21 970.507L1562.99 971.059C1575.13 979.697 1587.69 988.624 1600.29 997.002C1613.3 1005.65 1626.79 1013.64 1639.84 1021.37L1640.4 1021.7C1665.69 1036.7 1689.58 1050.87 1708.44 1068.39C1730.6 1088.96 1747.23 1115 1756.52 1143.69C1769.57 1183.95 1766.69 1226.07 1748.61 1259.24C1729.88 1293.61 1700.84 1327.4 1670.1 1363.19L1670 1363.29C1631.54 1408.07 1591.76 1454.37 1574.46 1501.59C1572.56 1506.78 1572.01 1512.97 1571.43 1519.53C1570.04 1535.19 1568.74 1549.99 1550.43 1553.85L1550.14 1553.91L1550.16 1553.91ZM901.802 929.906C925.95 932.349 951.264 962.335 975.743 991.344C988.083 1005.97 999.717 1019.76 1010.69 1029.46C1047.51 1062.02 1093.28 1076.5 1137.55 1090.49C1173.11 1101.74 1209.88 1113.37 1242.27 1134.3C1280.64 1159.12 1397.14 1234.49 1441.43 1301.19C1454.21 1320.44 1465.94 1343.55 1477.27 1365.9C1482.34 1375.92 1486.92 1384.93 1491.6 1393.74C1497.3 1404.5 1504.4 1414.83 1511.93 1425.77C1524.66 1444.29 1537.78 1463.41 1545.19 1486.24C1547.93 1494.69 1549.67 1502.98 1550.53 1511.56C1551.09 1517.09 1549.99 1523.08 1548.92 1528.87L1548.91 1529.05C1547.58 1536.2 1546.33 1542.95 1548.08 1548.35C1548.62 1550.02 1549.43 1551.47 1550.54 1552.78C1567.82 1548.98 1569.09 1534.63 1570.44 1519.44C1571.03 1512.82 1571.58 1506.55 1573.53 1501.24C1590.9 1453.85 1630.74 1407.48 1669.26 1362.63L1669.33 1362.55C1700.05 1326.79 1729.06 1293.02 1747.73 1258.76C1765.67 1225.83 1768.53 1184.01 1755.56 1144.02C1746.31 1115.49 1729.78 1089.61 1707.76 1069.15C1688.99 1051.71 1665.14 1037.57 1639.89 1022.59L1639.33 1022.26C1626.28 1014.52 1612.78 1006.52 1599.74 997.86C1587.12 989.47 1574.56 980.543 1562.42 971.903L1561.63 971.352C1537.91 954.459 1515.5 938.511 1491.97 925.691C1428.29 891.054 1363.68 873.349 1295.28 854.594L1289.71 853.055C1275.45 849.129 1260.7 845.08 1246 840.842C1220.93 833.605 1196.74 821.858 1173.33 810.498C1140.42 794.533 1106.38 778.023 1069.75 774.317C1050.38 772.357 1032 774.079 1013.59 779.585C996.055 784.821 974.03 800.975 952.735 816.607C927.382 835.195 899.596 846.588 880.205 846.35C879.211 846.332 878.189 846.28 877.163 846.176C851.389 843.568 823.39 813.526 817.299 805.633C776.949 753.372 737.043 675.108 713.146 601.388C697.277 552.436 681.126 482.836 694.294 429.207C697.795 414.904 703.268 400.894 708.562 387.338C719.834 358.437 730.481 331.145 721.795 304.351C718.76 294.981 713.594 286.268 706.019 277.721C695.218 265.544 676.246 253.545 657.903 241.928C644.347 233.341 630.337 224.462 619.593 215.472C598.739 198.028 582.675 177.189 567.137 157.029C539.835 121.628 514.049 88.187 467.715 83.4986C463.771 83.0995 459.673 82.9107 455.522 82.9422C429.486 83.1302 403.003 96.1538 390.304 108.92C349.951 149.524 352.63 204.029 355.213 256.727C357.079 294.706 359.007 333.893 344.907 367.609C333.837 394.006 312.848 414.534 292.552 434.393C263.416 462.882 233.344 492.293 231.368 539.726C229.976 572.758 238.204 622.24 252.32 665.79C268.04 714.286 287.949 747.656 308.391 759.741C320.159 766.721 333.628 770.896 349.575 772.51C366.995 774.272 385.154 772.887 404.379 771.425C423.541 769.967 443.367 768.452 462.575 770.396C494.468 773.623 518.889 785.947 539.455 809.182C558.152 830.287 575.58 854.292 592.441 877.511C631.501 931.252 671.841 986.765 732.052 1013.62C738.054 1016.3 747.615 1019.73 759.099 1020.89C777.424 1022.75 794.974 1018.46 811.266 1008.13C821.654 1001.55 832.007 988.336 842.982 974.338C859.135 953.711 875.843 932.38 894.997 929.987C897.212 929.708 899.504 929.684 901.812 929.917L901.802 929.906Z" fill="#DFD9CA"/>
<path d="M1562.76 1435.95C1560.6 1435.73 1558.52 1435.22 1556.6 1434.45C1518.36 1419.03 1480.12 1354.44 1469.32 1335.01C1451.89 1303.68 1433.87 1271.28 1405.02 1245.5C1387.38 1229.75 1367.16 1216.01 1347.61 1202.73C1335.91 1194.78 1323.81 1186.55 1312.22 1177.87C1304.94 1172.41 1297.77 1166.89 1289.82 1160.77C1266.35 1142.69 1244.19 1125.62 1220.72 1112.14C1195.6 1097.74 1166.96 1089.18 1139.27 1080.9C1107.46 1071.37 1074.63 1061.55 1046.04 1042.91C1022.6 1027.61 1006.98 1001.58 991.876 976.39C980.5 957.421 968.736 937.808 953.85 923.39C930.013 900.317 907.95 897.664 891.84 895.736C880.56 894.379 872.415 893.401 868.429 886.213C867.144 883.897 866.86 882.031 867.549 880.5C869.045 877.182 874.716 875.929 883.309 874.017C896.764 871.027 917.089 866.504 935.253 850.053C938.147 847.43 941.492 844.3 945.032 840.973C964.931 822.296 995.005 794.076 1021.59 785.804C1037.66 780.8 1053.62 779.182 1070.36 780.875C1103.46 784.225 1134.05 799.954 1166.43 816.605L1166.67 816.732C1186.95 827.149 1207.93 837.924 1229.71 845.373C1251.95 852.991 1275.67 857.495 1298.62 861.86L1298.82 861.901C1319.98 865.93 1341.85 870.093 1363 876.677C1443.76 901.815 1509.2 940.859 1588.59 995.705C1598.09 1002.27 1608.04 1008.8 1618.56 1015.7L1619.25 1016.16C1622.97 1018.6 1626.69 1021.02 1630.4 1023.44C1681.14 1056.5 1729.07 1087.73 1746.25 1140.7C1758.16 1177.44 1757.06 1215.7 1743.24 1245.65C1729.62 1275.19 1674.89 1344.72 1670.48 1349.97C1670.25 1350.25 1669.75 1350.86 1669.05 1351.74C1642.82 1384.55 1594.15 1439.12 1562.75 1435.95L1562.76 1435.95ZM1070.27 781.892C1053.67 780.213 1037.85 781.815 1021.9 786.78C995.54 794.982 965.568 823.109 945.738 841.712C942.198 845.038 938.851 848.179 935.947 850.8C917.579 867.437 897.088 871.983 883.537 875.005C875.544 876.783 869.767 878.066 868.483 880.912C867.939 882.13 868.2 883.706 869.321 885.719C873.054 892.46 880.987 893.406 891.963 894.722C908.214 896.674 930.48 899.348 954.561 922.651C969.551 937.161 981.349 956.84 992.751 975.863C1007.79 1000.95 1023.35 1026.89 1046.59 1042.05C1075.05 1060.6 1107.81 1070.41 1139.48 1079.89C1167.29 1088.21 1195.99 1096.79 1221.21 1111.24C1244.74 1124.76 1266.93 1141.86 1290.43 1159.95C1298.37 1166.07 1305.54 1171.58 1312.82 1177.04C1324.39 1185.7 1336.47 1193.92 1348.16 1201.87C1367.74 1215.17 1387.98 1228.92 1405.68 1244.73C1434.66 1270.63 1452.72 1303.11 1470.19 1334.5C1480.95 1353.85 1519.03 1418.19 1556.96 1433.5C1558.8 1434.24 1560.77 1434.72 1562.84 1434.93C1594.92 1438.17 1647.24 1377.39 1668.24 1351.11C1668.96 1350.21 1669.45 1349.6 1669.68 1349.31C1674.09 1344.07 1728.72 1274.68 1742.3 1245.23C1756.01 1215.5 1757.08 1177.51 1745.25 1141.01C1728.18 1088.38 1680.41 1057.25 1629.82 1024.28C1626.11 1021.87 1622.39 1019.45 1618.67 1017.01L1617.98 1016.55C1607.45 1009.63 1597.5 1003.1 1587.99 996.538C1508.68 941.741 1443.32 902.746 1362.67 877.64C1341.58 871.072 1319.73 866.911 1298.61 862.895L1298.41 862.854C1275.43 858.487 1251.67 853.978 1229.37 846.333C1207.51 838.867 1186.51 828.069 1166.19 817.638L1165.95 817.51C1133.65 800.9 1103.14 785.219 1070.25 781.89L1070.27 781.892Z" fill="#DFD9CA"/>
<path d="M1562.49 1400.79C1536.94 1398.2 1506.74 1368.03 1470.17 1308.55C1451.52 1278.22 1432.27 1246.92 1404.52 1225.82C1392.1 1216.37 1378.16 1207.1 1363.39 1197.29L1363.27 1197.22C1345.72 1185.56 1327.57 1173.5 1310.46 1160.11C1305.04 1155.87 1299.65 1151.61 1294.3 1147.38L1294.21 1147.31C1268.24 1126.73 1243.7 1107.3 1219.32 1093.88C1195.74 1080.91 1169.43 1073.2 1143.97 1065.75C1117.52 1058 1092.62 1050.71 1070.39 1038.02C1034.36 1017.45 995.417 965.653 979.813 917.529C968.625 882.999 969.77 853.422 983.131 831.978C995.352 812.37 1017.34 800.061 1048.48 795.411C1057.28 794.095 1066.39 793.899 1075.57 794.828C1108.07 798.116 1138.77 814.73 1171.28 832.326C1198.67 847.168 1226.9 862.465 1256.3 868.887C1262.85 870.32 1269.55 871.768 1276.39 873.24C1344.51 887.892 1429.29 906.129 1503.75 949.607C1520.08 959.142 1535.95 970.98 1552.75 983.508L1552.87 983.603C1566.36 993.672 1580.31 1004.09 1594.63 1013.24C1606 1020.52 1618.09 1027.32 1629.8 1033.89C1664.69 1053.5 1721.51 1096.96 1735.12 1136.32C1738.56 1146.28 1740.76 1157.61 1741.85 1170.97C1743.64 1192.86 1738.61 1218.78 1728.39 1240.32C1717.25 1263.82 1690.68 1305.23 1658.71 1340.64C1632.9 1369.23 1595.49 1402.88 1563.83 1400.9C1563.37 1400.88 1562.93 1400.84 1562.47 1400.8L1562.49 1400.79ZM1294.93 1146.58C1300.29 1150.82 1305.67 1155.08 1311.08 1159.31C1328.16 1172.68 1346.29 1184.72 1363.82 1196.36L1363.95 1196.44C1378.73 1206.26 1392.68 1215.54 1405.13 1225.01C1433.03 1246.22 1452.33 1277.6 1471 1307.95C1507.42 1367.21 1537.38 1397.22 1562.58 1399.77C1563.02 1399.81 1563.47 1399.86 1563.91 1399.87C1595.16 1401.82 1632.3 1368.36 1657.96 1339.94C1689.87 1304.6 1716.36 1263.29 1727.47 1239.87C1737.62 1218.48 1742.6 1192.75 1740.83 1171.04C1739.74 1157.76 1737.56 1146.52 1734.15 1136.65C1720.64 1097.55 1664.04 1054.3 1629.3 1034.76C1617.59 1028.18 1605.47 1021.37 1594.08 1014.09C1579.73 1004.92 1565.77 994.494 1552.26 984.413L1552.13 984.319C1535.36 971.803 1519.51 959.988 1503.24 950.479C1428.91 907.086 1344.22 888.869 1276.18 874.235C1269.32 872.761 1262.62 871.324 1256.06 869.88C1226.53 863.422 1198.22 848.088 1170.85 833.259C1138.36 815.673 1107.75 799.099 1075.45 795.831C1066.35 794.911 1057.32 795.105 1048.6 796.409C1017.76 801.018 996.022 813.156 983.971 832.505C970.77 853.687 969.664 882.981 980.76 917.204C996.293 965.116 1035.03 1016.68 1070.87 1037.13C1092.99 1049.75 1117.85 1057.03 1144.15 1064.74C1169.73 1072.24 1196.12 1079.96 1219.78 1092.98C1244.24 1106.44 1268.8 1125.9 1294.82 1146.51L1294.59 1146.98L1294.9 1146.58L1294.93 1146.58Z" fill="#DFD9CA"/>
<path d="M1568.42 1372.63C1568.13 1372.6 1567.85 1372.57 1567.57 1372.54C1537.67 1369.02 1502.84 1330.23 1481.57 1293.35C1468.28 1270.29 1454.53 1246.44 1435.23 1228.77C1420.76 1215.53 1400.73 1203.2 1379.52 1190.16L1379.33 1190.04C1361.32 1178.95 1342.7 1167.49 1324.55 1153.88C1311.37 1143.99 1298.86 1133.77 1286.77 1123.87C1261.28 1103.03 1237.21 1083.34 1211.87 1070.67C1191.81 1060.64 1170.22 1052.88 1149.35 1045.39L1149.06 1045.29C1087.73 1023.3 1029.8 1002.53 1005.82 928.587C1004.48 924.469 1003.27 920.231 1002.2 915.956C994.311 884.448 997.848 855.586 1011.91 836.769C1023.79 820.82 1042.55 812.116 1067.65 810.879C1071.76 810.679 1075.98 810.798 1080.2 811.226C1108.54 814.093 1135.65 830.466 1164.36 847.812L1164.52 847.911C1183.56 859.403 1203.25 871.279 1223.42 878.894C1244.82 886.991 1268.74 889.627 1294.04 892.413C1309.15 894.075 1324.78 895.79 1340.49 898.817C1383.42 907.102 1431.89 923.954 1473.47 945.044C1494.31 955.61 1514.51 971.028 1535.92 987.358L1536.25 987.607C1554.15 1001.23 1572.65 1015.32 1591.95 1026.72C1600.25 1031.64 1609.14 1036.52 1617.74 1041.25L1618.01 1041.4C1661.62 1065.34 1706.71 1090.11 1722.51 1138.82C1725.94 1149.4 1727.86 1160.89 1728.2 1172.96C1729.12 1206.45 1712.26 1247.93 1681.94 1286.74L1681.24 1287.63C1650.13 1327.45 1611.41 1377.01 1568.44 1372.66L1568.42 1372.63ZM1080.09 812.22C1075.92 811.798 1071.74 811.683 1067.68 811.878C1042.9 813.096 1024.4 821.662 1012.71 837.353C998.84 855.922 995.366 884.473 1003.18 915.675C1004.25 919.93 1005.46 924.147 1006.78 928.222C1030.61 1001.7 1088.31 1022.39 1149.4 1044.29L1149.68 1044.39C1170.59 1051.9 1192.2 1059.67 1212.32 1069.73C1237.76 1082.46 1261.87 1102.18 1287.41 1123.05C1299.5 1132.94 1311.99 1143.16 1325.15 1153.03C1343.27 1166.62 1361.87 1178.07 1379.85 1189.14L1379.99 1189.23C1401.3 1202.35 1421.37 1214.69 1435.91 1228.01C1455.32 1245.79 1469.12 1269.7 1482.44 1292.83C1503.58 1329.5 1538.13 1368.04 1567.67 1371.53C1567.95 1371.55 1568.23 1371.58 1568.5 1371.61C1610.91 1375.9 1649.45 1326.59 1680.41 1286.97L1681.1 1286.08C1711.28 1247.46 1728.07 1206.22 1727.15 1172.97C1726.81 1161 1724.92 1149.61 1721.52 1139.11C1705.84 1090.78 1660.94 1066.12 1617.5 1042.27L1617.23 1042.12C1608.62 1037.39 1599.72 1032.5 1591.41 1027.58C1572.07 1016.15 1553.53 1002.04 1535.61 988.405L1535.29 988.156C1513.93 971.862 1493.75 956.467 1473 945.941C1431.5 924.889 1383.14 908.079 1340.29 899.802C1324.61 896.778 1309.01 895.067 1293.92 893.407C1268.55 890.603 1244.57 887.961 1223.05 879.821C1202.79 872.177 1183.06 860.266 1163.99 848.76L1163.82 848.661C1135.21 831.386 1108.19 815.064 1080.09 812.22Z" fill="#DFD9CA"/>
<path d="M1573.79 1344.53C1544.7 1341.58 1509.71 1305.56 1490.18 1271.49C1475.34 1245.62 1459.99 1218.87 1435.95 1202.78C1423.94 1194.72 1410.55 1188.12 1396.37 1181.11L1396.28 1181.06C1384.17 1175.07 1371.67 1168.88 1359.78 1161.6C1336.38 1147.26 1314.38 1127.66 1293.09 1108.69C1267.77 1086.14 1241.62 1062.83 1212.7 1047.88C1192.54 1037.46 1170.49 1031.24 1149.17 1025.22L1148.9 1025.14C1125.68 1018.61 1103.76 1012.44 1086.76 1001.48C1063.16 986.241 1044 960.152 1034.2 929.899C1022.13 892.651 1026.76 857.834 1045.99 841.182C1055.89 832.618 1068.93 829.083 1084.73 830.682C1096.71 831.894 1110.26 836.129 1125.01 843.277C1142.4 851.676 1157.02 861.808 1171.16 871.614C1193.79 887.298 1215.17 902.106 1244.81 907.671C1269.05 912.228 1292.27 914.64 1314.73 916.963C1358.98 921.564 1400.75 925.903 1445.03 945.174C1473.07 957.382 1500.68 978.25 1527.39 998.432L1527.49 998.514C1544.88 1011.66 1561.31 1024.06 1577.49 1033.93C1589.23 1041.1 1602.15 1047.46 1614.65 1053.61C1653.73 1072.83 1694.08 1092.68 1709.78 1141.1C1725.72 1190.35 1703.73 1234.18 1682.45 1262.28C1680.87 1264.37 1679.24 1266.53 1677.59 1268.74C1652.87 1301.68 1619.01 1346.79 1575.76 1344.68C1575.11 1344.65 1574.45 1344.6 1573.79 1344.54L1573.79 1344.53ZM1084.53 832.714C1069.3 831.173 1056.79 834.546 1047.32 842.723C1028.71 858.832 1024.32 892.801 1036.14 929.242C1045.81 959.082 1064.66 984.782 1087.87 999.765C1104.6 1010.56 1126.4 1016.69 1149.46 1023.18L1149.73 1023.26C1171.15 1029.3 1193.29 1035.56 1213.63 1046.06C1242.79 1061.13 1269.04 1084.52 1294.43 1107.15C1315.67 1126.07 1337.6 1145.62 1360.85 1159.86C1372.66 1167.09 1385.12 1173.26 1397.19 1179.23L1397.29 1179.28C1411.53 1186.31 1424.98 1192.96 1437.1 1201.09C1461.53 1217.44 1477 1244.4 1491.96 1270.48C1511.23 1304.09 1545.6 1339.62 1573.99 1342.49C1574.62 1342.56 1575.25 1342.6 1575.87 1342.63C1618.02 1344.69 1651.51 1300.09 1675.96 1267.51C1677.62 1265.3 1679.25 1263.13 1680.83 1261.03C1701.81 1233.32 1723.51 1190.13 1707.84 1141.71C1692.41 1094.12 1652.44 1074.46 1613.79 1055.45C1601.21 1049.27 1588.25 1042.88 1576.44 1035.67C1560.15 1025.74 1543.7 1013.31 1526.26 1000.13L1526.16 1000.05C1499.56 979.943 1472.04 959.146 1444.22 947.042C1400.22 927.892 1358.6 923.568 1314.55 918.987C1292.02 916.656 1268.75 914.24 1244.43 909.665C1214.37 904.017 1192.82 889.089 1170 873.282C1155.92 863.524 1141.37 853.44 1124.12 845.105C1109.58 838.062 1096.26 833.891 1084.53 832.704L1084.53 832.714Z" fill="#DFD9CA"/>
<path d="M1574.09 1317.21C1549.8 1314.76 1517.43 1287.18 1500.41 1254.43C1490.28 1234.97 1479.84 1214.93 1466.16 1201.82C1453.58 1189.76 1431.15 1180.04 1409.47 1170.64C1394.92 1164.34 1379.93 1157.85 1367.66 1150.55C1335.17 1131.24 1308.63 1105.41 1282.96 1080.43C1255.2 1053.43 1229.02 1027.96 1199.38 1015.24C1187.41 1010.09 1173.63 1006.78 1159.05 1003.27C1126.95 995.538 1090.56 986.776 1067.97 955.321C1061.18 945.859 1055.33 934.151 1051.51 922.362C1043.52 897.69 1045.36 876.456 1056.56 864.082C1065.74 853.947 1076.81 849.69 1090.4 851.065C1115.6 853.614 1145.2 875.946 1171.31 895.646C1191.74 911.056 1210.97 925.565 1225.31 929.028C1230.13 930.193 1235.08 931.012 1240.44 931.554C1256.01 933.129 1271.81 931.875 1287.09 930.66C1298.63 929.745 1310.56 928.796 1322.17 929.109C1329.18 929.305 1336.57 929.797 1344.15 930.563C1368.31 933.008 1430.31 942.299 1483.97 975.717C1501.6 986.708 1514.17 998.357 1526.33 1009.62C1537.86 1020.31 1548.72 1030.39 1563.62 1039.98C1577.31 1048.8 1592.93 1055.83 1608.02 1062.63C1646.88 1080.15 1687.02 1098.24 1700.29 1147.16C1720.24 1220.49 1645.69 1299.1 1585.7 1316.31C1582.16 1317.32 1578.25 1317.62 1574.09 1317.2L1574.09 1317.21ZM1090.21 853.108C1077.3 851.802 1066.8 855.84 1058.08 865.468C1047.38 877.276 1045.69 897.787 1053.46 921.727C1057.22 933.347 1062.97 944.849 1069.64 954.146C1091.78 984.98 1127.77 993.652 1159.53 1001.3C1174.2 1004.83 1188.06 1008.16 1200.19 1013.37C1230.17 1026.24 1256.49 1051.85 1284.36 1078.94C1309.97 1103.86 1336.43 1129.61 1368.7 1148.8C1380.86 1156.03 1395.79 1162.5 1410.23 1168.75C1432.14 1178.24 1454.73 1188.04 1467.57 1200.35C1481.5 1213.69 1492.01 1233.89 1502.18 1253.43C1518.96 1285.69 1550.61 1312.8 1574.28 1315.19C1578.18 1315.59 1581.84 1315.31 1585.13 1314.36C1644.34 1297.37 1717.95 1219.91 1698.32 1147.71C1685.3 1099.72 1645.61 1081.83 1607.22 1064.52C1592.01 1057.67 1576.33 1050.61 1562.51 1041.72C1547.46 1032.03 1536.52 1021.89 1524.94 1011.16C1512.85 999.947 1500.35 988.357 1482.87 977.475C1429.59 944.289 1367.95 935.045 1343.94 932.615C1336.42 931.854 1329.06 931.366 1322.1 931.175C1310.59 930.862 1298.73 931.807 1287.26 932.72C1271.87 933.944 1255.98 935.2 1240.22 933.605C1234.77 933.054 1229.73 932.215 1224.82 931.031C1210.07 927.465 1190.67 912.836 1170.13 897.333C1144.17 877.751 1114.82 855.599 1090.2 853.107L1090.21 853.108Z" fill="#DFD9CA"/>
<path d="M1583.31 1284.46C1580.94 1284.22 1578.6 1283.75 1576.37 1283.05C1555.74 1276.64 1528.87 1242.84 1521.36 1219.67L1521.32 1219.54L1518.94 1212.19C1512.67 1192.82 1506.35 1175.76 1492.63 1162.96C1477.08 1148.47 1455.15 1144.84 1431.93 1141.01C1414.13 1138.06 1395.8 1135.03 1380.06 1126.76C1350.27 1111.11 1300.64 1064.43 1287.52 1023.95C1282.56 1008.65 1283.27 995.612 1289.64 985.213C1297.23 972.792 1312.77 964.563 1335.82 960.736C1350.48 958.299 1365.75 957.864 1381.2 959.427C1408.4 962.18 1436.14 971.268 1461.41 985.699C1480.28 996.488 1494.6 1012.24 1508.46 1027.49C1520.71 1040.97 1533.33 1054.83 1548.74 1064.8C1564.44 1074.96 1582.19 1080.62 1599.35 1086.08C1628.34 1095.31 1655.71 1104.03 1671.47 1132.45C1674.35 1137.63 1676.69 1142.98 1678.44 1148.39C1688.91 1180.69 1677.2 1208.49 1665.52 1226.11C1644.94 1257.22 1611.54 1287.33 1583.31 1284.47L1583.31 1284.46ZM1380.99 961.459C1365.71 959.913 1350.63 960.347 1336.15 962.751C1313.71 966.475 1298.65 974.393 1291.38 986.282C1285.34 996.15 1284.69 1008.62 1289.46 1023.32C1302.43 1063.32 1351.53 1109.48 1381.02 1124.96C1396.46 1133.07 1414.63 1136.08 1432.19 1138.99C1455.8 1142.88 1478.02 1146.56 1494.03 1161.47C1508.1 1174.61 1514.52 1191.92 1520.89 1211.57L1523.3 1219.04C1530.67 1241.77 1556.88 1274.86 1576.98 1281.1C1579.08 1281.76 1581.29 1282.2 1583.51 1282.43C1610.89 1285.2 1643.56 1255.57 1663.8 1224.97C1675.23 1207.71 1686.71 1180.54 1676.49 1149C1674.79 1143.73 1672.49 1138.48 1669.68 1133.43C1654.32 1105.72 1627.31 1097.12 1598.73 1088.02C1581.44 1082.51 1563.55 1076.82 1547.63 1066.51C1532 1056.38 1519.29 1042.42 1507 1028.93C1493.2 1013.73 1478.98 998.091 1460.38 987.464C1435.36 973.17 1407.91 964.173 1380.98 961.448L1380.99 961.459Z" fill="#DFD9CA"/>
<path d="M1437.8 1118.33C1420.01 1116.53 1402.45 1111.81 1387.01 1104.68C1356.53 1090.6 1334.69 1069.14 1327.13 1045.79C1324.3 1037.08 1323.45 1028.16 1324.59 1019.27C1327.5 996.567 1343.65 982.682 1370.06 980.172C1376.18 979.59 1382.85 979.649 1389.87 980.36C1436.83 985.112 1496.29 1018.47 1509.93 1060.55C1512.97 1069.92 1513.66 1079.38 1512 1088.67L1511.95 1088.94C1507.67 1103.39 1496.16 1113.49 1480.35 1116.69C1467.56 1119.28 1452.85 1119.84 1437.8 1118.32L1437.8 1118.33ZM1389.76 981.386C1382.81 980.682 1376.21 980.619 1370.15 981.197C1344.26 983.657 1328.44 997.236 1325.6 1019.42C1324.46 1028.16 1325.3 1036.93 1328.08 1045.48C1335.57 1068.57 1357.2 1089.81 1387.43 1103.77C1402.76 1110.85 1420.22 1115.53 1437.89 1117.32C1452.84 1118.83 1467.45 1118.28 1480.13 1115.7C1495.56 1112.59 1506.79 1102.74 1510.94 1088.7L1511 1088.49C1512.63 1079.39 1511.94 1070.09 1508.95 1060.88C1495.43 1019.17 1436.4 986.105 1389.75 981.385L1389.76 981.386Z" fill="#DFD9CA"/>
<path d="M1395.17 1072.68C1385.64 1071.72 1376.23 1069.19 1367.96 1065.37C1351.61 1057.83 1339.91 1046.31 1335.84 1033.77C1334.32 1029.08 1333.86 1024.29 1334.48 1019.5C1336.05 1007.25 1344.75 999.76 1358.99 998.408C1362.27 998.094 1365.84 998.127 1369.61 998.509C1394.78 1001.06 1426.63 1018.95 1433.96 1041.51C1435.6 1046.55 1435.97 1051.65 1435.07 1056.65L1435.03 1056.81C1432.72 1064.62 1426.5 1070.09 1417.97 1071.81C1411.11 1073.2 1403.23 1073.5 1395.17 1072.68ZM1369.52 999.526C1365.82 999.151 1362.31 999.115 1359.09 999.425C1345.37 1000.73 1337 1007.9 1335.5 1019.64C1334.91 1024.27 1335.35 1028.92 1336.82 1033.46C1340.8 1045.73 1352.32 1057.03 1368.4 1064.45C1376.57 1068.23 1385.87 1070.73 1395.28 1071.68C1403.24 1072.48 1411.02 1072.18 1417.78 1070.82C1425.93 1069.18 1431.86 1063.98 1434.06 1056.56L1434.07 1056.46C1434.95 1051.65 1434.58 1046.72 1433 1041.84C1425.81 1019.65 1394.38 1002.05 1369.53 999.537L1369.52 999.526Z" fill="#DFD9CA"/>
<path d="M765.537 1005.87C764.379 1005.76 763.195 1005.58 762.016 1005.36C729.786 999.382 695.438 974.055 672.304 953.876C642.841 928.16 613.499 894.862 591.812 862.513C577.032 840.449 563.072 819.608 547.564 801.288C527.214 777.244 504.061 764.659 474.699 761.688C456.395 759.835 437.817 761.702 418.161 763.675C399.251 765.579 379.719 767.544 360.561 765.605C339.777 763.502 322.029 756.965 306.288 745.611C281.274 727.582 266.147 693.31 257.851 667.746C235.034 597.358 237.179 515.374 262.834 477.049C275.9 457.515 292.428 442.417 308.414 427.807C335.521 403.034 361.135 379.628 365.205 338.287C367.651 313.204 365.854 289.262 364.112 266.095L364.09 265.805C361.065 225.686 358.206 187.884 378.088 151.407C391.77 126.29 413.698 108.865 439.844 102.324C450.387 99.6963 461.277 98.92 472.223 100.028C487.753 101.599 502.884 107 515.995 115.634C531.876 126.109 546.596 144.708 563.646 166.262C579.086 185.765 596.573 207.867 617.542 226.606C626.979 235.022 637.161 242.56 647.008 249.858L647.123 249.941C670.537 267.244 692.644 283.573 700.805 308.755C704.084 318.857 704.895 329.614 703.298 341.645C701.016 358.719 694.513 374.483 688.226 389.735C680.078 409.478 671.658 429.882 671.744 454.195C671.893 493.715 679.355 535.751 694.585 582.698C714.687 644.703 744.646 704.379 773.623 762.088L773.855 762.543C790.747 796.203 806.7 827.992 819.667 858.34C821.894 863.523 823.891 868.846 825.613 874.152C837.256 910.073 835.748 943.144 821.375 967.277C810.032 986.328 791.146 1008.5 765.554 1005.91L765.537 1005.87ZM474.813 760.662C504.449 763.661 527.816 776.361 548.35 800.619C563.885 818.982 577.863 839.846 592.662 861.932C633.84 923.36 707.245 994.145 762.2 1004.36C763.339 1004.56 764.503 1004.73 765.631 1004.85C790.673 1007.38 809.274 985.502 820.468 966.702C834.692 942.821 836.171 910.045 824.611 874.42C822.896 869.146 820.916 863.855 818.696 858.693C805.737 828.377 789.793 796.599 772.91 762.95L772.679 762.496C743.684 704.754 713.709 645.035 693.583 582.956C678.333 535.904 670.841 493.763 670.692 454.14C670.605 429.632 679.066 409.13 687.254 389.298C693.514 374.104 699.991 358.4 702.259 341.458C703.831 329.578 703.036 318.967 699.803 309.012C691.744 284.149 669.762 267.905 646.481 250.708L646.366 250.624C636.498 243.324 626.298 235.764 616.834 227.314C595.789 208.516 578.274 186.381 562.826 166.857C545.821 145.368 531.157 126.826 515.41 116.437C502.445 107.889 487.471 102.556 472.104 101.001C461.28 99.9056 450.504 100.673 440.076 103.272C414.215 109.748 392.509 127.002 378.967 151.855C359.234 188.07 362.077 225.727 365.086 265.598L365.119 265.981C366.867 289.19 368.67 313.184 366.216 338.348C362.106 380.075 336.356 403.611 309.101 428.524C293.16 443.096 276.677 458.158 263.683 477.586C238.185 515.681 236.098 597.291 258.83 667.403C267.069 692.829 282.103 726.896 306.888 744.758C322.476 756.004 340.075 762.486 360.666 764.569C379.722 766.497 399.202 764.538 418.039 762.646C437.779 760.661 456.409 758.79 474.814 760.652L474.813 760.662Z" fill="#DFD9CA"/>
<path d="M743.448 971.513C743.082 971.476 742.716 971.439 742.341 971.39C677.565 963.471 645.055 910.238 613.619 858.767C610.942 854.38 608.263 850.004 605.573 845.647L605.255 845.132C594.339 827.493 583.052 809.262 570.663 792.582C549.178 763.62 523.981 749.123 488.938 745.577C470.786 743.741 452.224 744.942 432.557 746.215C413.218 747.481 393.302 748.781 373.625 746.79C358.513 745.261 345.192 741.953 332.911 736.687C307.662 725.849 284.915 694.132 270.492 649.668C259.349 615.296 254.434 577.008 257.354 547.241C262.493 494.319 295.021 466.717 326.48 440.033C354.616 416.153 381.2 393.605 388.395 354.767C393.71 325.981 389.296 297.156 385.023 269.268C377.496 220.175 370.393 173.885 420.594 139.142C438.292 126.892 455.155 121.774 472.118 123.49C511.623 127.487 543.619 169.265 571.86 206.136C584.004 221.991 595.422 236.899 606.931 248.574C612.724 254.436 619.187 260.067 624.897 265.028C640.552 278.651 655.339 291.519 661.411 310.249C663.648 317.167 664.55 324.382 664.169 332.308C663.573 344.595 656.522 357.655 649.055 371.484C641.804 384.894 634.327 398.722 632.309 412.876C630.211 427.628 634.101 447.123 637.213 460.503C642.11 481.516 648.299 503.459 656.125 527.581C673.912 582.433 696.177 635.963 715.835 683.184C724.042 702.931 732.541 723.353 739.659 741.491L739.822 741.907C749.196 765.857 760.873 795.653 770.419 825.111C792.227 892.379 795.227 935.287 779.602 956.265C773.627 964.282 762.494 973.44 743.438 971.512L743.448 971.513ZM489.03 744.56C524.388 748.138 549.809 762.76 571.475 791.966C583.891 808.68 595.186 826.932 606.121 844.594L606.438 845.108C609.139 849.466 611.816 853.853 614.494 858.24C645.806 909.514 678.174 962.527 742.464 970.387C742.829 970.424 743.184 970.47 743.55 970.507C762.129 972.387 772.969 963.477 778.79 955.67C794.201 934.968 791.15 892.373 769.452 825.434C759.913 796.008 748.245 766.222 738.87 742.283L738.707 741.866C731.598 723.74 723.109 703.329 714.891 683.581C695.235 636.34 672.952 582.788 655.158 527.904C647.324 503.751 641.139 481.777 636.224 460.742C633.088 447.287 629.18 427.668 631.306 412.744C633.353 398.407 640.869 384.501 648.133 371.052C655.564 357.281 662.564 344.318 663.147 332.266C663.526 324.463 662.642 317.363 660.434 310.571C654.447 292.117 639.765 279.331 624.223 265.801C618.506 260.82 612.022 255.186 606.201 249.29C594.646 237.57 583.209 222.639 571.093 206.818C542.934 170.047 511.073 128.458 472.015 124.506C455.297 122.814 438.665 127.874 421.166 139.98C371.484 174.365 378.536 220.342 386.002 269.028C390.299 297.083 394.725 326.002 389.382 354.959C382.12 394.15 355.411 416.819 327.129 440.817C295.827 467.373 263.457 494.837 258.359 547.353C255.453 576.988 260.352 615.121 271.457 649.365C285.785 693.553 308.328 725.044 333.302 735.761C345.495 740.988 358.716 744.265 373.727 745.784C393.312 747.766 413.197 746.473 432.421 745.216C452.193 743.933 470.806 742.727 489.039 744.572L489.03 744.56Z" fill="#DFD9CA"/>
<path d="M714.64 931.413C692.698 929.192 671.506 904.94 658.844 890.45C657.905 889.379 657.022 888.366 656.185 887.409L653.974 884.907C640.008 869.197 629.215 849.23 617.791 828.09L617.627 827.786C599.289 793.898 580.329 758.849 547.058 741.646C535.105 735.48 521.962 731.728 506.87 730.2C487.773 728.268 468.22 730.036 447.507 731.902C425.996 733.83 403.759 735.84 381.217 733.559C368.899 732.312 357.62 729.929 346.729 726.251C318.012 716.602 294.631 687.91 280.874 645.484C268.378 606.932 265.557 560.542 273.867 530.058C284.371 491.493 315.706 466.849 346.014 443.015C380.151 416.15 412.38 390.786 413.83 347.939C414.459 329.045 409.535 308.605 404.321 286.975C393.239 240.838 381.777 193.184 425.436 159.072C439.839 147.823 456.449 142.781 473.472 144.503C490.496 146.226 506.525 154.427 520.421 168.283C543.915 191.7 597.175 262.192 610.243 302.495C612.396 309.128 613.407 314.762 613.251 319.242C612.638 335.951 605.362 348.096 598.322 359.833C588.121 376.834 577.585 394.407 587.569 425.212C588.852 429.17 590.449 433.273 592.31 437.413C598.332 450.852 605.855 463.868 613.145 476.45C621.805 491.418 630.763 506.899 637.336 523.319C639.64 529.063 641.811 535.103 643.971 541.767C648.713 556.39 652.538 571.351 656.592 587.198C660.843 603.834 665.228 620.977 670.916 638.529C673.826 647.516 676.785 655.719 679.96 663.604C682.394 669.691 685.206 676.503 688.183 683.712L689.016 685.725C700.84 714.377 715.56 750.024 727.336 786.358C747.408 848.267 762.237 901.199 740.34 921.871C732.643 929.139 724.003 932.339 714.652 931.393L714.64 931.413ZM506.983 729.185C522.197 730.725 535.461 734.5 547.53 740.74C581.084 758.083 600.122 793.274 618.528 827.303L618.692 827.607C630.081 848.691 640.848 868.614 654.74 884.235L656.951 886.737C657.789 887.685 658.682 888.709 659.61 889.778C672.17 904.155 693.197 928.216 714.733 930.396C723.778 931.311 732.143 928.196 739.612 921.151C761.044 900.914 745.562 846.007 726.337 786.699C714.568 750.396 699.866 714.771 688.04 686.14L687.206 684.126C684.23 676.907 681.419 670.095 678.975 664.008C675.801 656.102 672.835 647.878 669.917 638.869C664.211 621.285 659.827 604.132 655.582 587.537C651.513 571.638 647.687 556.686 642.962 542.096C640.811 535.453 638.646 529.445 636.352 523.712C629.813 507.357 620.873 491.909 612.219 476.972C604.923 464.359 597.38 451.33 591.343 437.839C589.465 433.666 587.862 429.522 586.56 425.541C576.425 394.3 587.096 376.515 597.408 359.33C604.386 347.699 611.589 335.67 612.196 319.218C612.349 314.861 611.347 309.34 609.234 302.824C596.214 262.659 543.097 192.377 519.659 169.016C505.93 155.331 489.913 147.214 473.327 145.535C456.74 143.857 440.222 148.806 426.03 159.891C382.896 193.594 394.267 240.931 405.272 286.702C410.516 308.448 415.454 328.951 414.821 347.988C413.364 391.307 380.946 416.816 346.631 443.816C316.445 467.56 285.245 492.095 274.824 530.34C266.562 560.654 269.378 606.797 281.819 645.179C295.474 687.297 318.632 715.751 347.031 725.296C357.844 728.936 369.052 731.312 381.299 732.551C403.749 734.823 425.933 732.829 447.393 730.894C468.148 729.023 487.753 727.25 506.951 729.193L506.983 729.185Z" fill="#DFD9CA"/>
<path d="M678.057 847.808C660.058 845.987 640.545 814.381 627.44 790.773C620.495 778.236 613.94 766.406 603.799 755.414C584.355 734.387 560.487 723.094 528.686 719.876C505.026 717.482 479.923 719.909 455.65 722.246C431.792 724.554 407.133 726.954 384.032 724.617C360.931 722.279 341.487 715.149 325.893 702.948C307.531 688.579 293.415 667.362 285.057 641.586C266.886 585.555 277.932 518.297 311.311 481.677C326.786 464.707 358.342 441.83 384.1 423.796C387.515 421.401 391.265 418.845 394.803 416.453C417.759 400.937 446.337 381.629 449.228 361.374C450.208 354.535 449.341 347.067 446.57 338.535C442.845 327.043 435.858 314.614 429.699 303.645L429.621 303.504C422.904 291.545 415.962 279.183 411.971 266.873C410.665 262.841 409.744 259.053 409.169 255.3C405.508 231.713 413.852 188.926 439.006 169.959C448.653 162.704 459.793 159.654 472.111 160.9C478.941 161.591 486.117 163.631 493.429 166.957C519.391 178.77 545.723 212.298 557.451 248.494C563.578 267.393 565.191 285.241 562.103 300.129C559.743 311.477 552.135 321.423 544.098 331.951L544.027 332.046C531.591 348.298 518.74 365.113 526.079 387.758C526.807 389.997 527.725 392.287 528.821 394.553C538.157 414.105 553.076 431.452 568.877 449.822L568.969 449.923C586.798 470.674 605.235 492.123 617.643 518.955C621.349 526.977 624.637 535.479 627.704 544.945C634.324 565.362 638.82 587.093 643.172 608.102L643.305 608.721C647.774 630.306 652.395 652.625 659.289 672.967C663.631 685.764 668.666 698.815 673.54 711.43L673.865 712.274C679.479 726.811 684.784 740.536 689.158 754.034C699.057 784.564 708.317 824.349 696.229 840.513C692.429 845.599 686.716 848.079 679.251 847.878C678.852 847.868 678.444 847.837 678.048 847.797L678.057 847.808ZM528.778 718.859C560.854 722.105 584.927 733.501 604.547 754.72C614.771 765.803 621.361 777.688 628.333 790.268C636.618 805.188 658.606 844.814 678.161 846.782C678.537 846.82 678.914 846.848 679.293 846.856C686.41 847.042 691.833 844.697 695.429 839.898C707.255 824.088 698.022 784.644 688.202 754.348C683.837 740.871 678.54 727.157 672.925 712.64L672.599 711.797C667.728 699.162 662.683 686.109 658.333 673.291C651.414 652.885 646.786 630.534 642.31 608.918L642.177 608.299C637.832 587.311 633.334 565.61 626.739 545.247C623.679 535.813 620.408 527.353 616.718 519.375C604.368 492.671 585.978 471.268 568.195 450.574L568.103 450.472C552.255 432.056 537.29 414.654 527.905 394.973C526.794 392.664 525.859 390.332 525.115 388.05C517.612 364.896 530.628 347.872 543.219 331.4L543.701 331.613L543.291 331.305C551.266 320.873 558.794 311.012 561.11 299.895C564.159 285.188 562.559 267.516 556.487 248.786C544.836 212.844 518.735 179.576 493.019 167.87C485.803 164.595 478.738 162.577 472.02 161.897C459.957 160.676 449.059 163.658 439.624 170.75C414.781 189.482 406.559 231.778 410.182 255.125C410.752 258.826 411.658 262.562 412.939 266.54C416.898 278.764 423.814 291.083 430.505 302.988L430.583 303.129C436.769 314.132 443.772 326.613 447.528 338.201C450.345 346.882 451.227 354.504 450.222 361.495C447.265 382.195 418.478 401.647 395.356 417.278C391.818 419.671 388.069 422.217 384.664 424.613C358.94 442.619 327.45 465.451 312.044 482.346C278.897 518.712 267.945 585.539 286.005 641.251C294.3 666.836 308.3 687.887 326.501 702.117C341.944 714.189 360.793 721.208 384.117 723.568C407.442 725.928 431.723 723.51 455.531 721.198C479.856 718.845 505.009 716.423 528.771 718.827L528.778 718.859Z" fill="#DFD9CA"/>
<path d="M382.104 707.24C380.722 707.1 379.352 706.941 377.994 706.763C342.593 702.185 311.579 671.509 297.057 626.697C284.139 586.839 287.536 544.127 306.144 512.438C330.769 470.498 387.992 429.774 439.245 417.717C453.518 414.358 466.914 413.27 479.059 414.499C491.204 415.728 502.732 419.502 512.077 425.579C554.224 453.081 592.306 506.856 611.453 565.921C627.127 614.268 639.769 667.307 614.709 694.167C606.095 703.394 595.365 703.602 586.981 702.753C583.535 702.405 580.093 701.82 576.753 701.246C573.513 700.693 570.444 700.177 567.476 699.877C562.903 699.414 558.207 698.939 553.328 698.763C525.262 697.699 495.717 700.693 467.147 703.601C435.985 706.75 406.557 709.715 382.094 707.239L382.104 707.24ZM478.965 415.526C466.932 414.309 453.65 415.387 439.483 418.716C388.471 430.725 331.525 471.242 307.026 512.958C288.557 544.395 285.2 586.803 298.023 626.384C312.429 670.815 343.122 701.222 378.117 705.749C403.249 709.021 434.182 705.9 467.045 702.575C495.646 699.67 525.222 696.668 553.37 697.741C558.279 697.93 562.996 698.397 567.559 698.859C570.588 699.165 573.666 699.692 576.926 700.248C580.247 700.81 583.678 701.403 587.083 701.748C595.233 702.572 605.664 702.376 613.968 693.476C638.669 667.011 626.065 614.305 610.486 566.244C591.409 507.392 553.482 453.816 511.527 426.447C502.317 420.455 491.364 416.781 478.965 415.526Z" fill="#DFD9CA"/>
<path d="M389.801 690.232C367.401 687.965 349.739 679.764 335.807 665.145C322.894 651.614 313.64 636.432 308.319 620.015C296.033 582.131 305.701 538.134 334.169 502.341C366.318 461.943 414.325 440.156 462.589 444.044C463.159 444.092 463.719 444.138 464.278 444.195C516.741 449.503 565.216 505.48 581.766 556.533C592.213 588.751 590.652 618.173 577.378 639.368C564.999 659.115 543.174 671.368 512.529 675.801C498.798 677.152 484.515 679.802 469.395 682.603C442.585 687.598 414.853 692.767 389.801 690.232ZM464.175 445.211C463.616 445.154 463.057 445.098 462.506 445.062C414.579 441.198 366.893 462.853 334.967 502.976C306.71 538.503 297.119 582.148 309.295 619.703C314.569 635.971 323.745 651.023 336.556 664.44C350.323 678.868 367.768 686.976 389.914 689.217C414.814 691.737 442.472 686.581 469.219 681.6C484.361 678.791 498.665 676.133 512.416 674.784C542.737 670.411 564.311 658.307 576.529 638.831C589.643 617.896 591.162 588.788 580.809 556.857C564.362 506.112 516.24 450.489 464.194 445.223L464.175 445.211Z" fill="#DFD9CA"/>
<path d="M385.063 678.606C363.395 676.414 346.756 667.843 334.199 652.419C325.405 641.615 318.836 629.619 314.674 616.769C305.95 589.847 308.163 559.249 320.729 532.778C344.768 482.117 393.049 453.974 449.861 457.495C451.841 457.613 453.836 457.784 455.798 457.983C482.212 460.656 506.759 470.119 526.79 485.345C546.878 500.618 561.472 520.969 569.017 544.22C573.782 558.928 575.746 574.83 574.839 591.499C573.711 611.881 562.925 629.993 543.635 643.878C525.828 656.691 501.354 665.69 472.848 669.887C466.334 670.849 459.756 671.929 453.398 672.969C429.03 676.959 406.019 680.737 385.072 678.618L385.063 678.606ZM455.696 458.989C453.745 458.791 451.759 458.631 449.8 458.505C393.417 455.006 345.516 482.942 321.661 533.211C309.191 559.445 307.005 589.769 315.643 616.425C319.784 629.181 326.292 641.068 335.004 651.772C347.377 666.982 363.792 675.428 385.176 677.591C406.559 679.755 428.939 675.933 453.233 671.956C459.602 670.918 466.19 669.829 472.704 668.877C501.054 664.694 525.377 655.773 543.051 643.049C562.076 629.353 572.722 611.504 573.839 591.438C574.732 574.902 572.787 559.114 568.062 544.524C552.96 497.938 508.86 464.368 455.716 458.991L455.696 458.989Z" fill="#DFD9CA"/>
<path d="M398.654 663.108C379.131 661.133 364.464 654.383 352.506 641.863C343.593 632.545 337.167 621.97 333.418 610.423C321.797 574.587 337.245 531.298 371.834 502.704C395.331 483.271 423.539 474.107 451.244 476.91C464.792 478.281 478.019 482.411 490.536 489.2C512.642 501.166 529.046 520.788 536.712 544.461C545.53 571.67 541.384 600.974 525.607 622.86C512.802 640.624 486.761 661.965 435.409 662.722C423.378 663.516 410.973 664.344 398.645 663.097L398.654 663.108ZM451.151 477.927C423.721 475.151 395.778 484.23 372.494 503.489C338.22 531.818 322.908 574.669 334.395 610.101C338.088 621.498 344.433 631.952 353.245 641.158C365.027 653.486 379.487 660.142 398.757 662.092C411.004 663.331 423.367 662.509 435.316 661.717C486.329 660.957 512.121 639.847 524.783 622.274C540.36 600.644 544.461 571.685 535.745 544.784C528.156 521.365 511.927 501.946 490.054 490.105C477.653 483.39 464.566 479.295 451.15 477.937L451.151 477.927Z" fill="#DFD9CA"/>
<path d="M404.918 651.436C372.985 648.205 354.364 624.726 347.597 603.832C337.816 573.652 346.122 530.329 387.488 506.495C405.564 496.089 427.257 491.551 448.569 493.708C457.604 494.622 466.448 496.718 474.831 499.917C499.576 509.348 517.857 527.353 524.978 549.319C528.398 559.857 529.187 571.042 527.333 582.566C520.275 625.934 471.296 645.857 431.486 649.752C422.232 651.71 413.272 652.281 404.918 651.436ZM448.466 494.724C427.357 492.588 405.884 497.087 387.994 507.377C347.12 530.922 338.909 573.712 348.564 603.509C355.239 624.096 373.575 647.238 405.021 650.42C413.273 651.255 422.129 650.694 431.331 648.741C470.831 644.876 519.364 625.195 526.323 582.402C528.15 571.04 527.366 560.02 524.002 549.631C516.974 527.962 498.926 510.186 474.468 500.865C466.164 497.695 457.411 495.619 448.467 494.714L448.466 494.724Z" fill="#DFD9CA"/>
<path d="M416.139 623.741C393.424 621.442 377.078 609.884 371.287 592.024C370.77 590.432 370.318 588.714 369.945 586.921C363.349 554.498 390.574 529.469 420.88 521.492C429.782 519.149 439.009 518.369 447.567 519.235C469.418 521.446 484.994 533.614 491.443 553.49C491.953 555.051 492.396 556.656 492.788 558.266C495.789 570.917 493.339 583.365 485.686 594.26C474.864 609.679 453.612 621.333 431.529 623.954C426.175 624.305 421.007 624.233 416.139 623.741ZM447.464 520.251C439.029 519.397 429.925 520.17 421.139 522.483C391.298 530.332 364.476 554.92 370.94 586.724C371.306 588.485 371.743 590.161 372.252 591.722C377.909 609.178 393.943 620.479 416.231 622.734C421.048 623.222 426.155 623.287 431.425 622.948C453.198 620.357 474.176 608.871 484.841 593.682C492.315 583.025 494.716 570.87 491.777 558.512C491.393 556.934 490.958 555.35 490.455 553.822C484.14 534.349 468.866 522.437 447.452 520.27L447.464 520.251Z" fill="#DFD9CA"/>
<path d="M422.819 593.441C412.94 592.442 406.676 588.698 404.695 582.606C401.19 571.782 411.959 554.859 426.037 549.058C429.958 547.443 434.008 546.786 437.738 547.163C445.991 547.998 452.836 553.607 458.104 563.85L458.151 563.998C459.252 570.668 457.28 577.479 452.576 583.171C447.244 589.6 439.393 593.517 431.566 593.649C428.442 593.784 425.491 593.722 422.818 593.451L422.819 593.441ZM437.625 548.178C433.123 547.723 429.049 548.922 426.424 550.001C412.775 555.619 402.306 571.916 405.661 582.293C407.499 587.97 413.47 591.469 422.911 592.434C425.533 592.7 428.432 592.767 431.516 592.628C439.064 592.509 446.634 588.728 451.769 582.525C456.251 577.087 458.161 570.599 457.129 564.254C452.039 554.389 445.47 548.982 437.614 548.187L437.625 548.178Z" fill="#DFD9CA"/>
</g>
<defs>
<clipPath id="clip0_200_2920">
<rect width="1799.08" height="1574.52" fill="white" transform="translate(158.512) rotate(5.77795)"/>
</clipPath>
</defs>
</svg>
