<svg width="1917" height="985" viewBox="0 0 1917 985" fill="none" xmlns="http://www.w3.org/2000/svg">
<g clip-path="url(#clip0_263_4876)">
<path d="M1052.75 1446.08C1046.5 1446.08 1040.61 1445.12 1035.12 1442.98C1019.37 1436.83 1008.04 1421.67 1000.49 1396.61C990.043 1361.92 993.179 1323 996.509 1281.8V1281.63C1000.8 1228.7 1005.22 1173.98 980.931 1122.96C938.405 1033.62 863.007 994.785 790.081 957.227L785.372 954.807C736.431 929.584 683.148 920.169 631.612 911.061C595.001 904.597 557.185 897.929 520.43 885.654C512.013 882.836 504.035 879.681 496.312 876.627L496.016 876.505C467.505 865.211 440.568 854.54 400.81 865.364C385.355 869.571 371.36 873.973 359.02 877.853C309.252 893.487 279.24 902.912 235.856 878.772C187.865 852.028 137.085 806.434 87.9805 762.33L87.8477 762.208C53.2182 731.114 20.5193 701.756 -9.14554 680.873C-58.2193 646.358 -108.856 664.3 -157.838 681.639C-175.929 688.042 -192.999 694.087 -209.884 697.497C-259.244 707.423 -270.808 665.004 -283.045 620.094L-283.893 617.01C-284.884 613.406 -285.906 609.679 -286.948 606.064C-304.559 544.682 -327.257 491.195 -350.854 455.475C-358.638 443.721 -370.682 431.651 -382.327 419.98L-382.736 419.571C-404.923 397.402 -427.866 374.487 -425.2 351.542C-423.637 337.951 -413.34 325.38 -393.747 313.106C-387.894 309.42 -380.876 305.151 -374.768 301.434C-364.307 295.062 -352.447 287.853 -344.49 282.533C-300.084 252.818 -272.35 212.983 -262.053 164.161C-253.023 121.324 -257.364 71.4818 -274.965 16.0334C-279.327 2.32957 -285.048 -13.437 -294.364 -26.4873C-294.885 -27.2225 -295.457 -27.9577 -296.019 -28.6929C-296.53 -29.3465 -297.03 -30.0102 -297.51 -30.6638L-296.683 -31.2662C-296.213 -30.6127 -295.712 -29.9694 -295.212 -29.3158C-294.64 -28.5704 -294.068 -27.825 -293.526 -27.0795C-284.128 -13.9067 -278.377 1.95175 -273.985 15.7271C-256.333 71.3491 -251.981 121.355 -261.052 164.366C-271.41 213.462 -299.288 253.512 -343.928 283.381C-351.906 288.711 -363.776 295.93 -374.247 302.302C-380.355 306.019 -387.373 310.288 -393.216 313.964C-412.543 326.054 -422.677 338.38 -424.199 351.644C-426.804 374.099 -404.044 396.84 -382.031 418.836L-381.622 419.244C-369.936 430.947 -357.851 443.058 -350.016 454.903C-326.358 490.715 -303.619 544.294 -285.977 605.768C-284.935 609.393 -283.914 613.12 -282.923 616.735L-282.075 619.819C-269.97 664.259 -258.519 706.238 -210.109 696.497C-193.295 693.096 -176.256 687.072 -158.216 680.679C-108.979 663.248 -58.0865 645.225 -8.58374 680.036C21.1323 700.949 53.8515 730.327 88.5015 761.442L88.6343 761.564C137.698 805.627 188.437 851.191 236.325 877.873C279.321 901.809 309.18 892.425 358.642 876.893C371.043 872.992 385.048 868.591 400.524 864.384C440.619 853.468 467.7 864.2 496.384 875.555L496.68 875.678C504.382 878.721 512.35 881.876 520.747 884.684C557.43 896.928 595.206 903.596 631.755 910.039C683.393 919.158 736.757 928.594 785.831 953.888L790.52 956.298C863.61 993.937 939.171 1032.85 981.84 1122.51C1006.25 1173.77 1001.82 1228.64 997.531 1281.7V1281.87C994.201 1322.97 991.065 1361.81 1001.46 1396.3C1008.92 1421.04 1020.06 1435.99 1035.49 1442.02C1066.63 1454.16 1112.05 1427.65 1155.99 1402.01C1170.13 1393.75 1186.16 1384.39 1201.11 1376.87C1279.3 1337.55 1286.93 1304.22 1275 1239.67C1274.43 1236.62 1273.85 1233.6 1273.28 1230.6L1273.16 1229.98C1267.24 1199.32 1261.64 1170.38 1275.83 1128.84C1286.53 1097.49 1305.63 1071.54 1324.11 1046.45C1362.72 994.039 1399.16 944.565 1345.75 856.47C1284.79 755.938 1150.69 686.908 1014.85 627.283C967.825 606.636 913.685 583.455 866.092 569.629C836.57 561.051 805.118 555.405 771.826 549.431C733.06 542.467 692.985 535.267 654.617 523.024C580.373 499.333 535.304 511.27 460.631 531.05L460.222 531.162C453.041 533.072 445.625 535.033 437.861 537.044C397.399 547.562 359.602 541.895 325.535 520.175C291.722 498.629 263.518 462.551 241.699 412.924C234.293 396.095 227.673 377.694 222.004 358.251C201.563 288.098 222.096 229.055 241.964 171.963L242.026 171.789C248.492 153.235 255.172 134.037 260.066 115.177C265.265 95.1214 270.403 72.4519 265.602 57.1857C257.113 30.2376 216.968 25.0399 174.472 19.5359H174.37C147.402 16.0232 119.607 12.4185 98.8085 2.92184C47.3138 -20.6259 3.80731 -68.3646 -20.5764 -128.051L-19.6263 -128.439C4.65515 -68.9875 47.9879 -21.4428 99.2375 1.9926C119.893 11.428 147.607 15.0225 174.401 18.4944L174.605 18.525C217.438 24.0699 257.9 29.3083 266.583 56.8794C271.466 72.4008 266.287 95.2338 261.056 115.432C256.153 134.334 249.462 153.541 242.996 172.116L242.945 172.249C223.127 229.239 202.636 288.129 222.995 357.955C228.644 377.357 235.263 395.717 242.649 412.505C286.349 511.873 357.416 556.906 437.626 536.043C445.39 534.042 452.806 532.071 459.987 530.162L460.304 530.08C535.242 510.239 580.424 498.271 654.954 522.054C693.261 534.277 733.305 541.466 772.03 548.43C805.352 554.414 836.825 560.061 866.409 568.659C914.052 582.506 968.234 605.696 1015.28 626.354C1151.27 686.05 1285.54 755.182 1346.65 855.949C1400.42 944.636 1363.78 994.376 1324.99 1047.04C1306.53 1072.11 1287.47 1097.98 1276.82 1129.19C1262.73 1170.46 1268.29 1199.28 1274.18 1229.79L1274.3 1230.41C1274.88 1233.43 1275.47 1236.45 1276.03 1239.49C1288.06 1304.58 1280.37 1338.19 1201.59 1377.8C1186.67 1385.3 1170.65 1394.66 1156.52 1402.91C1120.04 1424.2 1082.52 1446.09 1052.77 1446.09L1052.75 1446.08Z" fill="#DFD9CA"/>
<path d="M1064.61 1420.58C1058.9 1420.58 1053.49 1419.76 1048.44 1417.95C1034.26 1412.84 1024.04 1400.53 1017.17 1380.31C1004.77 1343.73 1008.76 1303.98 1012.62 1265.52C1016.07 1230.94 1019.34 1198.28 1010.95 1169.43C973.576 1040.99 884.796 994.458 798.927 949.456L795.515 947.659C792.349 945.994 789.172 944.33 786.015 942.665C738.555 917.637 691.974 908.926 642.665 899.705C612.725 894.11 581.803 888.33 550.085 878.527C535.569 874.034 521.85 867.121 508.581 860.422L507.999 860.126C500.623 856.409 493.003 852.559 485.26 849.159C437.565 828.174 404.1 843.052 368.684 858.798C353.31 865.64 337.446 872.696 319.6 877.332C311.203 879.507 302.908 880.518 294.726 880.518C244.089 880.518 197.773 842.154 156.208 807.731C147.045 800.133 138.382 792.965 129.679 786.174C103.559 765.731 78.3579 741.254 56.1194 719.656L55.9151 719.462C33.1148 697.324 13.4301 678.208 -3.54752 666.536C-46.6658 636.851 -91.5003 648.299 -138.95 660.42L-140.278 660.756C-149.758 663.177 -159.564 665.678 -169.289 667.772C-243.911 683.845 -262.983 630.582 -287.121 563.145C-290.38 554.006 -294.068 543.692 -297.939 533.542C-304.232 517.05 -313.344 498.588 -322.997 479.033L-323.579 477.858C-348.361 427.822 -376.443 371.107 -360.395 337.675C-346.094 307.888 -324.917 289.364 -304.446 271.453C-285.068 254.492 -266.834 238.532 -256.312 214.749C-231.152 157.81 -245.045 52.4884 -262.942 -4.10366C-267.549 -18.655 -274.781 -32.4406 -285.048 -46.2567L-284.23 -46.8694C-273.893 -32.9613 -266.609 -19.0635 -261.971 -4.41C-244.023 52.3455 -230.11 157.983 -255.383 215.168C-265.996 239.165 -284.312 255.197 -303.711 272.168C-324.182 290.079 -345.276 308.531 -359.486 338.135C-375.319 371.118 -347.35 427.597 -322.68 477.419L-322.098 478.594C-312.434 498.159 -303.312 516.652 -296.999 533.184C-293.128 543.345 -289.44 553.669 -286.192 562.777C-262.217 629.775 -243.278 682.67 -169.524 666.781C-159.82 664.688 -150.023 662.186 -140.554 659.776L-139.226 659.439C-91.531 647.257 -46.4922 635.749 -2.98569 665.699C14.0634 677.422 33.7788 696.568 56.6097 718.727L56.814 718.921C79.0321 740.498 104.213 764.955 130.292 785.367C139.016 792.168 147.678 799.347 156.851 806.944C204.934 846.769 259.422 891.904 319.334 876.342C337.098 871.726 352.932 864.68 368.234 857.869C403.885 842.011 437.544 827.04 485.658 848.209C493.422 851.62 501.062 855.479 508.448 859.207L509.03 859.503C522.259 866.171 535.947 873.074 550.381 877.536C582.048 887.319 612.929 893.088 642.798 898.674C692.229 907.916 738.882 916.636 786.485 941.736C789.652 943.4 792.818 945.065 795.985 946.729L799.397 948.516C885.45 993.621 974.434 1040.26 1011.93 1169.11C1020.37 1198.14 1017.1 1230.89 1013.64 1265.57C1009.8 1303.93 1005.83 1343.57 1018.16 1379.94C1024.91 1399.85 1034.94 1411.95 1048.8 1416.95C1080.59 1428.37 1127.71 1399.63 1169.3 1374.27L1170.69 1373.43C1179.46 1368.09 1187.75 1363.04 1195.84 1358.42C1240.66 1332.73 1258.12 1294.67 1249.23 1242.03C1241.32 1195.12 1236.81 1152.09 1262 1100.37C1273.25 1077.28 1287.05 1056.99 1300.39 1037.37C1336.85 983.756 1368.31 937.498 1329.57 860.361C1295.1 791.76 1243.46 755.274 1171.3 718.645C1154.37 710.058 1137.35 701.153 1119.32 691.718L1117.87 690.962C1033.97 647.083 938.885 597.353 845.182 575.95C825.282 571.406 804.219 568.189 783.85 565.075L783.165 564.973C750.088 559.887 715.878 554.628 681.667 543.774C584.898 513.078 547.991 514.038 434.909 550.217C398.318 561.899 363.627 559.305 331.797 542.487C279.556 514.855 235.856 448.327 208.745 355.147C190.531 292.571 204.771 244.332 221.258 188.485C225.273 174.924 229.175 161.619 232.74 147.925C238.328 126.409 243.844 101.943 238.573 83.8071C230.105 54.6431 194.597 44.9728 163.267 36.4462C158.578 35.1697 154.001 33.9239 149.65 32.6577C58.4995 5.98528 11.6833 -43.5405 -38.3609 -120.055C-38.6367 -120.474 -38.841 -120.882 -39.0453 -121.281C-39.219 -121.618 -39.3926 -121.955 -39.5969 -122.291L-38.7286 -122.833C-38.5039 -122.475 -38.32 -122.108 -38.1362 -121.74C-37.9421 -121.352 -37.748 -120.974 -37.513 -120.607C12.4086 -44.2859 59.0818 5.09689 149.936 31.6774C154.267 32.9436 158.843 34.1894 163.532 35.4659C195.117 44.0639 230.922 53.8159 239.554 83.5314C244.896 101.922 239.349 126.552 233.731 148.191C230.166 161.894 226.264 175.21 222.239 188.781C205.803 244.475 191.603 292.581 209.725 354.871C236.765 447.786 280.281 514.099 332.277 541.588C363.852 558.274 398.267 560.847 434.592 549.247C547.94 512.986 584.939 512.016 681.974 542.804C716.113 553.638 750.282 558.887 783.318 563.972L784.003 564.074C804.392 567.189 825.476 570.405 845.406 574.96C939.243 596.393 1034.39 646.154 1118.34 690.063L1119.79 690.819C1137.82 700.244 1154.84 709.149 1171.76 717.737C1244.11 754.457 1295.89 791.055 1330.47 859.901C1369.5 937.58 1337.88 984.073 1301.26 1037.9C1287.91 1057.53 1274.13 1077.8 1262.91 1100.82C1237.85 1152.27 1242.35 1195.13 1250.23 1241.86C1259.2 1294.97 1241.57 1333.4 1196.34 1359.3C1188.26 1363.92 1179.97 1368.96 1171.21 1374.31L1169.83 1375.14C1134.59 1396.64 1095.37 1420.54 1064.61 1420.54V1420.58Z" fill="#DFD9CA"/>
<path d="M1077.07 1390.14C1071.43 1390.14 1066.15 1389.32 1061.3 1387.49C1047.74 1382.36 1038.37 1369.61 1033.46 1349.57C1026.85 1322.75 1029.57 1296.97 1032.45 1269.69C1035.59 1239.78 1038.83 1208.91 1028.89 1176.37C984.65 1031.57 876.083 970.502 759.211 915.819C723.488 899.123 684.599 892.363 646.987 885.828C617.792 880.753 587.595 875.514 559.361 865.64C539.339 858.635 521.677 849.046 504.587 839.774C462.939 817.166 426.972 797.642 377.07 826.06C373.107 828.317 369.297 830.512 365.599 832.636C334.248 850.69 312.378 863.281 286.768 863.281C274.377 863.281 261.118 860.34 245.478 853.631C167.608 820.24 103.038 752.997 51.1446 698.958L49.5715 697.324C42.666 690.135 36.1487 683.344 29.6825 676.748C21.827 668.701 12.0612 658.684 1.98907 652.22C-36.5835 627.508 -79.569 635.81 -121.145 643.846C-171.209 653.506 -218.485 662.625 -250.071 610.148C-284.608 552.729 -303.823 495.616 -322.405 440.372L-326.726 427.567C-349.669 359.609 -319.463 323.971 -287.479 286.23C-265.445 260.231 -242.665 233.344 -233.982 194.132C-221.948 139.807 -233.502 35.6395 -245.106 -17.6645C-249.815 -39.2414 -256.629 -52.5674 -268.622 -63.6469L-267.927 -64.3923C-255.924 -53.3026 -248.794 -39.3946 -244.105 -17.8789C-232.49 35.5067 -220.917 139.889 -232.981 194.357C-241.715 233.814 -264.576 260.803 -286.692 286.893C-318.482 324.4 -348.515 359.834 -325.755 427.24L-321.434 440.055C-302.873 495.238 -283.679 552.31 -249.202 609.628C-217.985 661.492 -171.046 652.434 -121.349 642.856C-79.5792 634.779 -36.3894 626.425 2.53049 651.362C12.7048 657.887 22.5216 667.956 30.4077 676.043C36.874 682.64 43.4015 689.43 50.2967 696.619L51.8699 698.253C103.692 752.221 168.18 819.382 245.867 852.692C293.357 873.043 318.834 858.369 365.068 831.748C368.766 829.624 372.576 827.429 376.539 825.172C426.931 796.467 463.133 816.124 505.046 838.876C522.096 848.127 539.727 857.706 559.667 864.68C587.82 874.524 617.965 879.762 647.129 884.827C684.803 891.373 723.764 898.143 759.609 914.9C876.696 969.675 985.477 1030.87 1029.84 1176.07C1039.85 1208.81 1036.59 1239.79 1033.45 1269.74C1030.58 1296.99 1027.87 1322.69 1034.43 1349.33C1039.26 1369.03 1048.41 1381.53 1061.64 1386.54C1092.94 1398.34 1143.68 1367.76 1184.38 1339.8C1226.66 1310.77 1223.61 1268.85 1220.39 1224.48C1218.5 1198.42 1216.55 1171.54 1223.61 1146C1234.48 1106.72 1255.98 1073.51 1276.75 1041.38C1315.98 980.754 1352.98 923.549 1302.63 839.795C1254.92 760.472 1169.59 720.412 1087.06 681.67L1085.86 681.108C1072.28 674.726 1058.23 668.129 1044.75 661.522C982.647 631.051 925.81 609.035 870.985 594.208C842.107 586.396 812.534 581.668 783.921 577.104L783.768 577.083C747.565 571.283 710.127 565.279 673.791 553.127C609.619 531.683 554.079 517.714 472.96 548.318C462.48 552.29 452.755 556.191 444.174 559.642L444.082 559.683C401.914 576.644 376.468 586.876 343.238 572.202C286.901 547.327 208.254 424.565 190.235 333.376C182.675 295.062 184.923 258.403 197.743 210.828C199.357 204.803 201.318 198.421 203.392 191.651L203.576 191.058C212.085 163.436 221.718 132.138 215.415 105.762C205.282 63.3535 161.734 50.15 123.315 38.4987C107.236 33.6278 92.1075 29.0327 80.4826 22.6301C55.4247 8.84454 27.476 -15.3465 -0.339966 -47.3391C-10.9331 -59.5214 -22.4559 -70.2435 -33.6006 -80.6082C-46.1245 -92.2595 -57.2386 -102.869 -66.5446 -114.582L-65.7478 -115.215C-56.4929 -103.553 -45.3992 -92.9845 -32.906 -81.3536C-21.7408 -70.9685 -10.1976 -60.226 0.436371 -48.0029C28.1808 -16.1021 56.0275 8.01742 80.9832 21.7417C92.5059 28.0932 107.594 32.668 123.57 37.5082C162.296 49.2514 206.14 62.557 216.416 105.527C222.78 132.169 213.096 163.62 204.556 191.365L204.372 191.957C202.299 198.717 200.337 205.099 198.734 211.104C185.965 258.526 183.717 295.032 191.246 333.192C209.214 424.126 287.555 546.51 343.657 571.283C376.488 585.784 401.791 575.603 443.704 558.744L443.796 558.703C452.387 555.262 462.112 551.351 472.603 547.378C554.038 516.652 609.752 530.662 674.118 552.178C710.382 564.299 747.77 570.293 783.931 576.093L784.085 576.113C812.718 580.688 842.332 585.416 871.251 593.238C926.137 608.086 983.036 630.122 1045.2 660.624C1058.67 667.231 1072.71 673.827 1086.29 680.209L1087.47 680.761C1170.15 719.575 1255.63 759.706 1303.5 839.294C1354.17 923.6 1317 981.06 1277.65 1041.89C1256.86 1074.02 1235.41 1107.17 1224.59 1146.29C1217.59 1171.66 1219.53 1198.45 1221.4 1224.37C1224.65 1269.1 1227.71 1311.29 1184.96 1340.66C1150.29 1364.47 1108.36 1390.16 1077.05 1390.16L1077.07 1390.14Z" fill="#DFD9CA"/>
<path d="M1091.52 1356.14C1085.9 1356.14 1081.11 1354.87 1077.09 1352.34C1057.87 1340.27 1058.93 1300.74 1059.97 1262.52C1060.62 1238.51 1061.23 1215.84 1057 1199.68C1046.85 1160.93 1023.19 1121.65 999.829 1084.75C957.957 1018.6 874.418 955.909 751.539 898.439C714.254 880.988 681.402 876.035 649.622 871.246C625.034 867.529 599.609 863.689 572.171 854.101C553.089 847.422 532.75 833.77 511.227 819.32L511.094 819.229C470.836 792.168 429.199 764.199 394.018 783.029C379.982 790.544 367.56 801.512 355.557 812.121L355.394 812.264C339.724 826.121 324.973 839.161 307.863 844.002C300.538 846.075 292.948 847.055 285.175 847.055C212.974 847.055 123.662 762.83 58.5303 687.939C56.5996 685.703 54.7098 683.508 52.8711 681.363L50.8076 678.964C33.9628 659.306 20.7035 643.816 -0.7995 632.573C-36.4097 613.916 -78.343 621.575 -118.887 628.978C-147.531 634.196 -174.58 639.128 -196.155 633.676C-251.858 619.614 -296.07 488.509 -311.668 421.144C-325.724 360.457 -302.566 332.804 -273.239 297.799C-258.897 280.685 -242.654 261.303 -229.354 235.58C-208.577 195.429 -213.245 139.695 -218.179 80.6823C-221.58 40.2244 -225.094 -1.6121 -219.619 -37.8935C-214.552 -71.4383 -220.763 -81.4353 -233.205 -87.3784L-232.766 -88.2975C-219.895 -82.1501 -213.449 -71.908 -218.608 -37.7404C-224.063 -1.57125 -220.549 40.204 -217.157 80.6006C-212.203 139.756 -207.524 195.633 -228.435 236.05C-241.786 261.875 -258.069 281.297 -272.421 298.422C-301.586 333.233 -324.601 360.712 -310.657 420.899C-295.109 488.049 -251.123 618.736 -195.889 632.675C-174.529 638.066 -147.582 633.165 -119.051 627.967C-78.3328 620.533 -36.2258 612.854 -0.298981 631.664C21.3777 642.999 34.6982 658.551 51.5635 678.238L53.6678 680.689C55.5066 682.834 57.3964 685.029 59.3271 687.265C131.283 769.999 232.761 864.18 307.607 843.011C324.503 838.232 339.162 825.274 354.689 811.539L354.904 811.345C366.947 800.705 379.41 789.697 393.558 782.12C429.28 762.994 471.173 791.147 511.686 818.371L511.819 818.463C533.292 832.881 553.569 846.493 572.528 853.131C599.884 862.689 625.259 866.528 649.796 870.235C681.637 875.034 714.57 880.007 751.989 897.52C875.051 955.072 958.734 1017.88 1000.71 1084.21C1024.11 1121.18 1047.81 1160.54 1058.01 1199.42C1062.28 1215.72 1061.66 1238.46 1061.01 1262.55C1059.99 1300.5 1058.93 1339.73 1077.66 1351.48C1088.19 1358.1 1104.36 1355.72 1127.1 1344.2C1134.46 1340.46 1144.52 1335.12 1150.72 1330.91C1187.98 1305.57 1189.11 1264.03 1190.3 1220.05C1191.11 1190.11 1191.96 1159.23 1204.25 1131.84C1218.96 1099.03 1237.59 1070.85 1255.61 1043.59L1255.73 1043.4C1299.36 977.445 1337.04 920.476 1285.83 835.312C1254.77 783.621 1209.04 758.011 1152.48 729.898C1131.1 719.268 1110.53 708.607 1092.38 699.203C1024.81 664.208 960.981 631.153 883.693 609.362C856.265 601.632 824.659 595.954 791.194 589.95L790.99 589.909C746.503 581.913 700.545 573.652 658.857 559.683C578.576 532.714 532.035 532.786 430.741 586.958C388.277 609.668 350.419 606.952 315.003 578.666C284.439 554.271 260.617 515.437 237.582 477.889L234.221 472.405C164.104 358.312 164.595 275.385 186.884 185.983C193.514 159.403 198.55 135.773 193.023 115.718C184.504 84.7465 149.415 69.3578 115.48 54.4899L114.99 54.2754C105.959 50.3133 97.44 46.5759 89.4006 42.5322C61.268 28.3586 37.8139 4.99474 12.9808 -19.7375C-18.9621 -51.5769 -55.1137 -87.6031 -106.077 -103.165L-105.781 -104.146C-54.5825 -88.5221 -18.3288 -52.3938 13.6447 -20.5136C38.4575 4.20846 61.8503 27.5111 89.8501 41.6131C97.8588 45.6569 106.368 49.3841 115.388 53.336L115.878 53.5504C150.038 68.5204 185.352 84.0011 193.994 115.442C199.582 135.732 194.525 159.505 187.855 186.228C165.626 275.385 165.146 358.078 235.069 471.874L238.43 477.358C261.414 514.834 285.195 553.597 315.616 577.88C350.685 605.88 388.174 608.565 430.241 586.059C531.872 531.704 578.575 531.642 659.163 558.713C700.78 572.662 746.697 580.913 791.113 588.898L791.358 588.939C824.843 594.954 856.48 600.641 883.948 608.371C961.339 630.204 1025.21 663.279 1092.83 698.294C1110.97 707.699 1131.54 718.349 1152.9 728.979C1209.62 757.173 1255.47 782.855 1286.68 834.781C1338.23 920.496 1300.38 977.711 1256.56 1043.96L1256.44 1044.15C1238.44 1071.37 1219.83 1099.53 1205.15 1132.26C1192.94 1159.47 1192.11 1190.24 1191.3 1220C1190.11 1264.33 1188.97 1306.12 1151.27 1331.75C1145.03 1336 1134.93 1341.36 1127.54 1345.11C1113 1352.47 1101.07 1356.14 1091.53 1356.14H1091.52Z" fill="#DFD9CA"/>
<path d="M1115.6 1277.48L1115.38 1277.28C1113.93 1275.94 1112.84 1274.4 1112.03 1272.57C1109.64 1267.13 1110.2 1260.17 1110.81 1252.8V1252.69C1111.3 1246.81 1111.79 1240.82 1110.69 1235.52C1109 1227.14 1106.44 1219.14 1102.89 1211.06C1093.29 1189.23 1078.34 1171.59 1063.9 1154.53C1055.27 1144.34 1047.14 1134.74 1040.35 1124.57C1034.82 1116.28 1029.34 1107.76 1023.28 1098.31C1009.77 1077.24 995.804 1055.45 981.186 1037.64C930.529 975.904 807.181 912.715 766.647 891.955C732.354 874.401 694.671 866.549 658.223 858.951C612.663 849.465 565.55 839.652 525.466 810.835C513.514 802.237 500.521 789.666 486.761 776.351C459.619 750.087 431.568 722.945 407.705 722.945C405.458 722.945 403.262 723.19 401.157 723.67C382.76 727.887 368.397 750.607 354.515 772.583C344.964 787.696 335.944 801.961 326.127 809.66C310.763 821.72 293.53 827.827 274.877 827.827C263.201 827.827 253.231 825.345 246.918 823.262C184.054 802.512 138.229 751.241 93.9152 701.664C74.7719 680.23 55.0259 658.122 34.3402 639.037C11.7442 618.175 -13.5895 608.453 -45.3587 608.453C-64.5735 608.453 -84.0947 611.946 -102.972 615.315C-122.003 618.716 -139.972 621.932 -157.573 621.932C-173.753 621.932 -187.707 619.104 -200.262 613.283C-222.041 603.205 -245.393 571.835 -266.017 524.944C-284.496 482.934 -297.694 434.388 -299.635 401.272C-302.465 353.482 -275.374 321.03 -249.172 289.661C-230.999 267.89 -212.255 245.435 -203.96 218.252C-193.387 183.512 -199.23 144.831 -204.889 107.416C-212.806 54.9494 -220.989 0.76722 -184.643 -44.0408C-173.151 -58.1837 -147.838 -73.9911 -121.687 -76.8299C-117.529 -77.2792 -113.392 -77.5141 -109.398 -77.5141C-62.3773 -77.5141 -33.2129 -46.6856 -2.33234 -14.0497C15.1152 4.4025 33.1552 23.4776 55.5674 38.6723C67.1105 46.4943 81.9123 53.9078 96.234 61.0661C115.714 70.7977 135.859 80.8662 147.943 91.9967C156.453 99.8391 162.541 108.09 166.566 117.24C178.047 143.361 170.161 171.759 161.805 201.821C157.913 215.801 153.889 230.26 151.856 244.781C144.184 299.229 167.209 366.655 187.874 413.638C219.031 484.475 266.542 558.213 311.866 606.064C318.66 613.242 349.223 640.058 374.761 640.058C375.762 640.058 376.753 640.017 377.714 639.935C396.816 638.24 423.089 624.21 446.278 603.307C465.963 585.559 486.311 567.199 503.391 560.163C521.288 552.78 539.522 549.186 559.135 549.186C596.135 549.186 631.745 562.216 666.18 574.817C690.564 583.752 715.785 592.983 741.374 597.639C756.421 600.376 771.499 602.919 786.076 605.39L791.776 606.36C861.781 618.134 927.904 629.264 994.844 657.356C1019.61 667.762 1043.53 681.394 1068.85 695.823L1069.69 696.293C1082.63 703.665 1096.03 711.283 1109.41 718.349C1123.23 725.64 1137.45 732.237 1151.21 738.609L1151.8 738.885C1178.47 751.261 1203.67 762.953 1224.2 778.485C1248.31 796.723 1267.48 820.954 1279.61 848.566C1296.65 887.309 1298.02 929.503 1283.37 964.324C1268.2 1000.4 1242.72 1036.95 1215.73 1075.65L1215.65 1075.76C1181.88 1124.18 1146.97 1174.25 1134.51 1222.97C1133.14 1228.33 1133.22 1234.54 1133.3 1241.13C1133.49 1256.85 1133.69 1271.7 1115.86 1277.39L1115.58 1277.48H1115.6ZM407.716 721.913C431.987 721.913 460.191 749.198 487.466 775.595C501.215 788.901 514.178 801.45 526.069 809.997C565.98 838.692 612.98 848.485 658.437 857.951C694.946 865.558 732.702 873.431 767.035 890.995C807.702 911.826 931.203 975.087 981.983 1036.99C996.632 1054.85 1010.63 1076.66 1024.15 1097.76C1030.21 1107.21 1035.67 1115.72 1041.21 1124.01C1047.96 1134.14 1056.07 1143.71 1064.66 1153.84C1079.19 1170.98 1094.18 1188.68 1103.84 1210.65C1107.42 1218.78 1109.99 1226.85 1111.71 1235.31C1112.82 1240.75 1112.33 1246.81 1111.85 1252.69V1252.87C1111.25 1260.11 1110.68 1266.95 1112.97 1272.15C1113.68 1273.76 1114.63 1275.12 1115.86 1276.32C1132.68 1270.79 1132.49 1256.38 1132.31 1241.14C1132.23 1234.49 1132.15 1228.2 1133.55 1222.72C1146.06 1173.82 1181.03 1123.67 1214.84 1075.18L1214.9 1075.09C1241.87 1036.42 1267.32 999.901 1282.45 963.936C1296.99 929.37 1295.62 887.472 1278.69 848.985C1266.62 821.536 1247.57 797.448 1223.59 779.312C1203.16 763.852 1178.01 752.18 1151.38 739.824L1150.79 739.548C1137.03 733.166 1122.79 726.559 1108.95 719.258C1095.55 712.182 1082.15 704.564 1069.2 697.191L1068.36 696.721C1043.06 682.303 1019.17 668.691 994.456 658.306C927.618 630.255 861.556 619.145 791.613 607.371L785.913 606.401C771.336 603.93 756.248 601.387 741.201 598.65C715.53 593.973 690.278 584.722 665.843 575.776C631.49 563.206 595.961 550.207 559.146 550.207C539.675 550.207 521.564 553.771 503.8 561.103C486.883 568.077 466.596 586.366 446.983 604.062C423.631 625.108 397.133 639.241 377.816 640.956C376.825 641.038 375.803 641.089 374.772 641.089C348.866 641.089 317.985 614.018 311.131 606.779C265.724 558.846 218.142 484.996 186.945 414.057C166.229 366.951 143.152 299.331 150.855 244.648C152.898 230.066 156.933 215.576 160.835 201.556C169.14 171.667 176.985 143.442 165.646 117.658C161.683 108.641 155.666 100.493 147.269 92.7523C135.297 81.7239 115.214 71.6963 95.7948 61.9851C81.4424 54.8064 66.61 47.3827 55.0157 39.5198C32.5117 24.2639 14.4308 5.14794 -3.05765 -13.3451C-33.7849 -45.8176 -62.8063 -76.4929 -109.377 -76.4929C-113.341 -76.4929 -117.437 -76.2683 -121.564 -75.819C-147.449 -73.0108 -172.487 -57.3872 -183.836 -43.4077C-219.895 1.05313 -211.744 55.0107 -203.868 107.181C-198.188 144.78 -192.325 183.573 -202.959 218.538C-211.315 245.915 -230.131 268.451 -248.324 290.253C-274.445 321.531 -301.402 353.819 -298.593 401.211C-296.652 434.215 -283.485 482.617 -265.057 524.525C-244.535 571.191 -221.366 602.388 -199.812 612.354C-187.401 618.113 -173.58 620.911 -157.552 620.911C-140.043 620.911 -122.116 617.705 -103.136 614.315C-84.2173 610.935 -64.645 607.432 -45.3383 607.432C-13.283 607.432 12.2549 617.235 35.0552 638.281C55.7819 657.397 75.538 679.525 94.6507 700.929C138.923 750.464 184.646 801.634 247.255 822.292C253.497 824.355 263.354 826.806 274.898 826.806C293.316 826.806 310.344 820.771 325.514 808.854C335.188 801.267 344.157 787.073 353.667 772.041C367.662 749.893 382.137 726.988 400.953 722.679C403.129 722.179 405.407 721.923 407.726 721.923L407.716 721.913Z" fill="#DFD9CA"/>
<path d="M1116.26 1158.84C1114.09 1158.84 1111.97 1158.55 1109.98 1157.97C1070.39 1146.48 1025.84 1086.07 1013.13 1067.83C992.637 1038.41 971.451 1007.99 940.152 985.247C921.008 971.349 899.516 959.718 878.728 948.465C866.286 941.736 853.414 934.772 841.013 927.297C833.219 922.6 825.527 917.831 817.008 912.541C791.837 896.918 768.067 882.162 743.356 871.113C716.919 859.319 687.561 853.682 659.173 848.229C626.566 841.959 592.917 835.485 562.598 819.821C537.734 806.965 519.572 782.631 502.012 759.093C488.783 741.366 475.105 723.036 458.843 710.19C432.804 689.635 410.586 689.216 394.364 688.92C383.005 688.705 374.802 688.552 370.113 681.802C368.602 679.627 368.132 677.799 368.663 676.206C369.817 672.755 375.333 670.937 383.689 668.17C396.775 663.84 416.541 657.295 432.957 639.098C435.572 636.198 438.586 632.746 441.773 629.08C459.69 608.494 486.771 577.39 512.391 566.484C527.877 559.887 543.588 556.671 560.412 556.671C593.683 556.671 625.697 569.241 659.591 582.547L659.847 582.649C681.074 590.971 703.026 599.579 725.449 604.797C748.341 610.138 772.398 612.231 795.668 614.264L795.872 614.284C817.324 616.163 839.501 618.103 861.209 622.525C944.095 639.404 1013.13 671.662 1097.64 718.237C1107.75 723.812 1118.3 729.306 1129.47 735.117L1130.21 735.505C1134.15 737.557 1138.09 739.589 1142.02 741.621C1195.84 769.407 1246.67 795.65 1269.09 846.626C1284.64 881.978 1287.4 920.149 1276.67 951.345C1266.09 982.102 1218.64 1056.79 1214.78 1062.46C1214.57 1062.76 1214.14 1063.42 1213.53 1064.37C1190.74 1099.65 1147.81 1158.84 1116.25 1158.84H1116.26ZM560.422 557.692C543.741 557.692 528.163 560.878 512.799 567.423C487.394 578.237 460.405 609.239 442.549 629.744C439.362 633.41 436.349 636.872 433.723 639.772C417.124 658.173 397.194 664.759 384.016 669.13C376.242 671.703 370.624 673.562 369.633 676.523C369.214 677.789 369.633 679.331 370.951 681.22C375.344 687.551 383.332 687.694 394.385 687.899C410.749 688.205 433.172 688.624 459.476 709.384C475.851 722.311 489.57 740.702 502.829 758.48C520.318 781.926 538.409 806.168 563.058 818.912C593.244 834.505 626.821 840.969 659.285 847.208C687.796 852.681 717.205 858.328 743.754 870.174C768.526 881.253 792.328 896.029 817.529 911.663C826.048 916.953 833.73 921.711 841.524 926.408C853.905 933.863 866.755 940.827 879.187 947.556C900.006 958.82 921.529 970.461 940.724 984.41C972.166 1007.26 993.403 1037.75 1013.95 1067.24C1026.6 1085.4 1070.97 1145.58 1110.24 1156.99C1112.14 1157.55 1114.16 1157.82 1116.24 1157.82C1148.48 1157.82 1194.42 1092.08 1212.66 1063.81C1213.29 1062.85 1213.71 1062.19 1213.92 1061.88C1217.78 1056.23 1265.14 981.683 1275.69 951.018C1286.33 920.057 1283.58 882.152 1268.13 847.035C1245.85 796.386 1195.18 770.224 1141.53 742.52C1137.6 740.488 1133.66 738.456 1129.71 736.403L1128.98 736.015C1117.8 730.195 1107.25 724.701 1097.13 719.125C1012.7 672.592 943.747 640.374 860.984 623.515C839.338 619.104 817.181 617.164 795.76 615.295L795.556 615.274C772.255 613.242 748.157 611.149 725.204 605.788C702.71 600.56 680.727 591.931 659.459 583.598L659.203 583.496C625.401 570.221 593.468 557.692 560.402 557.692H560.422Z" fill="#DFD9CA"/>
<path d="M1112.45 1123.89C1086.77 1123.89 1053.68 1096.91 1011.31 1041.41C989.706 1013.11 967.406 983.909 937.669 965.713C924.359 957.564 909.557 949.742 893.877 941.47L893.754 941.409C875.112 931.575 855.846 921.405 837.469 909.805C831.656 906.139 825.864 902.442 820.113 898.766L820.021 898.705C792.103 880.845 765.738 863.986 740.128 853.09C715.366 842.562 688.409 837.538 662.329 832.687C635.238 827.643 609.721 822.895 586.328 812.51C548.409 795.671 504.453 748.055 484.084 701.745C469.477 668.517 467.638 638.975 478.772 616.296C488.957 595.556 509.592 581.097 540.104 573.336C548.726 571.14 557.777 570.027 567.001 570.027C599.669 570.027 631.888 583.466 665.996 597.7C694.742 609.709 724.376 622.086 754.266 625.517C760.926 626.282 767.74 627.048 774.696 627.824C843.945 635.544 930.131 645.153 1008.59 680.914C1025.8 688.756 1042.77 698.937 1060.75 709.71L1060.89 709.792C1075.32 718.451 1090.24 727.417 1105.41 735.076C1117.46 741.172 1130.17 746.717 1142.48 752.078C1179.17 768.079 1240.08 805.596 1257.58 843.389C1262 852.947 1265.33 863.996 1267.76 877.179C1271.75 898.776 1269.36 925.071 1261.36 947.536C1252.63 972.033 1230.38 1015.91 1202.13 1054.36C1179.33 1085.4 1145.5 1122.65 1113.8 1123.87C1113.34 1123.89 1112.89 1123.9 1112.43 1123.9L1112.45 1123.89ZM820.654 897.908C826.416 901.584 832.198 905.281 838.01 908.947C856.346 920.527 875.602 930.687 894.214 940.5L894.347 940.572C910.037 948.853 924.86 956.675 938.19 964.845C968.09 983.144 990.451 1012.42 1012.08 1040.74C1054.29 1096.02 1087.11 1122.87 1112.44 1122.87C1112.88 1122.87 1113.33 1122.87 1113.77 1122.84C1145.06 1121.63 1178.65 1084.59 1201.31 1053.74C1229.5 1015.37 1251.69 971.605 1260.4 947.179C1268.34 924.877 1270.71 898.776 1266.75 877.352C1264.33 864.251 1261.03 853.284 1256.65 843.808C1239.27 806.27 1178.6 768.937 1142.08 752.997C1129.76 747.626 1117.02 742.071 1104.95 735.974C1089.75 728.295 1074.81 719.33 1060.35 710.66L1060.22 710.578C1042.27 699.815 1025.32 689.655 1008.16 681.833C929.845 646.144 843.751 636.545 774.584 628.835C767.617 628.059 760.804 627.304 754.133 626.528C724.1 623.076 694.395 610.669 665.67 598.671C631.571 584.446 599.444 571.038 566.981 571.038C557.838 571.038 548.869 572.141 540.329 574.316C510.113 582.005 489.703 596.271 479.661 616.735C468.659 639.139 470.508 668.395 484.993 701.327C505.271 747.432 549.002 794.833 586.716 811.57C609.997 821.904 635.463 826.642 662.411 831.666C688.613 836.547 715.642 841.571 740.496 852.151C766.187 863.077 792.583 879.967 820.542 897.847L820.358 898.337L820.634 897.908H820.654Z" fill="#DFD9CA"/>
<path d="M1115.52 1095.28C1115.23 1095.28 1114.94 1095.28 1114.66 1095.28C1084.56 1094.79 1046 1059.7 1021.13 1025.14C1005.58 1003.54 989.501 981.193 968.519 965.559C952.788 953.837 931.622 943.594 909.21 932.75L909.006 932.648C889.975 923.427 870.29 913.899 850.861 902.187C836.754 893.681 823.28 884.766 810.255 876.137C782.797 857.971 756.871 840.806 730.383 830.747C709.411 822.782 687.152 817.237 665.629 811.887L665.333 811.815C602.101 796.11 542.372 781.283 511.073 710.129C509.326 706.167 507.692 702.072 506.2 697.926C495.178 667.374 495.791 638.301 507.886 618.164C518.101 601.101 535.886 590.552 560.739 586.795C564.805 586.182 569.014 585.876 573.263 585.876C601.743 585.876 630.366 599.436 660.674 613.804L660.848 613.886C680.941 623.403 701.729 633.237 722.568 638.781C744.674 644.684 768.731 644.898 794.187 645.123C809.387 645.255 825.108 645.388 841.044 646.818C884.591 650.739 934.513 662.625 977.999 679.423C999.798 687.837 1021.45 701.143 1044.4 715.235L1044.75 715.449C1063.93 727.203 1083.76 739.354 1104.11 748.759C1112.86 752.813 1122.2 756.775 1131.23 760.615L1131.51 760.737C1177.31 780.17 1224.67 800.266 1245.29 847.147C1249.76 857.328 1252.83 868.56 1254.38 880.538C1258.67 913.767 1246.08 956.726 1219.81 998.4L1219.21 999.349C1192.26 1042.1 1158.73 1095.31 1115.54 1095.31L1115.52 1095.28ZM573.253 586.876C569.054 586.876 564.887 587.183 560.872 587.785C536.335 591.492 518.796 601.877 508.744 618.665C496.813 638.536 496.23 667.292 507.15 697.548C508.642 701.674 510.266 705.748 511.992 709.67C543.098 780.374 602.591 795.15 665.568 810.794L665.864 810.865C687.418 816.226 709.697 821.782 730.73 829.767C757.32 839.866 783.298 857.062 810.807 875.259C823.832 883.878 837.285 892.792 851.372 901.288C870.77 912.98 890.424 922.497 909.435 931.708L909.578 931.78C932.102 942.686 953.319 952.948 969.122 964.732C990.227 980.468 1006.36 1002.87 1021.94 1024.54C1046.67 1058.89 1084.92 1093.76 1114.66 1094.25C1114.94 1094.25 1115.22 1094.25 1115.5 1094.25C1158.12 1094.25 1191.5 1041.32 1218.31 998.777L1218.91 997.828C1245.05 956.359 1257.6 913.644 1253.34 880.651C1251.8 868.775 1248.77 857.634 1244.33 847.535C1223.87 801.022 1176.7 781.007 1131.09 761.656L1130.81 761.534C1121.77 757.694 1112.42 753.722 1103.66 749.668C1083.26 740.243 1063.4 728.071 1044.19 716.307L1043.85 716.093C1020.95 702.031 999.328 688.746 977.621 680.363C934.217 663.595 884.408 651.74 840.942 647.819C825.037 646.389 809.346 646.256 794.167 646.123C768.639 645.889 744.521 645.674 722.292 639.741C701.362 634.176 680.533 624.312 660.399 614.784L660.225 614.703C630.019 600.396 601.498 586.876 573.253 586.876Z" fill="#DFD9CA"/>
<path d="M1118.03 1066.78C1088.79 1066.78 1050.35 1034.46 1027.49 1002.53C1010.13 978.283 992.158 953.214 966.62 939.622C953.861 932.821 939.876 927.593 925.064 922.048L924.962 922.007C912.316 917.269 899.25 912.368 886.696 906.323C861.965 894.416 838.102 877.128 815.016 860.401C787.558 840.509 759.19 819.954 728.912 807.986C707.808 799.653 685.242 795.681 663.423 791.841L663.147 791.79C639.386 787.624 616.954 783.693 598.944 774.502C573.927 761.718 552.24 737.69 539.441 708.577C523.679 672.735 524.782 637.627 542.24 619.124C551.229 609.607 563.845 604.777 579.729 604.777C591.763 604.777 605.676 607.626 621.07 613.253C639.212 619.859 654.781 628.468 669.838 636.8C693.935 650.126 716.695 662.707 746.738 665.26C771.315 667.353 794.667 667.414 817.243 667.465C861.73 667.588 903.725 667.7 949.724 682.415C978.847 691.738 1008.42 709.721 1037.02 727.111L1037.14 727.182C1055.76 738.507 1073.35 749.198 1090.45 757.388C1102.85 763.341 1116.34 768.365 1129.4 773.226C1170.21 788.41 1212.36 804.095 1232.85 850.69C1253.67 898.092 1236.2 943.911 1217.86 974.004C1216.49 976.251 1215.09 978.559 1213.67 980.928C1192.4 1016.19 1163.25 1064.48 1120.01 1066.73C1119.36 1066.77 1118.69 1066.79 1118.03 1066.79V1066.78ZM579.729 606.819C564.427 606.819 552.312 611.435 543.721 620.523C526.825 638.424 525.875 672.663 541.3 707.729C553.926 736.444 575.276 760.114 599.874 772.685C617.607 781.742 639.907 785.643 663.504 789.779L663.78 789.83C685.702 793.69 708.359 797.682 729.658 806.086C760.181 818.146 788.65 838.773 816.191 858.727C839.226 875.412 863.017 892.66 887.585 904.484C900.057 910.489 913.082 915.37 925.687 920.098L925.789 920.139C940.663 925.704 954.719 930.963 967.59 937.825C993.547 951.641 1011.65 976.904 1029.16 1001.34C1051.72 1032.84 1089.49 1064.73 1118.03 1064.73C1118.66 1064.73 1119.29 1064.71 1119.91 1064.68C1162.06 1062.49 1190.88 1014.74 1211.93 979.866C1213.36 977.497 1214.76 975.179 1216.13 972.932C1234.21 943.247 1251.45 898.092 1230.98 851.497C1210.83 805.698 1169.09 790.167 1128.72 775.146C1115.59 770.254 1102.05 765.21 1089.57 759.226C1072.37 750.985 1054.75 740.273 1036.07 728.918L1035.96 728.847C1007.47 711.518 977.999 693.597 949.101 684.355C903.398 669.732 861.556 669.62 817.263 669.497C794.616 669.446 771.223 669.385 746.564 667.282C716.092 664.688 693.149 652.005 668.847 638.577C653.861 630.285 638.365 621.718 620.365 615.162C605.196 609.617 591.518 606.809 579.729 606.809V606.819Z" fill="#DFD9CA"/>
<path d="M1115.58 1039.57C1091.16 1039.57 1056.19 1015.39 1035.95 984.522C1023.92 966.182 1011.52 947.291 996.581 935.63C982.851 924.897 959.561 917.484 937.036 910.315C921.928 905.516 906.36 900.563 893.417 894.538C859.156 878.598 830.145 855.571 802.094 833.3C771.755 809.232 743.142 786.532 712.374 776.851C699.942 772.94 685.906 771.03 671.043 769.009C638.324 764.546 601.243 759.491 575.602 730.47C567.89 721.74 560.893 710.681 555.908 699.336C545.468 675.594 545.161 654.282 555.06 640.844C563.171 629.836 573.764 624.485 587.421 624.485C612.745 624.485 644.443 643.724 672.402 660.695C694.282 673.97 714.876 686.469 729.494 688.471C734.408 689.145 739.413 689.461 744.797 689.461C760.446 689.461 776.045 686.622 791.123 683.875C802.512 681.802 814.28 679.658 825.864 678.8C832.862 678.29 840.268 678.034 847.878 678.034C872.17 678.034 934.789 681.037 991.534 708.883C1010.19 718.043 1023.87 728.367 1037.09 738.354C1049.64 747.82 1061.47 756.755 1077.25 764.801C1091.77 772.195 1108.01 777.617 1123.71 782.866C1164.13 796.386 1205.89 810.345 1224.02 857.675C1251.25 928.624 1184.99 1014.34 1127.04 1037.5C1123.62 1038.87 1119.76 1039.56 1115.58 1039.56V1039.57ZM587.432 626.538C574.458 626.538 564.417 631.613 556.715 642.07C547.255 654.895 547.643 675.471 557.777 698.508C562.69 709.69 569.565 720.555 577.145 729.133C602.274 757.582 638.957 762.586 671.319 766.997C686.274 769.029 700.401 770.949 712.987 774.911C744.112 784.704 772.878 807.526 803.33 831.677C831.319 853.897 860.238 876.852 894.276 892.69C907.106 898.664 922.612 903.596 937.608 908.355C960.358 915.595 983.822 923.069 997.837 934.026C1013.04 945.892 1025.53 964.937 1037.61 983.348C1057.56 1013.76 1091.78 1037.54 1115.57 1037.54C1119.49 1037.54 1123.1 1036.9 1126.27 1035.62C1183.48 1012.76 1248.92 928.277 1222.11 858.42C1204.33 811.989 1163.04 798.183 1123.11 784.826C1107.28 779.547 1090.97 774.094 1076.32 766.64C1060.37 758.521 1048.47 749.535 1035.87 740.018C1022.71 730.082 1009.1 719.81 990.625 710.742C934.268 683.089 872.017 680.097 847.878 680.097C840.319 680.097 832.954 680.352 826.007 680.863C814.526 681.711 802.819 683.845 791.501 685.907C776.311 688.675 760.63 691.524 744.786 691.524C739.311 691.524 734.214 691.197 729.208 690.513C714.172 688.45 693.394 675.849 671.4 662.493C643.605 645.623 612.173 626.538 587.421 626.538H587.432Z" fill="#DFD9CA"/>
<path d="M1121.45 1006.06C1119.07 1006.06 1116.7 1005.82 1114.41 1005.35C1093.24 1001.05 1063.1 970.124 1053.3 947.832L1053.24 947.71L1050.14 940.633C1041.95 921.997 1033.95 905.659 1019 894.304C1002.08 881.447 979.889 880.048 956.404 878.578C938.395 877.434 919.854 876.26 903.367 869.622C872.149 857.052 818.07 815.604 800.939 776.647C794.463 761.922 793.86 748.882 799.152 737.894C805.454 724.772 820.082 715.02 842.627 708.893C856.969 704.993 872.119 703.022 887.646 703.022C914.992 703.022 943.502 709.271 970.093 721.086C989.961 729.919 1005.79 744.154 1021.12 757.929C1034.66 770.101 1048.61 782.62 1064.95 790.994C1081.59 799.52 1099.82 803.36 1117.45 807.067C1147.21 813.337 1175.33 819.249 1193.87 845.942C1197.25 850.803 1200.12 855.898 1202.41 861.096C1216.07 892.18 1207.22 921.017 1197.37 939.724C1180.02 972.748 1149.83 1006.07 1121.46 1006.07L1121.45 1006.06ZM887.646 705.064C872.292 705.064 857.327 707.015 843.159 710.864C821.216 716.828 807.027 726.222 800.99 738.783C795.975 749.208 796.577 761.677 802.809 775.83C819.735 814.317 873.232 855.296 904.133 867.733C920.314 874.248 938.691 875.412 956.455 876.536C980.338 878.037 1002.82 879.456 1020.25 892.68C1035.57 904.331 1043.7 920.915 1052.02 939.816L1055.16 947.005C1064.79 968.878 1094.2 999.165 1114.82 1003.35C1116.98 1003.79 1119.21 1004.02 1121.45 1004.02C1148.97 1004.02 1178.49 971.247 1195.55 938.764C1205.18 920.445 1213.87 892.251 1200.53 861.903C1198.3 856.827 1195.49 851.844 1192.18 847.096C1174.11 821.077 1146.38 815.236 1117.02 809.058C1099.26 805.321 1080.9 801.461 1064.01 792.801C1047.44 784.305 1033.4 771.694 1019.81 759.502C1004.55 745.777 988.827 731.645 969.255 722.944C942.92 711.242 914.706 705.054 887.636 705.054L887.646 705.064Z" fill="#DFD9CA"/>
<path d="M959.959 855.418C942.082 855.418 924.134 852.488 908.056 846.953C876.307 836.016 852.424 816.86 842.546 794.394C838.858 786.011 837.111 777.219 837.356 768.263C837.959 745.379 852.628 729.939 878.656 724.783C884.683 723.588 891.323 722.975 898.382 722.975C945.586 722.975 1008.1 750.179 1025.91 790.667C1029.87 799.684 1031.52 809.027 1030.8 818.442L1030.77 818.718C1027.97 833.525 1017.53 844.727 1002.13 849.506C989.665 853.366 975.088 855.408 959.959 855.408V855.418ZM898.382 724.007C891.395 724.007 884.816 724.609 878.85 725.794C853.333 730.848 838.96 745.951 838.368 768.304C838.123 777.117 839.839 785.755 843.465 793.986C853.241 816.206 876.899 835.159 908.383 846.003C924.349 851.507 942.185 854.407 959.949 854.407C974.975 854.407 989.45 852.385 1001.81 848.546C1016.85 843.889 1027.03 832.963 1029.75 818.575L1029.78 818.361C1030.48 809.14 1028.87 799.96 1024.97 791.096C1007.32 750.965 945.259 724.007 898.372 724.007H898.382Z" fill="#DFD9CA"/>
<path d="M912.949 814.297C903.377 814.297 893.754 812.724 885.143 809.763C868.114 803.901 855.315 793.618 850.003 781.559C848.021 777.045 847.081 772.317 847.214 767.497C847.541 755.152 855.447 746.819 869.473 744.041C872.711 743.398 876.266 743.071 880.056 743.071C905.349 743.071 938.844 757.664 948.406 779.373C950.541 784.224 951.429 789.258 951.031 794.323L951.011 794.486C949.499 802.492 943.86 808.558 935.545 811.131C928.864 813.204 921.049 814.297 912.949 814.297ZM880.066 744.093C876.348 744.093 872.854 744.409 869.677 745.042C856.163 747.718 848.552 755.703 848.246 767.528C848.123 772.195 849.032 776.78 850.953 781.15C856.142 792.955 868.737 803.033 885.49 808.803C894 811.733 903.5 813.286 912.959 813.286C920.958 813.286 928.67 812.203 935.259 810.171C943.206 807.71 948.579 801.941 950.02 794.343V794.241C950.408 789.37 949.55 784.499 947.486 779.802C938.099 758.45 905.052 744.103 880.076 744.103L880.066 744.093Z" fill="#DFD9CA"/>
<path d="M279.791 811.213C278.627 811.213 277.431 811.162 276.236 811.059C243.568 808.353 206.844 786.613 181.797 768.865C149.895 746.247 117.349 716.072 92.516 686.071C75.5894 665.607 59.6026 646.276 42.3288 629.611C19.6613 607.738 -4.64072 597.547 -34.1524 597.547C-52.55 597.547 -70.8454 601.275 -90.2032 605.216C-108.825 609.015 -128.061 612.936 -147.316 612.936C-168.206 612.936 -186.522 608.218 -203.326 598.507C-230.029 583.088 -248.528 550.513 -259.356 525.914C-289.144 458.181 -295.263 376.397 -273.596 335.684C-262.564 314.934 -247.64 298.248 -233.206 282.104C-208.73 254.727 -185.603 228.861 -185.715 187.321C-185.807 162.119 -190.006 138.479 -194.071 115.606L-194.122 115.32C-201.171 75.7094 -207.821 38.3863 -191.711 0.0932388C-180.628 -26.2728 -160.565 -45.8176 -135.211 -54.9569C-124.986 -58.6331 -114.229 -60.5018 -103.228 -60.5018C-87.6187 -60.5018 -72.0201 -56.652 -58.107 -49.3815C-41.2519 -40.5587 -24.734 -23.5362 -5.60092 -3.80755C11.724 14.0421 31.3474 34.2711 54.0966 50.8035C64.3323 58.2273 75.2216 64.7014 85.7535 70.9712L85.8761 71.0427C110.914 85.9004 134.551 99.9208 145.206 124.153C149.486 133.874 151.376 144.494 150.998 156.625C150.446 173.842 145.563 190.18 140.844 205.988C134.725 226.451 128.402 247.599 130.935 271.78C135.062 311.084 146.718 352.155 166.596 397.331C192.839 456.996 228.654 513.354 263.294 567.852L263.569 568.281C283.765 600.07 302.837 630.091 318.793 658.98C321.53 663.912 324.053 669.007 326.301 674.113C341.501 708.679 343.33 741.734 331.459 767.191C322.092 787.287 305.533 811.243 279.811 811.243L279.791 811.213ZM-34.1422 596.516C-4.35468 596.516 20.172 606.799 43.0438 628.866C60.3483 645.572 76.3556 664.923 93.3026 685.407C140.456 742.377 220.614 805.412 276.318 810.038C277.472 810.13 278.647 810.181 279.781 810.181C304.951 810.181 321.255 786.542 330.499 766.711C342.247 741.519 340.418 708.761 325.33 674.481C323.093 669.406 320.591 664.341 317.863 659.429C301.917 630.571 282.856 600.56 262.67 568.782L262.395 568.353C227.734 513.823 191.9 457.425 165.626 397.688C145.717 352.41 134.02 311.237 129.883 271.831C127.329 247.456 133.683 226.206 139.833 205.651C144.532 189.904 149.394 173.627 149.946 156.544C150.314 144.565 148.454 134.088 144.236 124.51C133.714 100.585 110.209 86.6357 85.3143 71.8698L85.1917 71.7983C74.6394 65.5285 63.7296 59.034 53.4633 51.5796C30.6324 34.9961 10.9783 14.7365 -6.35684 -3.1336C-25.4388 -22.8009 -41.8955 -39.7724 -58.6076 -48.5237C-72.3674 -55.7228 -87.8026 -59.5215 -103.248 -59.5215C-114.127 -59.5215 -124.771 -57.6732 -134.884 -54.0379C-159.963 -44.9905 -179.821 -25.6397 -190.792 0.450642C-206.779 38.468 -200.159 75.6481 -193.152 115.013L-193.08 115.391C-189.004 138.306 -184.796 161.996 -184.704 187.28C-184.591 229.209 -207.841 255.217 -232.45 282.747C-246.843 298.851 -261.726 315.496 -272.698 336.133C-294.231 376.601 -288.092 458.007 -258.417 525.475C-247.66 549.941 -229.273 582.322 -202.815 597.598C-186.175 607.218 -168.012 611.894 -147.316 611.894C-128.163 611.894 -108.979 607.983 -90.4279 604.205C-70.9884 600.243 -52.6419 596.506 -34.1422 596.506V596.516Z" fill="#DFD9CA"/>
<path d="M254.355 779.251C253.987 779.251 253.619 779.251 253.241 779.24C187.997 777.882 150.293 728.193 113.835 680.148C110.729 676.053 107.624 671.969 104.508 667.904L104.141 667.425C91.5044 650.974 78.4391 633.972 64.4341 618.624C40.1424 591.972 13.6135 580.086 -21.6084 580.086C-39.8528 580.086 -58.1992 583.149 -77.6387 586.396C-96.7514 589.603 -116.436 592.901 -136.213 592.901C-151.403 592.901 -164.989 590.951 -177.737 586.948C-203.95 578.707 -229.774 549.441 -248.6 506.655C-263.147 473.58 -271.891 435.981 -271.983 406.072C-272.197 352.9 -242.614 322.164 -214.001 292.448C-188.412 265.858 -164.233 240.748 -160.984 201.382C-158.594 172.208 -165.888 143.973 -172.946 116.657C-185.378 68.5715 -197.105 23.2325 -150.657 -16.3881C-134.282 -30.3574 -118.019 -37.1481 -100.97 -37.1481C-61.2638 -37.1481 -25.2246 1.19608 6.58551 35.037C20.2636 49.5884 33.1245 63.2718 45.7505 73.7283C52.1044 78.977 59.1018 83.9296 65.282 88.2899C82.229 100.268 98.2362 111.582 106.163 129.606C109.085 136.264 110.709 143.35 111.128 151.274C111.771 163.559 106.071 177.263 100.034 191.773C94.1705 205.845 88.1231 220.355 87.5409 234.641C86.9382 249.529 92.7711 268.533 97.2147 281.532C104.202 301.945 112.568 323.154 122.783 346.365C146.002 399.148 173.543 450.165 197.855 495.167C208.009 513.987 218.52 533.45 227.428 550.779L227.632 551.177C239.369 574.061 253.987 602.531 266.45 630.878C294.919 695.608 302.223 737.996 288.79 760.441C283.652 769.019 273.498 779.251 254.345 779.251H254.355ZM-21.6186 579.064C13.92 579.064 40.6838 591.053 65.1798 617.929C79.2155 633.308 92.291 650.331 104.948 666.802L105.315 667.282C108.441 671.346 111.547 675.441 114.652 679.535C150.967 727.397 188.508 776.882 253.262 778.229C253.63 778.229 253.987 778.24 254.355 778.24C273.028 778.24 282.917 768.283 287.922 759.93C301.171 737.782 293.847 695.71 265.52 631.296C253.068 602.98 238.46 574.52 226.723 551.647L226.519 551.248C217.621 533.93 207.12 514.477 196.956 495.657C172.644 450.635 145.083 399.598 121.854 346.784C111.628 323.542 103.262 302.302 96.2544 281.869C91.7802 268.798 85.9167 249.672 86.5296 234.61C87.1221 220.141 93.2001 205.549 99.0738 191.436C105.08 176.987 110.74 163.385 110.106 151.336C109.698 143.534 108.104 136.56 105.223 130.024C97.4088 112.266 81.5139 101.024 64.6895 89.1273C58.4991 84.7465 51.4813 79.794 45.0968 74.5146C32.4197 64.0172 19.5384 50.3134 5.89087 35.7926C-25.8273 2.04364 -61.7133 -36.1269 -100.97 -36.1269C-117.774 -36.1269 -133.812 -29.418 -150.003 -15.612C-195.972 23.6001 -184.326 68.6328 -171.996 116.32C-164.897 143.8 -157.583 172.126 -159.983 201.474C-163.262 241.197 -187.554 266.44 -213.276 293.163C-241.746 322.736 -271.186 353.319 -270.971 406.082C-270.879 435.859 -262.166 473.304 -247.671 506.257C-228.967 548.777 -203.367 577.839 -177.441 585.988C-164.785 589.96 -151.3 591.89 -136.213 591.89C-116.528 591.89 -96.8739 588.602 -77.8737 585.416C-58.332 582.148 -39.9345 579.075 -21.6084 579.075L-21.6186 579.064Z" fill="#DFD9CA"/>
<path d="M221.656 742.254C199.602 742.254 176.076 720.259 162.02 707.117C160.978 706.147 159.998 705.228 159.068 704.36L156.616 702.093C141.14 687.868 128.392 669.089 114.897 649.207L114.703 648.921C93.0472 617.051 70.6555 584.089 35.8217 570.323C23.3081 565.391 9.85471 562.981 -5.31487 562.981C-24.5092 562.981 -43.7853 566.709 -64.2054 570.65C-85.4122 574.735 -107.334 578.973 -129.991 578.973C-142.372 578.973 -153.834 577.737 -165.04 575.174C-194.582 568.465 -220.733 542.273 -238.691 501.447C-255.005 464.349 -262.482 418.479 -257.283 387.313C-250.714 347.887 -222.02 320.213 -194.265 293.449C-163.007 263.284 -133.495 234.804 -136.366 192.029C-137.642 173.168 -144.599 153.327 -151.964 132.332C-167.634 87.5445 -183.836 41.2864 -143.833 2.95249C-130.635 -9.68934 -114.617 -16.3779 -97.507 -16.3779C-80.3965 -16.3779 -63.6232 -9.8323 -48.4025 2.55424C-22.6705 23.4878 37.4153 88.2593 54.4746 127.043C57.2838 133.425 58.8569 138.929 59.1532 143.401C60.2258 160.087 54.209 172.902 48.3864 185.289C39.9486 203.231 31.2351 221.775 44.2697 251.419C45.9449 255.227 47.9471 259.149 50.2149 263.08C57.5596 275.844 66.3549 288.037 74.8744 299.821C84.9976 313.841 95.4682 328.342 103.661 344.016C106.531 349.5 109.3 355.29 112.119 361.703C118.309 375.774 123.621 390.274 129.25 405.633C135.154 421.757 141.242 438.371 148.669 455.26C152.469 463.91 156.238 471.772 160.192 479.298C163.226 485.109 166.709 491.603 170.397 498.475L171.428 500.395C186.077 527.711 204.311 561.695 219.685 596.659C245.887 656.233 265.97 707.403 246.265 730.174C239.339 738.18 231.065 742.234 221.667 742.234L221.656 742.254ZM-5.30464 561.96C9.98752 561.96 23.5635 564.38 36.1997 569.374C71.3297 583.251 93.8134 616.347 115.551 648.35L115.745 648.635C129.199 668.466 141.917 687.204 157.311 701.347L159.763 703.614C160.692 704.472 161.683 705.401 162.715 706.371C176.659 719.411 200 741.233 221.646 741.233C230.738 741.233 238.746 737.292 245.468 729.531C264.754 707.239 243.823 654.17 218.725 597.098C203.361 562.165 185.147 528.201 170.499 500.906L169.467 498.986C165.779 492.103 162.296 485.609 159.252 479.799C155.299 472.252 151.519 464.369 147.709 455.699C140.262 438.779 134.174 422.155 128.279 406.072C122.63 390.663 117.318 376.172 111.149 362.132C108.339 355.739 105.581 349.98 102.721 344.507C94.5693 328.893 84.1191 314.423 74.0061 300.434C65.4764 288.619 56.6607 276.416 49.2955 263.601C47.0073 259.639 44.9949 255.677 43.2992 251.847C30.0705 221.785 38.8965 203.016 47.4261 184.88C53.1978 172.606 59.1532 159.913 58.101 143.483C57.815 139.133 56.2623 133.741 53.5042 127.471C36.5061 88.8209 -23.4162 24.2435 -49.087 3.36096C-64.1237 -8.87241 -80.8766 -15.3363 -97.5478 -15.3363C-114.219 -15.3363 -130.155 -8.74988 -143.159 3.70815C-182.681 41.5826 -166.603 87.5343 -151.045 131.964C-143.639 153.072 -136.662 172.974 -135.375 191.977C-132.463 235.223 -162.149 263.866 -193.571 294.184C-221.213 320.847 -249.785 348.397 -256.302 387.497C-261.471 418.489 -254.024 464.114 -237.782 501.049C-219.956 541.578 -194.051 567.556 -164.835 574.194C-153.711 576.726 -142.321 577.962 -130.012 577.962C-107.446 577.962 -85.5756 573.744 -64.4199 569.66C-43.9589 565.708 -24.6318 561.971 -5.33528 561.971L-5.30464 561.96Z" fill="#DFD9CA"/>
<path d="M176.842 662.758C158.751 662.758 136.155 633.277 120.74 611.108C112.568 599.334 104.856 588.224 93.6597 578.309C72.1976 559.346 47.3134 550.513 15.3501 550.513C-8.43088 550.513 -33.1619 555.456 -57.0756 560.224C-80.5808 564.922 -104.872 569.793 -128.092 569.793C-151.311 569.793 -171.373 564.656 -188.116 554.087C-207.831 541.64 -224.012 521.952 -234.922 497.148C-258.642 443.231 -254.423 375.202 -224.901 335.408C-211.213 316.966 -182.12 291.029 -158.308 270.494C-155.152 267.767 -151.678 264.847 -148.399 262.11C-127.121 244.362 -100.633 222.275 -99.7955 201.832C-99.5095 194.929 -101.124 187.587 -104.74 179.376C-109.602 168.317 -117.805 156.656 -125.037 146.363L-125.129 146.23C-133.015 135.008 -141.167 123.407 -146.377 111.562C-148.083 107.682 -149.38 104.005 -150.33 100.329C-156.347 77.2309 -152.353 33.8219 -129.236 12.4186C-120.369 4.22896 -109.592 0.072876 -97.2111 0.072876C-90.3465 0.072876 -83.0018 1.37994 -75.3914 3.95324C-48.3723 13.0925 -18.7993 43.7985 -3.48671 78.6299C4.51178 96.8166 7.91342 114.411 6.3403 129.534C5.1349 141.063 -1.43346 151.724 -8.36957 163.007L-8.43086 163.11C-19.167 180.53 -30.2607 198.554 -20.6789 220.345C-19.7289 222.5 -18.5848 224.685 -17.267 226.829C-6.00989 245.343 10.5796 261.099 28.1497 277.785L28.2518 277.877C48.0795 296.727 68.5815 316.211 83.6284 341.658C88.1231 349.265 92.25 357.393 96.2544 366.502C104.896 386.149 111.557 407.317 118.003 427.781L118.197 428.384C124.816 449.409 131.66 471.15 140.568 490.694C146.176 502.989 152.499 515.467 158.618 527.527L159.027 528.334C166.075 542.232 172.736 555.354 178.446 568.343C191.368 597.721 204.586 636.371 194.187 653.67C190.919 659.112 185.484 662.156 178.037 662.707C177.639 662.738 177.23 662.748 176.832 662.748L176.842 662.758ZM15.3399 549.492C47.579 549.492 72.6777 558.407 94.3339 577.543C105.622 587.54 113.375 598.701 121.578 610.516C131.323 624.526 157.188 661.737 176.842 661.727C177.22 661.727 177.598 661.716 177.976 661.686C185.075 661.155 190.234 658.275 193.329 653.139C203.504 636.218 190.346 597.905 177.526 568.751C171.826 555.782 165.176 542.671 158.128 528.793L157.719 527.987C151.6 515.907 145.267 503.428 139.648 491.113C130.71 471.507 123.856 449.736 117.226 428.68L117.032 428.077C110.597 407.634 103.936 386.496 95.3248 366.9C91.3307 357.822 87.2242 349.735 82.7499 342.168C67.7744 316.844 47.3236 297.401 27.547 278.602L27.4449 278.51C9.82367 261.783 -6.81686 245.976 -18.1353 227.34C-19.4735 225.155 -20.638 222.929 -21.6085 220.733C-31.4048 198.452 -20.1681 180.204 -9.29916 162.548L-8.79863 162.711L-9.23787 162.446C-2.35283 151.264 4.14404 140.695 5.32899 129.401C6.88171 114.462 3.5107 97.0412 -4.41631 79.0179C-19.6267 44.4316 -48.9443 13.9605 -75.7081 4.90292C-83.2163 2.37047 -90.4487 1.07361 -97.2009 1.07361C-109.326 1.07361 -119.868 5.13777 -128.541 13.1436C-151.372 34.2814 -155.295 77.1901 -149.339 100.054C-148.399 103.679 -147.123 107.304 -145.447 111.133C-140.278 122.897 -132.157 134.456 -124.302 145.628L-124.21 145.76C-116.947 156.084 -108.724 167.797 -103.82 178.948C-100.143 187.301 -98.4982 194.796 -98.7945 201.852C-99.6525 222.745 -126.335 244.996 -147.766 262.876C-151.045 265.613 -154.518 268.523 -157.665 271.249C-181.446 291.754 -210.477 317.64 -224.104 336C-253.422 375.519 -257.59 443.109 -234.013 496.719C-223.185 521.339 -207.137 540.874 -187.595 553.199C-171.016 563.655 -151.556 568.741 -128.112 568.741C-104.668 568.741 -80.7544 563.89 -57.3004 559.193C-33.3355 554.404 -8.55348 549.461 15.3297 549.461L15.3399 549.492Z" fill="#DFD9CA"/>
<path d="M-131.758 552.699C-133.148 552.699 -134.527 552.678 -135.896 552.637C-171.577 551.647 -205.522 524.249 -224.482 481.126C-241.347 442.772 -242.266 399.935 -226.944 366.533C-206.666 322.327 -153.833 276.049 -104.055 258.893C-90.1927 254.114 -76.9743 251.684 -64.7672 251.684C-52.56 251.684 -40.7104 254.278 -30.8017 259.384C13.9 282.502 57.2022 332.171 82.1988 389.008C102.66 435.532 120.577 487.028 98.349 516.274C90.708 526.322 80.0536 527.609 71.6261 527.609C68.1631 527.609 64.6797 527.374 61.2985 527.139C58.0194 526.914 54.914 526.71 51.9312 526.71C47.3344 526.71 42.6149 526.71 37.7423 527.027C9.71181 528.793 -19.381 534.747 -47.5137 540.516C-78.2001 546.786 -107.181 552.699 -131.769 552.699H-131.758ZM-64.7569 252.715C-76.8517 252.715 -89.9578 255.125 -103.718 259.863C-153.261 276.947 -205.839 322.991 -226.014 366.962C-241.224 400.098 -240.295 442.629 -223.552 480.718C-204.746 523.473 -171.148 550.636 -135.875 551.616C-110.541 552.341 -80.0797 546.122 -47.718 539.505C-19.5547 533.736 9.5688 527.772 37.681 526.006C42.5843 525.699 47.3241 525.689 51.9108 525.689C54.9549 525.689 58.0705 525.904 61.37 526.128C64.7308 526.353 68.204 526.598 71.6261 526.598C79.8187 526.598 90.1769 525.352 97.542 515.661C119.454 486.845 101.608 435.675 81.2692 389.427C56.3646 332.794 13.2361 283.309 -31.2613 260.303C-41.027 255.268 -52.2944 252.715 -64.7569 252.715Z" fill="#DFD9CA"/>
<path d="M-125.814 535.002C-148.328 535.002 -166.726 528.62 -182.059 515.478C-196.268 503.316 -207.004 489.142 -213.95 473.345C-229.988 436.89 -224.799 392.143 -200.078 353.666C-172.16 310.237 -126.59 283.728 -78.1803 282.737C-77.6083 282.727 -77.0464 282.717 -76.4846 282.717C-23.7538 282.717 30.1109 333.529 51.716 382.657C65.3533 413.659 66.763 443.088 55.6898 465.513C45.3622 486.405 24.8807 500.793 -5.16216 508.289C-18.6871 511.015 -32.6308 515.09 -47.3917 519.399C-73.5631 527.068 -100.633 535.002 -125.814 535.002ZM-76.4846 283.738C-77.0464 283.738 -77.6083 283.738 -78.1599 283.758C-126.233 284.739 -171.496 311.084 -199.22 354.218C-223.757 392.409 -228.905 436.798 -213.011 472.936C-206.126 488.591 -195.481 502.642 -181.384 514.702C-166.235 527.67 -148.062 533.981 -125.804 533.981C-100.776 533.981 -73.7776 526.067 -47.6675 518.419C-32.8862 514.099 -18.922 510.014 -5.37666 507.288C24.3495 499.885 44.596 485.67 54.7908 465.063C65.7313 442.915 64.3114 413.802 50.7967 383.075C29.3243 334.244 -24.1522 283.748 -76.4642 283.748L-76.4846 283.738Z" fill="#DFD9CA"/>
<path d="M-131.698 523.912C-153.476 523.912 -170.893 517.06 -184.939 502.979C-194.776 493.114 -202.52 481.841 -207.954 469.475C-219.344 443.568 -220.223 412.903 -210.385 385.301C-191.569 332.477 -146.367 299.617 -89.4885 297.401C-87.5067 297.319 -85.5046 297.289 -83.5331 297.289C-56.9838 297.289 -31.6092 304.232 -10.1471 317.364C11.3763 330.537 27.9453 349.316 37.7928 371.69C44.0138 385.843 47.5687 401.466 48.3451 418.142C49.2747 438.534 40.367 457.64 22.5721 473.396C6.1461 487.937 -17.2977 499.354 -45.2363 506.4C-51.6208 508.013 -58.0564 509.749 -64.2774 511.424C-88.1197 517.847 -110.634 523.922 -131.687 523.922L-131.698 523.912ZM-83.5331 298.3C-85.4944 298.3 -87.4863 298.34 -89.4476 298.412C-145.897 300.607 -190.741 333.223 -209.415 385.638C-219.181 412.995 -218.302 443.384 -207.024 469.036C-201.621 481.31 -193.949 492.481 -184.204 502.254C-170.362 516.141 -153.18 522.891 -131.687 522.891C-110.195 522.891 -88.3138 516.836 -64.543 510.433C-58.3118 508.758 -51.866 507.012 -45.4815 505.409C-17.6962 498.394 5.60471 487.069 21.9081 472.63C39.4579 457.088 48.2531 438.258 47.344 418.182C46.5676 401.64 43.0434 386.129 36.8734 372.088C17.1581 327.259 -30.0974 298.3 -83.5126 298.3H-83.5331Z" fill="#DFD9CA"/>
<path d="M-119.735 507.125C-139.359 507.125 -154.63 501.886 -167.787 490.633C-177.594 482.26 -185.051 472.385 -189.944 461.275C-205.114 426.791 -194.102 382.166 -162.568 350.235C-141.146 328.536 -114.005 316.578 -86.1579 316.578C-72.5411 316.578 -58.9651 319.356 -45.8283 324.849C-22.6296 334.53 -4.33421 352.4 5.67667 375.182C17.1892 401.364 16.0145 430.937 2.52019 454.3C-8.4305 473.263 -32.1911 497.117 -83.2057 503.04C-95.0962 505.041 -107.354 507.114 -119.745 507.114L-119.735 507.125ZM-86.1477 317.599C-113.718 317.599 -140.605 329.444 -161.832 350.95C-193.08 382.585 -204 426.76 -189.004 460.856C-184.183 471.823 -176.818 481.586 -167.124 489.857C-154.16 500.936 -139.103 506.103 -119.735 506.103C-107.426 506.103 -95.2086 504.041 -83.3998 502.049C-32.7222 496.157 -9.18645 472.559 1.64166 453.8C14.9623 430.712 16.1268 401.487 4.74709 375.6C-5.16165 353.064 -23.263 335.377 -46.2165 325.799C-59.2307 320.366 -72.6637 317.609 -86.1477 317.609V317.599Z" fill="#DFD9CA"/>
<path d="M-114.679 494.881C-146.775 494.881 -167.665 473.396 -176.501 453.29C-189.27 424.248 -185.368 380.308 -146.611 352.431C-129.675 340.259 -108.55 333.56 -87.1283 333.56C-78.047 333.56 -69.0372 334.755 -60.3747 337.093C-34.8061 343.986 -14.8048 360.059 -5.50897 381.196C-1.04494 391.336 0.865311 402.385 0.180893 414.037C-2.47507 457.895 -49.1993 482.648 -88.4155 490.531C-97.4253 493.411 -106.282 494.881 -114.679 494.881ZM-87.1283 334.581C-108.345 334.581 -129.256 341.218 -146.019 353.258C-184.316 380.798 -188.177 424.197 -175.571 452.871C-166.858 472.681 -146.285 493.86 -114.679 493.86C-106.384 493.86 -97.6296 492.41 -88.6708 489.54C-49.7612 481.718 -3.45572 457.252 -0.840622 413.975C-0.166428 402.487 -2.05623 391.602 -6.44876 381.605C-15.622 360.753 -35.368 344.884 -60.6404 338.073C-69.2211 335.755 -78.139 334.571 -87.1283 334.571V334.581Z" fill="#DFD9CA"/>
</g>
<defs>
<clipPath id="clip0_263_4876">
<rect width="1917" height="985" fill="white"/>
</clipPath>
</defs>
</svg>
