<svg width="22" height="22" viewBox="0 0 22 24" fill="none" xmlns="http://www.w3.org/2000/svg">
<path d="M10.8828 8.27295H20.7656C19.6613 6.73792 17.8596 5.73814 15.8242 5.73814C13.7889 5.73814 11.9872 6.73792 10.8828 8.27295Z" stroke="#837550" stroke-width="1.3" stroke-miterlimit="10" stroke-linecap="round" stroke-linejoin="round"/>
<path d="M10.9568 8.06799L17.9449 1.07977C16.0786 0.775242 14.0977 1.34229 12.6585 2.78154C11.2193 4.22075 10.6522 6.20167 10.9568 8.06799Z" stroke="#837550" stroke-width="1.3" stroke-miterlimit="10" stroke-linecap="round" stroke-linejoin="round"/>
<path d="M10.7973 8.06799L3.80908 1.07977C5.67541 0.775242 7.65628 1.34229 9.09553 2.78154C10.5347 4.22075 11.1018 6.20167 10.7973 8.06799Z" stroke="#837550" stroke-width="1.3" stroke-miterlimit="10" stroke-linecap="round" stroke-linejoin="round"/>
<path d="M10.8828 8.27295H1C2.10436 6.73792 3.90604 5.73814 5.94141 5.73814C7.97677 5.73814 9.77845 6.73792 10.8828 8.27295Z" stroke="#837550" stroke-width="1.3" stroke-miterlimit="10" stroke-linecap="round" stroke-linejoin="round"/>
<path d="M11.0879 8.35296L18.0761 15.3412C18.3806 13.4748 17.8136 11.4939 16.3743 10.0547C14.9351 8.61548 12.9542 8.04844 11.0879 8.35296Z" stroke="#837550" stroke-width="1.3" stroke-miterlimit="10" stroke-linecap="round" stroke-linejoin="round"/>
<path d="M10.6779 8.35296L3.68968 15.3412C3.38511 13.4748 3.95216 11.4939 5.39141 10.0547C6.83062 8.61548 8.81154 8.04844 10.6779 8.35296Z" stroke="#837550" stroke-width="1.3" stroke-miterlimit="10" stroke-linecap="round" stroke-linejoin="round"/>
<path d="M12.9044 23.1016H18.3214C16.527 20.9989 13.8582 19.665 10.8772 19.665C7.89632 19.665 5.22746 20.9989 3.43311 23.1016H8.86146" stroke="#837550" stroke-width="1.3" stroke-miterlimit="10" stroke-linecap="round" stroke-linejoin="round"/>
<path d="M9.84375 11.1481H11.9102" stroke="#837550" stroke-width="1.3" stroke-miterlimit="10" stroke-linecap="round" stroke-linejoin="round"/>
<path d="M9.84375 14.0231H11.9102" stroke="#837550" stroke-width="1.3" stroke-miterlimit="10" stroke-linecap="round" stroke-linejoin="round"/>
<path d="M9.84375 16.8981H11.9102" stroke="#837550" stroke-width="1.3" stroke-miterlimit="10" stroke-linecap="round" stroke-linejoin="round"/>
</svg>
