<svg width="23" height="23" viewBox="0 0 23 23" fill="none" xmlns="http://www.w3.org/2000/svg">
<path d="M7.70337 1.05927H17.9407C20.1498 1.05927 21.9407 2.85013 21.9407 5.05926V14.822" stroke="#837550" stroke-width="1.5" stroke-linecap="round"/>
<path d="M21.3101 19.5974H6.07207C4.59776 19.5974 3.40259 18.4022 3.40259 16.9279V2.11229" stroke="#837550" stroke-width="1.5" stroke-miterlimit="10" stroke-linecap="round" stroke-linejoin="round"/>
<path d="M1 2.86871L2.50323 1.38573C3.02445 0.871494 3.86961 0.871494 4.39082 1.38573L5.89405 2.86871" stroke="#837550" stroke-width="1.5" stroke-miterlimit="10" stroke-linecap="round" stroke-linejoin="round"/>
<path d="M20.0869 17.1059L21.6091 18.6092C22.1304 19.1304 22.1304 19.9755 21.6091 20.4968L20.0869 22" stroke="#837550" stroke-width="1.5" stroke-miterlimit="10" stroke-linecap="round" stroke-linejoin="round"/>
<path d="M6.96191 10.5157C6.96191 9.65564 7.65909 8.95846 8.51911 8.95846C9.37913 8.95846 10.0763 9.65564 10.0763 10.5157V14.481" stroke="#837550" stroke-width="1.5" stroke-miterlimit="10" stroke-linecap="round" stroke-linejoin="round"/>
<path d="M6.96191 14.481V8.91953" stroke="#837550" stroke-width="1.5" stroke-miterlimit="10" stroke-linecap="round" stroke-linejoin="round"/>
<path d="M10.0762 10.5156C10.0762 9.65561 10.7734 8.95843 11.6334 8.95843C12.4934 8.95843 13.1906 9.65561 13.1906 10.5156V14.4761" stroke="#837550" stroke-width="1.5" stroke-miterlimit="10" stroke-linecap="round" stroke-linejoin="round"/>
<path d="M18.4406 10.0762H16.0381C16.0381 10.0762 18.3907 7.94065 18.3907 6.96993C18.3907 6.32926 17.8675 5.80506 17.2281 5.80506" stroke="#837550" stroke-width="1.5" stroke-miterlimit="10" stroke-linecap="round" stroke-linejoin="round"/>
<path d="M16.0381 6.96997C16.0381 6.32934 16.5612 5.8051 17.2006 5.8051" stroke="#837550" stroke-width="1.5" stroke-miterlimit="10" stroke-linecap="round" stroke-linejoin="round"/>
</svg>
