<svg width="24" height="18" viewBox="0 0 24 18" fill="none" xmlns="http://www.w3.org/2000/svg">
<path d="M23 6.45274C23 6.40077 22.9891 6.34942 22.9682 6.30226C22.9472 6.25511 22.9167 6.21326 22.8786 6.17965L17.1129 1.08507C17.0629 1.04084 17.0017 1.01245 16.9367 1.00325C16.8717 0.994059 16.8056 1.00445 16.7461 1.03319C16.6866 1.06192 16.6362 1.10778 16.6009 1.16536C16.5656 1.22294 16.5468 1.28984 16.5468 1.35816V3.54733H7.10956C7.0184 3.54733 6.93096 3.58506 6.8665 3.65222C6.80203 3.71937 6.76581 3.81046 6.76581 3.90543C6.76581 4.0004 6.80203 4.09148 6.8665 4.15864C6.93096 4.2258 7.0184 4.26352 7.10956 4.26352H16.8905C16.9817 4.26352 17.0691 4.2258 17.1336 4.15864C17.1981 4.09148 17.2343 4.0004 17.2343 3.90543V2.13142L22.1249 6.45274L17.2343 10.774V9.00001C17.2343 8.90503 17.1981 8.81395 17.1336 8.74679C17.0691 8.67964 16.9817 8.64191 16.8905 8.64191H7.45331V6.45274C7.45331 6.38441 7.43454 6.31751 7.39923 6.25993C7.36392 6.20235 7.31354 6.15649 7.25402 6.12777C7.1945 6.09907 7.12833 6.0887 7.06334 6.09789C6.99834 6.10708 6.93723 6.13545 6.8872 6.17965L1.1214 11.2742C1.08335 11.3078 1.05279 11.3497 1.03182 11.3968C1.01086 11.444 1 11.4953 1 11.5473C1 11.5993 1.01086 11.6506 1.03182 11.6978C1.05279 11.745 1.08335 11.7868 1.1214 11.8204L6.88716 16.915C6.93718 16.9592 6.99829 16.9876 7.06329 16.9967C7.12828 17.0059 7.19445 16.9956 7.25397 16.9669C7.31349 16.9381 7.36388 16.8923 7.39919 16.8347C7.43451 16.7771 7.45327 16.7102 7.45327 16.6419V14.4527H16.8905C16.9817 14.4527 17.0691 14.415 17.1336 14.3478C17.198 14.2807 17.2342 14.1896 17.2342 14.0946C17.2342 13.9997 17.198 13.9086 17.1336 13.8414C17.0691 13.7743 16.9817 13.7365 16.8905 13.7365H7.10952C7.01835 13.7365 6.93092 13.7743 6.86645 13.8414C6.80199 13.9086 6.76577 13.9997 6.76577 14.0946V15.8686L1.8752 11.5473L6.76577 7.226V9.00001C6.76577 9.09498 6.80199 9.18606 6.86645 9.25322C6.93092 9.32037 7.01835 9.3581 7.10952 9.3581H16.5467V11.5473C16.5467 11.6156 16.5654 11.6825 16.6008 11.7401C16.6361 11.7978 16.6865 11.8436 16.746 11.8723C16.8055 11.9011 16.8717 11.9114 16.9367 11.9022C17.0017 11.893 17.0628 11.8646 17.1129 11.8204L22.8786 6.72579C22.9167 6.69218 22.9472 6.65035 22.9682 6.60319C22.9891 6.55604 23 6.5047 23 6.45274Z" fill="#132D5E" stroke="#132D5E" stroke-width="0.6"/>
</svg>
