<svg width="24" height="24" viewBox="0 0 24 24" fill="none" xmlns="http://www.w3.org/2000/svg">
<path d="M23 23H1V21.906C1 20.8533 2.03637 20 3.31484 20H20.6852C21.9636 20 23 20.8533 23 21.906V23Z" stroke="#837550" stroke-width="1.5" stroke-miterlimit="10"/>
<path d="M11 5.25188V3C11 1.89543 11.8954 0.999999 13 0.999999H20C21.1046 0.999999 22 1.89543 22 3V18C22 19.1046 21.1046 20 20 20H11" stroke="#837550" stroke-width="1.5" stroke-miterlimit="10"/>
<path d="M3 7C3 5.89543 3.89543 5 5 5H12C13.1046 5 14 5.89543 14 7V18C14 19.1046 13.1046 20 12 20H5C3.89543 20 3 19.1046 3 18V7Z" stroke="#837550" stroke-width="1.5" stroke-miterlimit="10"/>
<path d="M7 8V12" stroke="#837550" stroke-width="1.5" stroke-miterlimit="10"/>
<path d="M11 8V12" stroke="#837550" stroke-width="1.5" stroke-miterlimit="10"/>
<path d="M7 13V16" stroke="#837550" stroke-width="1.5" stroke-miterlimit="10"/>
<path d="M11 13V16" stroke="#837550" stroke-width="1.5" stroke-miterlimit="10"/>
<path d="M17 8V12" stroke="#837550" stroke-width="1.5" stroke-miterlimit="10"/>
<path d="M17 13V16" stroke="#837550" stroke-width="1.5" stroke-miterlimit="10"/>
<path d="M17 3V6" stroke="#837550" stroke-width="1.5" stroke-miterlimit="10"/>
</svg>
