<svg width="25" height="25" viewBox="0 0 25 25" fill="none" xmlns="http://www.w3.org/2000/svg">
<path d="M12.9961 8.57548C12.584 8.70936 12.3051 9.09331 12.3051 9.52654V15.4C12.3051 15.9523 11.8574 16.4 11.3051 16.4H2C1.44772 16.4 1 16.8477 1 17.4V23C1 23.5523 1.44772 24 2 24H23C23.5523 24 24 23.5523 24 23V6.37639C24 5.69702 23.3371 5.2154 22.691 5.42534L12.9961 8.57548Z" stroke="#837550" stroke-width="1.5" stroke-miterlimit="10" stroke-linecap="round" stroke-linejoin="round"/>
<path d="M5 16.2034V9.60169C5 9.04941 5.44772 8.60169 6 8.60169H7.79747C8.34975 8.60169 8.79747 9.04941 8.79747 9.60169V16.2034M12.4051 24V16.2034M16.2025 12.3051H20M20 24V17.2034C20 16.6511 19.5523 16.2034 19 16.2034H17.2025C16.6502 16.2034 16.2025 16.6511 16.2025 17.2034V24M6.89873 4.8983C6.89873 3.82184 7.74884 2.94915 8.79747 2.94915H10.6962C11.7448 2.94915 12.5949 2.07647 12.5949 1" stroke="#837550" stroke-width="1.5" stroke-miterlimit="10" stroke-linecap="round" stroke-linejoin="round"/>
</svg>
