<svg width="25" height="25" viewBox="0 0 25 25" fill="none" xmlns="http://www.w3.org/2000/svg">
<mask id="mask0_1262_8191" style="mask-type:luminance" maskUnits="userSpaceOnUse" x="0" y="0" width="25" height="25">
<path d="M24.25 24.25V0.75H0.75V24.25H24.25Z" fill="white" stroke="white" stroke-width="1.5"/>
</mask>
<g mask="url(#mask0_1262_8191)">
<path d="M10.6191 3.88586H9.39473C9.33834 3.88586 9.28427 3.86347 9.2444 3.8236C9.20453 3.78373 9.18213 3.72965 9.18213 3.67327V2.44885C9.18213 2.39247 9.20453 2.33839 9.2444 2.29852C9.28427 2.25865 9.33834 2.23625 9.39473 2.23625H10.6191C10.6755 2.23625 10.7296 2.25865 10.7695 2.29852C10.8093 2.33839 10.8317 2.39247 10.8317 2.44885V3.67327C10.8317 3.72965 10.8093 3.78373 10.7695 3.8236C10.7296 3.86347 10.6755 3.88586 10.6191 3.88586Z" stroke="#837550" stroke-width="0.5" stroke-miterlimit="10" stroke-linecap="round" stroke-linejoin="round"/>
<path d="M13.7568 3.88586H12.5324C12.476 3.88586 12.422 3.86347 12.3821 3.8236C12.3422 3.78373 12.3198 3.72965 12.3198 3.67327V2.44885C12.3198 2.39247 12.3422 2.33839 12.3821 2.29852C12.422 2.25865 12.476 2.23625 12.5324 2.23625H13.7568C13.8132 2.23625 13.8673 2.25865 13.9072 2.29852C13.947 2.33839 13.9694 2.39247 13.9694 2.44885V3.67327C13.9694 3.72965 13.947 3.78373 13.9072 3.8236C13.8673 3.86347 13.8132 3.88586 13.7568 3.88586Z" stroke="#837550" stroke-width="0.5" stroke-miterlimit="10" stroke-linecap="round" stroke-linejoin="round"/>
<path d="M10.6191 7.73993H9.39473C9.33834 7.73993 9.28427 7.71753 9.2444 7.67766C9.20453 7.63779 9.18213 7.58372 9.18213 7.52733V6.30287C9.18214 6.24649 9.20455 6.19243 9.24441 6.15257C9.28428 6.11271 9.33835 6.09032 9.39473 6.09032H10.6191C10.6471 6.09031 10.6747 6.09581 10.7005 6.10649C10.7263 6.11716 10.7497 6.13282 10.7695 6.15256C10.7892 6.17229 10.8049 6.19573 10.8156 6.22152C10.8262 6.24731 10.8317 6.27495 10.8317 6.30287V7.52733C10.8317 7.58372 10.8093 7.63779 10.7695 7.67766C10.7296 7.71753 10.6755 7.73993 10.6191 7.73993Z" stroke="#837550" stroke-width="0.5" stroke-miterlimit="10" stroke-linecap="round" stroke-linejoin="round"/>
<path d="M13.7568 7.73993H12.5324C12.476 7.73993 12.422 7.71753 12.3821 7.67766C12.3422 7.63779 12.3198 7.58372 12.3198 7.52733V6.30287C12.3198 6.24649 12.3422 6.19243 12.3821 6.15257C12.422 6.11271 12.476 6.09032 12.5324 6.09032H13.7568C13.7848 6.09031 13.8124 6.09581 13.8382 6.10649C13.864 6.11716 13.8874 6.13282 13.9072 6.15256C13.9269 6.17229 13.9426 6.19573 13.9532 6.22152C13.9639 6.24731 13.9694 6.27495 13.9694 6.30287V7.52733C13.9694 7.58372 13.947 7.63779 13.9072 7.67766C13.8673 7.71753 13.8132 7.73993 13.7568 7.73993Z" stroke="#837550" stroke-width="0.5" stroke-miterlimit="10" stroke-linecap="round" stroke-linejoin="round"/>
<path d="M10.6191 11.5939H9.39473C9.33835 11.5939 9.28428 11.5715 9.24441 11.5317C9.20454 11.4918 9.18214 11.4377 9.18213 11.3813V10.1569C9.18213 10.1005 9.20453 10.0464 9.2444 10.0065C9.28427 9.96667 9.33834 9.94427 9.39473 9.94427H10.6191C10.6755 9.94427 10.7296 9.96667 10.7695 10.0065C10.8093 10.0464 10.8317 10.1005 10.8317 10.1569V11.3813C10.8317 11.4377 10.8093 11.4918 10.7695 11.5317C10.7296 11.5715 10.6755 11.5939 10.6191 11.5939Z" stroke="#837550" stroke-width="0.5" stroke-miterlimit="10" stroke-linecap="round" stroke-linejoin="round"/>
<path d="M13.7568 11.5939H12.5324C12.476 11.5939 12.422 11.5715 12.3821 11.5317C12.3422 11.4918 12.3198 11.4377 12.3198 11.3813V10.1569C12.3198 10.1005 12.3422 10.0464 12.3821 10.0065C12.422 9.96667 12.476 9.94427 12.5324 9.94427H13.7568C13.8132 9.94427 13.8673 9.96667 13.9072 10.0065C13.947 10.0464 13.9694 10.1005 13.9694 10.1569V11.3813C13.9694 11.4377 13.947 11.4918 13.9072 11.5317C13.8673 11.5715 13.8132 11.5939 13.7568 11.5939Z" stroke="#837550" stroke-width="0.5" stroke-miterlimit="10" stroke-linecap="round" stroke-linejoin="round"/>
<path d="M10.6191 15.4479H9.39473C9.33834 15.4479 9.28427 15.4255 9.2444 15.3856C9.20453 15.3457 9.18213 15.2917 9.18213 15.2353V14.0109C9.18213 13.9545 9.20453 13.9004 9.2444 13.8605C9.28427 13.8207 9.33834 13.7983 9.39473 13.7983H10.6191C10.6755 13.7983 10.7296 13.8207 10.7695 13.8605C10.8093 13.9004 10.8317 13.9545 10.8317 14.0109V15.2353C10.8317 15.2917 10.8093 15.3457 10.7695 15.3856C10.7296 15.4255 10.6755 15.4479 10.6191 15.4479Z" stroke="#837550" stroke-width="0.5" stroke-miterlimit="10" stroke-linecap="round" stroke-linejoin="round"/>
<path d="M13.7568 15.4479H12.5324C12.476 15.4479 12.422 15.4255 12.3821 15.3856C12.3422 15.3457 12.3198 15.2917 12.3198 15.2353V14.0109C12.3198 13.9545 12.3422 13.9004 12.3821 13.8605C12.422 13.8207 12.476 13.7983 12.5324 13.7983H13.7568C13.8132 13.7983 13.8673 13.8207 13.9072 13.8605C13.947 13.9004 13.9694 13.9545 13.9694 14.0109V15.2353C13.9694 15.2917 13.947 15.3457 13.9072 15.3856C13.8673 15.4255 13.8132 15.4479 13.7568 15.4479Z" stroke="#837550" stroke-width="0.5" stroke-miterlimit="10" stroke-linecap="round" stroke-linejoin="round"/>
<path d="M7.48096 3.88586H6.25654C6.20016 3.88586 6.14608 3.86347 6.10621 3.8236C6.06634 3.78373 6.04395 3.72965 6.04395 3.67327V2.44885C6.04395 2.39247 6.06634 2.33839 6.10621 2.29852C6.14608 2.25865 6.20016 2.23625 6.25654 2.23625H7.48096C7.53734 2.23625 7.59142 2.25865 7.63129 2.29852C7.67116 2.33839 7.69355 2.39247 7.69355 2.44885V3.67327C7.69355 3.72965 7.67116 3.78373 7.63129 3.8236C7.59142 3.86347 7.53734 3.88586 7.48096 3.88586Z" stroke="#837550" stroke-width="0.5" stroke-miterlimit="10" stroke-linecap="round" stroke-linejoin="round"/>
<path d="M7.48096 7.73993H6.25654C6.20016 7.73993 6.14608 7.71753 6.10621 7.67766C6.06634 7.63779 6.04395 7.58372 6.04395 7.52733V6.30287C6.04396 6.24649 6.06636 6.19243 6.10623 6.15257C6.1461 6.11271 6.20017 6.09032 6.25654 6.09032H7.48096C7.50887 6.09031 7.53652 6.09581 7.56231 6.10649C7.5881 6.11716 7.61154 6.13282 7.63128 6.15256C7.65103 6.17229 7.66669 6.19573 7.67737 6.22152C7.68806 6.24731 7.69355 6.27495 7.69355 6.30287V7.52733C7.69355 7.58372 7.67116 7.63779 7.63129 7.67766C7.59142 7.71753 7.53734 7.73993 7.48096 7.73993Z" stroke="#837550" stroke-width="0.5" stroke-miterlimit="10" stroke-linecap="round" stroke-linejoin="round"/>
<path d="M7.48096 11.5939H6.25654C6.20016 11.5939 6.1461 11.5715 6.10623 11.5317C6.06636 11.4918 6.04396 11.4377 6.04395 11.3813V10.1569C6.04395 10.1005 6.06634 10.0464 6.10621 10.0065C6.14608 9.96667 6.20016 9.94427 6.25654 9.94427H7.48096C7.53734 9.94427 7.59142 9.96667 7.63129 10.0065C7.67116 10.0464 7.69355 10.1005 7.69355 10.1569V11.3813C7.69355 11.4377 7.67116 11.4918 7.63129 11.5317C7.59142 11.5715 7.53734 11.5939 7.48096 11.5939Z" stroke="#837550" stroke-width="0.5" stroke-miterlimit="10" stroke-linecap="round" stroke-linejoin="round"/>
<path d="M7.48096 15.4479H6.25654C6.20016 15.4479 6.14608 15.4255 6.10621 15.3856C6.06634 15.3457 6.04395 15.2917 6.04395 15.2353V14.0109C6.04395 13.9545 6.06634 13.9004 6.10621 13.8605C6.14608 13.8207 6.20016 13.7983 6.25654 13.7983H7.48096C7.53734 13.7983 7.59142 13.8207 7.63129 13.8605C7.67116 13.9004 7.69355 13.9545 7.69355 14.0109V15.2353C7.69355 15.2917 7.67116 15.3457 7.63129 15.3856C7.59142 15.4255 7.53734 15.4479 7.48096 15.4479Z" stroke="#837550" stroke-width="0.5" stroke-miterlimit="10" stroke-linecap="round" stroke-linejoin="round"/>
<path d="M4.34424 5.9617V22.4017" stroke="#837550" stroke-width="1.5" stroke-miterlimit="10" stroke-linecap="round" stroke-linejoin="round"/>
<path d="M15.71 22.4017V1.01585C15.71 0.664772 15.4254 0.380202 15.0744 0.380202H4.97983C4.62881 0.380202 4.34424 0.664772 4.34424 1.01585V4.24963" stroke="#837550" stroke-width="1.5" stroke-miterlimit="10" stroke-linecap="round" stroke-linejoin="round"/>
<path d="M11.6562 22.4017V17.8648C11.6562 17.8084 11.6338 17.7543 11.5939 17.7144C11.5541 17.6746 11.5 17.6522 11.4436 17.6522H8.56953C8.51315 17.6522 8.45907 17.6746 8.4192 17.7144C8.37933 17.7543 8.35693 17.8084 8.35693 17.8648V22.4017" stroke="#837550" stroke-width="1.5" stroke-miterlimit="10" stroke-linecap="round" stroke-linejoin="round"/>
<path d="M4.34429 18.4779C4.18858 18.4773 4.02705 18.477 3.85772 18.477C3.11362 18.477 2.43242 18.8068 2.15747 19.6213C1.22212 19.6213 0.463869 20.3795 0.463869 21.3149C0.463338 21.7127 0.603443 22.0979 0.859425 22.4024C0.863869 22.4023 0.868166 22.4017 0.872609 22.4017" stroke="#837550" stroke-width="1.5" stroke-miterlimit="10" stroke-linecap="round" stroke-linejoin="round"/>
<path d="M24.1272 22.4017C24.1316 22.4017 24.1359 22.4023 24.1404 22.4024C24.3963 22.0979 24.5364 21.7127 24.5359 21.3149C24.5359 20.3795 23.7777 19.6213 22.8423 19.6213C22.587 18.865 21.9813 18.5268 21.3003 18.4823" stroke="#837550" stroke-width="1.5" stroke-miterlimit="10" stroke-linecap="round" stroke-linejoin="round"/>
<path d="M15.71 11.3592H19.2296C19.2724 11.3592 19.3148 11.3508 19.3544 11.3344C19.3939 11.318 19.4299 11.294 19.4601 11.2637C19.4904 11.2335 19.5144 11.1975 19.5308 11.158C19.5471 11.1185 19.5556 11.0761 19.5556 11.0333V9.26818C19.5556 9.22537 19.5471 9.18298 19.5308 9.14343C19.5144 9.10389 19.4904 9.06795 19.4601 9.03768C19.4299 9.00741 19.3939 8.9834 19.3544 8.96701C19.3148 8.95063 19.2724 8.9422 19.2296 8.9422H15.71" stroke="#837550" stroke-width="0.5" stroke-miterlimit="10" stroke-linecap="round" stroke-linejoin="round"/>
<path d="M15.71 15.8423H19.2296C19.2724 15.8423 19.3148 15.8339 19.3544 15.8175C19.3939 15.8011 19.4299 15.7771 19.4601 15.7469C19.4904 15.7166 19.5144 15.6807 19.5308 15.6411C19.5471 15.6016 19.5556 15.5592 19.5556 15.5164V13.7513C19.5556 13.7085 19.5471 13.6661 19.5308 13.6265C19.5144 13.587 19.4904 13.5511 19.4601 13.5208C19.4299 13.4905 19.3939 13.4665 19.3544 13.4502C19.3148 13.4338 19.2724 13.4253 19.2296 13.4254H15.71" stroke="#837550" stroke-width="0.5" stroke-miterlimit="10" stroke-linecap="round" stroke-linejoin="round"/>
<path d="M15.71 20.3254H19.2296C19.2724 20.3254 19.3148 20.317 19.3544 20.3006C19.3939 20.2842 19.4299 20.2602 19.4601 20.2299C19.4904 20.1997 19.5144 20.1637 19.5308 20.1242C19.5471 20.0846 19.5556 20.0423 19.5556 19.9995V18.2344C19.5556 18.1916 19.5471 18.1492 19.5308 18.1096C19.5144 18.0701 19.4904 18.0341 19.4601 18.0039C19.4299 17.9736 19.3939 17.9496 19.3544 17.9332C19.3148 17.9168 19.2724 17.9084 19.2296 17.9084H15.71" stroke="#837550" stroke-width="0.5" stroke-miterlimit="10" stroke-linecap="round" stroke-linejoin="round"/>
<path d="M21.3004 11.6279V7.35707C21.3004 7.00604 21.0159 6.72147 20.6648 6.72147H15.71" stroke="#837550" stroke-width="1.5" stroke-miterlimit="10" stroke-linecap="round" stroke-linejoin="round"/>
<path d="M21.3003 22.4017V13.34" stroke="#837550" stroke-width="1.5" stroke-miterlimit="10" stroke-linecap="round" stroke-linejoin="round"/>
<path d="M24.1274 22.4017H0.872608C0.59292 22.4017 0.366211 22.6285 0.366211 22.9081V24.1134C0.366211 24.393 0.59292 24.6198 0.872608 24.6198H24.1274C24.4071 24.6198 24.6338 24.393 24.6338 24.1134V22.9081C24.6338 22.6285 24.4071 22.4017 24.1274 22.4017Z" stroke="#837550" stroke-width="1.5" stroke-miterlimit="10" stroke-linecap="round" stroke-linejoin="round"/>
</g>
</svg>
