<svg width="22" height="22" viewBox="0 0 22 22" fill="none" xmlns="http://www.w3.org/2000/svg">
<path d="M12.6516 21.2188C12.6516 19.0535 14.407 17.2778 16.5722 17.2778H17.2983C19.4636 17.2778 21.2189 19.0535 21.2189 21.2188" stroke="#655F5F" stroke-width="1.5" stroke-miterlimit="10" stroke-linecap="round" stroke-linejoin="round"/>
<path d="M19.6767 11.4949C19.6767 13.0326 18.43 14.2792 16.8923 14.2792C15.3545 14.2792 14.1079 13.0326 14.1079 11.4949C14.1079 9.95712 15.3545 8.7105 16.8923 8.7105C18.43 8.7105 19.6767 9.95712 19.6767 11.4949Z" stroke="#655F5F" stroke-width="1.5" stroke-miterlimit="10" stroke-linecap="round" stroke-linejoin="round"/>
<path d="M17.4501 5.28275C17.4501 2.91745 15.5327 1 13.1674 1H5.28279C2.91749 1 1 2.91745 1 5.28275V16.936C1 19.3013 2.91749 21.2188 5.28279 21.2188H9.2246" stroke="#655F5F" stroke-width="1.5" stroke-miterlimit="10" stroke-linecap="round" stroke-linejoin="round"/>
<path d="M5.49791 5.86151C5.67514 5.86151 5.81883 5.71783 5.81883 5.5406C5.81883 5.36337 5.67514 5.21969 5.49791 5.21969C5.32068 5.21969 5.177 5.36337 5.177 5.5406C5.177 5.71783 5.32068 5.86151 5.49791 5.86151Z" fill="#655F5F" stroke="#655F5F" stroke-width="1.5"/>
<path d="M9.18175 5.86151C9.35898 5.86151 9.50266 5.71783 9.50266 5.5406C9.50266 5.36337 9.35898 5.21969 9.18175 5.21969C9.00452 5.21969 8.86084 5.36337 8.86084 5.5406C8.86084 5.71783 9.00452 5.86151 9.18175 5.86151Z" fill="#655F5F" stroke="#655F5F" stroke-width="1.5"/>
<path d="M12.8658 5.86151C13.0431 5.86151 13.1867 5.71783 13.1867 5.5406C13.1867 5.36337 13.0431 5.21969 12.8658 5.21969C12.6886 5.21969 12.5449 5.36337 12.5449 5.5406C12.5449 5.71783 12.6886 5.86151 12.8658 5.86151Z" fill="#655F5F" stroke="#655F5F" stroke-width="1.5"/>
<path d="M5.49791 9.54544C5.67514 9.54544 5.81883 9.40176 5.81883 9.22453C5.81883 9.0473 5.67514 8.90362 5.49791 8.90362C5.32068 8.90362 5.177 9.0473 5.177 9.22453C5.177 9.40176 5.32068 9.54544 5.49791 9.54544Z" fill="#655F5F" stroke="#655F5F" stroke-width="1.5"/>
<path d="M5.49791 13.2294C5.67514 13.2294 5.81883 13.0857 5.81883 12.9085C5.81883 12.7312 5.67514 12.5876 5.49791 12.5876C5.32068 12.5876 5.177 12.7312 5.177 12.9085C5.177 13.0857 5.32068 13.2294 5.49791 13.2294Z" fill="#655F5F" stroke="#655F5F" stroke-width="1.5"/>
<path d="M5.49791 16.9133C5.67514 16.9133 5.81883 16.7696 5.81883 16.5924C5.81883 16.4152 5.67514 16.2715 5.49791 16.2715C5.32068 16.2715 5.177 16.4152 5.177 16.5924C5.177 16.7696 5.32068 16.9133 5.49791 16.9133Z" fill="#655F5F" stroke="#655F5F" stroke-width="1.5"/>
<path d="M9.18175 9.54544C9.35898 9.54544 9.50266 9.40176 9.50266 9.22453C9.50266 9.0473 9.35898 8.90362 9.18175 8.90362C9.00452 8.90362 8.86084 9.0473 8.86084 9.22453C8.86084 9.40176 9.00452 9.54544 9.18175 9.54544Z" fill="#655F5F" stroke="#655F5F" stroke-width="1.5"/>
<path d="M9.18175 13.2294C9.35898 13.2294 9.50266 13.0857 9.50266 12.9085C9.50266 12.7312 9.35898 12.5876 9.18175 12.5876C9.00452 12.5876 8.86084 12.7312 8.86084 12.9085C8.86084 13.0857 9.00452 13.2294 9.18175 13.2294Z" fill="#655F5F" stroke="#655F5F" stroke-width="1.5"/>
<path d="M9.18175 16.9133C9.35898 16.9133 9.50266 16.7696 9.50266 16.5924C9.50266 16.4152 9.35898 16.2715 9.18175 16.2715C9.00452 16.2715 8.86084 16.4152 8.86084 16.5924C8.86084 16.7696 9.00452 16.9133 9.18175 16.9133Z" fill="#655F5F" stroke="#655F5F" stroke-width="1.5"/>
</svg>
