<svg width="24" height="24" viewBox="0 0 24 24" fill="none" xmlns="http://www.w3.org/2000/svg">
<mask id="mask0_1262_7975" style="mask-type:luminance" maskUnits="userSpaceOnUse" x="0" y="0" width="24" height="24">
<path d="M23.25 23.25V0.750013H0.75V23.25H23.25Z" fill="white" stroke="white" stroke-width="1.5"/>
</mask>
<g mask="url(#mask0_1262_7975)">
<path d="M17.3653 18.5563C17.3653 18.5563 10.315 17.8117 10.0302 17.7593C9.7453 17.7069 9.39228 17.5189 9.12491 17.3367C8.67927 17.0331 8.38672 16.5216 8.38672 15.9416C8.38672 15.0096 9.1422 14.2541 10.0742 14.2541L16.5599 14.2516C16.6025 14.2516 16.6451 14.2519 16.6876 14.2524" stroke="#837550" stroke-width="1.5" stroke-miterlimit="10"/>
<path d="M22.377 16.3045L23.2501 16.9293V16.4682L22.5952 15.9996L22.5952 15.9996C21.0662 14.9054 19.298 14.2562 17.4394 14.1006L17.4349 14.4767C19.2156 14.6308 20.9119 15.2561 22.377 16.3045Z" fill="black" stroke="#837550" stroke-width="1.5"/>
<path d="M24 23.0625H11.1845C10.1582 23.0625 9.18955 22.6666 8.45713 21.9478L1.49919 15.1195C0.760115 14.3941 0.748958 13.207 1.47425 12.468C2.19955 11.7288 3.38666 11.7177 4.12578 12.443L8.62499 16.8584" stroke="#837550" stroke-width="1.5" stroke-miterlimit="10"/>
<path d="M22.7344 8.10938L12.0469 1.125L1.35938 8.10938" stroke="#837550" stroke-width="1.5" stroke-miterlimit="10" stroke-linecap="square"/>
<path d="M17.7188 0.281252V4.64062" stroke="#837550" stroke-width="1.5" stroke-miterlimit="10"/>
<path d="M3.84375 8.4405C3.96997 8.4646 4.09504 8.49315 4.21875 8.52608V7.21876H3.84375V8.4405Z" fill="black" stroke="#837550" stroke-width="1.5"/>
<path d="M19.8281 11.0802C19.9536 11.1108 20.0786 11.1432 20.2031 11.1773V7.21876H19.8281V11.0802Z" fill="black" stroke="#837550" stroke-width="1.5"/>
<path d="M11.4844 8.01563V9.32812H12.7969V8.01563H11.4844Z" fill="black" stroke="#837550" stroke-width="1.5"/>
</g>
</svg>
