<svg width="18" height="18" viewBox="0 0 18 24" fill="none" xmlns="http://www.w3.org/2000/svg">
<path d="M10.3845 23.2461V19.1142H7.61523V23.2461" stroke="#837550" stroke-width="1.5" stroke-miterlimit="10"/>
<path d="M13.1538 18.4219V21.1692" stroke="#837550" stroke-width="1.5" stroke-miterlimit="10"/>
<path d="M4.84619 21.1693V18.422" stroke="#837550" stroke-width="1.5" stroke-miterlimit="10"/>
<path d="M13.1538 14.23V17.0374" stroke="#837550" stroke-width="1.5" stroke-miterlimit="10"/>
<path d="M4.84619 17.0374V14.23" stroke="#837550" stroke-width="1.5" stroke-miterlimit="10"/>
<path d="M7.61523 17.0374V14.23" stroke="#837550" stroke-width="1.5" stroke-miterlimit="10"/>
<path d="M10.3848 17.0374V14.23" stroke="#837550" stroke-width="1.5" stroke-miterlimit="10"/>
<path d="M13.1538 7.26886V10.0762" stroke="#837550" stroke-width="1.5" stroke-miterlimit="10"/>
<path d="M4.84619 10.0762V7.26886" stroke="#837550" stroke-width="1.5" stroke-miterlimit="10"/>
<path d="M13.1538 3.07685V5.88416" stroke="#837550" stroke-width="1.5" stroke-miterlimit="10"/>
<path d="M10.3848 7.26886V10.0762" stroke="#837550" stroke-width="1.5" stroke-miterlimit="10"/>
<path d="M10.3848 3.07685V5.88416" stroke="#837550" stroke-width="1.5" stroke-miterlimit="10"/>
<path d="M7.61523 7.26886V10.0762" stroke="#837550" stroke-width="1.5" stroke-miterlimit="10"/>
<path d="M7.61523 3.07685V5.88416" stroke="#837550" stroke-width="1.5" stroke-miterlimit="10"/>
<path d="M4.84619 5.88416V3.07685" stroke="#837550" stroke-width="1.5" stroke-miterlimit="10"/>
<path d="M2.07666 23.2461V0.999941" stroke="#837550" stroke-width="1.5" stroke-miterlimit="10"/>
<path d="M18 23.2461H0" stroke="#837550" stroke-width="1.5" stroke-miterlimit="10"/>
<path d="M18 1H0" stroke="#837550" stroke-width="1.5" stroke-miterlimit="10"/>
<path d="M18 12.1531H0" stroke="#837550" stroke-width="1.5" stroke-miterlimit="10"/>
<path d="M15.9233 0.999941V23.2461" stroke="#837550" stroke-width="1.5" stroke-miterlimit="10"/>
</svg>
