<svg width="29" height="31" viewBox="0 0 29 31" fill="none" xmlns="http://www.w3.org/2000/svg">
<path d="M7.01856 8.09716C6.60667 7.41294 5.82446 6.97692 4.94936 7.06647C3.9044 7.17335 3.10362 8.005 3.03202 9.05303C2.94627 10.3082 3.93912 11.3531 5.17598 11.3531H13.026V7.68465L8.96122 8.85756C8.82058 8.89817 8.67581 8.92524 8.52945 8.9287C8.22665 8.93562 7.92741 8.86234 7.66207 8.71631C7.39673 8.57027 7.17472 8.35667 7.01856 8.09716Z" stroke="#655F5F" stroke-width="1.5" stroke-linecap="round" stroke-linejoin="round"/>
<path d="M21.7829 8.09716C22.1947 7.41294 22.977 6.97692 23.8521 7.06647C24.897 7.17335 25.6978 8.005 25.7694 9.05303C25.8551 10.3082 24.8623 11.3531 23.6254 11.3531H15.7754V7.68465L19.8401 8.85756C19.9808 8.89817 20.1256 8.92524 20.2719 8.9287C20.5747 8.93562 20.874 8.86234 21.1393 8.71631C21.4047 8.57027 21.6267 8.35667 21.7829 8.09716Z" stroke="#655F5F" stroke-width="1.5" stroke-linecap="round" stroke-linejoin="round"/>
<path d="M15.7755 25.9766H13.0261V6.04643H15.7755V25.9766Z" stroke="#655F5F" stroke-width="1.5" stroke-linecap="round" stroke-linejoin="round"/>
<path d="M7.32514 9.20391C7.32514 10.3908 6.36293 11.353 5.17603 11.353C3.98907 11.353 3.02686 10.3908 3.02686 9.20391C3.02686 8.01695 3.98907 7.0548 5.17603 7.0548C6.36293 7.0548 7.32514 8.01695 7.32514 9.20391Z" stroke="#655F5F" stroke-width="1.5" stroke-linecap="round" stroke-linejoin="round"/>
<path d="M21.4763 9.20391C21.4763 10.3908 22.4385 11.353 23.6254 11.353C24.8124 11.353 25.7746 10.3908 25.7746 9.20391C25.7746 8.01695 24.8124 7.0548 23.6254 7.0548C22.4385 7.0548 21.4763 8.01695 21.4763 9.20391Z" stroke="#655F5F" stroke-width="1.5" stroke-linecap="round" stroke-linejoin="round"/>
<path d="M14.4005 1.57864L12.8526 3.56792C12.67 3.8026 12.5552 4.08289 12.5209 4.37827C12.4865 4.67364 12.5339 4.97278 12.6578 5.24312L13.0259 6.04651H15.7752L16.1433 5.24312C16.2672 4.97278 16.3145 4.67364 16.2801 4.37827C16.2458 4.0829 16.1311 3.80262 15.9485 3.56792L14.4005 1.57864Z" stroke="#655F5F" stroke-width="1.5" stroke-linecap="round" stroke-linejoin="round"/>
<path d="M16.9233 29.4106H24.012V28.0244C24.012 26.8935 23.0952 25.9766 21.9641 25.9766H6.81035C5.67935 25.9766 4.76245 26.8935 4.76245 28.0244V29.4106H11.9431" stroke="#655F5F" stroke-width="1.5" stroke-linecap="round" stroke-linejoin="round"/>
<path d="M5.17579 11.3531L2.43042 19.7465H8.02629L5.17579 11.3531Z" stroke="#655F5F" stroke-width="1.5" stroke-linecap="round" stroke-linejoin="round"/>
<path d="M23.6519 11.3531L20.9065 19.7465H26.5024L23.6519 11.3531Z" stroke="#655F5F" stroke-width="1.5" stroke-linecap="round" stroke-linejoin="round"/>
<path d="M0.76123 19.7465V21.0418C0.76123 21.9755 1.51806 22.7322 2.45167 22.7322H8.07269C9.00629 22.7322 9.76312 21.9755 9.76312 21.0418V19.7465H0.76123Z" stroke="#655F5F" stroke-width="1.5" stroke-linecap="round" stroke-linejoin="round"/>
<path d="M19.2371 19.7465V21.0418C19.2371 21.9755 19.9939 22.7322 20.9276 22.7322H26.5486C27.4821 22.7322 28.239 21.9755 28.239 21.0418V19.7465H19.2371Z" stroke="#655F5F" stroke-width="1.5" stroke-linecap="round" stroke-linejoin="round"/>
</svg>
