<svg width="22" height="22" viewBox="0 0 22 22" fill="none" xmlns="http://www.w3.org/2000/svg">
<path d="M8.07615 1.83398L4.75781 5.16148" stroke="#837550" stroke-width="1.5" stroke-miterlimit="10" stroke-linecap="round" stroke-linejoin="round"/>
<path d="M13.9258 1.83398L17.2441 5.16148" stroke="#837550" stroke-width="1.5" stroke-miterlimit="10" stroke-linecap="round" stroke-linejoin="round"/>
<path d="M1.83203 7.19661C1.83203 5.50078 2.73953 5.36328 3.86703 5.36328H18.1304C19.2579 5.36328 20.1654 5.50078 20.1654 7.19661C20.1654 9.16745 19.2579 9.02995 18.1304 9.02995H3.86703C2.73953 9.02995 1.83203 9.16745 1.83203 7.19661Z" stroke="#837550" stroke-width="1.5"/>
<path d="M8.94531 12.834V16.0882" stroke="#837550" stroke-width="1.5" stroke-linecap="round"/>
<path d="M13.1641 12.834V16.0882" stroke="#837550" stroke-width="1.5" stroke-linecap="round"/>
<path d="M3.20703 9.16602L4.49953 17.086C4.79286 18.8643 5.4987 20.166 8.12036 20.166H13.6479C16.4987 20.166 16.9204 18.9193 17.2504 17.196L18.7904 9.16602" stroke="#837550" stroke-width="1.5" stroke-linecap="round"/>
</svg>
