<svg width="17" height="17" viewBox="0 0 16 16" fill="none" xmlns="http://www.w3.org/2000/svg">
<path d="M0.75 1.77778C0.75 1.21015 1.21015 0.75 1.77778 0.75H5.33333C5.90096 0.75 6.36111 1.21015 6.36111 1.77778V5.33333C6.36111 5.90096 5.90096 6.36111 5.33333 6.36111H1.77778C1.21015 6.36111 0.75 5.90096 0.75 5.33333V1.77778ZM9.63889 1.77778C9.63889 1.21015 10.099 0.75 10.6667 0.75H14.2222C14.7898 0.75 15.25 1.21015 15.25 1.77778V5.33333C15.25 5.90096 14.7898 6.36111 14.2222 6.36111H10.6667C10.099 6.36111 9.63889 5.90096 9.63889 5.33333V1.77778ZM9.63889 10.6667C9.63889 10.099 10.099 9.63889 10.6667 9.63889H14.2222C14.7898 9.63889 15.25 10.099 15.25 10.6667V14.2222C15.25 14.7898 14.7898 15.25 14.2222 15.25H10.6667C10.099 15.25 9.63889 14.7898 9.63889 14.2222V10.6667ZM0.75 10.6667C0.75 10.099 1.21015 9.63889 1.77778 9.63889H5.33333C5.90096 9.63889 6.36111 10.099 6.36111 10.6667V14.2222C6.36111 14.7898 5.90096 15.25 5.33333 15.25H1.77778C1.21015 15.25 0.75 14.7898 0.75 14.2222V10.6667Z" stroke="#837550" stroke-width="1.5"/>
</svg>
