<svg width="18" height="18" viewBox="0 0 20 20" fill="none" xmlns="http://www.w3.org/2000/svg">
<path d="M4.9987 10.834H1.66536C1.44435 10.834 1.23239 10.9218 1.07611 11.0781C0.919829 11.2343 0.832031 11.4463 0.832031 11.6673V18.334C0.832031 18.555 0.919829 18.767 1.07611 18.9232C1.23239 19.0795 1.44435 19.1673 1.66536 19.1673H4.9987C5.21971 19.1673 5.43167 19.0795 5.58795 18.9232C5.74423 18.767 5.83203 18.555 5.83203 18.334V11.6673C5.83203 11.4463 5.74423 11.2343 5.58795 11.0781C5.43167 10.9218 5.21971 10.834 4.9987 10.834ZM4.16536 17.5006H2.4987V12.5007H4.16536V17.5006ZM18.332 7.50065H14.9987C14.7777 7.50065 14.5657 7.58845 14.4094 7.74473C14.2532 7.90101 14.1654 8.11297 14.1654 8.33398V18.334C14.1654 18.555 14.2532 18.767 14.4094 18.9232C14.5657 19.0795 14.7777 19.1673 14.9987 19.1673H18.332C18.553 19.1673 18.765 19.0795 18.9213 18.9232C19.0776 18.767 19.1654 18.555 19.1654 18.334V8.33398C19.1654 8.11297 19.0776 7.90101 18.9213 7.74473C18.765 7.58845 18.553 7.50065 18.332 7.50065ZM17.4987 17.5006H15.832V9.16732H17.4987V17.5006ZM11.6654 0.833984H8.33203C8.11102 0.833984 7.89906 0.921782 7.74277 1.07806C7.58649 1.23434 7.4987 1.4463 7.4987 1.66732V18.334C7.4987 18.555 7.58649 18.767 7.74277 18.9232C7.89906 19.0795 8.11102 19.1673 8.33203 19.1673H11.6654C11.8864 19.1673 12.0983 19.0795 12.2546 18.9232C12.4109 18.767 12.4987 18.555 12.4987 18.334V1.66732C12.4987 1.4463 12.4109 1.23434 12.2546 1.07806C12.0983 0.921782 11.8864 0.833984 11.6654 0.833984ZM10.832 17.5006H9.16536V2.50065H10.832V17.5006Z" fill="#837550"/>
</svg>
