<svg width="19" height="20" viewBox="0 0 19 20" fill="none" xmlns="http://www.w3.org/2000/svg">
<path fill-rule="evenodd" clip-rule="evenodd" d="M15.4413 3.25805C13.0702 0.76074 8.32409 0.160785 5.46174 1.60818C0.97094 3.45679 -0.723262 8.33143 0.278561 13.2698C1.01349 15.0959 3.93386 14.8034 4.30132 12.8198C4.15047 10.8212 5.15229 7.49899 1.94182 7.53274C3.48904 2.43687 10.2658 0.614501 14.3196 4.23298C15.302 5.21916 15.9944 6.17909 16.3309 7.27026C16.4199 7.29276 16.3773 7.48774 16.447 7.53274C14.0411 7.45774 13.9753 9.49009 14.0875 11.17C13.8747 12.9736 14.424 14.511 16.2536 14.5072C15.2711 16.3333 13.3874 17.102 11.4185 16.982C11.1362 16.1758 10.4825 15.6734 9.75526 15.5196C8.48268 15.1297 7.27972 16.0596 6.93159 17.0195C6.04581 19.7343 10.3007 21.3617 11.4185 18.4819C15.4297 18.7407 18.5009 15.7896 18.3036 11.9949C18.4738 8.30143 17.9632 5.42914 15.4413 3.25805ZM2.05786 9.03263C2.73477 8.98763 2.79666 9.46759 2.75411 10.12C2.75411 10.9562 2.75411 11.7962 2.75411 12.6324C1.37322 14.0385 1.62464 11.3537 1.63238 10.42C1.64785 9.91756 1.48152 9.20886 2.05786 9.03263ZM9.63922 18.4069C8.37824 18.9731 7.92955 17.2145 8.98165 16.9445C9.92546 16.7721 10.3664 17.9007 9.63922 18.4069ZM16.7564 12.5949C16.3773 13.3973 15.4142 12.9361 15.6347 11.9949C15.7817 11.1962 15.2517 9.4301 16.0215 9.03263C16.621 8.98763 16.799 9.3251 16.7564 9.93256C16.7564 10.8212 16.7564 11.7099 16.7564 12.5949Z" fill="#837550"/>
</svg>
