<svg width="42" height="42" viewBox="0 0 42 42" fill="none" xmlns="http://www.w3.org/2000/svg">
<rect width="42" height="42" rx="4" fill="#EFECE4"/>
<path d="M33.491 13.1617H8.34132C7.67066 13.1617 7.16766 12.3713 7.16766 11.5808C7.16766 10.7904 7.67066 10 8.50898 10H33.6587C34.3293 10 35 10.5928 35 11.5808C35 12.5689 34.1617 13.1617 33.491 13.1617ZM25.1078 23.0419H8.34132C7.67066 23.0419 7 22.4491 7 21.4611C7 20.4731 7.50299 19.8802 8.34132 19.8802H25.1078C25.7784 19.8802 26.4491 20.4731 26.4491 21.4611C26.4491 22.4491 25.7784 23.0419 25.1078 23.0419ZM15.0479 32.9222H8.34132C7.67066 32.9222 7 32.3293 7 31.3413C7 30.3533 7.50299 29.7605 8.34132 29.7605H15.0479C15.7186 29.7605 16.3892 30.3533 16.3892 31.3413C16.3892 32.3293 15.7186 32.9222 15.0479 32.9222Z" fill="#837550" stroke="#837550" stroke-width="0.5"/>
</svg>
