<svg width="22" height="23" viewBox="0 0 22 23" fill="none" xmlns="http://www.w3.org/2000/svg">
<path d="M7.37109 11.3784L9.78051 13.7978L14.6093 8.95898" stroke="#299764" stroke-width="1.5" stroke-linecap="round" stroke-linejoin="round"/>
<path d="M9.74289 1.8213C10.4327 1.23144 11.5624 1.23144 12.2623 1.8213L13.8419 3.18097C14.1418 3.44091 14.7017 3.65086 15.1016 3.65086H16.8012C17.8609 3.65086 18.7307 4.52065 18.7307 5.58039V7.27998C18.7307 7.66989 18.9407 8.23975 19.2006 8.53968L20.5603 10.1193C21.1501 10.8091 21.1501 11.9389 20.5603 12.6387L19.2006 14.2183C18.9407 14.5182 18.7307 15.0781 18.7307 15.478V17.1776C18.7307 18.2373 17.8609 19.1071 16.8012 19.1071H15.1016C14.7117 19.1071 14.1418 19.3171 13.8419 19.577L12.2623 20.9367C11.5724 21.5265 10.4427 21.5265 9.74289 20.9367L8.16327 19.577C7.86334 19.3171 7.30348 19.1071 6.90357 19.1071H5.17399C4.11425 19.1071 3.24446 18.2373 3.24446 17.1776V15.468C3.24446 15.0781 3.03451 14.5182 2.78457 14.2183L1.43489 12.6287C0.855035 11.9389 0.855035 10.8191 1.43489 10.1293L2.78457 8.53968C3.03451 8.23975 3.24446 7.67988 3.24446 7.28998V5.57039C3.24446 4.51065 4.11425 3.64086 5.17399 3.64086H6.90357C7.29348 3.64086 7.86334 3.43091 8.16327 3.17097L9.74289 1.8213Z" stroke="#299764" stroke-width="1.5" stroke-linecap="round" stroke-linejoin="round"/>
</svg>
