<svg width="22" height="23" viewBox="0 0 22 23" fill="none" xmlns="http://www.w3.org/2000/svg">
<path d="M7.62891 11.5L10.0383 13.9194L14.8672 9.08057" stroke="#299764" stroke-width="1.5" stroke-linecap="round" stroke-linejoin="round"/>
<path d="M9.99972 1.94239C10.6896 1.35254 11.8193 1.35254 12.5191 1.94239L14.0987 3.30206C14.3987 3.562 14.9585 3.77195 15.3584 3.77195H17.058C18.1178 3.77195 18.9876 4.64174 18.9876 5.70148V7.40107C18.9876 7.79098 19.1975 8.36084 19.4574 8.66077L20.8171 10.2404C21.407 10.9302 21.407 12.0599 20.8171 12.7598L19.4574 14.3394C19.1975 14.6393 18.9876 15.1992 18.9876 15.5991V17.2987C18.9876 18.3584 18.1178 19.2282 17.058 19.2282H15.3584C14.9685 19.2282 14.3987 19.4382 14.0987 19.6981L12.5191 21.0578C11.8293 21.6476 10.6996 21.6476 9.99972 21.0578L8.42011 19.6981C8.12018 19.4382 7.56031 19.2282 7.16041 19.2282H5.43083C4.37108 19.2282 3.50129 18.3584 3.50129 17.2987V15.5891C3.50129 15.1992 3.29134 14.6393 3.0414 14.3394L1.69173 12.7498C1.11187 12.0599 1.11187 10.9402 1.69173 10.2504L3.0414 8.66077C3.29134 8.36084 3.50129 7.80098 3.50129 7.41107V5.69149C3.50129 4.63174 4.37108 3.76195 5.43083 3.76195H7.16041C7.55032 3.76195 8.12018 3.552 8.42011 3.29207L9.99972 1.94239Z" stroke="#299764" stroke-width="1.5" stroke-linecap="round" stroke-linejoin="round"/>
</svg>
