<svg width="56" height="56" viewBox="0 0 56 56" fill="none" xmlns="http://www.w3.org/2000/svg">
<g clip-path="url(#clip0_1_1019)">
<rect width="56" height="56" rx="10" fill="#E8E7D9"/>
<path d="M17.3333 21.6667C17.3333 27.5577 22.1089 32.3333 28 32.3333C33.891 32.3333 38.6666 27.5577 38.6666 21.6667C38.6666 15.7756 33.891 11 28 11C22.1089 11 17.3333 15.7756 17.3333 21.6667Z" fill="#3B3832"/>
<path d="M27.9556 37.6667C15.3651 37.6667 5.03536 44.1374 4.00174 56.8646C3.94544 57.5578 5.27123 59 5.94001 59H49.9912C51.9944 59 52.0256 57.3879 51.9944 56.8667C51.213 43.7819 40.7232 37.6667 27.9556 37.6667Z" fill="#3B3832"/>
</g>
<defs>
<clipPath id="clip0_1_1019">
<rect width="56" height="56" rx="10" fill="white"/>
</clipPath>
</defs>
</svg>
