<svg width="12" height="7" viewBox="0 0 12 7" fill="none" xmlns="http://www.w3.org/2000/svg">
<path d="M6.00337 6.84355C6.1545 6.84355 6.30558 6.78309 6.40839 6.66822L11.087 1.87476C11.1898 1.772 11.2502 1.63901 11.2502 1.4879C11.2502 1.17357 11.0144 0.931778 10.7001 0.931778C10.549 0.931778 10.41 0.992227 10.3072 1.08894L5.67695 5.82197H6.32374L1.69346 1.08894C1.59675 0.992227 1.45772 0.931778 1.30056 0.931778C0.986233 0.931778 0.750488 1.17357 0.750488 1.4879C0.750488 1.63901 0.810936 1.772 0.913696 1.8808L5.59232 6.66822C5.70717 6.78309 5.8462 6.84355 6.00337 6.84355Z" fill="#837550"/>
</svg>
