<svg width="20" height="20" viewBox="0 0 20 20" fill="none" xmlns="http://www.w3.org/2000/svg">
<path fill-rule="evenodd" clip-rule="evenodd" d="M11.2623 0.442393C10.5624 -0.147464 9.43272 -0.147464 8.74289 0.442393L7.16327 1.79207C6.86334 2.052 6.29348 2.26195 5.90357 2.26195H4.17399C3.11425 2.26195 2.24446 3.13174 2.24446 4.19149V5.91107C2.24446 6.30098 2.03451 6.86084 1.78457 7.16077L0.434895 8.75039C-0.144965 9.44022 -0.144965 10.5599 0.434895 11.2498L1.78457 12.8394C2.03451 13.1393 2.24446 13.6992 2.24446 14.0891V15.7987C2.24446 16.8584 3.11425 17.7282 4.17399 17.7282H5.90357C6.30348 17.7282 6.86334 17.9382 7.16327 18.1981L8.74289 19.5578C9.44272 20.1476 10.5724 20.1476 11.2623 19.5578L12.8419 18.1981C13.1418 17.9382 13.7117 17.7282 14.1016 17.7282H15.8012C16.8609 17.7282 17.7307 16.8584 17.7307 15.7987V14.0991C17.7307 13.6992 17.9407 13.1393 18.2006 12.8394L19.5603 11.2598C20.1501 10.5599 20.1501 9.43022 19.5603 8.74039L18.2006 7.16077C17.9407 6.86084 17.7307 6.29098 17.7307 5.90107V4.20148C17.7307 3.14174 16.8609 2.27195 15.8012 2.27195H14.1016C13.7017 2.27195 13.1418 2.062 12.8419 1.80206L11.2623 0.442393ZM14.1412 8.11035C14.4338 7.81715 14.4333 7.34228 14.1401 7.04969C13.8469 6.7571 13.372 6.75759 13.0794 7.05079L8.78204 11.3571L6.9035 9.47075C6.61121 9.17725 6.13634 9.17627 5.84284 9.46856C5.54934 9.76084 5.54836 10.2357 5.84064 10.5292L8.25006 12.9486C8.39071 13.0899 8.58178 13.1693 8.7811 13.1694C8.98042 13.1695 9.17157 13.0903 9.31237 12.9492L14.1412 8.11035Z" fill="#299764"/>
</svg>
