<svg           width="38"
                            height="38"
                            viewBox="0 0 38 38"
                            fill="none"
                            xmlns="http://www.w3.org/2000/svg"
                        >
                            <circle cx="19" cy="19" r="19" fill="#BEB395" />
                            <path
                                d="M20.4086 18.9991L24.7045 14.7127C24.8926 14.5245 24.9983 14.2693 24.9983 14.0033C24.9983 13.7372 24.8926 13.482 24.7045 13.2938C24.5164 13.1057 24.2612 13 23.9952 13C23.7291 13 23.474 13.1057 23.2859 13.2938L19 17.5903L14.7141 13.2938C14.526 13.1057 14.2709 13 14.0048 13C13.7388 13 13.4836 13.1057 13.2955 13.2938C13.1074 13.482 13.0017 13.7372 13.0017 14.0033C13.0017 14.2693 13.1074 14.5245 13.2955 14.7127L17.5914 18.9991L13.2955 23.2856C13.2019 23.3785 13.1276 23.489 13.0768 23.6108C13.0261 23.7325 13 23.8631 13 23.995C13 24.1269 13.0261 24.2575 13.0768 24.3793C13.1276 24.501 13.2019 24.6116 13.2955 24.7044C13.3884 24.7981 13.4989 24.8724 13.6206 24.9232C13.7424 24.9739 13.8729 25 14.0048 25C14.1367 25 14.2673 24.9739 14.389 24.9232C14.5108 24.8724 14.6213 24.7981 14.7141 24.7044L19 20.408L23.2859 24.7044C23.3787 24.7981 23.4892 24.8724 23.611 24.9232C23.7327 24.9739 23.8633 25 23.9952 25C24.1271 25 24.2576 24.9739 24.3794 24.9232C24.5011 24.8724 24.6116 24.7981 24.7045 24.7044C24.7981 24.6116 24.8724 24.501 24.9232 24.3793C24.9739 24.2575 25 24.1269 25 23.995C25 23.8631 24.9739 23.7325 24.9232 23.6108C24.8724 23.489 24.7981 23.3785 24.7045 23.2856L20.4086 18.9991Z"
                                fill="white"
                            />
                        </svg>