<svg width="42" height="37" viewBox="0 0 42 37" fill="none" xmlns="http://www.w3.org/2000/svg">
<path d="M19.9988 27.5552C20.2296 27.6241 20.3611 27.8668 20.2922 28.0977C19.4903 30.7926 16.9926 32.7714 14.0206 32.7714C13.7798 32.7714 13.5844 32.576 13.5844 32.3352C13.5844 32.0943 13.7798 31.899 14.0206 31.899C16.5115 31.899 18.7466 30.2337 19.4563 27.8491C19.5245 27.6185 19.7669 27.4861 19.9987 27.5553L19.9988 27.5552Z" fill="#837550"/>
<path d="M7.91395 10.9626L10.531 10.9626C10.7718 10.9626 10.9672 11.1579 10.9672 11.3987C10.9672 11.6396 10.7718 11.8349 10.531 11.8349L7.91395 11.8349C4.30647 11.8349 1.37128 14.7701 1.37128 18.3776C1.37128 21.9851 4.30647 24.9203 7.91395 24.9203L7.97689 24.9203C8.10338 24.9203 8.22365 24.9751 8.30652 25.0708C8.38938 25.1664 8.42677 25.2932 8.4087 25.4185C8.36976 25.6901 8.35013 25.9631 8.35013 26.2288C8.35013 29.3553 10.894 31.8992 14.0205 31.8992C15.2368 31.8992 16.3967 31.5191 17.375 30.7997C17.59 30.6417 17.8953 30.7118 18.0197 30.9483C20.7903 36.2242 28.027 36.9327 31.7788 32.3431C33.3593 30.4096 33.9803 27.8944 33.4827 25.4431C33.4279 25.1723 33.635 24.9199 33.9101 24.9199L34.0849 24.9199C37.6924 24.92 40.6276 21.9848 40.6276 18.3773C40.6276 14.7698 37.6924 11.8346 34.0849 11.8346L31.4679 11.8346C31.2271 11.8346 31.0317 11.6393 31.0317 11.3984C31.0317 11.1576 31.2271 10.9622 31.4679 10.9622L34.0849 10.9622C38.1735 10.9622 41.5 14.2887 41.5 18.3773C41.5 22.3512 38.3577 25.6051 34.4273 25.7846C34.7965 28.3278 34.0905 30.8932 32.4543 32.8952C28.4374 37.8094 20.7393 37.2586 17.4852 31.7789C16.447 32.4297 15.2591 32.7712 14.0206 32.7712C10.2327 32.7712 7.23118 29.5472 7.49382 25.7805C3.59969 25.5621 0.499074 22.3254 0.499075 18.3776C0.499075 14.2887 3.82557 10.9625 7.91415 10.9626L7.91395 10.9626Z" fill="#837550"/>
<path d="M21.0583 0.74013C27.0711 0.740131 31.9629 5.63189 31.9629 11.6447C31.9629 17.6575 27.0711 22.5493 21.0583 22.5493C15.0455 22.5493 10.1537 17.6576 10.1537 11.6447C10.1537 5.63196 15.0455 0.74013 21.0583 0.74013ZM21.0583 21.6768C26.59 21.6768 31.0903 17.1763 31.0903 11.6447C31.0903 6.11307 26.5899 1.61269 21.0583 1.61269C15.5267 1.61269 11.0263 6.11315 11.0263 11.6447C11.0263 17.1764 15.5267 21.6768 21.0583 21.6768Z" fill="#837550"/>
<path d="M21.3277 7.25478C21.3277 6.99562 21.1176 6.78545 20.8584 6.78545C20.5993 6.78545 20.3891 6.99533 20.3891 7.25478L20.3891 15.5575C20.3891 15.8167 20.5992 16.0268 20.8584 16.0268C21.1176 16.0268 21.3277 15.8167 21.3277 15.5575L21.3277 7.25478Z" fill="#837550" stroke="#837550" stroke-width="0.3"/>
<path d="M18.078 12.7755L17.9717 12.6697C18.0635 12.5776 18.1842 12.532 18.3037 12.532L18.078 12.7755ZM18.078 12.7755C18.1402 12.713 18.2221 12.682 18.3037 12.682L18.078 12.7755ZM18.078 12.7755L17.9719 12.6695C17.7885 12.8528 17.7885 13.1499 17.9719 13.3332L20.5265 15.8879C20.7098 16.0711 21.0071 16.0713 21.1903 15.8879L18.078 12.7755ZM20.8584 14.8922L18.6356 12.6695C18.5441 12.5779 18.4236 12.532 18.3038 12.532L20.8584 14.8922ZM20.8584 14.8922L23.0811 12.6696C23.0811 12.6695 23.0811 12.6695 23.0811 12.6695C23.0811 12.6695 23.0811 12.6695 23.0812 12.6695C23.2644 12.486 23.5617 12.4862 23.7449 12.6695C23.9283 12.8528 23.9283 13.1499 23.7449 13.3332L21.1904 15.8878L20.8584 14.8922Z" fill="#837550" stroke="#837550" stroke-width="0.3"/>
</svg>
