<svg width="31" height="26" viewBox="0 0 31 26" fill="none" xmlns="http://www.w3.org/2000/svg">
<path d="M21 13C21 15.7654 18.5419 18 15.5 18C12.4581 18 10 15.7654 10 13C10 10.2346 12.4581 8 15.5 8C18.5419 8 21 10.2346 21 13Z" stroke="#837550" stroke-linecap="round" stroke-linejoin="round"/>
<path d="M15.5 25C20.731 25 25.6063 21.9837 28.9997 16.7631C30.3334 14.7184 30.3334 11.2816 28.9997 9.23686C25.6063 4.01631 20.731 1 15.5 1C10.269 1 5.39371 4.01631 2.00026 9.23686C0.666581 11.2816 0.666581 14.7184 2.00026 16.7631C5.39371 21.9837 10.269 25 15.5 25Z" stroke="#837550" stroke-linecap="round" stroke-linejoin="round"/>
</svg>
