<svg width="22" height="22" viewBox="0 0 22 22" fill="none" xmlns="http://www.w3.org/2000/svg">
<path d="M7.37207 11L9.78149 13.4194L14.6103 8.58057" stroke="#AEA07A" stroke-width="1.5" stroke-linecap="round" stroke-linejoin="round"/>
<path d="M9.74289 1.44239C10.4327 0.852536 11.5624 0.852536 12.2623 1.44239L13.8419 2.80206C14.1418 3.062 14.7017 3.27195 15.1016 3.27195H16.8012C17.8609 3.27195 18.7307 4.14174 18.7307 5.20148V6.90107C18.7307 7.29098 18.9407 7.86084 19.2006 8.16077L20.5603 9.74039C21.1501 10.4302 21.1501 11.5599 20.5603 12.2598L19.2006 13.8394C18.9407 14.1393 18.7307 14.6992 18.7307 15.0991V16.7987C18.7307 17.8584 17.8609 18.7282 16.8012 18.7282H15.1016C14.7117 18.7282 14.1418 18.9382 13.8419 19.1981L12.2623 20.5578C11.5724 21.1476 10.4427 21.1476 9.74289 20.5578L8.16327 19.1981C7.86334 18.9382 7.30348 18.7282 6.90357 18.7282H5.17399C4.11425 18.7282 3.24446 17.8584 3.24446 16.7987V15.0891C3.24446 14.6992 3.03451 14.1393 2.78457 13.8394L1.43489 12.2498C0.855035 11.5599 0.855035 10.4402 1.43489 9.75039L2.78457 8.16077C3.03451 7.86084 3.24446 7.30098 3.24446 6.91107V5.19149C3.24446 4.13174 4.11425 3.26195 5.17399 3.26195H6.90357C7.29348 3.26195 7.86334 3.052 8.16327 2.79207L9.74289 1.44239Z" stroke="#AEA07A" stroke-width="1.5" stroke-linecap="round" stroke-linejoin="round"/>
</svg>
