<svg width="314" height="43" viewBox="0 0 314 43" fill="none" xmlns="http://www.w3.org/2000/svg">
<g clip-path="url(#clip0_260_4003)">
<path d="M309.989 29.1177C309.745 29.4057 309.456 29.6679 309.264 29.9874C308.726 30.8848 308.138 31.7434 307.517 32.5873C306.63 33.7949 306.081 35.1595 305.942 36.6588C305.879 37.3291 305.945 38.0123 305.96 38.6881C305.964 38.8783 305.995 39.0685 306.002 39.2606C306.006 39.3473 306.004 39.4526 305.96 39.5172C305.754 39.8182 305.437 39.7296 305.154 39.7093C304.873 39.6908 304.732 39.556 304.715 39.3067C304.7 39.087 304.711 38.8636 304.739 38.6457C305.025 36.4502 304.458 34.4707 303.239 32.6574C303.049 32.3768 302.848 32.1035 302.634 31.8413C301.973 31.027 301.483 30.1055 300.952 29.2081C301.4 28.9238 302.144 28.9995 302.545 29.3928C302.75 29.5941 302.906 29.8526 303.061 30.1C303.81 31.2984 304.55 32.5005 305.294 33.7007C305.332 33.7616 305.365 33.8281 305.417 33.9186C305.53 33.7856 305.595 33.7284 305.639 33.6564C306.294 32.5928 307.007 31.5624 307.528 30.4176C307.846 29.7215 308.322 29.1694 309.113 29.0069C309.398 28.9478 309.695 28.9607 309.987 28.9404V29.1177H309.989Z" fill="#837550"/>
<path d="M72.2839 20.476C72.2839 26.4218 72.2839 32.3675 72.2839 38.3133C72.2839 38.4906 72.2875 38.6678 72.2783 38.8451C72.2581 39.2033 72.159 39.3178 71.7972 39.3381C71.4318 39.3584 71.0627 39.3455 70.6954 39.3455C69.2576 39.3473 67.8179 39.3492 66.38 39.351C66.189 39.351 65.9981 39.3603 65.8071 39.351C65.2598 39.3233 65.0395 39.1018 65.0101 38.5589C65.0028 38.4112 65.0064 38.2634 65.0064 38.1157C65.0119 33.4385 65.0175 28.7613 65.023 24.0841C65.023 23.8182 65.0285 23.5523 65.0101 23.2882C64.9734 22.7638 64.7402 22.5053 64.226 22.4462C63.8771 22.4074 63.5227 22.4037 63.1719 22.4056C60.0006 22.4167 56.8292 22.437 53.6579 22.4425C52.3357 22.4425 51.0154 22.4111 49.6932 22.3964C48.7089 22.3853 48.4279 22.6493 48.4279 23.6483C48.4279 25.5077 48.4518 27.3653 48.4573 29.2248C48.4665 32.1903 48.4702 35.1558 48.4757 38.1213C48.4775 39.1368 48.237 39.3732 47.2288 39.3603C46.026 39.3436 44.8214 39.3252 43.6167 39.3196C43.0291 39.3159 42.4433 39.3418 41.8557 39.351C41.7528 39.351 41.6482 39.3547 41.5472 39.3418C41.2203 39.2956 41.123 39.1719 41.134 38.8359C41.1634 37.8203 41.2166 36.8028 41.2185 35.7873C41.224 24.8984 41.2221 14.0095 41.224 3.12246C41.224 2.84364 41.2387 2.56112 41.2809 2.28599C41.3378 1.90746 41.4792 1.77451 41.8483 1.71911C42.0356 1.69141 42.2285 1.69695 42.4194 1.69511C44.1089 1.68588 45.7965 1.67664 47.4859 1.66926C47.6181 1.66926 47.7503 1.67849 47.8807 1.69695C48.1543 1.73758 48.338 1.89268 48.3949 2.16966C48.4335 2.35616 48.4683 2.5482 48.4683 2.73654C48.4683 6.67515 48.4628 10.6156 48.4555 14.5542C48.4555 14.9826 48.4298 15.4092 48.4261 15.8357C48.4261 16.0111 48.439 16.1902 48.461 16.3638C48.5345 16.9251 48.786 17.1744 49.3553 17.1947C49.9411 17.215 50.5306 17.2003 51.1164 17.2003C55.2867 17.2021 59.457 17.204 63.6292 17.2058C63.8202 17.2058 64.013 17.2077 64.2021 17.1873C64.6943 17.1338 64.9734 16.8568 65.0083 16.3527C65.034 15.9853 65.0248 15.616 65.023 15.2467C65.0175 11.0865 65.0119 6.92628 65.0064 2.76424C65.0064 1.85206 65.2231 1.65448 66.1266 1.66002C67.9464 1.6711 69.7681 1.66741 71.5897 1.66926C71.6191 1.66926 71.6485 1.66926 71.6779 1.66926C72.2159 1.66926 72.2747 1.7265 72.2747 2.2823C72.2747 8.34624 72.2747 14.4102 72.2747 20.4741C72.2765 20.4741 72.2802 20.4741 72.282 20.4741L72.2839 20.476Z" fill="#837550"/>
<path d="M37.3934 39.1571C37.2153 39.1645 37.0739 39.1756 36.9325 39.1774C34.5673 39.1811 32.2039 39.183 29.8387 39.1848C29.2933 39.1848 29.1886 39.1147 29.0215 38.6383C26.1073 30.3253 23.1912 22.016 20.2842 13.7011C19.6966 12.0189 19.12 10.3312 18.7178 8.59181C18.7086 8.55303 18.6719 8.52164 18.6334 8.4644C18.4681 8.55857 18.4626 8.7303 18.4148 8.87063C17.6876 11.0514 16.9623 13.2321 16.2369 15.4128C15.3867 17.9721 14.5383 20.5314 13.6899 23.0906C13.6275 23.2827 13.5761 23.4765 13.4898 23.7683C13.7358 23.6963 13.8974 23.652 14.0554 23.6021C15.5226 23.1349 16.988 22.6604 18.4589 22.2006C18.8354 22.0824 19.2247 21.9919 19.6121 21.9181C20.1134 21.8221 20.3724 22.016 20.5376 22.5053C20.7121 23.0186 20.9214 23.5209 21.1143 24.0287C21.2244 24.3167 21.3493 24.6011 21.4374 24.8947C21.5715 25.336 21.4062 25.6942 21.0279 25.9158C20.7139 26.1004 20.3742 26.2555 20.0271 26.3589C18.4093 26.8427 16.9219 27.6053 15.4969 28.4917C13.6991 29.6088 12.1694 31.0103 11.0676 32.8457C10.5718 33.6711 10.1954 34.5482 9.89604 35.4604C9.66283 36.1732 9.41125 36.8804 9.16518 37.5913C9.06418 37.883 8.95584 38.1729 8.85851 38.4665C8.66386 39.0519 8.48941 39.1811 7.86321 39.1848C7.62816 39.1848 7.39311 39.1848 7.15806 39.1848C4.95445 39.1848 2.75268 39.1848 0.549066 39.1848H0C0.0661083 38.9909 0.112017 38.8432 0.167107 38.701C2.38541 33.1153 4.62207 27.5389 6.81834 21.9439C9.37085 15.4461 11.8903 8.93341 14.4171 2.42631C14.7954 1.45135 15.0488 1.23161 16.1506 1.24823C17.8841 1.27408 19.6176 1.24823 21.3493 1.25192C21.5678 1.25192 21.7937 1.25192 22.0049 1.30178C22.4015 1.3978 22.5943 1.71909 22.7321 2.07178C23.0369 2.8547 23.3344 3.63946 23.6355 4.42239C25.5619 9.40981 27.4882 14.3972 29.4163 19.3847C29.4531 19.4807 29.4898 19.5767 29.5284 19.6727C29.7597 20.2415 30.1637 20.5129 30.7936 20.4944C32.0992 20.4557 33.4067 20.452 34.7142 20.4335C34.8317 20.4335 34.9492 20.4298 35.0668 20.4464C35.3532 20.4833 35.5001 20.6071 35.513 20.9007C35.535 21.4306 35.5332 21.9624 35.5167 22.4924C35.5038 22.8783 35.2302 23.0629 34.8905 23.1331C34.4883 23.2162 34.0807 23.2697 33.6748 23.3344C33.269 23.3971 32.8632 23.4562 32.4573 23.519C32.3857 23.5301 32.3141 23.5504 32.2443 23.5689C31.5318 23.7664 31.35 24.0545 31.5667 24.7709C31.7412 25.3471 31.967 25.9102 32.1856 26.4716C33.5279 29.932 34.8758 33.3905 36.2182 36.8508C36.5065 37.595 36.8352 38.317 37.3034 38.9688C37.3347 39.0131 37.353 39.0666 37.3971 39.1571H37.3934Z" fill="#837550"/>
<path d="M97.4877 0.00924652C98.2369 0.00924652 98.9861 0.0258651 99.7353 0.0055535C100.562 -0.0184512 101.368 0.0720279 102.174 0.269605C103.698 0.6426 105.244 0.921423 106.734 1.43475C108.074 1.89638 109.339 2.50942 110.505 3.3182C111.108 3.73551 111.113 3.87769 110.592 4.4021C109.387 5.61156 108.188 6.82657 106.985 8.03973C106.923 8.10251 106.864 8.16898 106.796 8.22622C106.568 8.41826 106.447 8.4275 106.205 8.26316C106.095 8.18929 105.995 8.10066 105.893 8.01942C104.267 6.71393 102.442 5.84607 100.387 5.48969C98.7621 5.20902 97.1424 5.27365 95.5283 5.58202C94.3879 5.79991 93.2677 6.0972 92.1953 6.55144C89.685 7.61318 87.9607 9.45785 86.8883 11.9506C86.2548 13.4242 85.893 14.9697 85.6745 16.5503C85.489 17.8946 85.3733 19.2462 85.4064 20.6071C85.4761 23.4599 86.0234 26.202 87.3786 28.7354C88.978 31.7286 91.503 33.468 94.7974 34.0922C96.9533 34.5002 99.1165 34.5058 101.267 34.0146C102.495 33.7339 103.647 33.2612 104.69 32.5503C105.088 32.2789 105.461 31.9631 105.81 31.6271C106.432 31.027 106.647 31.0177 107.253 31.6511C107.903 32.3324 108.548 33.0212 109.205 33.6952C109.606 34.1051 110.03 34.4929 110.443 34.8917C110.454 34.9028 110.465 34.9102 110.476 34.9212C111.179 35.5601 111.157 35.8907 110.36 36.4335C109.36 37.1149 108.291 37.6652 107.169 38.1157C105.623 38.7361 104.014 39.1221 102.369 39.3713C100.139 39.7093 97.9008 39.8404 95.6513 39.7111C92.5314 39.5338 89.5179 38.8765 86.7047 37.4657C83.0063 35.61 80.5033 32.6851 79.1004 28.7927C78.4668 27.0385 78.1051 25.2215 77.8627 23.375C77.6662 21.8664 77.5652 20.3504 77.6203 18.8307C77.725 15.952 78.241 13.149 79.2895 10.4605C80.9789 6.13228 84.0309 3.18525 88.3353 1.53262C89.8319 0.958354 91.3653 0.511498 92.9721 0.354544C93.1576 0.336079 93.3632 0.293609 93.5156 0.193898C93.8095 0.00186047 94.1216 0.0055535 94.4467 0.00740001C95.4603 0.011093 96.474 0.00740001 97.4858 0.00740001L97.4877 0.00924652Z" fill="#837550"/>
<path d="M155.421 14.1277C155.503 13.9947 155.59 13.8618 155.667 13.7251C156.036 13.0659 156.469 12.4566 157.026 11.9414C158.096 10.9498 159.356 10.5325 160.794 10.7412C161.936 10.9073 162.705 11.5832 163.139 12.6505C163.438 13.3854 163.539 14.1609 163.563 14.942C163.583 15.6344 163.535 16.3269 163.517 17.0193C163.512 17.1966 163.491 17.3738 163.497 17.5492C163.508 17.9703 163.671 18.142 164.084 18.1604C164.422 18.1752 164.76 18.1641 165.098 18.1641C167.711 18.1641 170.326 18.1641 172.939 18.1641C173.101 18.1641 173.262 18.1715 173.424 18.1586C173.834 18.1254 174.006 17.9518 174.03 17.5474C174.041 17.3572 174.03 17.1633 174.03 16.9731C174.03 15.2319 174.028 13.4906 174.026 11.7512C174.026 11.6773 174.026 11.6035 174.028 11.5296C174.028 11.4853 174.028 11.441 174.037 11.3967C174.111 11.0237 174.351 10.8926 174.941 10.9092C175.394 10.9203 175.582 11.0569 175.635 11.4225C175.65 11.5241 175.644 11.6293 175.644 11.7309C175.65 13.9578 175.655 16.1865 175.659 18.4134C175.659 19.2591 175.563 19.3644 174.732 19.3644C163.629 19.3607 152.528 19.357 141.426 19.3514C140.835 19.3514 140.256 19.2665 139.692 19.0855C138.952 18.8492 138.344 18.4153 137.94 17.7505C137.667 17.3018 137.467 16.8051 137.244 16.3269C137.202 16.2364 137.189 16.1274 137.188 16.0259C137.182 15.4054 137.184 14.7869 137.188 14.1664C137.188 14.0797 137.2 13.9873 137.232 13.9079C137.906 12.0854 139.042 10.8427 141.325 10.7208C142.467 10.6599 143.576 10.8427 144.671 11.1474C145.11 11.2693 145.223 11.4077 145.223 11.8694C145.227 13.6254 145.222 15.3796 145.218 17.1356C145.218 17.1799 145.212 17.2243 145.211 17.2686C145.201 17.9721 145.383 18.1623 146.088 18.1641C148.349 18.166 150.611 18.1641 152.872 18.1641C152.975 18.1641 153.079 18.1678 153.18 18.1512C153.492 18.105 153.654 17.9592 153.713 17.6471C153.742 17.4902 153.74 17.324 153.739 17.1633C153.733 15.3777 153.731 13.594 153.713 11.8084C153.705 11.0274 153.828 10.8593 154.673 10.9092C155.136 10.9369 155.287 11.1068 155.287 11.5869C155.287 12.2793 155.283 12.9736 155.283 13.666C155.283 13.8082 155.296 13.9504 155.301 14.0926C155.34 14.1037 155.377 14.1147 155.415 14.1277H155.421ZM158.585 18.1641V18.1604C159.481 18.1604 160.377 18.166 161.273 18.1586C161.683 18.1549 161.837 18.0256 161.853 17.6545C161.894 16.7257 161.952 15.7969 161.934 14.87C161.925 14.3622 161.822 13.8415 161.681 13.3503C161.473 12.6264 160.961 12.1667 160.217 12.0429C159.877 11.9857 159.51 12.0005 159.169 12.0577C158.381 12.1907 157.771 12.6449 157.257 13.2376C156.552 14.0501 156.058 14.9844 155.74 16.0093C155.584 16.5152 155.459 17.0322 155.358 17.5511C155.283 17.9426 155.457 18.1272 155.854 18.1604C155.927 18.166 156.001 18.1623 156.074 18.1623C156.912 18.1623 157.749 18.1623 158.586 18.1623L158.585 18.1641ZM143.71 15.2337H143.712C143.712 15.1451 143.712 15.0565 143.712 14.9678C143.71 14.3197 143.723 13.6697 143.703 13.0216C143.685 12.403 143.481 12.1556 142.871 12.0873C142.291 12.0226 141.698 11.9857 141.117 12.03C140.194 12.102 139.465 12.5323 139.096 13.4352C138.789 14.1849 138.658 14.9641 138.816 15.7711C139.024 16.8402 139.764 17.8595 141.003 18.009C141.6 18.081 142.201 18.1198 142.799 18.1697C142.915 18.1789 143.034 18.1715 143.152 18.166C143.418 18.1512 143.593 18.009 143.651 17.7487C143.686 17.5917 143.707 17.4292 143.708 17.2686C143.714 16.5909 143.71 15.9114 143.71 15.2337Z" fill="#837550"/>
<path d="M198.984 18.1346C199.221 18.1457 199.364 18.1586 199.506 18.1586C202.089 18.1604 204.675 18.1623 207.259 18.1623C207.332 18.1623 207.405 18.1641 207.479 18.1567C207.843 18.1161 208.008 17.9444 208.008 17.5788C208.01 14.881 208.011 12.1814 208.008 9.48368C208.008 8.90941 207.982 8.3333 207.967 7.75904C207.967 7.71472 207.966 7.6704 207.964 7.62609C207.944 6.73607 208.417 6.55142 209.203 6.72314C209.422 6.77115 209.532 6.91149 209.563 7.11645C209.583 7.24571 209.576 7.3805 209.576 7.51345C209.576 11.2009 209.576 14.8903 209.576 18.5778C209.576 18.6812 209.582 18.7846 209.571 18.888C209.536 19.2037 209.403 19.333 209.093 19.3514C208.931 19.3607 208.77 19.3551 208.608 19.3551C202.016 19.3551 195.422 19.3514 188.829 19.3514C185.893 19.3514 182.956 19.3607 180.018 19.3625C179.113 19.3625 178.964 19.2148 178.964 18.3174C178.964 14.7924 178.964 11.2656 178.964 7.74057C178.964 7.68148 178.964 7.62239 178.964 7.56331C178.981 6.82101 179.535 6.45725 180.231 6.72868C180.402 6.79516 180.496 6.90595 180.512 7.08506C180.521 7.18846 180.527 7.29187 180.529 7.39343C180.542 9.50214 180.56 11.6109 180.562 13.7214C180.562 14.7979 180.529 15.8745 180.516 16.951C180.514 17.1264 180.516 17.3055 180.547 17.4791C180.626 17.9481 180.839 18.1401 181.322 18.1586C181.748 18.1752 182.174 18.1623 182.6 18.1623C185.772 18.1623 188.943 18.1604 192.116 18.1567C192.3 18.1567 192.485 18.1383 192.746 18.1254C192.647 17.9038 192.583 17.7468 192.509 17.5936C192.078 16.7072 191.813 15.7784 191.837 14.785C191.883 12.8056 193.227 11.1142 195.229 10.8002C196.114 10.6618 196.984 10.6784 197.833 10.9812C199.136 11.4465 199.843 12.4086 200.064 13.751C200.269 15.0103 199.933 16.1754 199.401 17.3C199.283 17.5492 199.155 17.7948 198.986 18.1327L198.984 18.1346ZM198.564 14.9309C198.551 14.7112 198.556 14.4859 198.521 14.2698C198.327 13.1176 197.816 12.0799 196.288 11.9672C195.032 11.8749 194.042 12.4639 193.624 13.6642C193.297 14.6022 193.326 15.5495 193.64 16.4801C193.998 17.54 194.797 18.046 195.87 18.1143C196.852 18.1771 197.594 17.7394 198.084 16.8827C198.429 16.2807 198.551 15.6196 198.564 14.9309Z" fill="#837550"/>
<path d="M303.411 18.1401C302.713 18.9249 301.92 19.5324 300.839 19.5084C299.786 19.4862 299.01 18.8769 298.326 18.1254C298.244 18.2011 298.192 18.2325 298.161 18.2786C297.625 19.0541 296.843 19.3422 295.952 19.3477C293.706 19.3644 291.459 19.3533 289.211 19.3533C288.873 19.3533 288.535 19.3496 288.197 19.3514C287.441 19.3533 287.288 19.5084 287.231 20.2802C287.207 20.6163 287.174 20.9579 287.094 21.2847C286.721 22.773 285.657 23.7203 284.141 23.9456C283.377 24.06 282.618 24.0231 281.865 23.8643C281.465 23.7794 281.379 23.6557 281.417 23.2494C281.421 23.2199 281.427 23.1903 281.43 23.1626C281.498 22.6013 281.597 22.5404 282.137 22.6419C282.495 22.7084 282.863 22.749 283.228 22.7583C283.503 22.7656 283.786 22.7269 284.056 22.6659C284.734 22.5127 285.235 22.1157 285.446 21.4435C285.577 21.0281 285.68 20.5812 285.681 20.1491C285.702 17.3904 285.692 14.6318 285.694 11.8731C285.694 11.7106 285.691 11.5462 285.72 11.3893C285.779 11.068 285.929 10.9332 286.251 10.8944C286.366 10.8796 286.486 10.8778 286.601 10.8833C287.068 10.9055 287.224 11.0477 287.277 11.5222C287.301 11.7272 287.294 11.934 287.292 12.1408C287.277 13.8378 287.259 15.5328 287.246 17.2298C287.246 17.3609 287.259 17.4957 287.286 17.6231C287.358 17.9573 287.514 18.1013 287.848 18.1531C287.935 18.166 288.025 18.166 288.113 18.166C290.566 18.1623 293.018 18.1586 295.469 18.1494C295.732 18.1494 295.996 18.1198 296.257 18.0829C297.195 17.9481 297.673 17.4643 297.757 16.5189C297.812 15.8874 297.831 15.2522 297.842 14.6188C297.853 13.9264 297.831 13.2321 297.829 12.5397C297.829 12.0577 297.917 11.9709 298.393 11.9635C298.584 11.9617 298.774 11.9543 298.965 11.9672C299.248 11.9857 299.358 12.0928 299.382 12.3753C299.397 12.536 299.384 12.7003 299.388 12.8609C299.415 14.0852 299.443 15.3076 299.472 16.5318C299.472 16.6057 299.478 16.6795 299.487 16.7515C299.625 17.7228 300.242 18.2915 301.121 18.2638C302.076 18.2325 302.75 17.5899 302.785 16.6094C302.827 15.387 302.829 14.1609 302.84 12.9385C302.844 12.6301 302.805 12.3199 302.807 12.0097C302.813 11.4281 302.994 11.2471 303.575 11.2286C303.692 11.2249 303.81 11.2286 303.925 11.2471C304.206 11.2896 304.348 11.4225 304.392 11.6976C304.416 11.8417 304.407 11.9912 304.405 12.139C304.405 13.3632 304.399 14.5874 304.397 15.8117C304.397 15.9742 304.397 16.1367 304.408 16.2992C304.473 17.276 304.924 17.8281 305.876 18.0183C306.305 18.1032 306.75 18.129 307.187 18.1457C307.609 18.1623 307.695 18.0626 307.739 17.6434C307.962 15.5292 307.857 13.4334 307.416 11.3542C307.394 11.2545 307.372 11.1529 307.367 11.0495C307.343 10.6414 307.433 10.5343 307.842 10.4549C307.899 10.4439 307.958 10.4346 308.015 10.4236C308.665 10.3054 308.856 10.4383 308.983 11.0994C309.234 12.4049 309.365 13.7233 309.379 15.0528C309.394 16.3213 309.354 17.588 309.179 18.8455C309.119 19.2813 309.041 19.3514 308.621 19.3533C307.754 19.3551 306.887 19.3644 306.023 19.3459C305.062 19.3237 304.199 19.0523 303.569 18.2601C303.543 18.2269 303.501 18.2084 303.408 18.1383L303.411 18.1401Z" fill="#837550"/>
<path d="M275.69 11.0237C275.978 11.1696 276.173 11.2656 276.366 11.3671C278.239 12.3421 279.451 13.8341 279.856 15.9317C279.978 16.5522 280.009 17.1892 280.077 17.8189C280.106 18.0977 280.126 18.3765 280.145 18.6553C280.176 19.1336 279.998 19.3459 279.517 19.357C278.944 19.3718 278.371 19.357 277.798 19.357C270.998 19.357 264.198 19.357 257.398 19.357C256.72 19.357 256.045 19.3404 255.387 19.165C253.962 18.7864 252.945 17.9629 252.592 16.4672C252.363 15.4996 252.412 14.5284 252.695 13.5811C253.173 11.9857 254.695 10.8261 256.364 10.7246C257.58 10.6507 258.764 10.8446 259.934 11.14C260.408 11.26 260.54 11.4188 260.569 11.91C260.59 12.2479 260.555 12.5877 260.553 12.9256C260.547 14.3419 260.546 15.7582 260.544 17.1744C260.544 17.2631 260.544 17.3517 260.551 17.4403C260.601 17.9518 260.795 18.1494 261.315 18.1549C262.27 18.166 263.225 18.1549 264.18 18.1549C268.6 18.1568 273.022 18.1494 277.442 18.1715C278.257 18.1752 278.681 17.9093 278.481 16.9602C278.378 16.4709 278.31 15.9687 278.147 15.4996C277.537 13.7436 276.283 12.6468 274.549 12.0725C274.437 12.0356 274.322 12.0097 274.213 11.9654C274.008 11.8805 273.888 11.7272 273.863 11.4964C273.806 11.0034 273.936 10.5916 274.357 10.298C274.417 10.2555 274.478 10.2149 274.54 10.1761C276.086 9.21042 277.633 8.24654 279.175 7.27527C279.447 7.10355 279.708 6.91151 279.965 6.71578C280.301 6.45911 280.468 6.50343 280.611 6.90782C280.815 7.48393 280.657 7.91047 280.103 8.25392C278.802 9.059 277.502 9.86224 276.204 10.6673C276.057 10.7578 275.918 10.8612 275.686 11.0182L275.69 11.0237ZM259.073 15.411C259.073 15.411 259.071 15.411 259.069 15.411C259.069 14.7758 259.076 14.1425 259.065 13.5073C259.06 13.2432 259.027 12.9773 258.981 12.7169C258.922 12.379 258.715 12.163 258.379 12.091C258.193 12.0504 258.002 12.0153 257.815 12.0097C257.389 11.9968 256.963 11.9931 256.537 12.0042C255.464 12.0356 254.625 12.6412 254.254 13.6531C253.979 14.4065 253.914 15.1802 254.116 15.9576C254.412 17.0895 255.11 17.8207 256.293 17.9869C256.944 18.0792 257.606 18.1291 258.263 18.1549C258.911 18.1808 259.075 17.9961 259.073 17.3554C259.073 16.7054 259.073 16.0573 259.073 15.4073V15.411Z" fill="#837550"/>
<path d="M124.772 38.9577H122.936V1.4772H124.715C124.741 1.49936 124.754 1.50675 124.763 1.51783C124.772 1.52891 124.779 1.54368 124.781 1.5566C124.792 1.62862 124.809 1.70248 124.809 1.77449C124.809 14.0907 124.809 26.407 124.807 38.7232C124.807 38.7804 124.79 38.8377 124.772 38.9577Z" fill="#837550"/>
<path d="M154.253 31.0491C154.201 31.1968 154.139 31.3409 154.098 31.4904C153.437 33.9186 152.78 36.3486 152.121 38.7786C152.097 38.8636 152.075 38.9485 152.049 39.0334C151.886 39.5671 151.673 39.7222 151.122 39.7148C150.692 39.7093 150.527 39.5929 150.354 39.1295C149.989 38.1508 149.631 37.1685 149.273 36.1861C148.545 34.1956 147.82 32.2032 147.089 30.2126C146.997 29.9652 146.878 29.7289 146.775 29.4833C146.665 29.2211 146.7 29.1417 146.957 29.0549C147.04 29.0272 147.126 29.0032 147.212 28.9866C147.893 28.8407 148.198 28.9995 148.428 29.6661C149.285 32.157 150.134 34.6517 150.988 37.1463C151.048 37.3217 151.122 37.4934 151.278 37.6689C151.324 37.5525 151.379 37.4399 151.414 37.3199C152.167 34.7477 152.918 32.1773 153.667 29.6051C153.799 29.1527 153.911 29.0327 154.264 29.0253C154.618 29.018 154.767 29.1287 154.886 29.5202C155.086 30.1831 155.279 30.8478 155.472 31.5107C156.005 33.3332 156.533 35.1576 157.07 36.9783C157.128 37.1777 157.132 37.4288 157.442 37.5193C157.499 37.3882 157.567 37.2608 157.611 37.1278C158.418 34.744 159.222 32.3583 160.028 29.9744C160.07 29.8489 160.114 29.7233 160.171 29.6051C160.419 29.0844 161.165 28.8148 161.673 29.0715C161.743 29.1066 161.807 29.2321 161.806 29.3134C161.802 29.4408 161.747 29.5701 161.701 29.6919C160.553 32.8144 159.404 35.9368 158.254 39.0593C158.208 39.183 158.181 39.327 158.098 39.4212C157.999 39.5357 157.852 39.6114 157.723 39.6982C157.701 39.713 157.666 39.7074 157.637 39.7074C156.853 39.7222 156.737 39.7665 156.511 38.9393C155.834 36.4391 155.154 33.9389 154.475 31.4387C154.438 31.3058 154.387 31.1765 154.343 31.0454C154.313 31.0454 154.286 31.0473 154.256 31.0491H154.253Z" fill="#837550"/>
<path d="M240.52 15.9262C240.52 17.2243 240.55 18.5224 240.513 19.8205C240.46 21.7371 239.404 23.0722 237.582 23.6187C237.002 23.7923 236.409 23.9086 235.806 23.8957C234.927 23.8754 234.047 23.8311 233.169 23.7664C232.688 23.7314 232.543 23.5172 232.576 23.0223C232.578 22.9928 232.584 22.9632 232.585 22.9337C232.637 22.3797 232.655 22.3834 233.206 22.4702C234.133 22.6161 235.064 22.7472 236.008 22.6881C236.513 22.6567 236.995 22.5422 237.45 22.3262C238.331 21.907 238.82 21.1961 238.963 20.2396C239.055 19.621 238.825 19.3717 238.195 19.3533C237.477 19.333 236.754 19.3459 236.045 19.2573C235.514 19.1908 234.982 19.032 234.482 18.8344C233.489 18.4411 232.861 17.6933 232.609 16.6445C232.369 15.6363 232.36 14.6188 232.657 13.6273C233.129 12.0559 234.214 11.14 235.806 10.8169C236.669 10.6414 237.531 10.719 238.39 10.8483C238.853 10.9184 239.316 11.0089 239.773 11.1086C240.414 11.2471 240.548 11.4281 240.548 12.078C240.548 13.3614 240.548 14.6447 240.548 15.928C240.539 15.928 240.529 15.928 240.522 15.928L240.52 15.9262ZM238.98 15.1155C238.98 14.4065 238.967 13.6993 238.985 12.9902C238.996 12.5637 238.812 12.2904 238.442 12.1187C237.878 11.8601 237.294 11.7937 236.68 11.9081C234.506 12.3125 233.684 13.9024 234.056 15.9077C234.249 16.9473 235 17.5382 235.955 17.8779C236.657 18.1272 237.387 18.1844 238.126 18.1807C238.741 18.1789 238.934 17.9943 238.976 17.372C238.983 17.2686 238.981 17.1652 238.981 17.0618C238.981 16.4118 238.981 15.7637 238.981 15.1137L238.98 15.1155Z" fill="#837550"/>
<path d="M267.415 39.2144C267.314 38.9836 267.241 38.8303 267.178 38.6733C266.26 36.3911 265.346 34.1088 264.428 31.8265C264.389 31.7305 264.36 31.6271 264.301 31.5458C264.257 31.4849 264.156 31.4092 264.106 31.4239C264.047 31.4406 263.989 31.5458 263.976 31.6197C263.954 31.7489 263.963 31.8837 263.963 32.0167C263.965 34.2731 263.968 36.5314 263.97 38.7878C263.97 38.8912 263.97 38.9946 263.97 39.098C263.957 39.6132 263.842 39.7277 263.344 39.7185C262.902 39.7092 262.777 39.5892 262.777 39.1276C262.773 36.945 262.777 34.7606 262.777 32.578C262.777 31.5606 262.769 30.5432 262.76 29.5239C262.757 29.1324 262.808 29.0715 263.206 29.0401C264.121 28.9662 264.233 29.0438 264.571 29.9116C265.421 32.0942 266.275 34.2731 267.131 36.4538C267.199 36.6256 267.279 36.7936 267.39 37.041C267.492 36.8693 267.562 36.7807 267.603 36.681C268.524 34.3691 269.443 32.0554 270.363 29.7436C270.407 29.6347 270.443 29.522 270.491 29.4149C270.601 29.1583 270.8 29.0309 271.077 29.0235C271.092 29.0235 271.106 29.0198 271.121 29.0216C272.094 29.0586 272.019 29.0456 272.014 29.8803C272.001 32.5799 272.014 35.2795 272.017 37.9791C272.017 38.3613 272.05 38.7472 272.021 39.1276C271.982 39.6446 271.374 39.9419 270.943 39.6631C270.864 39.6114 270.811 39.4729 270.802 39.3695C270.783 39.1645 270.811 38.9577 270.811 38.7509C270.811 36.4797 270.811 34.2066 270.811 31.9354C270.811 31.7674 270.787 31.5994 270.768 31.3335C270.62 31.4516 270.522 31.4923 270.487 31.5643C270.383 31.7748 270.302 31.9964 270.216 32.2161C269.356 34.395 268.499 36.5739 267.637 38.7509C267.586 38.8838 267.518 39.0094 267.419 39.2199L267.415 39.2144Z" fill="#837550"/>
<path d="M222.605 12.0983C222.59 11.7992 222.572 11.5647 222.568 11.332C222.565 11.1234 222.667 11.0089 222.88 10.9831C224.225 10.8206 225.567 10.6876 226.9 11.0588C228.771 11.5795 229.794 12.7816 230.044 14.7149C230.195 15.8948 230.145 17.0673 230 18.2417C229.983 18.3728 229.969 18.5057 229.958 18.6368C229.908 19.2333 229.783 19.357 229.203 19.357C228.321 19.357 227.442 19.3478 226.56 19.3607C226.033 19.3681 225.499 19.3644 224.983 19.4548C224.529 19.5361 224.063 19.682 223.661 19.9036C222.375 20.6089 222.269 22.2246 223.42 23.1386C223.903 23.5227 224.473 23.7111 225.066 23.8422C225.152 23.8606 225.24 23.8699 225.326 23.8791C225.883 23.9419 226.105 24.2742 225.954 24.8245C225.907 24.9981 225.808 25.1107 225.611 25.1033C224.427 25.0498 223.272 24.9094 222.284 24.1524C221.676 23.6871 221.23 23.1073 221.116 22.3428C220.917 20.9948 221.391 19.7152 222.612 18.9563C223.235 18.5704 223.92 18.3414 224.638 18.2657C225.394 18.1863 226.158 18.1844 226.92 18.1586C227.229 18.1475 227.537 18.1808 227.844 18.1604C228.243 18.1346 228.452 17.9278 228.527 17.5326C228.529 17.5179 228.536 17.5031 228.534 17.4902C228.501 16.5632 228.549 15.6252 228.419 14.713C228.198 13.1786 227.084 12.1944 225.339 12.1002C224.579 12.0596 223.813 12.0983 223.049 12.1002C222.921 12.1002 222.792 12.1002 222.603 12.1002L222.605 12.0983Z" fill="#837550"/>
<path d="M292.658 31.3002C292.647 31.4553 292.626 31.6104 292.626 31.7656C292.626 34.1993 292.627 36.633 292.632 39.0667C292.632 39.6428 292.16 39.9419 291.648 39.6686C291.549 39.6151 291.475 39.4784 291.431 39.364C291.396 39.2735 291.42 39.1608 291.42 39.0574C291.424 36.2101 291.427 33.3628 291.427 30.5155C291.427 30.1776 291.403 29.8378 291.394 29.498C291.387 29.1657 291.459 29.0863 291.787 29.0364C292.338 28.9533 292.737 29.138 293.042 29.6328C294.56 32.1053 296.097 34.5649 297.631 37.03C297.754 37.2275 297.888 37.4159 298.06 37.6762C298.115 37.5193 298.163 37.4362 298.17 37.3513C298.185 37.1906 298.178 37.0263 298.178 36.8656C298.178 34.491 298.178 32.1145 298.178 29.7399C298.178 29.0881 298.378 28.9312 299.013 29.0456C299.248 29.0881 299.386 29.2174 299.425 29.4426C299.452 29.6014 299.46 29.7639 299.46 29.9264C299.46 32.3158 299.454 34.707 299.456 37.0964C299.456 37.8037 299.472 38.5127 299.483 39.2199C299.489 39.5486 299.421 39.6594 299.101 39.6963C298.424 39.7739 298.137 39.7148 297.77 39.1073C296.507 37.0152 295.234 34.9268 293.952 32.8439C293.692 32.4192 293.387 32.0185 293.095 31.6141C293.003 31.4867 292.88 31.3833 292.772 31.2688C292.733 31.2799 292.694 31.291 292.656 31.3021L292.658 31.3002Z" fill="#837550"/>
<path d="M223.264 34.4467C223.264 35.9516 223.264 37.4565 223.264 38.9614C223.264 39.0944 223.27 39.2273 223.259 39.3603C223.235 39.6335 223.185 39.6834 222.906 39.7056C222.759 39.7166 222.612 39.7129 222.465 39.7148C222.096 39.7185 221.881 39.5024 221.701 39.207C220.941 37.9458 220.175 36.6865 219.404 35.4327C218.594 34.1162 217.773 32.8051 216.954 31.4941C216.866 31.3538 216.815 31.1119 216.595 31.1728C216.367 31.2356 216.457 31.472 216.455 31.6345C216.45 34.0238 216.451 36.4151 216.451 38.8045C216.451 38.9226 216.455 39.0408 216.451 39.159C216.433 39.5745 216.295 39.7129 215.889 39.724C215.388 39.7388 215.265 39.6243 215.265 39.1091C215.265 36.188 215.271 33.2668 215.271 30.3456C215.271 30.0815 215.238 29.8175 215.214 29.5553C215.182 29.2284 215.28 29.101 215.608 29.0456C216.235 28.9404 216.551 29.0844 216.896 29.6439C218.413 32.0998 219.929 34.5556 221.446 37.0115C221.501 37.0983 221.54 37.2072 221.615 37.2682C221.694 37.3328 221.813 37.39 221.907 37.3808C221.966 37.3734 222.032 37.2405 222.052 37.1537C222.078 37.041 222.061 36.9192 222.061 36.801C222.058 34.4707 222.052 32.1386 222.049 29.8083C222.049 29.7048 222.043 29.6014 222.049 29.498C222.071 29.1749 222.162 29.0826 222.476 29.0586C222.52 29.0549 222.565 29.0567 222.609 29.0549C223.187 29.0493 223.27 29.1306 223.27 29.7159C223.27 31.2947 223.27 32.8735 223.27 34.4522H223.266L223.264 34.4467Z" fill="#837550"/>
<path d="M250.712 34.4301C250.754 33.7303 250.844 33.0489 251.024 32.3731C251.494 30.6097 252.644 29.535 254.361 29.0623C256.096 28.584 257.738 28.9072 259.267 29.8156C259.919 30.2034 260.382 30.7888 260.643 31.496C261.309 33.3019 261.388 35.1355 260.663 36.9358C260.006 38.5626 258.794 39.6114 257.055 39.9253C255.347 40.2337 253.779 39.8145 252.425 38.7306C251.551 38.0308 251.105 37.0466 250.892 35.9645C250.793 35.4604 250.771 34.9416 250.714 34.4301H250.712ZM259.897 34.3359C259.855 33.9408 259.835 33.5419 259.767 33.1523C259.651 32.4783 259.442 31.832 259.054 31.2652C258.268 30.1111 257.189 29.439 255.78 29.5682C254.241 29.7086 253.108 30.5413 252.539 32.0019C251.917 33.5955 251.911 35.2315 252.504 36.8416C253.059 38.3521 254.497 39.3215 256.063 39.2273C257.473 39.1424 258.531 38.437 259.209 37.1925C259.69 36.308 259.87 35.3423 259.897 34.3359Z" fill="#837550"/>
<path d="M187.937 28.9108C188.423 28.981 189.027 29.0179 189.606 29.1638C191.198 29.5663 192.263 30.5801 192.726 32.1625C193.17 33.6841 193.152 35.2241 192.658 36.7345C192.081 38.5035 190.816 39.484 189.016 39.7979C188.082 39.9604 187.147 39.9456 186.221 39.7185C184.488 39.2938 183.359 38.2136 182.865 36.5C182.464 35.1133 182.453 33.7025 182.844 32.3103C183.364 30.4656 184.609 29.4057 186.466 29.0622C186.91 28.9791 187.367 28.9681 187.938 28.9108H187.937ZM183.924 34.9064C183.963 35.1945 183.99 35.7743 184.121 36.3301C184.501 37.9384 185.873 39.0962 187.511 39.2236C188.785 39.3233 190.445 38.7084 191.189 36.873C191.646 35.7429 191.854 34.5833 191.644 33.3702C191.506 32.5651 191.27 31.7914 190.809 31.1082C189.969 29.8655 188.271 29.2155 186.897 29.642C185.68 30.0206 184.888 30.8811 184.391 32.0277C184.033 32.8531 183.946 33.7321 183.926 34.9083L183.924 34.9064Z" fill="#837550"/>
<path d="M204.075 29.0253C204.712 29.0733 205.487 29.053 206.229 29.2007C208.305 29.6162 209.534 30.9716 210.006 32.9916C210.388 34.624 210.057 36.1861 209.225 37.6282C208.607 38.7011 207.633 39.2956 206.442 39.532C206.027 39.6151 205.599 39.6446 205.176 39.6779C204.519 39.7296 203.861 39.7739 203.202 39.8034C203.017 39.8108 202.822 39.7757 202.644 39.7203C202.372 39.6391 202.185 39.4452 202.143 39.159C202.104 38.9005 202.089 38.6346 202.099 38.3724C202.121 37.7852 202.192 37.198 202.194 36.6108C202.203 34.3562 202.192 32.1016 202.187 29.847C202.187 29.8027 202.187 29.7584 202.187 29.7141C202.205 29.1177 202.334 29.005 202.938 29.0235C203.274 29.0346 203.612 29.0235 204.075 29.0235V29.0253ZM203.461 34.5224C203.461 34.5224 203.478 34.5224 203.485 34.5224C203.485 35.8186 203.485 37.1149 203.485 38.4111C203.485 38.4555 203.483 38.4998 203.485 38.5441C203.505 38.8654 203.588 38.978 203.907 39.0796C204.306 39.2051 204.714 39.1996 205.125 39.159C206.711 39.0039 208.043 37.9421 208.507 36.4114C208.893 35.1428 208.928 33.8558 208.557 32.5799C207.949 30.4915 206.396 29.6365 204.438 29.7529C203.584 29.8046 203.443 30.0095 203.456 30.8571C203.474 32.0795 203.459 33.3018 203.459 34.5242L203.461 34.5224Z" fill="#837550"/>
<path d="M173.06 34.4393C173.06 32.9048 173.06 31.3704 173.06 29.8359C173.06 29.7178 173.055 29.5996 173.068 29.4814C173.09 29.2986 173.202 29.1823 173.38 29.1601C173.525 29.1416 173.674 29.1398 173.819 29.1601C174.115 29.1989 174.228 29.3189 174.234 29.6273C174.245 30.0852 174.236 30.5413 174.234 30.9992C174.234 31.6935 174.227 32.386 174.228 33.0803C174.228 33.6324 174.418 33.8299 174.968 33.8318C176.335 33.8392 177.699 33.8373 179.065 33.8318C179.633 33.8299 179.84 33.625 179.842 33.0581C179.848 31.952 179.838 30.8441 179.842 29.7381C179.842 29.2783 180.004 29.1324 180.459 29.1453C180.834 29.1546 180.981 29.282 180.993 29.6938C181.008 30.1646 180.973 30.6373 180.971 31.1082C180.968 32.687 180.964 34.2657 180.971 35.8445C180.977 36.9358 181.001 38.0271 181.015 39.1184C181.019 39.3252 181.056 39.5966 180.821 39.6538C180.564 39.7166 180.268 39.6963 180.007 39.6372C179.809 39.5911 179.838 39.3547 179.838 39.1774C179.838 37.9827 179.84 36.7881 179.842 35.5915C179.842 35.4881 179.848 35.3847 179.842 35.2813C179.82 34.8012 179.629 34.587 179.153 34.5279C178.994 34.5076 178.832 34.5205 178.67 34.5205C177.541 34.5205 176.41 34.5224 175.281 34.5242C175.207 34.5242 175.134 34.5168 175.06 34.5205C174.441 34.5408 174.219 34.768 174.219 35.3958C174.219 36.5314 174.227 37.6688 174.23 38.8044C174.23 38.8931 174.234 38.9817 174.23 39.0703C174.217 39.628 173.817 39.8957 173.303 39.6852C173.117 39.6095 173.048 39.4581 173.051 39.2605C173.059 38.9503 173.06 38.6401 173.06 38.3317C173.06 37.0336 173.06 35.7355 173.06 34.4374C173.057 34.4374 173.055 34.4374 173.051 34.4374L173.06 34.4393Z" fill="#837550"/>
<path d="M290.269 39.5947C289.642 39.8588 289.139 39.6908 288.871 39.1442C288.801 39.0002 288.757 38.8414 288.702 38.6881C288.401 37.8424 288.111 36.993 287.795 36.1528C287.63 35.7097 287.338 35.549 286.888 35.6783C286.227 35.8685 285.562 36.0624 284.929 36.3301C283.746 36.8305 282.986 37.7224 282.692 38.9946C282.679 39.0519 282.662 39.1091 282.646 39.1664C282.512 39.6686 282.022 39.892 281.542 39.676C281.397 39.6095 281.348 39.495 281.375 39.3529C281.406 39.1959 281.454 39.0389 281.509 38.8894C282.613 35.8906 283.718 32.8938 284.824 29.895C284.859 29.799 284.894 29.7011 284.936 29.607C285.127 29.162 285.378 28.9828 285.806 28.9958C286.219 29.0087 286.486 29.2173 286.627 29.6107C286.945 30.497 287.274 31.3815 287.599 32.2659C288.438 34.5464 289.277 36.8268 290.114 39.1073C290.173 39.2679 290.217 39.4359 290.265 39.5966L290.269 39.5947ZM283.876 35.8833C284.543 35.6931 285.085 35.5195 285.637 35.3847C286.186 35.2499 286.743 35.1539 287.294 35.0412C287.213 34.4836 285.893 31.1156 285.637 30.8441C285.05 32.5097 284.46 34.1457 283.878 35.8833H283.876Z" fill="#837550"/>
<path d="M146.509 39.5763C145.807 39.8865 145.275 39.6594 145.042 38.9946C144.726 38.0917 144.406 37.1924 144.074 36.295C143.835 35.6506 143.587 35.514 142.922 35.7282C142.199 35.9627 141.49 36.2452 140.781 36.524C139.927 36.8601 139.419 37.5156 139.149 38.3779C139.066 38.6438 138.996 38.9189 138.881 39.1719C138.629 39.7259 138.128 39.8717 137.529 39.556C137.571 39.4267 137.612 39.2882 137.661 39.1534C138.813 36.0014 139.964 32.8476 141.115 29.6956C141.327 29.1176 141.589 28.9496 142.135 29.0124C142.423 29.0456 142.63 29.1841 142.755 29.4426C142.825 29.5885 142.886 29.7381 142.943 29.8913C144.076 32.9565 145.207 36.0236 146.338 39.0888C146.399 39.2513 146.452 39.4156 146.507 39.5763H146.509ZM140.109 35.8076C140.313 35.7817 140.429 35.7817 140.535 35.7503C141.378 35.501 142.219 35.2518 143.097 35.1428C143.462 35.0966 143.547 34.9415 143.413 34.5852C142.97 33.4163 142.517 32.2512 142.061 31.086C142.034 31.0159 141.964 30.9642 141.863 30.8423C141.273 32.5115 140.706 34.1125 140.107 35.8076H140.109Z" fill="#837550"/>
<path d="M233.843 37.0706C233.818 37.5175 233.796 38.0917 233.75 38.6641C233.709 39.1682 233.408 39.4711 232.929 39.5782C231.895 39.8108 230.848 39.9622 229.787 39.8533C229.35 39.809 228.911 39.7462 228.489 39.6317C226.797 39.1775 225.71 38.0862 225.268 36.3892C224.937 35.1262 224.935 33.8374 225.308 32.5854C225.945 30.4453 227.402 29.1712 229.589 28.8185C230.977 28.5951 232.27 28.9644 233.434 29.7603C233.592 29.8674 233.774 29.9892 233.702 30.2182C233.625 30.4656 233.46 30.6614 233.21 30.7481C233.144 30.7703 233.039 30.7241 232.969 30.6798C232.859 30.6097 232.764 30.5136 232.663 30.4287C230.843 28.9109 228.307 29.3706 227.106 31.4332C226.687 32.1515 226.529 32.9363 226.463 33.7543C226.386 34.7218 226.437 35.6728 226.764 36.5905C227.471 38.5792 229.073 39.4212 231.045 39.207C231.35 39.1738 231.654 39.111 231.954 39.039C232.453 38.919 232.585 38.7657 232.598 38.2394C232.615 37.4731 232.608 36.705 232.609 35.9387C232.609 35.8205 232.602 35.7023 232.608 35.5842C232.611 35.5121 232.619 35.4346 232.644 35.3681C232.72 35.1632 233.12 35.0727 233.562 35.1539C233.785 35.1945 233.845 35.2795 233.847 35.5712C233.849 36.0292 233.847 36.4853 233.847 37.0706H233.843Z" fill="#837550"/>
<path d="M245.919 39.8884C245.412 39.8182 244.894 39.7923 244.399 39.6705C242.551 39.2125 241.442 38.0086 241.016 36.1621C240.731 34.9323 240.779 33.6896 241.117 32.4857C241.64 30.6226 242.935 29.4925 244.753 28.9829C246.286 28.5526 247.746 28.7779 249.081 29.6864C249.118 29.7104 249.155 29.7362 249.19 29.7621C249.518 30.0058 249.546 30.124 249.348 30.412C249.127 30.7315 248.903 30.7924 248.606 30.6041C248.457 30.5099 248.325 30.3899 248.178 30.2939C247.177 29.6291 246.114 29.3189 244.924 29.7067C244.088 29.9781 243.438 30.5044 243.02 31.2596C242.149 32.8328 241.923 34.5058 242.412 36.2526C242.581 36.8545 242.898 37.3882 243.289 37.8738C244.586 39.484 246.834 39.7129 248.428 38.3964C248.507 38.3317 248.58 38.2597 248.659 38.1914C248.933 37.9569 249.012 37.9532 249.206 38.1656C249.471 38.4518 249.498 38.7343 249.281 38.9411C249.228 38.9909 249.168 39.0334 249.105 39.074C248.227 39.6354 247.28 39.9382 246.229 39.8607C246.127 39.8533 246.024 39.8607 245.921 39.8607C245.921 39.8699 245.917 39.8791 245.915 39.8884H245.919Z" fill="#837550"/>
<path d="M274.054 34.3728C274.054 32.735 274.052 31.099 274.056 29.4611C274.056 29.1066 274.12 29.0364 274.465 29.0364C275.536 29.0364 276.608 29.0179 277.675 29.0715C278.119 29.0936 278.575 29.2229 278.99 29.3928C279.893 29.7639 280.398 30.4859 280.512 31.4516C280.628 32.434 280.242 33.2188 279.445 33.7782C278.577 34.3876 277.589 34.5464 276.549 34.4596C276.432 34.4504 276.316 34.4208 276.2 34.4171C275.589 34.3913 275.256 34.6849 275.238 35.3016C275.223 35.802 275.236 36.3043 275.244 36.8065C275.256 37.5285 275.269 38.2523 275.297 38.9743C275.324 39.7222 274.972 39.7886 274.329 39.6982C274.103 39.6668 274.068 39.4433 274.068 39.2421C274.068 38.8285 274.074 38.4167 274.076 38.0031C274.076 36.7936 274.076 35.586 274.076 34.3765C274.068 34.3765 274.061 34.3765 274.054 34.3765V34.3728ZM276.538 29.5239C276.452 29.5294 276.276 29.5294 276.101 29.5516C275.986 29.5663 275.872 29.5996 275.761 29.6402C275.323 29.7953 275.126 30.0926 275.183 30.5561C275.275 31.3058 275.266 32.0518 275.17 32.7996C275.089 33.4403 275.279 33.697 275.901 33.8373C276.801 34.0423 277.662 33.8576 278.463 33.4736C279.166 33.1357 279.515 32.5042 279.517 31.7175C279.517 30.9254 279.153 30.3382 278.444 29.98C277.873 29.6919 277.271 29.5276 276.538 29.5239Z" fill="#837550"/>
<path d="M213.148 12.9994C213.148 11.1862 213.148 9.3729 213.148 7.55962C213.148 6.78039 213.324 6.62529 214.095 6.71392C214.486 6.75824 214.622 6.86903 214.659 7.25864C214.69 7.57993 214.676 7.90677 214.676 8.22991C214.676 10.5436 214.676 12.8573 214.676 15.1709C214.676 16.3361 214.688 17.4994 214.681 18.6645C214.677 19.2019 214.496 19.3625 213.948 19.3625C213.831 19.3625 213.712 19.3625 213.598 19.3441C213.32 19.3016 213.183 19.1576 213.155 18.8787C213.14 18.7329 213.146 18.5851 213.146 18.4374C213.146 16.6241 213.146 14.8109 213.146 12.9976L213.148 12.9994Z" fill="#837550"/>
<path d="M243.91 13.0308C243.91 11.2323 243.91 9.43383 243.91 7.63718C243.91 7.50423 243.905 7.37128 243.919 7.24018C243.929 7.15524 243.947 7.05922 243.995 6.99274C244.213 6.68992 244.533 6.749 244.838 6.77855C245.117 6.80625 245.374 6.89119 245.405 7.22356C245.433 7.50053 245.425 7.78121 245.425 8.06003C245.425 9.75328 245.425 11.4484 245.425 13.1416C245.425 13.8488 245.414 14.5561 245.416 15.2633C245.42 16.2068 245.431 17.1486 245.438 18.0921C245.438 18.3137 245.453 18.5353 245.433 18.755C245.398 19.1705 245.232 19.3256 244.821 19.3625C244.762 19.3681 244.703 19.3718 244.645 19.3736C244.074 19.3828 243.912 19.2296 243.912 18.6479C243.908 16.7756 243.912 14.905 243.912 13.0327L243.91 13.0308Z" fill="#837550"/>
<path d="M194.638 34.3784C194.638 32.8458 194.638 31.3132 194.638 29.7787C194.638 29.7344 194.638 29.6901 194.638 29.6458C194.649 29.0918 194.999 28.8518 195.512 29.066C195.605 29.1047 195.699 29.2118 195.737 29.3097C195.789 29.4426 195.807 29.5977 195.807 29.7436C195.798 32.4266 195.783 35.1077 195.769 37.7907C195.769 38.0271 195.752 38.2634 195.771 38.4979C195.807 38.9448 195.936 39.0759 196.378 39.0722C197.64 39.0593 198.901 39.0297 200.163 39.0057C200.295 39.0039 200.427 38.9836 200.558 38.9928C200.806 39.0113 200.92 39.1294 200.927 39.3436C200.934 39.5578 200.819 39.6797 200.574 39.7056C200.488 39.7148 200.398 39.7092 200.31 39.7092C198.608 39.7092 196.905 39.7129 195.203 39.7111C194.709 39.7111 194.638 39.6428 194.636 39.1516C194.632 37.5599 194.636 35.9682 194.636 34.3765L194.638 34.3784Z" fill="#837550"/>
<path d="M162.211 42.2519C162.331 42.1393 162.435 41.9971 162.573 41.9158C163.899 41.1458 164.481 39.9401 164.503 38.4592C164.545 35.7743 164.538 33.0895 164.549 30.4047C164.549 30.1388 164.514 29.8747 164.516 29.6088C164.52 29.2063 164.672 29.053 165.072 29.0272C165.16 29.0216 165.249 29.0235 165.337 29.0309C165.728 29.0641 165.801 29.1675 165.79 29.5719C165.763 30.5579 165.739 31.544 165.732 32.5319C165.713 34.5963 165.73 36.6625 165.689 38.7269C165.66 40.2466 164.951 41.3656 163.561 42.0174C163.363 42.1116 163.168 42.2242 162.959 42.2851C162.742 42.3498 162.511 42.3627 162.287 42.3978C162.263 42.3479 162.237 42.2981 162.213 42.2482L162.211 42.2519Z" fill="#837550"/>
<path d="M211.984 34.4098C211.984 32.8919 211.984 31.3759 211.984 29.8581C211.984 29.8286 211.984 29.799 211.984 29.7695C211.996 29.2081 212.459 28.9367 212.944 29.2284C213.052 29.2949 213.129 29.4445 213.177 29.5737C213.216 29.6772 213.194 29.8064 213.194 29.9246C213.194 32.9141 213.192 35.9054 213.19 38.8949C213.19 38.9836 213.192 39.0722 213.188 39.1608C213.166 39.556 213.01 39.7056 212.61 39.7185C212.132 39.7333 211.996 39.6188 211.995 39.1387C211.989 38.0492 212 36.9579 212.002 35.8685C212.002 35.3829 212.002 34.8972 212.002 34.4098C211.996 34.4098 211.989 34.4098 211.984 34.4098Z" fill="#837550"/>
<path d="M245.247 1.93883C245.464 1.96837 245.684 1.9813 245.895 2.033C246.191 2.10501 246.274 2.23796 246.231 2.50017C246.18 2.80854 246.015 2.95072 245.726 2.93225C245.508 2.91748 245.287 2.8787 245.071 2.88794C244.757 2.90086 244.512 3.04674 244.377 3.34772C244.18 3.78719 244.314 4.18788 244.76 4.3633C245.166 4.52395 245.579 4.67167 246.04 4.57565C246.373 4.50733 246.503 4.62181 246.521 4.91171C246.545 5.29209 246.415 5.46936 246.075 5.46936C245.416 5.46936 244.757 5.45643 244.099 5.44905C243.673 5.44536 243.249 5.44905 242.823 5.43982C242.516 5.43243 242.417 5.33641 242.397 5.05759C242.375 4.74737 242.458 4.64766 242.783 4.59596C242.854 4.58488 242.93 4.58119 243.001 4.56641C243.19 4.52948 243.271 4.41869 243.249 4.21927C243.233 4.05862 243.222 3.89428 243.24 3.73548C243.374 2.57034 244.068 1.95545 245.247 1.93329V1.93883Z" fill="#837550"/>
<path d="M159.877 7.08507C160.478 7.09984 160.834 7.4156 160.834 7.94001C160.834 8.49212 160.456 8.83372 159.859 8.81895C159.295 8.80602 158.946 8.44965 158.965 7.90677C158.983 7.3602 159.303 7.07215 159.876 7.08507H159.877Z" fill="#837550"/>
<path d="M173.639 22.9872C173.051 22.9872 172.77 22.7121 172.763 22.1323C172.756 21.5359 173.057 21.2312 173.648 21.2367C174.227 21.2404 174.541 21.5636 174.535 22.1471C174.53 22.701 174.223 22.9872 173.639 22.9872Z" fill="#837550"/>
<path d="M227.495 22.9872C226.933 22.9872 226.647 22.7066 226.641 22.16C226.637 21.5506 226.924 21.2497 227.51 21.2441C228.096 21.2386 228.432 21.5396 228.433 22.0658C228.433 22.6475 228.088 22.9891 227.495 22.9872Z" fill="#837550"/>
<path d="M140.177 7.3325C140.732 7.32327 141.081 7.64087 141.095 8.16528C141.112 8.71924 140.768 9.10516 140.238 9.12731C139.744 9.14763 139.318 8.75801 139.309 8.27423C139.299 7.71104 139.641 7.33989 140.175 7.33066L140.177 7.3325Z" fill="#837550"/>
<path d="M198.228 8.23174C198.222 8.83186 197.948 9.11437 197.381 9.10514C196.784 9.09591 196.474 8.78939 196.483 8.21697C196.492 7.64824 196.819 7.33618 197.399 7.33988C197.963 7.34357 198.233 7.63347 198.226 8.23174H198.228Z" fill="#837550"/>
<path d="M195.565 8.22807C195.563 8.8208 195.273 9.12548 194.722 9.11624C194.167 9.10701 193.839 8.78387 193.837 8.24469C193.835 7.67227 194.164 7.33621 194.729 7.33436C195.284 7.33251 195.567 7.63534 195.565 8.22807Z" fill="#837550"/>
<path d="M304.866 9.107C304.318 9.11439 304.056 8.82633 304.038 8.20036C304.023 7.6501 304.318 7.33804 304.858 7.33804C305.435 7.33804 305.742 7.63164 305.745 8.19298C305.751 8.78386 305.446 9.09962 304.864 9.107H304.866Z" fill="#837550"/>
<path d="M301.373 8.18742C301.377 7.615 301.645 7.34726 302.208 7.34726C302.781 7.34726 303.083 7.64639 303.083 8.21512C303.083 8.79862 302.767 9.11068 302.179 9.10699C301.623 9.10329 301.367 8.81154 301.373 8.18742Z" fill="#837550"/>
<path d="M254.66 8.19298C254.666 7.61133 254.932 7.33436 255.483 7.33805C256.032 7.34174 256.368 7.67227 256.37 8.21145C256.372 8.77464 256.032 9.10701 255.457 9.10701C254.897 9.10701 254.653 8.82634 254.66 8.19114V8.19298Z" fill="#837550"/>
<path d="M142.008 8.24467C142.002 7.65194 142.305 7.33618 142.887 7.33618C143.407 7.33618 143.747 7.6981 143.736 8.24467C143.727 8.75615 143.411 9.09406 142.933 9.10329C142.333 9.11622 142.015 8.81893 142.008 8.24467Z" fill="#837550"/>
<path d="M258.109 9.10883C257.558 9.10329 257.271 8.78569 257.286 8.1985C257.299 7.65009 257.626 7.33064 258.177 7.3251C258.647 7.32141 259.029 7.71471 259.025 8.20404C259.021 8.75061 258.656 9.11252 258.109 9.10698V9.10883Z" fill="#837550"/>
<path d="M304.396 6.04547C304.396 6.57542 304.041 6.92995 303.507 6.93549C303.037 6.94103 302.719 6.65666 302.715 6.23012C302.712 5.60046 303.015 5.233 303.529 5.24224C304.041 5.25147 304.396 5.58015 304.396 6.04731V6.04547Z" fill="#837550"/>
</g>
<defs>
<clipPath id="clip0_260_4003">
<rect width="314" height="42.4015" fill="white"/>
</clipPath>
</defs>
</svg>
