<svg width="22" height="23" viewBox="0 0 22 23" fill="none" xmlns="http://www.w3.org/2000/svg">
<path d="M9.99972 2.09022C10.6896 1.50036 11.8193 1.50036 12.5191 2.09022L14.0987 3.44989C14.3987 3.70983 14.9585 3.91978 15.3584 3.91978H17.058C18.1178 3.91978 18.9876 4.78957 18.9876 5.84931V7.5489C18.9876 7.93881 19.1975 8.50867 19.4574 8.8086L20.8171 10.3882C21.407 11.078 21.407 12.2078 20.8171 12.9076L19.4574 14.4872C19.1975 14.7872 18.9876 15.347 18.9876 15.7469V17.4465C18.9876 18.5063 18.1178 19.376 17.058 19.376H15.3584C14.9685 19.376 14.3987 19.586 14.0987 19.8459L12.5191 21.2056C11.8293 21.7955 10.6996 21.7955 9.99972 21.2056L8.42011 19.8459C8.12018 19.586 7.56031 19.376 7.16041 19.376H5.43083C4.37108 19.376 3.50129 18.5063 3.50129 17.4465V15.7369C3.50129 15.347 3.29134 14.7872 3.0414 14.4872L1.69173 12.8976C1.11187 12.2078 1.11187 11.088 1.69173 10.3982L3.0414 8.8086C3.29134 8.50867 3.50129 7.9488 3.50129 7.5589V5.83931C3.50129 4.77957 4.37108 3.90978 5.43083 3.90978H7.16041C7.55032 3.90978 8.12018 3.69983 8.42011 3.43989L9.99972 2.09022Z" stroke="#AEA07A" stroke-width="1.5" stroke-linecap="round" stroke-linejoin="round"/>
</svg>
