<svg width="1047" height="256" viewBox="0 0 1047 256" fill="none" xmlns="http://www.w3.org/2000/svg">
<g opacity="0.2">
<path d="M-14.5671 514.16C-10.7211 515.027 -6.96166 515.255 -3.2893 514.696C7.2544 513.1 16.3283 505.343 24.4498 490.974C35.6925 471.084 39.1633 446.707 42.8322 420.896L42.8563 420.789C47.5612 387.633 52.4338 353.353 74.4577 325.337C113.018 276.275 164.792 262.847 214.869 249.86L218.102 249.025C251.711 240.299 285.798 241.901 318.767 243.448C342.188 244.552 366.378 245.697 390.693 243.246C396.263 242.681 401.609 241.846 406.784 241.04L406.983 241.005C426.09 238.014 444.143 235.187 467.101 247.363C476.025 252.096 484.024 256.745 491.077 260.845C519.526 277.369 536.682 287.332 566.722 278.501C599.958 268.708 637.525 247.704 673.855 227.385L673.954 227.328C699.573 213.004 723.764 199.48 744.912 190.75C779.892 176.325 808.554 194.39 836.283 211.854C846.524 218.304 856.187 224.391 866.102 228.833C895.091 241.789 908.091 217.297 921.852 191.366L922.802 189.586C923.912 187.506 925.057 185.355 926.2 183.275C945.552 147.957 966.938 118.2 986.412 99.4993C992.832 93.3486 1001.92 87.5943 1010.7 82.0296L1011.01 81.835C1027.73 71.2751 1045.03 60.3616 1046.57 45.8754C1047.5 37.2969 1042.91 28.1346 1032.56 17.8645C1029.47 14.7844 1025.74 11.1846 1022.5 8.05017C1016.95 2.67853 1010.65 -3.4025 1006.5 -7.77978C983.3 -32.2231 971.766 -60.5786 972.206 -92.0429C972.594 -119.65 982.182 -149.711 1000.7 -181.381C1005.29 -189.207 1011 -198.113 1018.54 -204.849C1018.96 -205.229 1019.42 -205.602 1019.86 -205.976C1020.27 -206.307 1020.67 -206.646 1021.05 -206.981L1020.63 -207.467C1020.25 -207.13 1019.85 -206.804 1019.45 -206.471C1019 -206.092 1018.54 -205.713 1018.11 -205.329C1010.5 -198.529 1004.76 -189.571 1000.14 -181.706C981.565 -149.936 971.949 -119.776 971.561 -92.0561C971.121 -60.4138 982.714 -31.9064 1006.03 -7.3363C1010.2 -2.94989 1016.5 3.13879 1022.06 8.51187C1025.3 11.6463 1029.03 15.2461 1032.11 18.3185C1042.32 28.4386 1046.85 37.4275 1045.94 45.7993C1044.43 59.9755 1027.27 70.8077 1010.68 81.2849L1010.37 81.4795C1001.56 87.0573 992.44 92.8311 985.976 99.0313C966.452 117.78 945.028 147.588 925.644 182.959C924.5 185.044 923.354 187.195 922.243 189.282L921.293 191.061C907.679 216.722 894.809 240.959 866.379 228.248C856.506 223.823 846.86 217.752 836.648 211.316C808.776 193.76 779.967 175.61 744.682 190.156C723.498 198.899 699.292 212.433 673.658 226.766L673.559 226.823C637.26 247.123 599.722 268.113 566.558 277.883C536.785 286.643 519.718 276.726 491.443 260.307C484.355 256.186 476.35 251.535 467.413 246.799C444.261 234.52 426.111 237.365 406.888 240.37L406.689 240.404C401.528 241.208 396.189 242.043 390.633 242.606C366.366 245.048 342.201 243.908 318.821 242.8C285.787 241.245 251.648 239.644 217.947 248.396L214.728 249.228C164.539 262.242 112.652 275.698 73.9607 324.935C51.8273 353.084 46.9412 387.454 42.218 420.691L42.1939 420.798C38.5391 446.546 35.0796 470.873 23.8953 490.651C15.8743 504.838 6.94959 512.49 -3.38232 514.055C-24.2223 517.204 -48.491 494.591 -71.9625 472.72C-79.5139 465.676 -88.0828 457.696 -96.2327 450.992C-138.879 415.956 -138.948 394.391 -122.65 356.331C-121.882 354.537 -121.104 352.758 -120.335 350.99L-120.174 350.624C-112.281 332.586 -104.821 315.559 -107.786 288.034C-110.016 267.263 -118.167 248.649 -126.054 230.649C-142.536 193.044 -158.088 157.551 -113.001 110.766C-61.5513 57.3757 30.5308 33.517 122.376 15.6852C154.169 9.50736 190.693 2.75953 221.892 0.857613C241.244 -0.322838 261.378 0.567634 282.688 1.51224C307.504 2.60725 333.157 3.7392 358.461 1.53101C407.424 -2.74124 433.495 10.8568 476.69 33.3876L476.926 33.5134C481.079 35.6847 485.369 37.92 489.866 40.235C513.3 52.3205 537.339 54.0786 561.312 45.4438C585.103 36.8803 607.461 18.5989 627.771 -8.90496C634.663 -18.2304 641.289 -28.6324 647.475 -39.8071C669.785 -80.1296 665.346 -119.303 661.045 -157.184L661.032 -157.299C659.628 -169.611 658.182 -182.349 657.789 -194.631C657.373 -207.691 657.358 -222.351 662.43 -231.076C671.392 -246.477 696.811 -244.104 723.719 -241.593L723.782 -241.579C740.86 -239.998 758.46 -238.358 772.574 -241.315C807.521 -248.656 840.912 -271.988 864.195 -305.324L863.665 -305.695C840.476 -272.489 807.22 -249.252 772.439 -241.946C758.422 -239.007 740.873 -240.642 723.907 -242.224L723.777 -242.234C696.657 -244.766 671.037 -247.158 661.869 -231.401C656.711 -222.529 656.729 -207.764 657.144 -194.612C657.538 -182.303 658.989 -169.557 660.389 -157.233L660.402 -157.144C664.686 -119.333 669.121 -80.2596 646.906 -40.1268C640.738 -28.9744 634.118 -18.5975 627.245 -9.29437C586.571 45.7739 536.601 63.6169 490.15 39.6519C485.651 37.3432 481.362 35.1017 477.209 32.9304L477.026 32.8362C433.676 10.2308 407.54 -3.40164 358.388 0.887458C333.125 3.09159 307.492 1.95759 282.701 0.868232C261.371 -0.0743335 241.224 -0.967644 221.831 0.216866C190.599 2.12425 154.048 8.87266 122.235 15.0525C30.2916 32.9084 -61.9051 56.8073 -113.482 110.321C-158.871 157.42 -143.23 193.106 -126.676 230.885C-118.798 248.87 -110.662 267.434 -108.444 288.11C-105.499 315.459 -112.923 332.415 -120.776 350.369L-120.938 350.736C-121.715 352.508 -122.492 354.287 -123.26 356.081C-139.695 394.454 -139.626 416.196 -96.6569 451.497C-88.5167 458.185 -79.9606 466.163 -72.4141 473.199C-52.9265 491.36 -32.8817 510.035 -14.5812 514.163L-14.5671 514.16Z" fill="url(#paint0_linear_222_3500)"/>
<path d="M-18.3251 496.827C-14.812 497.62 -11.3664 497.862 -8.0111 497.45C1.4203 496.277 9.42017 490.119 16.449 478.633C29.1541 457.851 32.2195 432.841 35.1804 408.647C37.8557 386.89 40.3762 366.345 49.5389 349.762C90.3571 275.931 151.433 259.622 210.505 243.852L212.854 243.22C215.033 242.635 217.218 242.052 219.391 241.466C252.062 232.654 281.928 233.759 313.543 234.929C332.74 235.641 352.565 236.376 373.439 234.746C382.992 233.997 392.392 231.647 401.485 229.367L401.884 229.266C406.937 228.003 412.16 226.692 417.395 225.674C449.65 219.383 468.173 233.18 487.777 247.781C496.285 254.124 505.066 260.666 515.402 265.995C520.266 268.498 525.229 270.271 530.262 271.407C561.415 278.433 595.232 261.258 625.581 245.849C632.272 242.446 638.596 239.238 644.893 236.268C663.799 227.315 682.7 215.754 699.378 205.553L699.531 205.462C716.63 195.006 731.393 185.977 743.457 181.153C774.103 168.874 800.098 182.137 827.607 196.179L828.377 196.57C833.874 199.375 839.56 202.275 845.252 204.912C888.93 225.155 908.054 195.034 932.263 156.895C935.535 151.725 939.235 145.892 943.026 140.184C949.185 130.912 957.353 120.818 966.006 110.127L966.527 109.485C988.716 82.1412 1013.86 51.1465 1008.63 28.3515C1003.96 8.04166 993.507 -6.29285 983.398 -20.1526C973.83 -33.2765 964.827 -45.6259 961.654 -61.7172C954.076 -100.238 977.238 -163.105 996.102 -195.438C1000.96 -203.751 1007.32 -211.228 1015.55 -218.304L1015.13 -218.794C1006.84 -211.672 1000.43 -204.133 995.547 -195.761C976.63 -163.335 953.411 -100.276 961.024 -61.5887C964.224 -45.3526 973.267 -32.9479 982.846 -19.8149C992.955 -5.95514 1003.37 8.32404 1008.01 28.508C1013.17 50.9968 988.125 81.8627 966.035 109.09L965.514 109.732C956.853 120.428 948.675 130.539 942.497 139.834C938.705 145.548 935.004 151.387 931.742 156.54C907.695 194.431 888.703 224.345 845.534 204.335C839.854 201.701 834.175 198.802 828.683 196.006L827.913 195.614C800.261 181.501 774.15 168.171 743.228 180.56C731.112 185.406 716.326 194.449 699.205 204.913L699.053 205.004C682.39 215.196 663.505 226.747 644.628 235.687C638.317 238.66 631.992 241.874 625.294 245.275C590.186 263.104 550.402 283.31 515.703 265.422C505.414 260.118 496.651 253.586 488.182 247.272C468.45 232.569 449.82 218.688 417.282 225.035C412.033 226.056 406.796 227.37 401.735 228.638L401.336 228.74C392.272 231.006 382.893 233.354 373.394 234.096C352.554 235.72 332.756 234.984 313.605 234.276C281.911 233.102 252 231.993 219.231 240.829C217.052 241.414 214.873 241.998 212.694 242.583L210.347 243.209C151.147 259.016 89.9312 275.359 48.9809 349.425C39.7614 366.114 37.2266 386.721 34.5449 408.536C31.5856 432.665 28.5294 457.604 15.8966 478.271C8.97938 489.584 1.12879 495.637 -8.09216 496.785C-29.2352 499.404 -54.2368 475.18 -76.3026 453.81L-77.0397 453.096C-81.697 448.593 -86.0936 444.34 -90.4291 440.372C-114.442 418.352 -119.899 392.509 -107.127 361.357C-95.7484 333.601 -87.0056 307.753 -95.326 272.438C-99.0414 256.673 -104.716 242.275 -110.2 228.35C-125.19 190.309 -138.128 157.484 -103.586 115.405C-72.863 77.9835 -36.0317 62.7027 13.4448 50.1817C25.05 47.2471 36.7618 44.132 49.1633 40.8292L50.1605 40.5656C107.864 25.2129 173.261 7.81272 233.879 7.64808C246.752 7.61381 260.157 8.55787 273.12 9.46833L273.556 9.50047C294.611 10.9619 316.387 12.4737 338.94 10.543C402.733 5.0868 425.306 10.7988 489.855 48.7488C510.745 61.0132 532.447 64.2315 554.363 58.3016C590.337 48.5511 626.454 13.6864 656.063 -39.8769C675.952 -75.847 673.885 -107.5 671.491 -144.146C670.903 -153.046 670.349 -161.773 670.056 -170.692C669.604 -184.704 669.605 -200.522 675.365 -210.948C684.622 -227.715 707.809 -228.737 728.266 -229.635C731.328 -229.769 734.316 -229.901 737.169 -230.076C796.947 -233.836 832.622 -257.809 874.027 -297.937C874.255 -298.156 874.437 -298.379 874.618 -298.596C874.772 -298.779 874.925 -298.962 875.098 -299.141L874.639 -299.595C874.451 -299.406 874.287 -299.206 874.123 -299.005C873.949 -298.793 873.778 -298.588 873.582 -298.394C832.279 -258.368 796.712 -234.464 737.129 -230.719C734.289 -230.541 731.301 -230.409 728.239 -230.275C707.614 -229.368 684.234 -228.337 674.8 -211.253C668.961 -200.68 668.956 -184.758 669.409 -170.666C669.701 -161.741 670.254 -153.007 670.847 -144.1C673.23 -107.555 675.29 -75.9895 655.498 -40.1826C625.969 13.2273 589.995 47.9856 554.193 57.6822C532.452 63.5658 510.922 60.3733 490.184 48.1959C425.483 10.1589 402.855 4.4278 338.886 9.90369C316.38 11.8318 294.63 10.3193 273.6 8.86353L273.165 8.8314C260.189 7.9181 246.771 6.97126 233.878 7.00755C173.174 7.17262 107.735 24.5831 49.9962 39.9475L48.9988 40.2111C36.5988 43.5077 24.887 46.6228 13.2881 49.5588C-36.3143 62.1108 -73.2491 77.4409 -104.082 114.996C-138.868 157.37 -125.869 190.36 -110.808 228.556C-105.319 242.489 -99.6542 256.872 -95.9477 272.588C-87.6708 307.715 -96.3845 333.465 -107.72 361.118C-120.608 392.547 -115.093 418.634 -90.8603 440.849C-86.5298 444.809 -82.133 449.062 -77.482 453.564L-76.7497 454.271C-58.051 472.385 -37.2419 492.534 -18.3193 496.802L-18.3251 496.827Z" fill="url(#paint1_linear_222_3500)"/>
<path d="M-21.762 476.372C-18.293 477.154 -14.9291 477.378 -11.6965 476.926C-2.6394 475.654 4.89344 469.108 10.6964 457.464C18.485 441.878 20.3898 425.644 22.4038 408.458C24.6186 389.621 26.91 370.18 37.5408 351.538C84.8522 268.595 160.118 246.093 239.607 228.67C263.901 223.355 288.764 224.593 312.81 225.791C331.476 226.72 350.78 227.688 369.52 225.531C382.81 224 395.007 220.552 406.807 217.219C435.566 209.089 460.404 202.069 487.16 226.477C489.285 228.415 491.324 230.294 493.305 232.114C510.087 247.572 521.795 258.353 537.55 261.906C545.173 263.626 553.738 263.656 564.291 261.699C616.831 251.962 665.887 219.554 705.311 193.509L706.505 192.722C711.751 189.258 716.703 185.985 721.597 182.824C727.546 178.963 734.944 174.155 742.038 171.577C769.197 161.726 794.49 172.798 818.953 183.512C848.413 196.402 876.232 208.573 902.946 180.671C932.162 150.139 951.908 117.669 971.006 86.2601L975.441 78.9818C998.986 40.3572 985.348 14.2406 970.909 -13.4168C960.961 -32.469 950.677 -52.1711 950.777 -77.4998C950.912 -112.591 972.475 -175.073 987.011 -206.256C992.902 -218.877 998.943 -226.13 1007.86 -231.282L1007.53 -231.837C998.612 -226.68 992.295 -219.113 986.425 -206.527C971.871 -175.295 950.266 -112.684 950.13 -77.5006C950.028 -52.014 960.347 -32.2376 970.333 -13.1176C984.686 14.3684 998.245 40.3353 974.889 78.6461L970.453 85.9306C951.376 117.304 931.648 149.752 902.484 180.23C876.082 207.806 848.461 195.72 819.216 182.931C794.64 172.165 769.228 161.033 741.824 170.974C734.659 173.576 727.222 178.408 721.248 182.289C716.355 185.45 711.397 188.722 706.157 192.188L704.962 192.975C665.592 218.986 616.598 251.355 564.183 261.067C532.142 266.998 518.504 254.435 493.755 231.641C491.775 229.822 489.735 227.942 487.61 226.004C460.592 201.352 435.592 208.422 406.649 216.602C394.876 219.928 382.7 223.374 369.465 224.898C350.779 227.047 331.506 226.087 312.861 225.156C288.776 223.955 263.867 222.714 239.489 228.049C159.855 245.499 84.4396 268.053 36.9975 351.224C26.2958 369.976 24.0013 389.488 21.7809 408.351C19.7649 425.516 17.8651 441.698 10.1334 457.178C4.4275 468.626 -2.93932 475.052 -11.7721 476.295C-32.6659 479.214 -59.6372 453.357 -80.7949 430.509C-102.778 406.782 -95.0884 381.416 -86.9456 354.567C-82.1667 338.797 -77.2416 322.525 -78.0403 305.834C-79.2772 280.164 -87.8903 256.746 -96.2151 234.099C-111.935 191.358 -126.759 151.03 -84.1605 106.49C-43.8046 64.3097 14.2551 51.5065 70.4039 39.1239L71.2172 38.9442C80.4612 36.9031 90.0178 34.7939 99.2301 32.6004C141.662 22.4713 179.684 16.8139 215.471 15.2999C234.321 14.5014 253.171 15.6964 271.407 16.8587L271.504 16.8674C294.581 18.3228 318.447 19.8241 342.487 17.3904C384.942 13.1025 421.05 12.2155 466.708 42.2999C472.605 46.1981 478.047 49.9474 482.847 53.2615L482.898 53.2994C506.486 69.5857 520.721 79.4115 543.201 74.9952C581.312 67.5093 646.732 2.89774 670.471 -50.7021C680.439 -73.2241 684.143 -96.0892 682.858 -127.137C682.701 -131.068 682.38 -135.266 682.044 -139.719L682.013 -140.109C680.611 -158.283 679.027 -178.875 686.565 -194.227C698.684 -218.911 727.307 -220.991 752.56 -222.828C763.128 -223.594 773.073 -224.321 781.113 -226.647C798.442 -231.651 818.993 -242.655 840.546 -258.477C848.753 -264.502 857.33 -269.5 865.625 -274.33C874.946 -279.76 883.256 -284.745 890.606 -290.659L890.204 -291.159C882.892 -285.269 874.601 -280.306 865.301 -274.885C856.991 -270.045 848.398 -265.038 840.16 -258.994C818.665 -243.218 798.186 -232.243 780.928 -227.263C772.958 -224.954 763.041 -224.234 752.54 -223.473C727.086 -221.622 698.267 -219.52 685.982 -194.511C678.37 -179.004 679.963 -158.31 681.367 -140.057L681.398 -139.667C681.735 -135.22 682.056 -131.021 682.21 -127.105C683.485 -96.1584 679.802 -73.3875 669.875 -50.9555C646.202 2.49436 581.023 66.916 543.071 74.3716C520.86 78.7365 506.706 68.9619 483.26 52.7739L483.209 52.7359C478.402 49.4267 472.962 45.6711 467.059 41.7716C421.222 11.5678 385.002 12.4559 342.418 16.7607C318.426 19.1856 294.593 17.6851 271.541 16.2354L271.444 16.2267C253.193 15.0678 234.319 13.8671 215.442 14.6663C179.615 16.1843 141.552 21.8457 99.0783 31.9851C89.8722 34.18 80.3156 36.2893 71.0779 38.3318L70.2786 38.508C14.0258 50.9134 -44.1318 63.7408 -84.6252 106.062C-127.502 150.896 -112.606 191.404 -96.8389 234.288C-88.5078 256.936 -79.9114 280.312 -78.6847 305.88C-77.8933 322.458 -82.8057 338.673 -87.5521 354.358C-95.7571 381.423 -103.497 406.956 -81.2721 430.956C-63.2469 450.417 -41.0144 472.042 -21.7523 476.387L-21.762 476.372Z" fill="url(#paint2_linear_222_3500)"/>
<path d="M-25.9355 453.446C-22.4791 454.226 -19.3558 454.112 -16.5283 453.112C-3.03222 448.353 1.79932 423.887 6.46851 400.229C9.39771 385.369 12.1664 371.337 17.0114 361.98C28.6357 339.547 48.6403 318.669 68.1341 299.207C103.074 264.321 163.167 237.347 246.739 219.042C272.099 213.479 292.997 214.991 313.213 216.455C328.855 217.58 345.03 218.746 363.241 216.655C375.907 215.194 390.314 209.617 405.561 203.714L405.655 203.676C434.178 192.615 463.675 181.185 482.705 197.652C490.297 204.223 496.417 212.694 502.33 220.887L502.41 220.998C510.128 231.697 517.393 241.766 527.248 247.118C531.466 249.41 536 251.066 540.782 252.145C585.201 262.164 651.834 222.742 702.296 185.706C703.795 184.598 705.262 183.51 706.691 182.445L708.293 181.255C721.384 171.5 731.691 163.809 746.48 159.877C770.977 153.34 795.712 163.871 819.628 174.052C836.525 181.237 852.482 188.025 866.512 187.664C902.733 186.743 948.125 112.22 967.069 72.9409C984.138 37.5561 973.728 17.3303 960.543 -8.27496C954.095 -20.7942 946.792 -34.9717 942.179 -52.6423C934.968 -80.2273 945.574 -113.868 956.798 -149.488C964.505 -173.906 972.472 -199.157 974.138 -222.238C975.676 -243.578 980.884 -248.866 989.364 -250.796L989.221 -251.423C980.449 -249.427 975.063 -244.02 973.495 -222.284C971.832 -199.275 963.873 -174.062 956.181 -149.68C944.924 -113.975 934.292 -80.2476 941.548 -52.4809C946.178 -34.7404 953.5 -20.5321 959.954 -8.00516C973.066 17.458 983.411 37.5572 966.481 72.6498C947.598 111.804 902.402 186.101 866.487 187.011C852.598 187.364 836.7 180.609 819.869 173.453C795.85 163.229 771.011 152.662 746.298 159.248C731.39 163.213 721.036 170.933 707.929 180.705L706.294 181.92C704.865 182.984 703.398 184.073 701.9 185.181C646.151 226.094 570.652 269.954 527.543 246.544C517.811 241.26 510.591 231.254 502.944 220.649L502.839 220.5C496.906 212.283 490.767 203.781 483.114 197.156C463.791 180.433 434.112 191.94 405.41 203.066L405.315 203.104C390.105 208.995 375.741 214.556 363.156 216.008C345 218.092 328.856 216.933 313.246 215.809C292.991 214.343 272.04 212.832 246.59 218.414C162.894 236.744 102.695 263.774 67.6688 298.752C48.14 318.252 28.0987 339.176 16.4308 361.684C11.5424 371.118 8.7638 385.193 5.82325 400.104C1.18604 423.59 -3.61083 447.873 -16.7613 452.505C-24.1589 455.115 -33.777 451.407 -46.168 441.165C-50.1742 437.845 -55.6234 433.163 -58.8529 429.708C-78.2632 408.951 -73.1901 383.239 -67.8223 356.015C-64.1641 337.484 -60.4006 318.369 -64.1605 299.815C-68.6573 277.588 -76.2093 257.664 -83.5118 238.39L-83.5616 238.26C-101.25 191.629 -116.528 151.351 -73.2063 106.063C-46.9222 78.5729 -15.2327 69.1633 23.4657 59.7172C38.088 56.1428 52.2244 52.4391 64.697 49.1721C111.125 37.0198 154.978 25.5408 205.55 22.8595C223.497 21.9099 243.729 22.8028 265.15 23.7526L265.281 23.7558C293.76 25.0101 323.18 26.3053 350.766 23.4961C403.898 18.045 432.521 24.5472 487.321 71.9306C510.294 91.795 533.961 95.3772 559.675 82.89C581.863 72.123 601.908 51.5372 621.289 31.634L624.118 28.7268C683.087 -31.7347 694.293 -82.8209 692.986 -140.915C692.596 -158.188 692.777 -173.423 698.96 -184.995C708.499 -202.867 732.221 -207.465 755.162 -211.903L755.493 -211.967C761.598 -213.151 767.358 -214.268 772.865 -215.64C792.14 -220.456 809.811 -231.575 828.521 -243.345C852.591 -258.5 879.831 -275.647 913.344 -278.15L913.297 -278.794C879.631 -276.287 852.314 -259.091 828.22 -243.914C809.524 -232.148 791.899 -221.058 772.716 -216.268C767.228 -214.892 761.476 -213.779 755.378 -212.6L755.047 -212.536C731.954 -208.066 708.08 -203.443 698.401 -185.299C692.148 -173.592 691.96 -158.265 692.355 -140.899C693.658 -82.964 682.479 -32.0239 623.67 28.2824L620.842 31.1896C601.501 51.056 581.492 71.6034 559.407 82.3212C533.947 94.6807 510.51 91.1307 487.753 71.4472C432.771 23.904 404.047 17.3854 350.712 22.8567C323.173 25.6633 293.779 24.3676 265.346 23.1169L265.19 23.108C243.755 22.1616 223.502 21.2707 205.53 22.2147C154.889 24.9069 111.003 36.3913 64.5466 48.5505C52.0803 51.819 37.9454 55.5165 23.3293 59.0922C-15.4746 68.5674 -47.2496 78.004 -73.6543 105.619C-117.26 151.199 -101.916 191.65 -84.1487 238.49L-84.0987 238.621C-76.8032 257.867 -69.2672 277.774 -64.7778 299.946C-61.0365 318.377 -64.7983 337.427 -68.431 355.845C-73.8469 383.282 -78.9492 409.153 -59.3098 430.153C-56.0594 433.633 -50.588 438.333 -46.5643 441.663C-38.6432 448.21 -31.8115 452.121 -25.9418 453.445L-25.9355 453.446Z" fill="url(#paint3_linear_222_3500)"/>
<path d="M-29.8329 401.713L-29.6725 401.617C-28.5945 400.996 -27.7081 400.199 -26.958 399.186C-24.7322 396.169 -24.1128 391.813 -23.4604 387.194L-23.4448 387.125C-22.9316 383.444 -22.4016 379.689 -20.9938 376.58C-18.7872 371.657 -16.1064 367.093 -12.7986 362.617C-3.86157 350.518 7.78126 341.736 19.0339 333.249C25.7586 328.177 32.093 323.4 37.6772 318.084C42.234 313.752 46.7842 309.272 51.8231 304.295C63.0608 293.21 74.6757 281.742 86.1401 272.814C125.872 241.861 210.526 220.103 238.344 212.956C261.877 206.916 286.15 207.314 309.627 207.698C338.973 208.183 369.319 208.684 397.978 196.518C406.524 192.887 416.262 186.956 426.575 180.674C446.918 168.282 467.941 155.476 482.622 158.788C484.005 159.1 485.322 159.555 486.55 160.142C497.283 165.29 502.966 181.261 508.457 196.707C512.236 207.33 515.806 217.358 520.777 223.457C528.555 233.008 538.31 239.156 549.785 241.745C556.969 243.365 563.447 243.222 567.619 242.816C609.174 238.774 644.481 213.59 678.623 189.239C693.374 178.709 708.59 167.848 723.964 158.977C740.761 149.278 757.695 146.813 777.24 151.221C789.061 153.888 800.586 158.745 811.732 163.438C822.969 168.171 833.577 172.643 844.405 175.085C854.36 177.331 863.337 177.527 871.868 175.688C886.665 172.51 905.385 156.451 924.58 130.465C941.778 107.184 956.634 79.1498 962.424 59.0459C970.796 30.0377 958.633 6.31345 946.866 -16.6215C938.707 -32.537 930.291 -48.9528 928.96 -66.8271C927.276 -89.6665 936.239 -112.653 944.912 -134.886C957.063 -166.065 969.616 -198.263 953.473 -230.873C948.366 -241.169 934.986 -254.406 919.292 -259.782C916.797 -260.635 914.284 -261.354 911.827 -261.908C882.899 -268.433 860.679 -253.514 837.152 -237.721C823.857 -228.79 810.112 -219.558 794.215 -213.32C786.028 -210.11 775.893 -207.603 766.089 -205.186C752.754 -201.903 738.964 -198.504 729.985 -193.333C723.662 -189.689 718.771 -185.458 715.025 -180.387C704.337 -165.911 705.248 -147.345 706.217 -127.691C706.671 -118.551 707.141 -109.096 706.377 -99.881C703.541 -65.3196 680.019 -27.0331 660.786 -0.996151C631.788 38.2603 592.327 77.0314 557.802 100.18C552.627 103.654 530.103 115.91 514.391 112.366C513.775 112.227 513.172 112.065 512.592 111.881C501.075 108.188 486.859 95.91 475.493 79.8325C465.846 66.1824 455.875 52.0632 446.343 45.3647C436.357 38.3391 425.638 33.5975 413.572 30.8759C390.81 25.7416 367.094 28.8162 344.16 31.79C327.919 33.9034 311.122 36.0826 294.733 35.3965C285.096 34.9921 275.467 34.4641 266.156 33.9616L262.515 33.7674C217.813 31.2966 175.589 28.9686 130.509 36.962C113.831 39.9275 97.2209 44.9945 79.6393 50.3572L79.0588 50.53C70.0733 53.2698 60.7772 56.0979 51.564 58.5883C42.0493 61.1559 32.3858 63.2411 23.0364 65.2518L22.6337 65.3392C4.50745 69.2521 -12.619 72.9482 -27.3999 79.6557C-44.7684 87.529 -59.9207 99.7775 -71.2183 115.081C-87.0769 136.551 -93.7742 162.319 -89.5942 185.774C-85.2681 210.075 -74.6595 236.095 -63.4264 263.65L-63.3917 263.731C-49.3408 298.206 -34.808 333.853 -33.9015 365.555C-33.8033 369.043 -34.7151 372.851 -35.6793 376.892C-37.981 386.539 -40.1608 395.647 -29.9835 401.62L-29.8203 401.716L-29.8329 401.713ZM482.759 158.152C467.827 154.784 446.689 167.656 426.246 180.111C415.941 186.389 406.225 192.311 397.723 195.919C369.188 208.034 338.914 207.536 309.634 207.052C286.118 206.666 261.798 206.271 238.238 212.312C210.329 219.484 125.571 241.265 85.7405 272.301C74.2502 281.256 62.6137 292.733 51.3655 303.835C46.3266 308.812 41.7841 313.287 37.2272 317.62C31.6675 322.915 25.3499 327.676 18.6589 332.716C7.34327 341.248 -4.3319 350.055 -13.3251 362.227C-16.654 366.738 -19.357 371.344 -21.5862 376.308C-23.0265 379.501 -23.5665 383.301 -24.0859 386.98L-24.1114 387.093C-24.7454 391.631 -25.349 395.918 -27.478 398.798C-28.1355 399.693 -28.9084 400.397 -29.8347 400.96C-39.4125 395.228 -37.2999 386.389 -35.0712 377.036C-34.0984 372.957 -33.1752 369.099 -33.2753 365.531C-34.1892 333.715 -48.7421 298.011 -62.8144 263.485L-62.8395 263.419C-74.0643 235.886 -84.6581 209.889 -88.9747 185.663C-93.121 162.381 -86.4648 136.795 -70.7107 115.466C-59.4735 100.255 -44.4103 88.0785 -27.1439 80.2482C-12.4296 73.5719 4.6626 69.8813 22.7609 65.9753L23.1637 65.8879C32.5146 63.8709 42.1919 61.7823 51.7206 59.2112C60.9479 56.7174 70.244 53.8892 79.2358 51.1509L79.8163 50.9781C97.3839 45.6188 113.972 40.5602 130.616 37.6001C175.628 29.6177 217.811 31.9497 262.475 34.4121L266.116 34.6062C275.427 35.1087 285.063 35.6382 294.699 36.0425C311.141 36.7275 327.96 34.5399 344.234 32.4273C367.113 29.461 390.775 26.3939 413.424 31.5027C425.402 34.2044 436.05 38.9102 445.962 45.8859C455.401 52.5241 465.344 66.5908 474.955 80.1996C486.401 96.3877 500.742 108.759 512.388 112.495C512.986 112.683 513.607 112.856 514.242 112.999C530.179 116.594 552.934 104.225 558.156 100.722C592.742 77.5343 632.263 38.704 661.3 -0.609585C680.581 -26.7148 704.161 -65.1136 707.011 -99.8238C707.778 -109.078 707.306 -118.553 706.851 -127.72C705.889 -147.26 704.979 -165.713 715.533 -180.002C719.223 -184.999 724.055 -189.178 730.295 -192.775C739.191 -197.898 752.937 -201.28 766.232 -204.56C776.058 -206.985 786.213 -209.494 794.437 -212.722C810.399 -218.985 824.175 -228.236 837.5 -237.187C860.91 -252.9 883.021 -267.745 911.672 -261.282C914.111 -260.732 916.6 -260.026 919.076 -259.177C934.612 -253.857 947.847 -240.771 952.889 -230.596C968.904 -198.239 956.401 -166.175 944.316 -135.172C935.605 -112.829 926.614 -89.7762 928.305 -66.7902C929.646 -48.788 938.095 -32.312 946.262 -16.3748C957.992 6.49228 970.096 30.0975 961.791 58.8636C956.017 78.8984 941.2 106.849 924.047 130.074C904.946 155.936 886.364 171.913 871.721 175.054C863.286 176.875 854.394 176.678 844.534 174.454C833.762 172.025 823.178 167.564 811.972 162.845C800.802 158.14 789.247 153.269 777.369 150.59C757.648 146.142 740.577 148.629 723.629 158.413C708.225 167.297 693 178.169 678.272 188.685C644.161 213.016 608.931 238.152 567.547 242.173C563.421 242.576 557.016 242.715 549.914 241.114C538.584 238.558 528.945 232.482 521.266 223.046C516.367 217.036 512.819 207.059 509.054 196.491C503.518 180.923 497.791 164.824 486.813 159.561C485.544 158.952 484.178 158.478 482.751 158.157L482.759 158.152Z" fill="url(#paint4_linear_222_3500)"/>
<path d="M-13.7784 328.634C-12.4398 328.936 -11.0979 329.047 -9.79308 328.972C16.1613 327.392 51.9511 296.408 62.2998 286.952C78.989 271.696 96.2442 255.921 118.656 246.274C132.361 240.38 147.198 236.207 161.549 232.169C170.137 229.756 179.022 227.257 187.688 224.379C193.135 222.571 198.529 220.705 204.505 218.633C222.158 212.514 238.829 206.734 255.565 203.366C273.466 199.779 292.31 200.385 310.531 200.969C331.461 201.637 353.061 202.323 373.887 196.893C390.967 192.434 405.518 179.984 419.587 167.94C430.185 158.87 441.144 149.491 452.932 143.845C471.803 134.812 485.53 137.638 495.551 139.707C502.569 141.151 507.637 142.195 511.458 138.693C512.69 137.565 513.233 136.505 513.127 135.452C512.896 133.168 509.754 131.284 504.998 128.422C497.548 123.943 486.296 117.173 478.722 103.7C477.515 101.553 476.14 99.0116 474.688 96.314C466.522 81.1627 454.178 58.2692 439.93 48.0046C431.318 41.7973 422.099 37.6382 411.748 35.3036C391.279 30.6867 369.839 33.9776 347.141 37.46L346.97 37.4874C332.756 39.6618 318.056 41.9115 303.537 42.0103C288.712 42.1192 273.622 40.0688 259.024 38.0899L258.895 38.0741C245.437 36.2532 231.524 34.3694 217.556 34.0773C164.221 32.9601 117.274 43.2261 58.8193 60.1522C51.824 62.179 44.5697 64.0945 36.8945 66.1197L36.3882 66.2564C33.6776 66.972 30.9697 67.675 28.2682 68.3794C-8.69433 78.0058 -43.6078 87.0976 -64.4759 115.347C-78.9467 134.939 -85.9402 158.039 -83.6704 178.72C-81.4277 199.11 -62.6002 251.643 -61.0111 255.665C-60.928 255.882 -60.7546 256.344 -60.5094 257.013C-51.3844 281.881 -33.1849 324.257 -13.7721 328.635L-13.7784 328.634ZM411.6 35.9304C421.863 38.2452 431.004 42.3669 439.548 48.5258C453.677 58.7041 465.979 81.522 474.119 96.6146C475.571 99.3122 476.944 101.86 478.157 104.009C485.816 117.633 497.163 124.45 504.663 128.968C509.089 131.629 512.287 133.552 512.486 135.512C512.568 136.349 512.096 137.239 511.024 138.219C507.443 141.504 502.508 140.484 495.68 139.076C485.57 136.993 471.717 134.139 452.654 143.261C440.786 148.942 429.794 158.353 419.169 167.45C405.157 179.447 390.663 191.851 373.73 196.271C352.996 201.675 331.441 200.992 310.603 200.326C292.304 199.737 273.427 199.13 255.45 202.733C238.673 206.112 221.979 211.899 204.306 218.02C198.331 220.092 192.944 221.954 187.497 223.762C178.846 226.63 169.974 229.131 161.392 231.546C147.021 235.586 132.164 239.762 118.42 245.68C95.905 255.376 78.6083 271.188 61.8792 286.474C51.5718 295.894 15.9277 326.759 -9.82043 328.332C-11.0659 328.407 -12.3422 328.298 -13.6241 328.009C-33.458 323.535 -52.5968 276.715 -59.8987 256.794C-60.1488 256.117 -60.3208 255.649 -60.4039 255.433C-61.9945 251.417 -80.7853 198.985 -83.0218 178.655C-85.2739 158.13 -78.3171 135.193 -63.9419 115.732C-43.207 87.6634 -8.40539 78.5992 28.4452 69.0003C31.1467 68.2959 33.8545 67.5929 36.5651 66.8773L37.0714 66.7406C44.7543 64.7105 52.0087 62.795 59.0103 60.7697C117.409 43.8573 164.3 33.6051 217.557 34.7179C231.486 35.0077 245.386 36.8887 258.824 38.7116L258.953 38.7274C273.57 40.7106 288.685 42.7667 303.55 42.6537C318.114 42.5585 332.836 40.3005 347.077 38.1255L347.248 38.0982C369.886 34.6218 391.27 31.3447 411.613 35.9332L411.6 35.9304Z" fill="url(#paint5_linear_222_3500)"/>
<path d="M-6.5841 307.659C9.21522 311.222 33.3144 299.216 67.084 270.952C84.3023 256.542 102.074 241.669 122.893 234.6C132.213 231.434 142.404 228.676 153.199 225.763L153.283 225.743C166.117 222.28 179.381 218.696 192.296 214.11C196.381 212.661 200.457 211.19 204.505 209.727L204.57 209.702C224.224 202.588 242.784 195.875 260.051 192.726C276.746 189.685 294.028 190.335 310.745 190.97C328.112 191.625 344.469 192.245 360.302 189.102C385.967 184.005 419.617 160.81 438.574 135.147C452.172 116.732 457.402 98.8122 453.7 83.3142C450.312 69.1418 439.624 57.3827 421.929 48.3741C416.929 45.827 411.516 43.8863 405.841 42.6063C385.743 38.0731 364.057 41.8696 341.097 45.8939C321.746 49.2929 301.798 52.7948 282.933 50.758C278.729 50.3049 274.431 49.8306 270.044 49.3427C226.37 44.4827 172.014 38.4346 118.78 49.547C107.109 51.9847 95.2513 55.8921 82.6956 60.0251L82.6026 60.0569C72.5209 63.3813 62.0952 66.8261 51.6999 69.4327C43.4445 71.512 34.8508 73.1584 26.5341 74.7485C1.74598 79.5024 -40.9347 94.1307 -56.9445 114.953C-60.9919 120.219 -64.5738 126.555 -67.8989 134.328C-73.3468 147.062 -75.525 163.57 -73.7217 178.501C-71.7541 194.783 -64.1492 224.866 -52.1075 252.438C-42.3882 274.7 -26.743 302.313 -7.41088 307.459C-7.13085 307.535 -6.85583 307.604 -6.57299 307.668L-6.5841 307.659ZM204.291 209.124C200.237 210.586 196.167 212.058 192.082 213.507C179.195 218.086 165.938 221.665 153.126 225.12L153.035 225.145C142.232 228.063 132.028 230.818 122.693 233.994C101.759 241.103 83.9399 256.011 66.7062 270.431C33.0669 298.586 9.14942 310.547 -6.43615 307.032C-6.70642 306.971 -6.9829 306.908 -7.2489 306.829C-26.3312 301.745 -41.8552 274.299 -51.5183 252.168C-63.5336 224.655 -71.1165 194.649 -73.0814 178.414C-74.8697 163.593 -72.7059 147.206 -67.3009 134.575C-63.9934 126.851 -60.4416 120.561 -56.4307 115.34C-40.5317 94.6573 1.97266 80.1081 26.658 75.3706C34.9824 73.7757 43.59 72.1258 51.858 70.0494C62.2749 67.4344 72.7133 63.9924 82.809 60.6646L82.902 60.6328C95.4374 56.5019 107.28 52.6041 118.917 50.172C172.052 39.0837 226.35 45.1253 269.973 49.9802C274.366 50.4695 278.663 50.9501 282.874 51.3983C301.83 53.4425 321.827 49.9317 341.164 46.5361C364.116 42.5166 385.741 38.7262 405.713 43.2311C411.338 44.4997 416.702 46.4228 421.654 48.946C439.177 57.8695 449.754 69.478 453.092 83.461C456.751 98.7709 451.554 116.513 438.073 134.763C419.2 160.314 385.719 183.407 360.194 188.47C344.437 191.598 328.112 190.979 310.837 190.33C294.04 189.697 276.714 189.037 259.955 192.097C242.634 195.254 224.051 201.982 204.369 209.102L204.414 209.429L204.304 209.127L204.291 209.124Z" fill="url(#paint6_linear_222_3500)"/>
<path d="M-4.49902 289.63C-4.32299 289.67 -4.14721 289.71 -3.97119 289.75C14.611 293.624 43.2039 277.389 63.3019 259.582C75.8653 248.446 88.8575 236.932 103.935 230.225C115.24 225.196 129.683 221.832 144.976 218.271L145.116 218.236C158.103 215.204 171.536 212.074 185.114 207.565C194.974 204.289 204.5 200.675 213.71 197.173C233.124 189.808 251.456 182.845 269.147 180.332C283.155 178.343 297.618 178.02 311.602 177.715L311.794 177.712C352.875 176.824 391.678 175.991 420.807 136.56C422.432 134.364 424.005 132.072 425.498 129.728C436.519 112.461 440.176 94.4909 435.529 80.424C431.613 68.5088 422.135 59.5513 407.366 53.7907C404.95 52.8496 402.404 52.0771 399.789 51.4874C382.268 47.5353 362.777 51.9062 342.137 56.5396L342.019 56.5657C328.337 59.6325 314.183 62.7976 300.593 63.3171C286.175 63.8808 271.345 60.6744 255.653 57.2801C246.283 55.2525 236.592 53.1527 226.59 51.8208C199.255 48.1903 166.893 48.5754 137.809 52.8753C123.231 55.0269 108.061 60.2075 91.9906 65.6932L91.7472 65.7769C78.3139 70.3457 64.4293 75.0701 50.6055 78.0324C44.6572 79.3116 38.3633 80.4535 32.275 81.5625L32.082 81.5982C1.21204 87.1986 -30.7115 92.9904 -49.9055 118.97C-54.0709 124.613 -57.515 131.098 -60.1324 138.251C-67.3829 158.099 -65.5953 186.276 -55.2207 215.558L-54.9817 216.226C-44.3362 246.269 -31.0868 283.653 -4.51586 289.646L-4.49902 289.63ZM399.657 52.1044C402.24 52.687 404.761 53.4539 407.147 54.3816C421.728 60.0669 431.078 68.8899 434.932 80.6127C439.515 94.4936 435.883 112.265 424.966 129.364C423.476 131.695 421.911 133.976 420.305 136.149C391.358 175.331 352.706 176.166 311.791 177.051L311.599 177.054C297.595 177.361 283.117 177.687 269.07 179.681C251.31 182.205 232.942 189.179 213.492 196.557C204.284 200.051 194.77 203.669 184.925 206.941C171.368 211.442 157.956 214.57 144.982 217.599L144.884 217.623C129.514 221.207 115.037 224.576 103.679 229.633C88.5119 236.385 75.4797 247.93 62.8827 259.098C42.9074 276.801 14.5327 292.946 -3.82946 289.121C-4.00549 289.082 -4.17504 289.043 -4.34472 289.005C-30.5699 283.09 -43.7557 245.892 -54.3494 215.999L-54.5883 215.331C-64.9159 186.191 -66.7059 158.172 -59.507 138.465C-56.91 131.373 -53.5038 124.939 -49.3686 119.342C-30.3263 93.5659 1.46668 87.7973 32.2122 82.2218L32.4052 82.186C38.4998 81.0784 44.8013 79.9317 50.756 78.6538C64.6141 75.6861 78.5202 70.9534 91.9675 66.3812L92.2109 66.2974C108.246 60.8235 123.394 55.6512 137.912 53.5057C166.941 49.2133 199.229 48.8315 226.514 52.4507C236.498 53.7782 246.169 55.8739 255.526 57.8987C271.264 61.2965 286.131 64.5114 300.63 63.946C314.279 63.4266 328.462 60.2483 342.171 57.1809L342.289 57.1548C362.857 52.545 382.28 48.185 399.657 52.1044Z" fill="url(#paint7_linear_222_3500)"/>
<path d="M-2.0902 271.748C15.8961 275.805 44.0295 261.256 62.5252 244.784C76.5729 232.279 91.1061 219.35 108.703 214.532C117.497 212.119 126.826 210.843 136.707 209.487L136.776 209.476C145.214 208.316 153.932 207.113 162.494 205.136C179.361 201.243 196.441 193.919 212.965 186.832C232.618 178.404 252.923 169.695 273.211 166.534C287.351 164.336 301.784 165.023 315.741 165.689L315.918 165.696C331.114 166.43 345.46 167.124 357.815 163.969C374.98 159.575 391.656 147.803 403.57 131.668C418.241 111.805 422.434 90.0534 414.261 76.2474C410.052 69.1449 402.961 64.4228 393.188 62.2186C385.785 60.5487 376.83 60.3708 366.579 61.6961C354.5 63.2432 343.728 66.3788 333.309 69.4157C316.634 74.2701 300.887 78.8516 282.05 76.2532C266.639 74.1305 252.264 70.9277 238.368 67.8264C210.982 61.7285 185.131 55.9702 154.79 58.6397C135.579 60.3341 114.89 67.2934 94.8799 74.023L94.8009 74.0513C81.7728 78.4342 69.4672 82.5707 57.8105 85.2361C49.355 87.1778 40.356 88.3961 31.6498 89.5749C4.43616 93.2535 -23.6703 97.0544 -42.7428 122.877C-62.1284 149.15 -57.74 179.762 -50.6352 200.82C-50.1049 202.392 -49.5641 204.006 -49.0193 205.661C-40.8215 230.306 -29.5929 264.059 -3.30371 271.448C-2.90576 271.558 -2.50012 271.662 -2.09167 271.754L-2.0902 271.748ZM392.905 63.475C402.319 65.5985 409.132 70.1192 413.156 76.9025C421.067 90.2599 416.9 111.456 402.544 130.889C390.792 146.802 374.373 158.402 357.495 162.722C345.328 165.834 331.068 165.139 315.977 164.409L315.8 164.402C301.778 163.735 287.285 163.047 273.015 165.262C252.564 168.445 232.187 177.185 212.475 185.639C195.988 192.707 178.958 200.017 162.203 203.882C153.696 205.845 145.006 207.041 136.595 208.2L136.526 208.211C126.604 209.571 117.227 210.856 108.356 213.292C90.4696 218.19 75.8278 231.22 61.6652 243.824C43.4113 260.073 15.7521 274.452 -1.80688 270.492C-2.19653 270.404 -2.5769 270.305 -2.95605 270.199C-28.5813 263 -39.6902 229.624 -47.7972 205.25C-48.3483 203.594 -48.8877 201.974 -49.4181 200.402C-56.4225 179.63 -60.7646 149.458 -41.7047 123.632C-22.9564 98.2519 4.87745 94.4886 31.7983 90.8495C40.5589 89.6632 49.5859 88.4381 58.096 86.4889C69.8226 83.8062 82.1498 79.6614 95.2136 75.2667L95.2927 75.2384C115.225 68.5309 135.842 61.5951 154.904 59.9198C185.05 57.2657 210.807 63.0027 238.073 69.0737C252.013 72.1849 266.413 75.3934 281.876 77.5212C300.983 80.1539 316.858 75.5352 333.672 70.6463C344.042 67.6246 354.764 64.5042 366.747 62.9687C376.849 61.6625 385.654 61.8329 392.906 63.4687L392.905 63.475Z" fill="url(#paint8_linear_222_3500)"/>
<path d="M3.193 255.352C18.213 258.74 43.0867 248.718 59.8199 232.534C69.768 222.921 80.0188 213.02 90.825 207.918C100.761 203.221 116.118 201.892 130.97 200.607C140.931 199.751 151.196 198.865 159.994 196.954C183.284 191.902 204.328 181.761 224.676 171.952C246.68 161.355 267.433 151.36 287.706 149.674C295.897 148.993 304.797 149.766 314.221 150.585C334.97 152.379 358.484 154.415 378.285 140.119C384.241 135.818 390.081 129.986 394.722 123.698C404.439 110.54 407.585 97.4717 403.36 87.8307C399.898 79.9329 394.123 75.1711 385.721 73.2759C370.142 69.7618 347.971 77.199 328.416 83.7603C313.112 88.8909 298.708 93.7226 289.437 92.9255C286.321 92.6582 283.197 92.1584 279.885 91.4114C270.258 89.2398 261.055 85.3287 252.16 81.5465C245.441 78.6907 238.499 75.7385 231.491 73.6033C227.257 72.3182 222.736 71.1334 218.054 70.0773C203.11 66.7065 164.169 59.864 125.394 69.1213C112.648 72.1681 102.8 76.6214 93.2758 80.9298C84.2449 85.0127 75.7275 88.8681 64.9014 91.6285C54.9452 94.1625 44.2004 95.2445 33.8127 96.2948C7.06885 99.0034 -20.5592 101.796 -38.2821 128.398C-64.8757 168.27 -36.0088 230.197 -3.57055 252.487C-1.65515 253.803 0.624029 254.766 3.19434 255.346L3.193 255.352ZM385.43 74.5372C393.411 76.3374 398.885 80.8531 402.172 88.3549C406.212 97.5581 403.118 110.163 393.687 122.929C389.112 129.127 383.375 134.857 377.522 139.082C358.114 153.097 334.852 151.085 314.331 149.309C304.848 148.484 295.89 147.704 287.598 148.395C267.09 150.101 246.226 160.15 224.141 170.782C203.838 180.568 182.861 190.677 159.723 195.698C151.001 197.593 140.776 198.475 130.89 199.322C115.89 200.619 100.417 201.961 90.2745 206.757C79.2766 211.948 68.9479 221.931 58.9584 231.581C42.4712 247.522 18.1178 257.405 3.48121 254.104C1.068 253.559 -1.06115 252.663 -2.8385 251.437C-34.8591 229.433 -63.3946 168.379 -37.2103 129.122C-19.8258 103.025 7.49183 100.261 33.9114 97.5847C44.3787 96.5325 55.1718 95.4416 65.2182 92.8883C76.1548 90.1066 84.7233 86.2297 93.799 82.1238C103.272 77.837 113.069 73.4052 125.696 70.3909C164.205 61.199 202.918 67.9967 217.768 71.3464C222.418 72.3953 226.914 73.5744 231.117 74.8524C238.063 76.9671 244.969 79.9046 251.646 82.7442C260.607 86.5546 269.858 90.4832 279.605 92.6818C282.974 93.4416 286.155 93.9479 289.33 94.2216C298.867 95.0391 313.398 90.1701 328.782 85.0049C348.223 78.4837 370.209 71.1039 385.436 74.5386L385.43 74.5372Z" fill="url(#paint9_linear_222_3500)"/>
<path d="M4.22999 233.919C5.69422 234.249 7.18482 234.434 8.65772 234.462C22.2821 234.756 45.1135 219.909 54.24 207.555L54.2885 207.487L57.181 203.564C64.8072 193.236 71.9951 184.295 82.7651 179.383C94.9625 173.822 108.807 176.04 123.459 178.394C134.697 180.19 146.266 182.04 157.331 180.245C178.28 176.843 217.302 158.848 233.247 137.258C239.275 129.098 241.455 121.159 239.725 113.665C237.668 104.718 230.022 96.6887 217.002 89.7909C208.72 85.4009 199.673 82.0862 190.121 79.9316C173.297 76.1368 154.89 76.0253 136.892 79.604C123.443 82.2811 111.727 88.8414 100.388 95.1898C90.366 100.799 80.0504 106.566 68.8333 109.449C57.4126 112.386 45.6682 112.219 34.3068 112.053C15.1237 111.779 -2.99182 111.516 -18.1023 125.365C-20.8569 127.886 -23.3298 130.622 -25.4589 133.502C-38.1809 150.729 -36.7339 169.699 -33.2716 182.575C-27.1831 205.298 -13.2297 229.987 4.2223 233.924L4.22999 233.919ZM189.838 81.188C199.283 83.3186 208.219 86.5951 216.402 90.9296C229.073 97.6433 236.499 105.392 238.47 113.957C240.109 121.067 238.008 128.654 232.211 136.496C216.456 157.825 177.858 175.612 157.121 178.976C146.263 180.739 134.795 178.905 123.711 177.131C108.809 174.74 94.7801 172.494 82.2237 178.211C71.1801 183.252 63.8763 192.326 56.1379 202.801L53.2047 206.787C44.2495 218.908 21.9535 233.46 8.68409 233.174C7.29712 233.145 5.88978 232.973 4.51343 232.663C-12.417 228.844 -26.0321 204.587 -32.0198 182.236C-35.4039 169.629 -36.8334 151.079 -24.4144 134.26C-22.3402 131.446 -19.9204 128.77 -17.2253 126.308C-2.49755 112.809 15.3755 113.064 34.2944 113.337C45.7355 113.502 57.5707 113.676 69.1606 110.691C80.533 107.764 90.9243 101.954 100.975 96.3387C112.268 90.0132 123.901 83.5001 137.149 80.8636C154.975 77.3186 173.191 77.4267 189.845 81.1831L189.838 81.188Z" fill="url(#paint10_linear_222_3500)"/>
<path d="M124.486 163.653C135.484 166.134 146.932 166.821 157.592 165.648C178.642 163.325 195.994 154.854 205.188 142.403C208.62 137.757 210.915 132.591 212.007 127.047C214.811 112.885 207.93 101.351 192.632 94.5665C189.09 92.9951 185.09 91.6968 180.748 90.7173C151.707 84.1669 109.471 92.2276 92.8983 114.666C89.2087 119.663 86.9003 125.183 86.0338 131.075L86.0144 131.248C85.6817 140.746 90.55 149.086 99.3639 154.164C106.495 158.268 115.18 161.547 124.487 163.647L124.486 163.653ZM180.604 91.3518C184.903 92.3214 188.867 93.6049 192.372 95.1615C207.37 101.812 214.116 113.098 211.379 126.932C210.307 132.388 208.052 137.464 204.679 142.025C195.581 154.338 178.397 162.715 157.523 165.018C146.936 166.188 135.561 165.498 124.632 163.033C115.388 160.947 106.763 157.695 99.6919 153.618C91.0873 148.666 86.3378 140.531 86.6627 131.302L86.6736 131.166C87.5195 125.395 89.7864 119.972 93.4171 115.06C109.846 92.8204 151.765 84.8467 180.611 91.3532L180.604 91.3518Z" fill="url(#paint11_linear_222_3500)"/>
<path d="M159.113 144.878C165.002 146.206 171.14 146.574 176.849 145.947C188.139 144.704 197.44 140.154 202.381 133.472C204.227 130.97 205.461 128.192 206.048 125.208C207.56 117.568 203.852 111.344 195.609 107.689C193.706 106.844 191.565 106.15 189.233 105.624C173.673 102.114 151.041 106.443 142.146 118.472C140.159 121.16 138.914 124.134 138.456 127.305L138.446 127.409C138.265 132.544 140.893 137.058 145.651 139.795C149.474 141.997 154.13 143.754 159.113 144.878ZM189.085 106.251C191.373 106.767 193.478 107.446 195.345 108.276C203.288 111.798 206.862 117.766 205.409 125.084C204.837 127.972 203.642 130.666 201.854 133.089C197.023 139.631 187.876 144.084 176.768 145.308C171.127 145.931 165.067 145.567 159.247 144.255C154.326 143.145 149.732 141.408 145.96 139.244C141.413 136.627 138.907 132.332 139.076 127.458L139.09 127.395C139.527 124.345 140.731 121.467 142.652 118.864C151.39 107.03 173.712 102.79 189.077 106.255L189.085 106.251Z" fill="url(#paint12_linear_222_3500)"/>
<path d="M549.068 230.841C549.784 231.003 550.527 231.138 551.276 231.241C571.749 234.109 597.359 225.83 615.231 218.387C637.997 208.899 662.206 194.851 681.647 179.84C694.9 169.599 707.418 159.925 720.358 152.07C737.338 141.759 753.703 138.861 771.859 142.957C783.177 145.51 793.916 150.341 805.278 155.453C816.208 160.374 827.497 165.455 839.343 168.127C852.195 171.026 864.118 170.665 875.804 167.023C894.371 161.242 910.273 143.769 920.348 130.137C948.072 92.6009 963.186 43.1355 955.506 15.0817C951.598 0.785279 944.732 -11.5509 938.092 -23.4861C926.833 -43.7251 916.194 -62.8473 922.028 -88.3878C925.582 -103.88 931.445 -117.84 937.12 -131.348L937.191 -131.517C947.024 -154.908 956.295 -176.947 951.698 -202.741C948.538 -220.499 938.907 -235.308 924.577 -244.448C918.797 -248.129 912.438 -250.771 905.67 -252.298C896.067 -254.464 885.936 -254.26 876.368 -251.718C864.774 -248.629 852.25 -240.448 837.742 -230.966C824.606 -222.389 809.726 -212.667 793.437 -205.653C786.109 -202.506 778.512 -200.034 771.162 -197.638L771.077 -197.611C753.612 -191.945 737.124 -186.6 727.207 -173.17C723.225 -167.784 720.588 -161.512 719.137 -153.997C717.088 -143.328 717.824 -132.599 718.534 -122.219C719.459 -108.781 720.415 -94.8926 715.501 -80.3678C707.508 -56.7602 694.638 -33.1104 676.139 -8.07629C651.715 24.9892 621.861 54.691 592.987 83.4125L592.758 83.6381C575.923 100.392 560.023 116.215 546.198 131.774C543.83 134.428 541.57 137.213 539.479 140.042C525.331 159.198 519.619 179.28 523.389 196.589C526.364 210.252 533.227 227.288 549.051 230.857L549.068 230.841ZM771.996 142.321C753.67 138.187 737.154 141.11 720.021 151.512C707.057 159.388 694.524 169.072 681.255 179.323C644.341 207.828 586.279 235.485 551.367 230.601C550.645 230.497 549.915 230.366 549.217 230.208C533.732 226.716 526.982 209.91 524.047 196.427C520.315 179.298 525.986 159.399 540.025 140.403C542.106 137.591 544.348 134.822 546.708 132.179C560.522 116.638 576.414 100.82 593.242 84.0707L593.471 83.845C622.361 55.1075 652.233 25.3835 676.687 -7.72177C695.218 -32.8144 708.127 -56.5213 716.141 -80.1904C721.094 -94.8317 720.134 -108.787 719.203 -122.286C718.497 -132.626 717.765 -143.314 719.796 -153.901C721.232 -161.321 723.83 -167.509 727.754 -172.816C737.547 -186.075 753.944 -191.395 771.308 -197.024L771.393 -197.051C778.755 -199.444 786.368 -201.926 793.719 -205.087C810.066 -212.122 824.968 -221.858 838.113 -230.447C852.582 -239.898 865.061 -248.056 876.557 -251.121C886.021 -253.64 896.044 -253.835 905.546 -251.692C912.239 -250.182 918.531 -247.568 924.249 -243.928C938.422 -234.882 947.953 -220.222 951.083 -202.648C955.642 -177.041 946.411 -155.086 936.637 -131.84L936.54 -131.618C930.853 -118.086 924.976 -104.095 921.411 -88.5533C915.524 -62.774 926.218 -43.5469 937.538 -23.1952C944.158 -11.2908 951.005 1.01459 954.89 15.2334C962.523 43.118 947.449 92.3481 919.83 129.737C909.818 143.296 894.012 160.666 875.616 166.393C864.043 170.001 852.22 170.358 839.488 167.486C827.705 164.829 816.445 159.76 805.557 154.862C794.147 149.727 783.379 144.882 771.997 142.314L771.996 142.321Z" fill="url(#paint13_linear_222_3500)"/>
<path d="M569.151 214.708C569.378 214.759 569.604 214.81 569.838 214.856C610.166 223.074 640.257 197.737 669.353 173.238C671.832 171.15 674.309 169.068 676.79 167L677.083 166.756C687.14 158.388 697.537 149.742 708.283 142.243C726.926 129.217 744.896 125.586 766.565 130.473C777.789 133.005 788.651 137.436 800.16 142.131C811.473 146.756 823.126 151.516 835.292 154.261C844.637 156.369 853.267 157.054 861.665 156.36C878.935 154.928 898.883 140.507 916.403 116.797C929.941 98.467 940.538 76.5492 944.745 58.1613C952.256 25.4794 938.321 2.46478 924.842 -19.787C912.789 -39.6969 901.398 -58.5002 904.862 -83.1689C907.44 -101.449 915.845 -117.807 923.978 -133.633C938.299 -161.491 951.805 -187.756 928.727 -218.577C920.592 -229.443 911.529 -235.878 901.04 -238.244C876.612 -243.754 849.12 -225.165 824.854 -208.76C814.42 -201.705 804.609 -195.072 795.39 -190.391C790.753 -188.044 785.761 -185.968 781.353 -184.143C769.265 -179.125 757.847 -174.386 750.47 -164.398C747.748 -160.707 745.766 -156.573 744.408 -151.756C742.308 -144.288 743.913 -135.066 745.613 -125.301C747.268 -115.83 748.975 -106.064 747.351 -97.1946C745.656 -87.9514 739.43 -77.0696 734.893 -69.6889C727.761 -58.1003 719.671 -46.2131 710.166 -33.3511C688.557 -4.10022 664.534 23.4642 643.332 47.7763C634.474 57.9454 625.306 68.4608 617.422 77.8856L617.241 78.1023C606.844 90.552 593.9 106.038 582.3 121.749C555.802 157.621 545.427 182.685 550.577 198.357C552.547 204.348 557.374 212.051 569.158 214.709L569.151 214.708ZM766.713 129.847C744.849 124.915 726.72 128.576 707.92 141.712C697.151 149.225 686.745 157.884 676.673 166.261L676.38 166.505C673.893 168.571 671.414 170.66 668.936 172.748C639.953 197.153 609.99 222.388 569.966 214.231C569.739 214.18 569.518 214.137 569.292 214.086C557.804 211.495 553.102 203.997 551.182 198.164C546.104 182.699 556.448 157.833 582.814 122.135C594.404 106.442 607.34 90.9609 617.735 78.5174L617.916 78.3008C625.793 68.8807 634.953 58.3703 643.817 48.2025C665.022 23.8779 689.06 -3.69622 710.68 -32.9645C720.195 -45.8439 728.29 -57.7501 735.436 -69.3484C740.003 -76.7688 746.264 -87.7217 747.977 -97.0731C749.621 -106.057 747.906 -115.878 746.251 -125.375C744.561 -135.098 742.967 -144.251 745.028 -151.576C746.362 -156.319 748.31 -160.389 750.99 -164.01C758.261 -173.85 769.6 -178.561 781.602 -183.545C786.018 -185.382 791.023 -187.455 795.683 -189.817C804.939 -194.516 814.765 -201.159 825.176 -208.198C849.373 -224.56 876.747 -243.063 900.899 -237.615C911.237 -235.284 920.172 -228.931 928.217 -218.19C951.056 -187.688 937.643 -161.599 923.44 -133.972C915.259 -118.052 906.829 -101.64 904.233 -83.2513C900.738 -58.3584 912.18 -39.4578 924.296 -19.4479C937.707 2.69608 951.576 25.5967 944.122 58.0273C939.933 76.3335 929.376 98.1613 915.886 116.423C898.479 139.986 878.697 154.313 861.616 155.729C853.278 156.416 844.715 155.733 835.433 153.639C823.322 150.907 811.687 146.157 800.44 141.56C788.871 136.838 777.98 132.395 766.705 129.851L766.713 129.847Z" fill="url(#paint14_linear_222_3500)"/>
<path d="M594.402 196.485C607.97 199.545 625.496 189.278 635.967 183.143C636.743 182.691 637.473 182.262 638.166 181.857L639.989 180.802C651.483 174.198 661.932 164.414 672.993 154.056L673.152 153.907C690.898 137.305 709.248 120.133 732.588 116.498C740.971 115.2 749.582 115.585 758.915 117.69C770.723 120.353 782.065 125.321 794.081 130.58C806.56 136.035 819.459 141.684 833.398 144.829C841.015 146.547 848.237 147.377 855.487 147.355C874.593 147.327 894.316 134.842 911.029 112.218C926.214 91.6581 937.179 64.4759 938.305 44.581C939.735 19.4138 925.922 -1.59286 912.561 -21.91C897.516 -44.8054 883.312 -66.4217 891.014 -92.3397C894.417 -103.766 901.45 -115.007 908.895 -126.901C924.75 -152.281 941.136 -178.491 921.846 -207.625C915.48 -217.234 906.554 -223.572 896.028 -225.946C885.501 -228.32 874.274 -226.621 863.191 -221.113C844.455 -211.805 798.502 -180.295 782.625 -158.802C780.011 -155.265 778.279 -152.098 777.477 -149.387C774.501 -139.271 776.424 -130.552 778.288 -122.123C780.989 -109.915 783.776 -97.2968 771.644 -80.8683C770.085 -78.7575 768.309 -76.6229 766.368 -74.5189C760.078 -67.6853 752.975 -61.4048 746.099 -55.3373C737.925 -48.1166 729.472 -40.6488 722.256 -32.1424C719.729 -29.1671 717.223 -25.9893 714.598 -22.4353C708.837 -14.6374 703.557 -6.45367 697.963 2.21375C692.093 11.3141 686.042 20.6904 679.13 30.0507C675.592 34.8444 672.182 39.1587 668.705 43.2401C666.032 46.3937 662.988 49.9058 659.766 53.622L658.865 54.6599C646.062 69.4322 630.129 87.8092 615.819 107.186C591.432 140.201 571.976 168.894 580.939 185.638C584.089 191.524 588.617 195.167 594.399 196.471L594.402 196.485ZM759.05 117.06C749.642 114.938 740.954 114.543 732.487 115.862C708.949 119.524 690.524 136.765 672.71 153.437L672.551 153.586C661.522 163.919 651.098 173.682 639.665 180.247L637.842 181.302C637.151 181.7 636.412 182.134 635.643 182.588C625.255 188.676 607.867 198.862 594.55 195.858C588.957 194.596 584.577 191.06 581.518 185.353C572.747 168.962 592.988 139.218 616.348 107.59C630.648 88.23 646.566 69.8627 659.366 55.103L660.267 54.0652C663.491 50.3427 666.535 46.8305 669.214 43.6783C672.693 39.5844 676.113 35.2589 679.66 30.454C686.589 21.0778 692.642 11.6951 698.499 2.61853C704.113 -6.07748 709.392 -14.2548 715.136 -22.0367C717.751 -25.5796 720.247 -28.7401 722.766 -31.7104C729.948 -40.1848 738.385 -47.6366 746.548 -54.8399C753.435 -60.9248 760.552 -67.2088 766.861 -74.071C768.819 -76.1909 770.607 -78.3492 772.181 -80.4697C784.492 -97.1289 781.666 -109.9 778.935 -122.241C777.088 -130.593 775.185 -139.229 778.112 -149.191C778.892 -151.827 780.595 -154.929 783.162 -158.403C798.983 -179.823 844.809 -211.237 863.5 -220.522C874.448 -225.961 885.652 -227.613 895.908 -225.3C906.165 -222.986 915.054 -216.723 921.326 -207.254C940.385 -178.469 924.117 -152.43 908.38 -127.255C900.895 -115.297 893.841 -104.021 890.412 -92.5086C882.62 -66.3073 896.908 -44.5663 912.032 -21.5541C925.338 -1.31534 939.092 19.5989 937.676 44.558C936.556 64.3419 925.643 91.3775 910.525 111.847C893.935 134.307 874.392 146.694 855.498 146.724C848.302 146.738 841.124 145.918 833.551 144.209C819.668 141.078 806.798 135.449 794.35 130C782.31 124.73 770.939 119.748 759.067 117.071L759.05 117.06Z" fill="url(#paint15_linear_222_3500)"/>
<path d="M633.004 153.796C644.134 156.307 662.126 141.305 674.686 129.806C681.347 123.696 687.633 117.931 695.897 113.385C711.732 104.697 728.267 102.716 747.931 107.151C762.562 110.451 777.091 116.924 791.141 123.176C804.95 129.328 819.218 135.695 833.503 138.917C847.788 142.139 860.843 141.763 872.61 137.584C886.467 132.662 899.153 122.795 909.307 109.05C931.382 79.1711 938.226 36.7334 925.586 8.15485C919.724 -5.09036 905.425 -25.0843 893.625 -41.0222C892.062 -43.1375 890.33 -45.4162 888.693 -47.5549C878.065 -61.4261 864.834 -78.6902 867.156 -91.3835C867.937 -95.67 869.949 -99.9629 873.313 -104.512C877.839 -110.641 884.504 -116.677 890.382 -122.006L890.457 -122.075C896.866 -127.885 903.49 -133.89 908.339 -140.455C909.927 -142.605 911.235 -144.687 912.33 -146.816C919.237 -160.192 922.803 -187.452 911.552 -203.827C907.233 -210.096 901.18 -214.148 893.563 -215.867C889.34 -216.819 884.64 -217.034 879.601 -216.507C861.71 -214.634 839.255 -199.847 825.001 -180.543C817.557 -170.464 813.023 -160.112 811.892 -150.59C811.034 -143.33 813.595 -135.86 816.297 -127.955L816.32 -127.884C820.508 -115.677 824.832 -103.049 815.913 -90.9725C815.03 -89.7788 814.022 -88.5931 812.914 -87.4567C803.42 -77.6291 791.027 -70.2377 777.902 -62.4107L777.827 -62.3683C763.013 -53.5227 747.696 -44.3812 734.908 -30.8138C731.087 -26.7573 727.42 -22.3293 723.693 -17.2812C715.65 -6.39343 708.615 5.70545 701.809 17.4006L701.606 17.7443C694.616 29.7609 687.389 42.186 679.197 52.9741C674.04 59.7597 668.419 66.5592 662.981 73.1294L662.617 73.569C656.353 81.141 650.434 88.2895 645.119 95.4881C633.092 111.769 619.597 133.713 623.594 145.798C624.85 149.6 627.771 152.226 632.276 153.599C632.516 153.673 632.766 153.736 633.011 153.791L633.004 153.796ZM748.079 106.525C728.245 102.051 711.567 104.052 695.589 112.82C687.257 117.404 680.938 123.195 674.252 129.325C666.313 136.592 645.237 155.895 633.147 153.162C632.914 153.109 632.683 153.051 632.455 152.979C628.161 151.667 625.387 149.18 624.195 145.59C620.284 133.769 633.695 112.024 645.628 95.867C650.934 88.6795 656.845 81.5359 663.107 73.9764L663.47 73.5369C668.911 66.9541 674.539 60.156 679.704 53.3593C687.924 42.5377 695.162 30.0952 702.162 18.0612L702.365 17.7174C709.161 6.03342 716.192 -6.0466 724.209 -16.9072C727.926 -21.9379 731.575 -26.3436 735.377 -30.3778C748.105 -43.8797 763.384 -53.0032 778.16 -61.8245L778.235 -61.8668C791.397 -69.7119 803.828 -77.1276 813.377 -87.0221C814.504 -88.1808 815.529 -89.3887 816.431 -90.6048C825.55 -102.953 821.169 -115.739 816.932 -128.109L816.602 -128.078L816.909 -128.18C814.225 -136.015 811.694 -143.419 812.532 -150.531C813.65 -159.937 818.142 -170.187 825.519 -180.175C839.676 -199.343 861.941 -214.02 879.664 -215.879C884.634 -216.395 889.264 -216.189 893.418 -215.252C900.877 -213.57 906.799 -209.606 911.024 -203.478C922.136 -187.305 918.595 -160.363 911.759 -147.124C910.678 -145.024 909.389 -142.971 907.827 -140.847C903.015 -134.328 896.414 -128.343 890.031 -122.56L889.956 -122.491C884.055 -117.148 877.371 -111.083 872.807 -104.903C869.386 -100.275 867.334 -95.8919 866.537 -91.5098C864.166 -78.5373 877.493 -61.1457 888.197 -47.1716C889.834 -45.0329 891.567 -42.7605 893.124 -40.6466C904.909 -24.7318 919.178 -4.77777 925.014 8.40866C937.566 36.7892 930.751 78.9497 908.807 108.66C898.729 122.304 886.146 132.095 872.413 136.966C860.762 141.098 848.085 141.526 833.662 138.273C819.239 135.02 805.2 128.717 791.422 122.573C777.343 116.301 762.783 109.821 748.09 106.507L748.079 106.525Z" fill="url(#paint16_linear_222_3500)"/>
<path d="M838.131 128.91C838.986 129.102 839.837 129.281 840.685 129.446C862.774 133.788 887.459 121.643 905.107 97.7441C920.805 76.4884 927.315 50.262 922.524 27.5865C916.183 -2.42309 890.101 -38.2256 861.858 -55.6873C853.993 -60.551 846.198 -63.8805 838.688 -65.5744C831.178 -67.2683 823.528 -67.317 816.723 -65.5508C786.014 -57.5309 752.482 -32.983 729.217 -1.48474C710.173 24.2979 692.004 53.4928 701.621 74.5696C704.927 81.8117 711.303 84.0817 716.488 85.2512C718.618 85.7317 720.794 86.0706 722.907 86.3953C724.955 86.7121 726.894 87.0174 728.729 87.4313C731.557 88.0692 734.461 88.7241 737.414 89.595C754.414 94.5715 771.486 102.271 787.993 109.724C806.002 117.84 823.01 125.499 838.137 128.911L838.131 128.91ZM838.538 -64.9413C845.979 -63.263 853.708 -59.9617 861.516 -55.1373C889.625 -37.7521 915.582 -2.12955 921.892 27.7214C926.652 50.2179 920.178 76.2544 904.592 97.3638C887.089 121.058 862.65 133.106 840.814 128.815C825.128 125.745 807.25 117.692 788.259 109.131C771.733 101.673 754.644 93.9632 737.594 88.9753C734.62 88.1064 731.705 87.4424 728.883 86.8059C727.011 86.3835 725.064 86.0831 723.003 85.7635C720.904 85.4353 718.734 85.1041 716.628 84.6292C711.588 83.4924 705.388 81.2886 702.202 74.3047C692.721 53.5356 710.8 24.5318 729.73 -1.09817C752.911 -32.4835 786.311 -56.9425 816.879 -64.9217C823.585 -66.6636 830.871 -66.6707 838.538 -64.9413Z" fill="url(#paint17_linear_222_3500)"/>
<path d="M836.929 117.197C850.78 120.322 862.984 118.948 874.241 112.991C884.67 107.48 893.242 100.25 899.708 91.4956C914.633 71.2935 917.65 43.0447 907.781 15.9428C896.632 -14.6496 872.275 -37.2819 842.63 -44.6089C842.28 -44.6945 841.936 -44.7788 841.59 -44.8567C809.149 -52.174 768.96 -28.3882 748.851 -1.16238C736.159 16.0181 731.208 33.9279 734.909 49.2603C738.363 63.5468 748.967 75.2406 766.41 84.0207C774.352 87.5749 782.365 92.0164 790.848 96.7158C805.885 105.065 821.438 113.703 836.929 117.197ZM841.448 -44.2285C841.794 -44.1505 842.139 -44.0726 842.476 -43.9835C871.915 -36.7095 896.106 -14.2203 907.176 16.163C916.972 43.0634 913.98 71.0868 899.186 91.1139C892.778 99.7892 884.28 106.956 873.934 112.42C862.814 118.296 850.759 119.657 837.065 116.568C821.668 113.095 806.156 104.48 791.154 96.151C782.66 91.4425 774.635 86.9918 766.681 83.4348C749.42 74.7552 738.937 63.2008 735.524 49.1086C731.867 33.9642 736.78 16.2506 749.359 -0.777249C769.345 -27.8393 809.251 -51.4842 841.434 -44.2251L841.448 -44.2285Z" fill="url(#paint18_linear_222_3500)"/>
<path d="M842.088 111.191C855.487 114.214 867.153 112.415 877.748 105.701C885.169 100.997 891.497 95.1364 896.556 88.2827C907.158 73.9252 911.954 55.1815 909.732 36.8355C905.486 1.72644 882.237 -24.7623 847.553 -34.0183C846.345 -34.3436 845.117 -34.6402 843.904 -34.9138C827.571 -38.598 810.997 -37.8472 795.97 -32.7464C780.901 -27.6291 768.102 -18.3753 758.939 -5.97738C753.148 1.86652 748.793 10.9851 746.001 21.1362C742.599 33.5529 745.428 46.543 754.189 58.7058C762.277 69.9311 775.116 80.2079 791.326 88.4195C795.03 90.2981 798.748 92.2591 802.343 94.1526C816.12 101.413 829.128 108.275 842.08 111.196L842.088 111.191ZM843.764 -34.2919C844.971 -34.0197 846.19 -33.7182 847.387 -33.402C881.811 -24.2181 904.874 2.07025 909.088 36.9082C911.3 55.0935 906.543 73.6675 896.045 87.8835C891.017 94.6849 884.747 100.493 877.396 105.153C866.953 111.776 855.446 113.544 842.223 110.562C829.001 107.579 816.38 100.818 802.644 93.5801C799.043 91.6852 795.32 89.7164 791.614 87.8441C775.494 79.6726 762.731 69.4722 754.704 58.3268C746.064 46.3299 743.266 33.525 746.611 21.3003C749.384 11.2308 753.705 2.17713 759.449 -5.60476C777.799 -30.448 810.89 -41.707 843.751 -34.2947L843.764 -34.2919Z" fill="url(#paint19_linear_222_3500)"/>
<path d="M837.058 99.2035C849.131 101.927 859.253 100.823 868.909 95.7257C876.104 91.9351 882.062 86.895 886.614 80.7389C900.732 61.6288 900.15 32.6473 885.18 8.62689C875.013 -7.6954 859.974 -18.8183 842.843 -22.6824C834.465 -24.572 825.728 -24.7471 816.884 -23.1902C801.268 -20.4538 787.533 -11.9987 778.213 0.62781C767.497 15.1379 764.116 33.4943 769.176 49.7406C773.281 62.9263 784.589 80.8988 815.152 91.6216C822.189 94.5029 829.443 97.4792 837.066 99.1986L837.058 99.2035ZM842.695 -22.0556C859.656 -18.2297 874.554 -7.21142 884.629 8.96457C899.463 32.7631 900.051 61.4554 886.094 80.3509C881.606 86.429 875.72 91.4128 868.608 95.1561C859.096 100.174 849.115 101.263 837.2 98.5753C829.627 96.8672 822.397 93.9028 815.409 91.0391C785.049 80.3819 773.844 62.5977 769.785 49.5547C764.794 33.5021 768.133 15.3607 778.726 1.01438C787.95 -11.4755 801.54 -19.8445 816.991 -22.5521C825.751 -24.0883 834.398 -23.9205 842.693 -22.0493L842.695 -22.0556Z" fill="url(#paint20_linear_222_3500)"/>
<path d="M835.647 90.9695C855.393 95.4234 871.226 85.1044 879.452 73.9608C891.338 57.866 895.034 30.2921 875.059 7.76349C866.329 -2.07519 854.262 -9.12778 841.083 -12.1003C835.496 -13.3605 829.788 -13.8757 824.134 -13.6391C807.447 -12.9467 792.912 -5.83398 784.26 5.88031C780.106 11.4991 777.398 18.0314 776.202 25.2944C771.75 52.6452 797.061 74.3571 820.093 84.6489C825.236 87.6707 830.481 89.8043 835.647 90.9695ZM840.942 -11.4721C853.995 -8.52789 865.938 -1.54275 874.58 8.19016C894.319 30.4476 890.672 57.683 878.938 73.5743C870.829 84.5526 855.233 94.7271 835.788 90.3413C830.685 89.1902 825.501 87.0834 820.388 84.0749C797.535 73.8633 772.443 52.3855 776.839 25.3985C778.018 18.2374 780.692 11.8028 784.781 6.26203C793.318 -5.29336 807.668 -12.3159 824.161 -12.9992C829.762 -13.2345 835.413 -12.7258 840.943 -11.4784L840.942 -11.4721Z" fill="url(#paint21_linear_222_3500)"/>
<path d="M834.473 72.1602C848.519 75.3283 860.608 71.6843 867.643 62.1602C868.271 61.3114 868.885 60.3739 869.467 59.3762C879.897 41.3026 868.618 20.8874 852.088 10.0552C847.231 6.87363 841.868 4.56146 836.577 3.36792C823.065 0.320254 811.315 4.48303 803.483 15.0816C802.866 15.913 802.28 16.7842 801.723 17.6689C797.398 24.6353 796.374 32.5709 798.773 40.6181C802.161 52.0049 812.542 63.2257 825.226 69.2095C828.358 70.4903 831.463 71.4812 834.473 72.1602ZM836.435 3.99616C841.651 5.1727 846.942 7.45529 851.734 10.5961C868.013 21.2592 879.138 41.3295 868.911 59.0593C868.34 60.0396 867.744 60.9549 867.127 61.7862C860.252 71.0956 848.402 74.6483 834.62 71.5396C831.641 70.8677 828.574 69.8853 825.489 68.6284C812.985 62.7249 802.735 51.6589 799.394 40.4413C797.054 32.5724 798.049 24.8218 802.278 18.0186C802.824 17.1513 803.401 16.2913 804.007 15.4773C811.679 5.09336 823.197 1.02344 836.439 4.01016L836.435 3.99616Z" fill="url(#paint22_linear_222_3500)"/>
<path d="M836.538 52.7015C842.646 54.0793 847.142 53.0929 849.545 49.8455C853.806 44.0727 850.75 31.7971 843.49 25.5118C841.467 23.7617 839.176 22.5583 836.87 22.0381C831.767 20.8871 826.551 22.8728 821.351 27.9455L821.294 28.0249C819.301 31.794 819.119 36.262 820.794 40.6075C822.697 45.5195 826.609 49.4321 831.264 51.0763C833.106 51.7822 834.884 52.335 836.536 52.7078L836.538 52.7015ZM836.734 22.6677C839.518 23.2957 841.715 24.8278 843.07 25.998C850.11 32.0884 853.112 43.9293 849.03 49.4652C846.795 52.4931 842.524 53.3916 836.684 52.081C835.063 51.7152 833.316 51.1758 831.499 50.4756C827.008 48.8949 823.237 45.1196 821.406 40.3824C819.812 36.2335 819.968 31.9708 821.854 28.3823C826.871 23.4997 831.881 21.5797 836.739 22.6754L836.734 22.6677Z" fill="url(#paint23_linear_222_3500)"/>
</g>
<defs>
<linearGradient id="paint0_linear_222_3500" x1="258.049" y1="60.7313" x2="1025.86" y2="252.906" gradientUnits="userSpaceOnUse">
<stop stop-color="#EACE88"/>
<stop offset="1" stop-color="#F0EBDD"/>
</linearGradient>
<linearGradient id="paint1_linear_222_3500" x1="258.049" y1="60.7313" x2="1025.86" y2="252.906" gradientUnits="userSpaceOnUse">
<stop stop-color="#EACE88"/>
<stop offset="1" stop-color="#F0EBDD"/>
</linearGradient>
<linearGradient id="paint2_linear_222_3500" x1="258.049" y1="60.7313" x2="1025.86" y2="252.906" gradientUnits="userSpaceOnUse">
<stop stop-color="#EACE88"/>
<stop offset="1" stop-color="#F0EBDD"/>
</linearGradient>
<linearGradient id="paint3_linear_222_3500" x1="258.049" y1="60.7313" x2="1025.86" y2="252.906" gradientUnits="userSpaceOnUse">
<stop stop-color="#EACE88"/>
<stop offset="1" stop-color="#F0EBDD"/>
</linearGradient>
<linearGradient id="paint4_linear_222_3500" x1="258.049" y1="60.7313" x2="1025.86" y2="252.906" gradientUnits="userSpaceOnUse">
<stop stop-color="#EACE88"/>
<stop offset="1" stop-color="#F0EBDD"/>
</linearGradient>
<linearGradient id="paint5_linear_222_3500" x1="258.049" y1="60.7313" x2="1025.86" y2="252.906" gradientUnits="userSpaceOnUse">
<stop stop-color="#EACE88"/>
<stop offset="1" stop-color="#F0EBDD"/>
</linearGradient>
<linearGradient id="paint6_linear_222_3500" x1="258.049" y1="60.7313" x2="1025.86" y2="252.906" gradientUnits="userSpaceOnUse">
<stop stop-color="#EACE88"/>
<stop offset="1" stop-color="#F0EBDD"/>
</linearGradient>
<linearGradient id="paint7_linear_222_3500" x1="258.049" y1="60.7313" x2="1025.86" y2="252.906" gradientUnits="userSpaceOnUse">
<stop stop-color="#EACE88"/>
<stop offset="1" stop-color="#F0EBDD"/>
</linearGradient>
<linearGradient id="paint8_linear_222_3500" x1="258.049" y1="60.7313" x2="1025.86" y2="252.906" gradientUnits="userSpaceOnUse">
<stop stop-color="#EACE88"/>
<stop offset="1" stop-color="#F0EBDD"/>
</linearGradient>
<linearGradient id="paint9_linear_222_3500" x1="258.049" y1="60.7313" x2="1025.86" y2="252.906" gradientUnits="userSpaceOnUse">
<stop stop-color="#EACE88"/>
<stop offset="1" stop-color="#F0EBDD"/>
</linearGradient>
<linearGradient id="paint10_linear_222_3500" x1="258.049" y1="60.7313" x2="1025.86" y2="252.906" gradientUnits="userSpaceOnUse">
<stop stop-color="#EACE88"/>
<stop offset="1" stop-color="#F0EBDD"/>
</linearGradient>
<linearGradient id="paint11_linear_222_3500" x1="258.049" y1="60.7313" x2="1025.86" y2="252.906" gradientUnits="userSpaceOnUse">
<stop stop-color="#EACE88"/>
<stop offset="1" stop-color="#F0EBDD"/>
</linearGradient>
<linearGradient id="paint12_linear_222_3500" x1="258.049" y1="60.7313" x2="1025.86" y2="252.906" gradientUnits="userSpaceOnUse">
<stop stop-color="#EACE88"/>
<stop offset="1" stop-color="#F0EBDD"/>
</linearGradient>
<linearGradient id="paint13_linear_222_3500" x1="258.049" y1="60.7313" x2="1025.86" y2="252.906" gradientUnits="userSpaceOnUse">
<stop stop-color="#EACE88"/>
<stop offset="1" stop-color="#F0EBDD"/>
</linearGradient>
<linearGradient id="paint14_linear_222_3500" x1="258.049" y1="60.7313" x2="1025.86" y2="252.906" gradientUnits="userSpaceOnUse">
<stop stop-color="#EACE88"/>
<stop offset="1" stop-color="#F0EBDD"/>
</linearGradient>
<linearGradient id="paint15_linear_222_3500" x1="258.049" y1="60.7313" x2="1025.86" y2="252.906" gradientUnits="userSpaceOnUse">
<stop stop-color="#EACE88"/>
<stop offset="1" stop-color="#F0EBDD"/>
</linearGradient>
<linearGradient id="paint16_linear_222_3500" x1="258.049" y1="60.7313" x2="1025.86" y2="252.906" gradientUnits="userSpaceOnUse">
<stop stop-color="#EACE88"/>
<stop offset="1" stop-color="#F0EBDD"/>
</linearGradient>
<linearGradient id="paint17_linear_222_3500" x1="258.049" y1="60.7313" x2="1025.86" y2="252.906" gradientUnits="userSpaceOnUse">
<stop stop-color="#EACE88"/>
<stop offset="1" stop-color="#F0EBDD"/>
</linearGradient>
<linearGradient id="paint18_linear_222_3500" x1="258.049" y1="60.7313" x2="1025.86" y2="252.906" gradientUnits="userSpaceOnUse">
<stop stop-color="#EACE88"/>
<stop offset="1" stop-color="#F0EBDD"/>
</linearGradient>
<linearGradient id="paint19_linear_222_3500" x1="258.049" y1="60.7313" x2="1025.86" y2="252.906" gradientUnits="userSpaceOnUse">
<stop stop-color="#EACE88"/>
<stop offset="1" stop-color="#F0EBDD"/>
</linearGradient>
<linearGradient id="paint20_linear_222_3500" x1="258.049" y1="60.7313" x2="1025.86" y2="252.906" gradientUnits="userSpaceOnUse">
<stop stop-color="#EACE88"/>
<stop offset="1" stop-color="#F0EBDD"/>
</linearGradient>
<linearGradient id="paint21_linear_222_3500" x1="258.049" y1="60.7313" x2="1025.86" y2="252.906" gradientUnits="userSpaceOnUse">
<stop stop-color="#EACE88"/>
<stop offset="1" stop-color="#F0EBDD"/>
</linearGradient>
<linearGradient id="paint22_linear_222_3500" x1="258.049" y1="60.7313" x2="1025.86" y2="252.906" gradientUnits="userSpaceOnUse">
<stop stop-color="#EACE88"/>
<stop offset="1" stop-color="#F0EBDD"/>
</linearGradient>
<linearGradient id="paint23_linear_222_3500" x1="258.049" y1="60.7313" x2="1025.86" y2="252.906" gradientUnits="userSpaceOnUse">
<stop stop-color="#EACE88"/>
<stop offset="1" stop-color="#F0EBDD"/>
</linearGradient>
</defs>
</svg>
