<svg width="18" height="20" viewBox="0 0 18 20" fill="none" xmlns="http://www.w3.org/2000/svg">
<path d="M0 8.2635C0 12.3167 3.29786 15.6146 7.35109 15.6146C8.95394 15.6146 10.4186 15.0988 11.6254 14.2328L16.1577 18.7743C16.3695 18.9862 16.6459 19.0875 16.9407 19.0875C17.5671 19.0875 18 18.6176 18 18.0005C18 17.7057 17.8895 17.4385 17.696 17.2451L13.1914 12.7128C14.1403 11.4785 14.7022 9.94009 14.7022 8.2635C14.7022 4.21027 11.4043 0.912415 7.35109 0.912415C3.29786 0.912415 0 4.21027 0 8.2635ZM1.57524 8.2635C1.57524 5.07619 4.16378 2.48765 7.35109 2.48765C10.5384 2.48765 13.1269 5.07619 13.1269 8.2635C13.1269 11.4508 10.5384 14.0393 7.35109 14.0393C4.16378 14.0393 1.57524 11.4508 1.57524 8.2635Z" fill="#837550"/>
</svg>
