<svg width="29" height="29" viewBox="0 0 29 29" fill="none" xmlns="http://www.w3.org/2000/svg">
<path d="M9.55469 1.07617H24.1176C26.3267 1.07617 28.1176 2.86703 28.1176 5.07617V18.7711" stroke="#837550" stroke-width="1.5" stroke-linecap="round"/>
<path d="M27.2975 24.9111H7.42975C5.50751 24.9111 3.94922 23.3745 3.94922 21.4789V2.43026" stroke="#837550" stroke-width="1.5" stroke-miterlimit="10" stroke-linecap="round" stroke-linejoin="round"/>
<path d="M0.816406 3.40234L2.77635 1.49565C3.45593 0.834491 4.55786 0.834491 5.23744 1.49565L7.19739 3.40234" stroke="#837550" stroke-width="1.5" stroke-miterlimit="10" stroke-linecap="round" stroke-linejoin="round"/>
<path d="M25.7031 21.7076L27.6878 23.6404C28.3674 24.3106 28.3674 25.3971 27.6878 26.0673L25.7031 28" stroke="#837550" stroke-width="1.5" stroke-miterlimit="10" stroke-linecap="round" stroke-linejoin="round"/>
<path d="M8.58984 13.2343C8.58984 12.1285 9.49884 11.2322 10.6202 11.2322C11.7415 11.2322 12.6505 12.1285 12.6505 13.2343V18.3325" stroke="#837550" stroke-width="1.5" stroke-miterlimit="10" stroke-linecap="round" stroke-linejoin="round"/>
<path d="M8.58984 18.3325V11.1821" stroke="#837550" stroke-width="1.5" stroke-miterlimit="10" stroke-linecap="round" stroke-linejoin="round"/>
<path d="M12.6484 13.2342C12.6484 12.1284 13.5574 11.2321 14.6787 11.2321C15.8001 11.2321 16.7091 12.1284 16.7091 13.2342V18.3262" stroke="#837550" stroke-width="1.5" stroke-miterlimit="10" stroke-linecap="round" stroke-linejoin="round"/>
<path d="M23.5544 12.6694H20.4219C20.4219 12.6694 23.4892 9.92368 23.4892 8.67562C23.4892 7.85189 22.8071 7.17792 21.9735 7.17792" stroke="#837550" stroke-width="1.5" stroke-miterlimit="10" stroke-linecap="round" stroke-linejoin="round"/>
<path d="M20.4219 8.67578C20.4219 7.85211 21.1039 7.17809 21.9376 7.17809" stroke="#837550" stroke-width="1.5" stroke-miterlimit="10" stroke-linecap="round" stroke-linejoin="round"/>
</svg>
