<svg width="27" height="22" viewBox="0 0 27 22" fill="none" xmlns="http://www.w3.org/2000/svg">
<path d="M9.40775 16.1623C9.5988 17.7056 8.87291 19.285 7.44133 20.1115C5.53215 21.2138 3.09082 20.5597 1.98857 18.6504C0.886307 16.7413 1.54045 14.3 3.44963 13.1977L9.49921 9.70493L21.9126 2.53812C23.3386 1.71483 25.1789 2.20791 26.0022 3.6339L10.9961 12.2976C8.75884 13.5894 9.16335 14.1879 9.40775 16.1623Z" stroke="white" stroke-width="1.5" stroke-miterlimit="22.926" stroke-linecap="round" stroke-linejoin="round"/>
<path d="M6.7388 15.9058C7.15219 16.6217 6.90685 17.5372 6.19094 17.9506C5.47492 18.3639 4.55948 18.1186 4.14614 17.4027C3.73274 16.6867 3.97804 15.7713 4.694 15.3579C5.40996 14.9445 6.32546 15.1898 6.7388 15.9058Z" stroke="white" stroke-width="1.5" stroke-miterlimit="22.926" stroke-linecap="round" stroke-linejoin="round"/>
<path d="M9.625 9.92098L10.8724 12.0815" stroke="white" stroke-width="1.5" stroke-miterlimit="22.926" stroke-linecap="round" stroke-linejoin="round"/>
<path d="M10.2414 9.22454C8.86306 8.2311 9.19567 7.55381 9.40778 5.84032C9.59883 4.29698 8.87289 2.71756 7.44132 1.89108C5.53214 0.78882 3.09086 1.44291 1.9886 3.35214C0.886292 5.26132 1.54043 7.70265 3.44961 8.80491L7.18395 10.9609M10.3572 12.793L21.9126 19.4645C23.3386 20.2878 25.1789 19.7947 26.0022 18.3687L13.3171 11.0449" stroke="white" stroke-width="1.5" stroke-miterlimit="22.926" stroke-linecap="round" stroke-linejoin="round"/>
<path d="M6.7388 6.09652C7.15219 5.38055 6.90685 4.46506 6.19094 4.05172C5.47492 3.63832 4.55948 3.88366 4.14614 4.59963C3.73274 5.31559 3.97804 6.23104 4.694 6.64443C5.40996 7.05777 6.32546 6.81248 6.7388 6.09652Z" stroke="white" stroke-width="1.5" stroke-miterlimit="22.926" stroke-linecap="round" stroke-linejoin="round"/>
<path d="M14.5078 11.0015H15.3831" stroke="white" stroke-width="1.5" stroke-miterlimit="22.926" stroke-linecap="round" stroke-linejoin="round"/>
<path d="M17.5039 11.0015H18.035" stroke="white" stroke-width="1.5" stroke-miterlimit="22.926" stroke-linecap="round" stroke-linejoin="round"/>
<path d="M20.1641 11.0015H20.6951" stroke="white" stroke-width="1.5" stroke-miterlimit="22.926" stroke-linecap="round" stroke-linejoin="round"/>
<path d="M22.8164 11.0015H23.3475" stroke="white" stroke-width="1.5" stroke-miterlimit="22.926" stroke-linecap="round" stroke-linejoin="round"/>
<path d="M25.4688 11.0015H25.9998" stroke="white" stroke-width="1.5" stroke-miterlimit="22.926" stroke-linecap="round" stroke-linejoin="round"/>
</svg>
