<svg width="24" height="13" viewBox="0 0 24 13" fill="none" xmlns="http://www.w3.org/2000/svg">
<path d="M4.80163 13V0.76H6.87163V13H4.80163ZM0.697625 2.29V0.399999H10.9756V2.29H0.697625ZM14.2002 13V11.11H17.5122C18.3762 11.11 19.1322 10.924 19.7802 10.552C20.4402 10.18 20.9502 9.664 21.3102 9.004C21.6822 8.332 21.8682 7.558 21.8682 6.682C21.8682 5.818 21.6822 5.056 21.3102 4.396C20.9382 3.736 20.4222 3.22 19.7622 2.848C19.1142 2.476 18.3642 2.29 17.5122 2.29H14.2002V0.399999H17.5662C18.4782 0.399999 19.3242 0.561999 20.1042 0.885999C20.8842 1.198 21.5622 1.642 22.1382 2.218C22.7262 2.782 23.1822 3.448 23.5062 4.216C23.8302 4.972 23.9922 5.8 23.9922 6.7C23.9922 7.588 23.8302 8.416 23.5062 9.184C23.1822 9.952 22.7322 10.624 22.1562 11.2C21.5802 11.764 20.9022 12.208 20.1222 12.532C19.3422 12.844 18.5022 13 17.6022 13H14.2002ZM12.7782 13V0.399999H14.8482V13H12.7782Z" fill="white"/>
</svg>
