<svg width="23" height="23" viewBox="0 0 23 23" fill="none" xmlns="http://www.w3.org/2000/svg">
<path d="M7.70312 1.05957H17.9404C20.1496 1.05957 21.9404 2.85043 21.9404 5.05957V14.8223" stroke="#BEB395" stroke-width="1.5" stroke-linecap="round"/>
<path d="M21.3099 19.5977H6.07183C4.59752 19.5977 3.40234 18.4025 3.40234 16.9282V2.11253" stroke="#BEB395" stroke-width="1.5" stroke-miterlimit="10" stroke-linecap="round" stroke-linejoin="round"/>
<path d="M1 2.86865L2.50323 1.38566C3.02445 0.871433 3.86961 0.871433 4.39082 1.38566L5.89405 2.86865" stroke="#BEB395" stroke-width="1.5" stroke-miterlimit="10" stroke-linecap="round" stroke-linejoin="round"/>
<path d="M20.0859 17.1059L21.6081 18.6092C22.1294 19.1304 22.1294 19.9755 21.6081 20.4968L20.0859 22" stroke="#BEB395" stroke-width="1.5" stroke-miterlimit="10" stroke-linecap="round" stroke-linejoin="round"/>
<path d="M6.96094 10.5157C6.96094 9.65564 7.65812 8.95846 8.51814 8.95846C9.37816 8.95846 10.0753 9.65564 10.0753 10.5157V14.481" stroke="#BEB395" stroke-width="1.5" stroke-miterlimit="10" stroke-linecap="round" stroke-linejoin="round"/>
<path d="M6.96094 14.481V8.91953" stroke="#BEB395" stroke-width="1.5" stroke-miterlimit="10" stroke-linecap="round" stroke-linejoin="round"/>
<path d="M10.0781 10.5156C10.0781 9.65561 10.7753 8.95843 11.6353 8.95843C12.4953 8.95843 13.1925 9.65561 13.1925 10.5156V14.4761" stroke="#BEB395" stroke-width="1.5" stroke-miterlimit="10" stroke-linecap="round" stroke-linejoin="round"/>
<path d="M18.4416 10.0762H16.0391C16.0391 10.0762 18.3916 7.94058 18.3916 6.96987C18.3916 6.32919 17.8685 5.805 17.2291 5.805" stroke="#BEB395" stroke-width="1.5" stroke-miterlimit="10" stroke-linecap="round" stroke-linejoin="round"/>
<path d="M16.0391 6.96973C16.0391 6.32909 16.5622 5.80485 17.2016 5.80485" stroke="#BEB395" stroke-width="1.5" stroke-miterlimit="10" stroke-linecap="round" stroke-linejoin="round"/>
</svg>
