<svg width="20" height="20" viewBox="0 0 20 20" fill="none" xmlns="http://www.w3.org/2000/svg">
<path d="M0.75 2C0.75 1.30964 1.30964 0.75 2 0.75H8C8.69036 0.75 9.25 1.30964 9.25 2V11.5119C9.25 12.0639 8.88792 12.5506 8.35918 12.7092L2.35918 14.5092C1.55717 14.7498 0.75 14.1493 0.75 13.3119V2Z" stroke="white" stroke-width="1.5"/>
<path d="M0.75 18.2798C0.75 17.8514 1.03102 17.4737 1.44138 17.3506L7.64081 15.4908C8.44283 15.2502 9.25 15.8507 9.25 16.6881V18C9.25 18.6904 8.69036 19.25 8 19.25H1.72015C1.18435 19.25 0.75 18.8156 0.75 18.2798Z" stroke="white" stroke-width="1.5"/>
<path d="M11.75 2C11.75 1.30964 12.3096 0.75 13 0.75H18C18.6904 0.75 19.25 1.30964 19.25 2V6.50677C19.25 7.30645 18.5095 7.90048 17.7288 7.727L12.7288 6.61589C12.1569 6.4888 11.75 5.98153 11.75 5.39566V2Z" stroke="white" stroke-width="1.5"/>
<path d="M11.75 10.4932C11.75 9.69355 12.4905 9.09952 13.2712 9.273L18.2712 10.3841C18.8431 10.5112 19.25 11.0185 19.25 11.6043V18C19.25 18.6904 18.6904 19.25 18 19.25H13C12.3096 19.25 11.75 18.6904 11.75 18V10.4932Z" stroke="white" stroke-width="1.5"/>
</svg>
