<svg width="41" height="33" viewBox="0 0 41 33" fill="none" xmlns="http://www.w3.org/2000/svg">
<path d="M13.5599 24.7933C13.8669 27.2734 12.7005 29.8113 10.4 31.1395C7.33208 32.9109 3.40902 31.8597 1.63776 28.7917C-0.133498 25.7238 0.917665 21.8008 3.9856 20.0294L13.7069 14.4168L33.6544 2.90022C35.9459 1.57724 38.9031 2.36959 40.2261 4.66106L16.1124 18.5831C12.5172 20.6589 13.1672 21.6207 13.5599 24.7933Z" stroke="#9E8D60" stroke-width="1.5" stroke-miterlimit="22.926" stroke-linecap="round" stroke-linejoin="round"/>
<path d="M9.27411 24.3817C9.9384 25.5322 9.54416 27.0033 8.39373 27.6676C7.24315 28.3318 5.77208 27.9376 5.10787 26.7871C4.44357 25.6366 4.83774 24.1655 5.98825 23.5013C7.13875 22.837 8.6099 23.2312 9.27411 24.3817Z" stroke="#9E8D60" stroke-width="1.5" stroke-miterlimit="22.926" stroke-linecap="round" stroke-linejoin="round"/>
<path d="M13.9062 14.764L15.9108 18.2358" stroke="#BEB395" stroke-width="1.5" stroke-miterlimit="22.926" stroke-linecap="round" stroke-linejoin="round"/>
<path d="M14.8996 13.6449C12.6846 12.0485 13.2191 10.9602 13.56 8.20671C13.867 5.72665 12.7004 3.18863 10.4 1.86052C7.33206 0.0892625 3.40908 1.14034 1.63782 4.20836C-0.133522 7.27629 0.91764 11.1994 3.98558 12.9706L9.98642 16.4351M15.0856 19.3792L33.6544 30.0999C35.9459 31.4229 38.9032 30.6305 40.2262 28.339L19.8419 16.5701" stroke="#BEB395" stroke-width="1.5" stroke-miterlimit="22.926" stroke-linecap="round" stroke-linejoin="round"/>
<path d="M9.27411 8.61818C9.9384 7.46767 9.54416 5.99652 8.39373 5.33231C7.24315 4.66802 5.77208 5.06226 5.10787 6.21277C4.44357 7.36328 4.83774 8.83434 5.98825 9.49863C7.13875 10.1628 8.6099 9.76868 9.27411 8.61818Z" stroke="#BEB395" stroke-width="1.5" stroke-miterlimit="22.926" stroke-linecap="round" stroke-linejoin="round"/>
<path d="M21.7539 16.5H23.1604" stroke="#BEB395" stroke-width="1.5" stroke-miterlimit="22.926" stroke-linecap="round" stroke-linejoin="round"/>
<path d="M26.5742 16.5H27.4276" stroke="#BEB395" stroke-width="1.5" stroke-miterlimit="22.926" stroke-linecap="round" stroke-linejoin="round"/>
<path d="M30.8398 16.5H31.6932" stroke="#BEB395" stroke-width="1.5" stroke-miterlimit="22.926" stroke-linecap="round" stroke-linejoin="round"/>
<path d="M35.1055 16.5H35.9588" stroke="#BEB395" stroke-width="1.5" stroke-miterlimit="22.926" stroke-linecap="round" stroke-linejoin="round"/>
<path d="M39.3711 16.5H40.2245" stroke="#BEB395" stroke-width="1.5" stroke-miterlimit="22.926" stroke-linecap="round" stroke-linejoin="round"/>
</svg>
