<svg width="65" height="64" viewBox="0 0 65 64" fill="none" xmlns="http://www.w3.org/2000/svg">
<path d="M34.157 19.6821C33.8471 19.5897 33.6707 19.2639 33.7631 18.9541C34.8394 15.3372 38.1915 12.6816 42.1801 12.6816C42.5033 12.6816 42.7655 12.9438 42.7655 13.267C42.7655 13.5902 42.5033 13.8524 42.1801 13.8524C38.8372 13.8524 35.8374 16.0874 34.885 19.2877C34.7934 19.5971 34.4681 19.7748 34.157 19.682L34.157 19.6821Z" fill="#837550"/>
<path d="M50.375 41.9507H46.8628C46.5396 41.9507 46.2774 41.6886 46.2774 41.3653C46.2774 41.0421 46.5396 40.78 46.8628 40.78H50.375C55.2166 40.78 59.1558 36.8407 59.1558 31.9992C59.1558 27.1577 55.2166 23.2184 50.375 23.2184H50.2906C50.1208 23.2184 49.9594 23.1448 49.8482 23.0165C49.737 22.8881 49.6868 22.7179 49.7111 22.5498C49.7633 22.1852 49.7897 21.8189 49.7897 21.4623C49.7897 17.2664 46.3756 13.8522 42.1796 13.8522C40.5472 13.8522 38.9905 14.3624 37.6775 15.3278C37.389 15.5398 36.9793 15.4457 36.8124 15.1284C33.094 8.04776 23.3819 7.09691 18.3466 13.2564C16.2255 15.8513 15.3921 19.2269 16.0599 22.5168C16.1335 22.8802 15.8554 23.2189 15.4862 23.2189H15.2516C10.4101 23.2189 6.47087 27.1581 6.47087 31.9996C6.47087 36.8412 10.4101 40.7804 15.2516 40.7804H18.7639C19.0871 40.7804 19.3493 41.0426 19.3493 41.3658C19.3493 41.689 19.0871 41.9512 18.7639 41.9512H15.2516C9.76445 41.9512 5.30005 37.4868 5.30005 31.9996C5.30005 26.6663 9.51729 22.2994 14.7921 22.0585C14.2966 18.6453 15.2441 15.2024 17.4401 12.5155C22.8311 5.92032 33.1624 6.65955 37.5297 14.0137C38.923 13.1402 40.5173 12.6819 42.1794 12.6819C47.2631 12.6819 51.2914 17.0088 50.9389 22.064C56.1651 22.3571 60.3264 26.701 60.3264 31.9992C60.3264 37.4868 55.862 41.9508 50.3748 41.9508L50.375 41.9507Z" fill="#837550"/>
<path d="M32.7346 55.67C24.6651 55.67 18.0999 49.1049 18.0999 41.0352C18.0999 32.9656 24.665 26.4004 32.7346 26.4004C40.8043 26.4004 47.3694 32.9655 47.3694 41.0352C47.3694 49.1047 40.8043 55.67 32.7346 55.67ZM32.7346 27.5714C25.3107 27.5714 19.2709 33.6114 19.2709 41.0352C19.2709 48.4591 25.3108 54.4989 32.7346 54.4989C40.1584 54.4989 46.1984 48.459 46.1984 41.0352C46.1984 33.6113 40.1584 27.5714 32.7346 27.5714Z" fill="#837550"/>
<path d="M32.4235 46.9269C32.4235 47.2464 32.6826 47.5055 33.0021 47.5055C33.3215 47.5055 33.5806 47.2467 33.5806 46.9269V35.784C33.5806 35.4646 33.3215 35.2055 33.0021 35.2055C32.6826 35.2055 32.4235 35.4646 32.4235 35.784V46.9269Z" fill="#837550" stroke="#837550" stroke-width="0.3"/>
<path d="M33.0019 36.6043L29.9826 39.6236L33.0019 36.6043ZM33.0019 36.6043L36.0214 39.6237C36.1342 39.7365 36.2827 39.7931 36.4304 39.7931L33.0019 36.6043ZM29.1643 39.6237C29.3902 39.8496 29.7567 39.8498 29.9825 39.6237L36.4305 39.7931C36.5779 39.7931 36.7266 39.737 36.8396 39.6236C37.0656 39.3976 37.0656 39.0315 36.8396 38.8055L33.4111 35.3769C33.1851 35.151 32.8186 35.1508 32.5928 35.3769C32.5928 35.377 32.5927 35.377 32.5927 35.377L29.1643 38.8055C28.9383 39.0315 28.9383 39.3977 29.1643 39.6237Z" fill="#837550" stroke="#837550" stroke-width="0.3"/>
</svg>
