<svg xmlns="http://www.w3.org/2000/svg" width="26" height="22" viewBox="0 0 26 22" fill="none">
  <path d="M17.5934 10.6347C17.5934 12.929 15.554 14.783 13.0302 14.783C10.5065 14.783 8.46704 12.929 8.46704 10.6347C8.46704 8.34034 10.5065 6.48633 13.0302 6.48633C15.554 6.48633 17.5934 8.34034 17.5934 10.6347Z" stroke="#837550" stroke-linecap="round" stroke-linejoin="round"/>
  <path d="M13.0302 20.5898C17.3702 20.5898 21.4151 18.0873 24.2306 13.756C25.3371 12.0595 25.3371 9.20806 24.2306 7.51162C21.4151 3.18028 17.3702 0.677734 13.0302 0.677734C8.69025 0.677734 4.64534 3.18028 1.82988 7.51162C0.723372 9.20806 0.723372 12.0595 1.82988 13.756C4.64534 18.0873 8.69025 20.5898 13.0302 20.5898Z" stroke="#837550" stroke-linecap="round" stroke-linejoin="round"/>
</svg>