<svg width="43" height="43" viewBox="0 0 43 43" fill="none" xmlns="http://www.w3.org/2000/svg">
<rect width="43" height="43" rx="4" fill="#CEC6AF"/>
<path d="M23.5 14.5C23.5 13.4 22.6 12.5 21.5 12.5C20.4 12.5 19.5 13.4 19.5 14.5C19.5 15.6 20.4 16.5 21.5 16.5C22.6 16.5 23.5 15.6 23.5 14.5Z" fill="#9E8D60" stroke="#9E8D60" stroke-width="1.5"/>
<path d="M23.5 28.5C23.5 27.4 22.6 26.5 21.5 26.5C20.4 26.5 19.5 27.4 19.5 28.5C19.5 29.6 20.4 30.5 21.5 30.5C22.6 30.5 23.5 29.6 23.5 28.5Z" fill="#9E8D60" stroke="#9E8D60" stroke-width="1.5"/>
<path d="M23.5 21.5C23.5 20.4 22.6 19.5 21.5 19.5C20.4 19.5 19.5 20.4 19.5 21.5C19.5 22.6 20.4 23.5 21.5 23.5C22.6 23.5 23.5 22.6 23.5 21.5Z" fill="#9E8D60" stroke="#9E8D60" stroke-width="1.5"/>
</svg>
