<svg width="26" height="26" viewBox="0 0 26 26" fill="none" xmlns="http://www.w3.org/2000/svg">
<path d="M8.66101 1.06773H20.9322C23.1413 1.06773 24.9322 2.85859 24.9322 5.06773V16.7966" stroke="#837550" stroke-width="1.5" stroke-linecap="round"/>
<path d="M24.2116 22.2542H6.79669C5.11176 22.2542 3.74585 20.8883 3.74585 19.2033V2.27119" stroke="#837550" stroke-width="1.5" stroke-miterlimit="10" stroke-linecap="round" stroke-linejoin="round"/>
<path d="M1 3.13567L2.71798 1.44083C3.31365 0.853135 4.27955 0.853135 4.87523 1.44083L6.5932 3.13567" stroke="#837550" stroke-width="1.5" stroke-miterlimit="10" stroke-linecap="round" stroke-linejoin="round"/>
<path d="M22.8136 19.4068L24.5532 21.1248C25.149 21.7205 25.149 22.6863 24.5532 23.282L22.8136 25" stroke="#837550" stroke-width="1.5" stroke-miterlimit="10" stroke-linecap="round" stroke-linejoin="round"/>
<path d="M7.8136 11.875C7.8136 10.8922 8.61038 10.0954 9.59325 10.0954C10.5761 10.0954 11.3729 10.8922 11.3729 11.875V16.4068" stroke="#837550" stroke-width="1.5" stroke-miterlimit="10" stroke-linecap="round" stroke-linejoin="round"/>
<path d="M7.8136 16.4068V10.0509" stroke="#837550" stroke-width="1.5" stroke-miterlimit="10" stroke-linecap="round" stroke-linejoin="round"/>
<path d="M11.3729 11.875C11.3729 10.8921 12.1697 10.0953 13.1526 10.0953C14.1355 10.0953 14.9322 10.8921 14.9322 11.875V16.4012" stroke="#837550" stroke-width="1.5" stroke-miterlimit="10" stroke-linecap="round" stroke-linejoin="round"/>
<path d="M20.9322 11.3728H18.1864C18.1864 11.3728 20.8751 8.93217 20.8751 7.82278C20.8751 7.09058 20.2772 6.49149 19.5465 6.49149" stroke="#837550" stroke-width="1.5" stroke-miterlimit="10" stroke-linecap="round" stroke-linejoin="round"/>
<path d="M18.1864 7.82282C18.1864 7.09067 18.7843 6.49154 19.515 6.49154" stroke="#837550" stroke-width="1.5" stroke-miterlimit="10" stroke-linecap="round" stroke-linejoin="round"/>
</svg>
